# Blender 4.4.1
# www.blender.org
mtllib player.mtl
o 立方体
v -0.081104 0.027556 0.500000
v -0.081104 0.199771 0.500000
v -0.081104 0.027556 -0.324807
v -0.081104 0.199771 -0.324807
v 0.081104 0.027556 0.500000
v 0.081104 0.199771 0.500000
v 0.081104 0.027556 -0.324807
v 0.081104 0.199771 -0.324807
v -0.081104 0.027556 -0.125000
v 0.081104 0.027556 -0.125000
v -0.081104 -0.292061 -0.508021
v 0.081104 -0.292061 -0.508021
v -0.081104 -0.292061 -0.308214
v 0.081104 -0.292061 -0.308214
v -0.078870 -0.127348 0.012914
v -0.078870 0.046618 0.012914
v -0.078870 -0.127348 -0.233798
v -0.078870 -0.080053 -0.036380
v 0.078870 -0.127348 0.012914
v 0.078870 0.046618 0.012914
v 0.078870 -0.127348 -0.233798
v 0.078870 -0.080053 -0.036380
v -0.078870 -0.127348 -0.036140
v -0.078870 0.046618 -0.036140
v 0.078870 -0.127348 -0.036140
v 0.078870 0.046618 -0.036140
v -0.078870 -0.080105 0.012914
v -0.078870 -0.080105 -0.233798
v 0.078870 -0.080105 -0.233798
v 0.078870 -0.080105 0.012914
v 0.078870 -0.080105 -0.036140
v -0.078870 -0.080105 -0.036140
vn -0.0000 -0.0000 -1.0000
vn -1.0000 -0.0000 -0.0000
vn -0.0000 -0.0000 1.0000
vn 1.0000 -0.0000 -0.0000
vn -0.0000 -1.0000 -0.0000
vn -0.0000 0.4973 -0.8676
vn -0.0000 1.0000 -0.0000
vn -0.0000 1.0000 -0.0003
vn -0.0000 0.0019 -1.0000
vn -0.0000 -0.4973 0.8676
vt 0.625000 0.250000
vt 0.375000 0.500000
vt 0.375000 0.250000
vt 0.375000 0.156250
vt 0.625000 0.750000
vt 0.375000 1.000000
vt 0.375000 0.750000
vt 0.375000 0.593750
vt 0.125000 0.593750
vt 0.125000 0.750000
vt 0.125000 0.500000
vt 0.875000 0.750000
vt 0.625000 0.500000
vt 0.875000 0.500000
vt 0.500000 0.125000
vt 0.500000 0.250000
vt 0.500000 0.500000
vt 0.625000 0.625000
vt 0.500000 0.750000
vt 0.500000 0.625000
vt 0.500000 1.000000
vt 0.375000 0.625000
vt 0.125000 0.625000
vt 0.875000 0.625000
vt 0.625000 0.000000
vt 0.500000 0.000000
vt 0.375000 0.125000
vt 0.375000 0.000000
vt 0.625000 1.000000
vt 0.625000 0.125000
s 0
usemtl マテリアル
f 4/1/1 7/2/1 3/3/1
f 4/1/2 3/3/2 9/4/2
f 6/5/3 1/6/3 5/7/3
f 6/5/4 5/7/4 10/8/4
f 9/9/5 10/8/5 1/10/5
f 7/2/6 11/3/6 3/3/6
f 14/8/5 11/11/5 12/2/5
f 7/2/4 14/8/4 12/2/4
f 3/3/2 13/4/2 9/4/2
f 2/12/7 8/13/7 4/14/7
f 4/1/1 8/13/1 7/2/1
f 1/28/2 2/25/2 9/4/2
f 2/25/2 4/1/2 9/4/2
f 6/5/3 2/29/3 1/6/3
f 7/2/4 8/13/4 10/8/4
f 8/13/4 6/5/4 10/8/4
f 9/9/10 13/9/10 14/8/10
f 10/8/5 5/7/5 1/10/5
f 9/9/10 14/8/10 10/8/10
f 7/2/6 12/2/6 11/3/6
f 14/8/5 13/9/5 11/11/5
f 7/2/4 10/8/4 14/8/4
f 3/3/2 11/3/2 13/4/2
f 2/12/7 6/5/7 8/13/7
usemtl マテリアル.001
f 32/15/2 18/1/2 28/16/2
f 18/1/8 29/17/8 28/16/8
f 26/18/4 30/19/4 31/20/4
f 20/5/3 27/21/3 30/19/3
f 25/22/5 15/10/5 23/23/5
f 24/24/7 20/5/7 26/18/7
f 18/14/9 26/18/9 22/13/9
f 21/2/5 23/23/5 17/11/5
f 22/13/4 31/20/4 29/17/4
f 16/25/2 32/15/2 27/26/2
f 27/26/2 23/27/2 15/28/2
f 29/17/4 25/22/4 21/2/4
f 30/19/3 15/6/3 19/7/3
f 31/20/4 19/7/4 25/22/4
f 28/16/1 21/2/1 17/3/1
f 32/15/2 17/3/2 23/27/2
f 32/15/2 24/30/2 18/1/2
f 18/1/8 22/13/8 29/17/8
f 26/18/4 20/5/4 30/19/4
f 20/5/3 16/29/3 27/21/3
f 25/22/5 19/7/5 15/10/5
f 24/24/7 16/12/7 20/5/7
f 18/14/9 24/24/9 26/18/9
f 21/2/5 25/22/5 23/23/5
f 22/13/4 26/18/4 31/20/4
f 16/25/2 24/30/2 32/15/2
f 27/26/2 32/15/2 23/27/2
f 29/17/4 31/20/4 25/22/4
f 30/19/3 27/21/3 15/6/3
f 31/20/4 30/19/4 19/7/4
f 28/16/1 29/17/1 21/2/1
f 32/15/2 28/16/2 17/3/2
