# Blender 4.4.1
# www.blender.org
mtllib titleSpace.mtl
o テキスト.002
v -2.897500 -0.212000 0.000000
v -2.897458 -0.221483 0.000000
v -2.897329 -0.231366 0.000000
v -2.897110 -0.241547 0.000000
v -2.896796 -0.251926 0.000000
v -2.896386 -0.262402 0.000000
v -2.895875 -0.272875 0.000000
v -2.895260 -0.283244 0.000000
v -2.894537 -0.293407 0.000000
v -2.893703 -0.303266 0.000000
v -2.892755 -0.312718 0.000000
v -2.891688 -0.321663 0.000000
v -2.890500 -0.330000 0.000000
v -2.987500 -0.330000 0.000000
v -2.986542 -0.321338 0.000000
v -2.985667 -0.311954 0.000000
v -2.984875 -0.302000 0.000000
v -2.984167 -0.291630 0.000000
v -2.983542 -0.280995 0.000000
v -2.983001 -0.270250 0.000000
v -2.982542 -0.259546 0.000000
v -2.982167 -0.249037 0.000000
v -2.981876 -0.238875 0.000000
v -2.981667 -0.229213 0.000000
v -2.981542 -0.220204 0.000000
v -2.981500 -0.212000 0.000000
v -2.980500 0.118000 0.000000
v -3.009469 0.108606 0.000000
v -3.040584 0.098019 0.000000
v -3.073406 0.086375 0.000000
v -3.107500 0.073815 0.000000
v -3.142427 0.060477 0.000000
v -3.177750 0.046500 0.000000
v -3.213032 0.032023 0.000000
v -3.247833 0.017185 0.000000
v -3.281719 0.002125 0.000000
v -3.314250 -0.013019 0.000000
v -3.344990 -0.028106 0.000000
v -3.373500 -0.043000 0.000000
v -3.407500 0.042000 0.000000
v -3.379562 0.055616 0.000000
v -3.348579 0.069847 0.000000
v -3.315047 0.084516 0.000000
v -3.279463 0.099444 0.000000
v -3.242324 0.114457 0.000000
v -3.204125 0.129375 0.000000
v -3.165364 0.144023 0.000000
v -3.126537 0.158222 0.000000
v -3.088141 0.171797 0.000000
v -3.050672 0.184569 0.000000
v -3.014626 0.196363 0.000000
v -2.980500 0.207000 0.000000
v -2.980500 0.370000 0.000000
v -2.980581 0.377756 0.000000
v -2.980810 0.385968 0.000000
v -2.981172 0.394547 0.000000
v -2.981648 0.403407 0.000000
v -2.982222 0.412462 0.000000
v -2.982875 0.421625 0.000000
v -2.983591 0.430808 0.000000
v -2.984352 0.439926 0.000000
v -2.985141 0.448891 0.000000
v -2.985940 0.457616 0.000000
v -2.986732 0.466014 0.000000
v -2.987500 0.474000 0.000000
v -2.889500 0.474000 0.000000
v -2.890918 0.465976 0.000000
v -2.892176 0.457477 0.000000
v -2.893281 0.448609 0.000000
v -2.894241 0.439482 0.000000
v -2.895061 0.430201 0.000000
v -2.895750 0.420875 0.000000
v -2.896314 0.411612 0.000000
v -2.896759 0.402519 0.000000
v -2.897094 0.393703 0.000000
v -2.897324 0.385273 0.000000
v -2.897457 0.377336 0.000000
v -2.897500 0.370000 0.000000
v -2.897500 0.341972 0.000000
v -2.897500 0.301611 0.000000
v -2.897500 0.251500 0.000000
v -2.897500 0.194222 0.000000
v -2.897500 0.132361 0.000000
v -2.897500 0.068500 0.000000
v -2.897500 0.005222 0.000000
v -2.897500 -0.054889 0.000000
v -2.897500 -0.109250 0.000000
v -2.897500 -0.155278 0.000000
v -2.897500 -0.190389 0.000000
v -1.662500 0.133000 0.000000
v -1.662500 0.035000 0.000000
v -1.670697 0.035729 0.000000
v -1.679741 0.036412 0.000000
v -1.689563 0.037047 0.000000
v -1.700093 0.037630 0.000000
v -1.711262 0.038157 0.000000
v -1.723000 0.038625 0.000000
v -1.735238 0.039031 0.000000
v -1.747907 0.039370 0.000000
v -1.760937 0.039641 0.000000
v -1.774259 0.039838 0.000000
v -1.787803 0.039959 0.000000
v -1.801500 0.040000 0.000000
v -1.826625 0.040000 0.000000
v -1.863000 0.040000 0.000000
v -1.908375 0.040000 0.000000
v -1.960500 0.040000 0.000000
v -2.017125 0.040000 0.000000
v -2.076000 0.040000 0.000000
v -2.134875 0.040000 0.000000
v -2.191500 0.040000 0.000000
v -2.243625 0.040000 0.000000
v -2.289000 0.040000 0.000000
v -2.325375 0.040000 0.000000
v -2.350500 0.040000 0.000000
v -2.361677 0.039921 0.000000
v -2.372662 0.039699 0.000000
v -2.383391 0.039359 0.000000
v -2.393797 0.038926 0.000000
v -2.403813 0.038423 0.000000
v -2.413375 0.037875 0.000000
v -2.422416 0.037306 0.000000
v -2.430871 0.036741 0.000000
v -2.438672 0.036203 0.000000
v -2.445755 0.035718 0.000000
v -2.452053 0.035308 0.000000
v -2.457500 0.035000 0.000000
v -2.457500 0.133000 0.000000
v -2.451709 0.132482 0.000000
v -2.445333 0.131935 0.000000
v -2.438375 0.131375 0.000000
v -2.430834 0.130815 0.000000
v -2.422709 0.130269 0.000000
v -2.414000 0.129750 0.000000
v -2.404709 0.129273 0.000000
v -2.394834 0.128852 0.000000
v -2.384375 0.128500 0.000000
v -2.373334 0.128232 0.000000
v -2.361709 0.128060 0.000000
v -2.349500 0.128000 0.000000
v -2.324586 0.128000 0.000000
v -2.288352 0.128000 0.000000
v -2.243063 0.128000 0.000000
v -2.190982 0.128000 0.000000
v -2.134373 0.128000 0.000000
v -2.075500 0.128000 0.000000
v -2.016627 0.128000 0.000000
v -1.960019 0.128000 0.000000
v -1.907938 0.128000 0.000000
v -1.862648 0.128000 0.000000
v -1.826414 0.128000 0.000000
v -1.801500 0.128000 0.000000
v -1.787574 0.128060 0.000000
v -1.773843 0.128231 0.000000
v -1.760375 0.128500 0.000000
v -1.747241 0.128852 0.000000
v -1.734510 0.129273 0.000000
v -1.722250 0.129750 0.000000
v -1.710533 0.130269 0.000000
v -1.699426 0.130815 0.000000
v -1.689000 0.131375 0.000000
v -1.679324 0.131935 0.000000
v -1.670468 0.132481 0.000000
v -1.096500 0.485000 0.000000
v -1.005500 0.514000 0.000000
v -1.003801 0.507328 0.000000
v -1.001741 0.500370 0.000000
v -0.999375 0.493219 0.000000
v -0.996759 0.485963 0.000000
v -0.993949 0.478693 0.000000
v -0.991000 0.471500 0.000000
v -0.987968 0.464473 0.000000
v -0.984908 0.457704 0.000000
v -0.981875 0.451281 0.000000
v -0.978926 0.445296 0.000000
v -0.976116 0.439839 0.000000
v -0.973500 0.435000 0.000000
v -0.960596 0.411080 0.000000
v -0.945347 0.385056 0.000000
v -0.927703 0.357281 0.000000
v -0.907611 0.328111 0.000000
v -0.885019 0.297899 0.000000
v -0.859875 0.267000 0.000000
v -0.832127 0.235767 0.000000
v -0.801722 0.204556 0.000000
v -0.768610 0.173719 0.000000
v -0.732736 0.143611 0.000000
v -0.694051 0.114587 0.000000
v -0.652500 0.087000 0.000000
v -0.719500 0.035000 0.000000
v -0.747020 0.054671 0.000000
v -0.773574 0.075116 0.000000
v -0.799156 0.096234 0.000000
v -0.823759 0.117926 0.000000
v -0.847376 0.140090 0.000000
v -0.870000 0.162625 0.000000
v -0.891624 0.185431 0.000000
v -0.912241 0.208407 0.000000
v -0.931844 0.231453 0.000000
v -0.950426 0.254468 0.000000
v -0.967981 0.277350 0.000000
v -0.984500 0.300000 0.000000
v -1.322500 0.300000 0.000000
v -1.316864 0.278986 0.000000
v -1.309996 0.257051 0.000000
v -1.301953 0.234359 0.000000
v -1.292797 0.211074 0.000000
v -1.282584 0.187358 0.000000
v -1.271375 0.163375 0.000000
v -1.259229 0.139288 0.000000
v -1.246204 0.115259 0.000000
v -1.232360 0.091453 0.000000
v -1.217755 0.068032 0.000000
v -1.202449 0.045160 0.000000
v -1.186500 0.023000 0.000000
v -1.168904 0.035224 0.000000
v -1.151148 0.047375 0.000000
v -1.133281 0.059422 0.000000
v -1.115352 0.071333 0.000000
v -1.097409 0.083078 0.000000
v -1.079500 0.094625 0.000000
v -1.061675 0.105943 0.000000
v -1.043982 0.117000 0.000000
v -1.026469 0.127766 0.000000
v -1.009185 0.138208 0.000000
v -0.992180 0.148297 0.000000
v -0.975500 0.158000 0.000000
v -0.921500 0.103000 0.000000
v -0.937741 0.092757 0.000000
v -0.954426 0.082056 0.000000
v -0.971500 0.070938 0.000000
v -0.988908 0.059444 0.000000
v -1.006593 0.047618 0.000000
v -1.024500 0.035500 0.000000
v -1.042574 0.023132 0.000000
v -1.060759 0.010556 0.000000
v -1.079000 -0.002187 0.000000
v -1.097241 -0.015056 0.000000
v -1.115426 -0.028007 0.000000
v -1.133500 -0.041000 0.000000
v -1.110207 -0.065126 0.000000
v -1.085320 -0.088921 0.000000
v -1.058828 -0.112266 0.000000
v -1.030722 -0.135037 0.000000
v -1.000992 -0.157114 0.000000
v -0.969625 -0.178375 0.000000
v -0.936613 -0.198699 0.000000
v -0.901945 -0.217963 0.000000
v -0.865610 -0.236047 0.000000
v -0.827597 -0.252829 0.000000
v -0.787898 -0.268187 0.000000
v -0.746500 -0.282000 0.000000
v -0.818500 -0.344000 0.000000
v -0.859799 -0.327659 0.000000
v -0.899222 -0.310185 0.000000
v -0.936813 -0.291656 0.000000
v -0.972611 -0.272148 0.000000
v -1.006660 -0.251737 0.000000
v -1.039000 -0.230500 0.000000
v -1.069674 -0.208513 0.000000
v -1.098722 -0.185852 0.000000
v -1.126188 -0.162594 0.000000
v -1.152111 -0.138815 0.000000
v -1.176535 -0.114591 0.000000
v -1.199500 -0.090000 0.000000
v -1.209685 -0.098207 0.000000
v -1.219727 -0.106324 0.000000
v -1.229610 -0.114344 0.000000
v -1.239315 -0.122259 0.000000
v -1.248826 -0.130064 0.000000
v -1.258125 -0.137750 0.000000
v -1.267195 -0.145311 0.000000
v -1.276019 -0.152741 0.000000
v -1.284578 -0.160031 0.000000
v -1.292857 -0.167176 0.000000
v -1.300836 -0.174168 0.000000
v -1.308500 -0.181000 0.000000
v -1.367500 -0.112000 0.000000
v -1.359337 -0.105399 0.000000
v -1.350861 -0.098606 0.000000
v -1.342094 -0.091641 0.000000
v -1.333056 -0.084519 0.000000
v -1.323768 -0.077258 0.000000
v -1.314250 -0.069875 0.000000
v -1.304525 -0.062388 0.000000
v -1.294611 -0.054815 0.000000
v -1.284531 -0.047172 0.000000
v -1.274306 -0.039477 0.000000
v -1.263955 -0.031747 0.000000
v -1.253500 -0.024000 0.000000
v -1.272038 0.001789 0.000000
v -1.289639 0.028065 0.000000
v -1.306281 0.054688 0.000000
v -1.321945 0.081519 0.000000
v -1.336608 0.108419 0.000000
v -1.350250 0.135250 0.000000
v -1.362851 0.161873 0.000000
v -1.374389 0.188148 0.000000
v -1.384844 0.213937 0.000000
v -1.394194 0.239102 0.000000
v -1.402420 0.263502 0.000000
v -1.409500 0.287000 0.000000
v -1.411061 0.291156 0.000000
v -1.412736 0.295583 0.000000
v -1.414516 0.300219 0.000000
v -1.416389 0.305000 0.000000
v -1.418346 0.309865 0.000000
v -1.420375 0.314750 0.000000
v -1.422467 0.319594 0.000000
v -1.424611 0.324333 0.000000
v -1.426797 0.328906 0.000000
v -1.429014 0.333250 0.000000
v -1.431252 0.337302 0.000000
v -1.433500 0.341000 0.000000
v -1.367500 0.381000 0.000000
v -1.363146 0.379333 0.000000
v -1.358583 0.377829 0.000000
v -1.353813 0.376484 0.000000
v -1.348833 0.375296 0.000000
v -1.343646 0.374261 0.000000
v -1.338250 0.373375 0.000000
v -1.332646 0.372635 0.000000
v -1.326833 0.372037 0.000000
v -1.320813 0.371578 0.000000
v -1.314583 0.371255 0.000000
v -1.308146 0.371063 0.000000
v -1.301500 0.371000 0.000000
v -1.030500 0.371000 0.000000
v -1.051500 0.407000 0.000000
v -1.054162 0.411819 0.000000
v -1.057125 0.417222 0.000000
v -1.060360 0.423125 0.000000
v -1.063834 0.429444 0.000000
v -1.067516 0.436097 0.000000
v -1.071375 0.443000 0.000000
v -1.075380 0.450069 0.000000
v -1.079500 0.457222 0.000000
v -1.083703 0.464375 0.000000
v -1.087958 0.471444 0.000000
v -1.092234 0.478347 0.000000
v -0.360500 0.369000 0.000000
v -0.309500 0.408000 0.000000
v -0.305294 0.406792 0.000000
v -0.300681 0.405671 0.000000
v -0.295672 0.404641 0.000000
v -0.290278 0.403704 0.000000
v -0.284509 0.402864 0.000000
v -0.278375 0.402125 0.000000
v -0.271887 0.401490 0.000000
v -0.265056 0.400963 0.000000
v -0.257891 0.400547 0.000000
v -0.250403 0.400245 0.000000
v -0.242603 0.400062 0.000000
v -0.234500 0.400000 0.000000
v -0.219897 0.400000 0.000000
v -0.195838 0.400000 -0.000000
v -0.164203 0.400000 -0.000000
v -0.126871 0.400000 -0.000000
v -0.085718 0.400000 -0.000000
v -0.042625 0.400000 -0.000000
v 0.000531 0.400000 -0.000000
v 0.041870 0.400000 -0.000000
v 0.079516 0.400000 -0.000000
v 0.111588 0.400000 -0.000000
v 0.136209 0.400000 -0.000000
v 0.151500 0.400000 -0.000000
v 0.159522 0.400080 -0.000000
v 0.168426 0.400306 -0.000000
v 0.177969 0.400656 -0.000000
v 0.187907 0.401111 -0.000000
v 0.197999 0.401649 -0.000000
v 0.208000 0.402250 -0.000000
v 0.217668 0.402892 -0.000000
v 0.226759 0.403556 -0.000000
v 0.235031 0.404219 -0.000000
v 0.242241 0.404861 -0.000000
v 0.248145 0.405462 -0.000000
v 0.252500 0.406000 -0.000000
v 0.252500 0.315000 -0.000000
v 0.248870 0.315308 -0.000000
v 0.243629 0.315718 -0.000000
v 0.237000 0.316203 -0.000000
v 0.229204 0.316741 -0.000000
v 0.220463 0.317306 -0.000000
v 0.211000 0.317875 -0.000000
v 0.201037 0.318423 -0.000000
v 0.190796 0.318926 -0.000000
v 0.180500 0.319359 -0.000000
v 0.170370 0.319699 -0.000000
v 0.160629 0.319921 -0.000000
v 0.151500 0.320000 -0.000000
v 0.137161 0.320000 -0.000000
v 0.112958 0.320000 -0.000000
v 0.080859 0.320000 -0.000000
v 0.042833 0.320000 -0.000000
v 0.000849 0.320000 -0.000000
v -0.043125 0.320000 -0.000000
v -0.087120 0.320000 -0.000000
v -0.129167 0.320000 -0.000000
v -0.167297 0.320000 0.000000
v -0.199542 0.320000 0.000000
v -0.223932 0.320000 0.000000
v -0.238500 0.320000 0.000000
v -0.231281 0.298565 0.000000
v -0.222246 0.275935 0.000000
v -0.211578 0.252375 0.000000
v -0.199463 0.228148 0.000000
v -0.186084 0.203519 0.000000
v -0.171625 0.178750 0.000000
v -0.156270 0.154106 0.000000
v -0.140204 0.129852 0.000000
v -0.123610 0.106250 0.000000
v -0.106671 0.083565 0.000000
v -0.089574 0.062060 0.000000
v -0.072500 0.042000 0.000000
v -0.045831 0.013201 0.000000
v -0.017398 -0.015556 0.000000
v 0.012687 -0.044062 0.000000
v 0.044315 -0.072111 -0.000000
v 0.077373 -0.099493 -0.000000
v 0.111750 -0.126000 -0.000000
v 0.147335 -0.151424 -0.000000
v 0.184018 -0.175556 -0.000000
v 0.221687 -0.198187 -0.000000
v 0.260231 -0.219111 -0.000000
v 0.299539 -0.238118 -0.000000
v 0.339500 -0.255000 -0.000000
v 0.275500 -0.322000 -0.000000
v 0.238779 -0.304376 -0.000000
v 0.202653 -0.285093 -0.000000
v 0.167172 -0.264281 -0.000000
v 0.132389 -0.242074 -0.000000
v 0.098356 -0.218603 0.000000
v 0.065125 -0.194000 0.000000
v 0.032748 -0.168397 0.000000
v 0.001278 -0.141926 0.000000
v -0.029235 -0.114719 0.000000
v -0.058736 -0.086907 0.000000
v -0.087175 -0.058624 0.000000
v -0.114500 -0.030000 0.000000
v -0.140059 -0.053260 0.000000
v -0.165634 -0.077417 0.000000
v -0.191078 -0.102281 0.000000
v -0.216241 -0.127667 0.000000
v -0.240973 -0.153385 0.000000
v -0.265125 -0.179250 0.000000
v -0.288548 -0.205073 0.000000
v -0.311093 -0.230667 0.000000
v -0.332610 -0.255844 0.000000
v -0.352949 -0.280417 0.000000
v -0.371963 -0.304198 0.000000
v -0.389500 -0.327000 0.000000
v -0.459500 -0.267000 0.000000
v -0.442106 -0.246240 0.000000
v -0.422593 -0.223671 0.000000
v -0.401219 -0.199609 0.000000
v -0.378241 -0.174370 0.000000
v -0.353916 -0.148270 0.000000
v -0.328500 -0.121625 0.000000
v -0.302251 -0.094751 0.000000
v -0.275426 -0.067963 0.000000
v -0.248281 -0.041578 0.000000
v -0.221074 -0.015912 0.000000
v -0.194062 0.008719 0.000000
v -0.167500 0.032000 0.000000
v -0.185071 0.055029 0.000000
v -0.202236 0.078981 0.000000
v -0.218922 0.103656 0.000000
v -0.235056 0.128852 0.000000
v -0.250564 0.154367 0.000000
v -0.265375 0.180000 0.000000
v -0.279415 0.205550 0.000000
v -0.292611 0.230815 0.000000
v -0.304891 0.255594 0.000000
v -0.316181 0.279685 0.000000
v -0.326408 0.302888 0.000000
v -0.335500 0.325000 0.000000
v -0.337138 0.328654 0.000000
v -0.339019 0.332565 0.000000
v -0.341094 0.336656 0.000000
v -0.343315 0.340852 0.000000
v -0.345633 0.345075 0.000000
v -0.348000 0.349250 0.000000
v -0.350367 0.353300 0.000000
v -0.352685 0.357148 0.000000
v -0.354906 0.360719 0.000000
v -0.356982 0.363935 0.000000
v -0.358862 0.366721 0.000000
v 0.755500 0.382000 -0.000000
v 1.142500 0.382000 -0.000000
v 1.142500 -0.300000 -0.000000
v 0.746500 -0.300000 -0.000000
v 0.746500 -0.212000 -0.000000
v 1.044500 -0.212000 -0.000000
v 1.044500 0.000000 -0.000000
v 0.765500 0.000000 -0.000000
v 0.765500 0.088000 -0.000000
v 1.044500 0.088000 -0.000000
v 1.044500 0.294000 -0.000000
v 0.755500 0.294000 -0.000000
v 1.269500 0.335000 -0.000000
v 1.292304 0.344295 -0.000000
v 1.314264 0.352690 -0.000000
v 1.335453 0.360203 -0.000000
v 1.355944 0.366852 -0.000000
v 1.375811 0.372653 -0.000000
v 1.395125 0.377625 -0.000000
v 1.413960 0.381784 -0.000000
v 1.432389 0.385148 -0.000000
v 1.450484 0.387734 -0.000000
v 1.468319 0.389560 -0.000000
v 1.485967 0.390643 -0.000000
v 1.503500 0.391000 -0.000000
v 1.556444 0.387889 -0.000000
v 1.606551 0.378778 -0.000000
v 1.653484 0.364000 -0.000000
v 1.696907 0.343889 -0.000000
v 1.736483 0.318778 -0.000000
v 1.771875 0.289000 -0.000000
v 1.802746 0.254889 -0.000000
v 1.828759 0.216778 -0.000000
v 1.849578 0.175000 -0.000000
v 1.864866 0.129889 -0.000000
v 1.874285 0.081778 -0.000000
v 1.877500 0.031000 -0.000000
v 1.875148 -0.005730 -0.000000
v 1.868019 -0.043838 -0.000000
v 1.856000 -0.082453 -0.000000
v 1.838981 -0.120704 -0.000000
v 1.816852 -0.157718 -0.000000
v 1.789500 -0.192625 -0.000000
v 1.756815 -0.224553 -0.000000
v 1.718685 -0.252630 -0.000000
v 1.675000 -0.275984 -0.000000
v 1.625648 -0.293745 -0.000000
v 1.570518 -0.305041 -0.000000
v 1.509500 -0.309000 -0.000000
v 1.483442 -0.308488 -0.000000
v 1.458704 -0.306986 -0.000000
v 1.435188 -0.304547 -0.000000
v 1.412796 -0.301222 -0.000000
v 1.391433 -0.297064 -0.000000
v 1.371000 -0.292125 -0.000000
v 1.351401 -0.286457 -0.000000
v 1.332537 -0.280111 -0.000000
v 1.314313 -0.273141 -0.000000
v 1.296630 -0.265597 -0.000000
v 1.279391 -0.257533 -0.000000
v 1.262500 -0.249000 -0.000000
v 1.262500 -0.142000 -0.000000
v 1.281888 -0.154019 -0.000000
v 1.301519 -0.165065 -0.000000
v 1.321344 -0.175125 -0.000000
v 1.341315 -0.184185 -0.000000
v 1.361383 -0.192231 -0.000000
v 1.381500 -0.199250 -0.000000
v 1.401617 -0.205227 -0.000000
v 1.421685 -0.210148 -0.000000
v 1.441656 -0.214000 -0.000000
v 1.461481 -0.216769 -0.000000
v 1.481112 -0.218440 -0.000000
v 1.500500 -0.219000 -0.000000
v 1.540382 -0.216826 -0.000000
v 1.577889 -0.210440 -0.000000
v 1.612813 -0.200047 -0.000000
v 1.644944 -0.185852 -0.000000
v 1.674076 -0.168060 -0.000000
v 1.700000 -0.146875 -0.000000
v 1.722507 -0.122503 -0.000000
v 1.741389 -0.095148 -0.000000
v 1.756437 -0.065016 -0.000000
v 1.767444 -0.032310 -0.000000
v 1.774201 0.002763 -0.000000
v 1.776500 0.040000 -0.000000
v 1.774127 0.076646 -0.000000
v 1.767185 0.111417 -0.000000
v 1.755937 0.144062 -0.000000
v 1.740648 0.174333 -0.000000
v 1.721581 0.201979 -0.000000
v 1.699000 0.226750 -0.000000
v 1.673169 0.248396 -0.000000
v 1.644352 0.266667 -0.000000
v 1.612813 0.281312 -0.000000
v 1.578815 0.292083 -0.000000
v 1.542623 0.298729 -0.000000
v 1.504500 0.301000 -0.000000
v 1.484885 0.300539 -0.000000
v 1.465495 0.299144 -0.000000
v 1.446266 0.296797 -0.000000
v 1.427130 0.293481 -0.000000
v 1.408021 0.289180 -0.000000
v 1.388875 0.283875 -0.000000
v 1.369624 0.277549 -0.000000
v 1.350204 0.270185 -0.000000
v 1.330547 0.261766 -0.000000
v 1.310588 0.252273 -0.000000
v 1.290261 0.241690 -0.000000
v 1.269500 0.230000 -0.000000
v 2.230500 0.386000 -0.000000
v 2.299500 0.386000 -0.000000
v 2.592500 -0.300000 -0.000000
v 2.492500 -0.300000 -0.000000
v 2.406500 -0.099000 -0.000000
v 2.116500 -0.099000 -0.000000
v 2.025500 -0.300000 -0.000000
v 1.925500 -0.300000 -0.000000
v 2.266500 0.236000 -0.000000
v 2.156500 -0.011000 -0.000000
v 2.368500 -0.011000 -0.000000
v 3.032500 0.382000 -0.000000
v 3.032500 -0.300000 -0.000000
v 2.934500 -0.300000 -0.000000
v 2.934500 -0.005000 -0.000000
v 2.832500 -0.005000 -0.000000
v 2.794784 -0.003285 -0.000000
v 2.760602 0.001718 -0.000000
v 2.729906 0.009797 -0.000000
v 2.702648 0.020741 -0.000000
v 2.678779 0.034337 -0.000000
v 2.658250 0.050375 -0.000000
v 2.641013 0.068642 -0.000000
v 2.627018 0.088926 -0.000000
v 2.616219 0.111016 -0.000000
v 2.608565 0.134699 -0.000000
v 2.604008 0.159765 -0.000000
v 2.602500 0.186000 -0.000000
v 2.603924 0.212544 -0.000000
v 2.608227 0.238019 -0.000000
v 2.615453 0.262188 -0.000000
v 2.625648 0.284815 -0.000000
v 2.638857 0.305664 -0.000000
v 2.655125 0.324500 -0.000000
v 2.674497 0.341086 -0.000000
v 2.697019 0.355185 -0.000000
v 2.722735 0.366563 -0.000000
v 2.751690 0.374981 -0.000000
v 2.783930 0.380206 -0.000000
v 2.819500 0.382000 -0.000000
v 2.934500 0.294000 -0.000000
v 2.819500 0.294000 -0.000000
v 2.798522 0.292909 -0.000000
v 2.780005 0.289769 -0.000000
v 2.763828 0.284781 -0.000000
v 2.749871 0.278148 -0.000000
v 2.738010 0.270071 -0.000000
v 2.728125 0.260750 -0.000000
v 2.720094 0.250388 -0.000000
v 2.713796 0.239185 -0.000000
v 2.709110 0.227344 -0.000000
v 2.705912 0.215065 -0.000000
v 2.704083 0.202550 -0.000000
v 2.703500 0.190000 -0.000000
v 2.704467 0.173610 -0.000000
v 2.707320 0.158463 -0.000000
v 2.711985 0.144594 -0.000000
v 2.718389 0.132037 -0.000000
v 2.726460 0.120828 -0.000000
v 2.736125 0.111000 -0.000000
v 2.747311 0.102589 -0.000000
v 2.759944 0.095630 -0.000000
v 2.773953 0.090156 -0.000000
v 2.789264 0.086204 -0.000000
v 2.805804 0.083807 -0.000000
v 2.823500 0.083000 -0.000000
v 2.934500 0.083000 -0.000000
v 3.161500 0.343000 -0.000000
v 3.173581 0.350667 -0.000000
v 3.185815 0.357667 -0.000000
v 3.198188 0.364000 -0.000000
v 3.210685 0.369667 -0.000000
v 3.223294 0.374667 -0.000000
v 3.236000 0.379000 -0.000000
v 3.248789 0.382667 -0.000000
v 3.261648 0.385667 -0.000000
v 3.274563 0.388000 -0.000000
v 3.287519 0.389667 -0.000000
v 3.300503 0.390667 -0.000000
v 3.313500 0.391000 -0.000000
v 3.343832 0.389539 -0.000000
v 3.372236 0.385227 -0.000000
v 3.398578 0.378172 -0.000000
v 3.422722 0.368481 -0.000000
v 3.444533 0.356263 -0.000000
v 3.463875 0.341625 -0.000000
v 3.480613 0.324674 -0.000000
v 3.494611 0.305519 -0.000000
v 3.505734 0.284266 -0.000000
v 3.513847 0.261023 -0.000000
v 3.518814 0.235899 -0.000000
v 3.520500 0.209000 -0.000000
v 3.514696 0.165641 -0.000000
v 3.498648 0.128380 -0.000000
v 3.474406 0.096188 -0.000000
v 3.444019 0.068037 -0.000000
v 3.409534 0.042900 -0.000000
v 3.373000 0.019750 -0.000000
v 3.336467 -0.002442 -0.000000
v 3.301982 -0.024704 -0.000000
v 3.271594 -0.048063 -0.000000
v 3.247352 -0.073546 -0.000000
v 3.231305 -0.102183 -0.000000
v 3.225500 -0.135000 -0.000000
v 3.226233 -0.144675 -0.000000
v 3.228445 -0.154565 -0.000000
v 3.232156 -0.164469 -0.000000
v 3.237389 -0.174185 -0.000000
v 3.244163 -0.183513 -0.000000
v 3.252500 -0.192250 -0.000000
v 3.262420 -0.200196 -0.000000
v 3.273944 -0.207148 -0.000000
v 3.287094 -0.212906 -0.000000
v 3.301889 -0.217269 -0.000000
v 3.318351 -0.220034 -0.000000
v 3.336500 -0.221000 -0.000000
v 3.353162 -0.220274 -0.000000
v 3.369625 -0.218111 -0.000000
v 3.385859 -0.214531 -0.000000
v 3.401834 -0.209556 -0.000000
v 3.417516 -0.203205 -0.000000
v 3.432875 -0.195500 -0.000000
v 3.447880 -0.186462 -0.000000
v 3.462500 -0.176111 -0.000000
v 3.476703 -0.164469 -0.000000
v 3.490458 -0.151556 -0.000000
v 3.503735 -0.137392 -0.000000
v 3.516500 -0.122000 -0.000000
v 3.516500 -0.246000 -0.000000
v 3.502181 -0.256273 -0.000000
v 3.487699 -0.265597 -0.000000
v 3.473016 -0.273984 -0.000000
v 3.458093 -0.281444 -0.000000
v 3.442892 -0.287988 -0.000000
v 3.427375 -0.293625 -0.000000
v 3.411504 -0.298366 -0.000000
v 3.395241 -0.302222 -0.000000
v 3.378547 -0.305203 -0.000000
v 3.361384 -0.307319 -0.000000
v 3.343715 -0.308582 -0.000000
v 3.325500 -0.309000 -0.000000
v 3.298634 -0.307403 -0.000000
v 3.273157 -0.302727 -0.000000
v 3.249250 -0.295141 -0.000000
v 3.227093 -0.284815 -0.000000
v 3.206866 -0.271920 -0.000000
v 3.188750 -0.256625 -0.000000
v 3.172926 -0.239101 -0.000000
v 3.159574 -0.219519 -0.000000
v 3.148875 -0.198047 -0.000000
v 3.141009 -0.174856 -0.000000
v 3.136157 -0.150117 -0.000000
v 3.134500 -0.124000 -0.000000
v 3.140304 -0.074109 -0.000000
v 3.156352 -0.032120 -0.000000
v 3.180594 0.003187 -0.000000
v 3.210981 0.033037 -0.000000
v 3.245466 0.058650 -0.000000
v 3.282000 0.081250 -0.000000
v 3.318533 0.102058 -0.000000
v 3.353018 0.122296 -0.000000
v 3.383406 0.143188 -0.000000
v 3.407648 0.165954 -0.000000
v 3.423695 0.191817 -0.000000
v 3.429500 0.222000 -0.000000
v 3.428578 0.233677 -0.000000
v 3.425875 0.244667 -0.000000
v 3.421484 0.254906 -0.000000
v 3.415500 0.264333 -0.000000
v 3.408015 0.272885 -0.000000
v 3.399125 0.280500 -0.000000
v 3.388922 0.287115 -0.000000
v 3.377500 0.292667 -0.000000
v 3.364953 0.297094 -0.000000
v 3.351375 0.300333 -0.000000
v 3.336859 0.302323 -0.000000
v 3.321500 0.303000 -0.000000
v 3.309796 0.302653 -0.000000
v 3.297704 0.301560 -0.000000
v 3.285250 0.299641 -0.000000
v 3.272463 0.296815 -0.000000
v 3.259370 0.293003 -0.000000
v 3.246000 0.288125 -0.000000
v 3.232380 0.282101 -0.000000
v 3.218537 0.274852 -0.000000
v 3.204500 0.266297 -0.000000
v 3.190296 0.256356 -0.000000
v 3.175954 0.244951 -0.000000
v 3.161500 0.232000 -0.000000
vn -0.0000 -0.0000 -1.0000
vn -0.0000 -0.0000 1.0000
vt 0.750000 0.000000
vt 0.727273 0.000000
vt 0.738636 0.000000
vt 0.715909 0.000000
vt 0.704545 0.000000
vt 0.761364 0.000000
vt 0.693182 0.000000
vt 0.772727 0.000000
vt 0.681818 0.000000
vt 0.784091 0.000000
vt 0.670455 0.000000
vt 0.795455 0.000000
vt 0.659091 0.000000
vt 0.806818 0.000000
vt 0.647727 0.000000
vt 0.818182 0.000000
vt 0.636364 0.000000
vt 0.829545 0.000000
vt 0.625000 0.000000
vt 0.840909 0.000000
vt 0.613636 0.000000
vt 0.852273 0.000000
vt 0.602273 0.000000
vt 0.863636 0.000000
vt 0.590909 0.000000
vt 0.875000 0.000000
vt 0.886364 0.000000
vt 0.579545 0.000000
vt 0.897727 0.000000
vt 0.909091 0.000000
vt 0.920455 0.000000
vt 0.568182 0.000000
vt 0.556818 0.000000
vt 0.931818 0.000000
vt 0.545455 0.000000
vt 0.534091 0.000000
vt 0.522727 0.000000
vt 0.511364 0.000000
vt 0.943182 0.000000
vt 0.295455 0.000000
vt 0.500000 0.000000
vt 0.284091 0.000000
vt 0.306818 0.000000
vt 0.488636 0.000000
vt 0.318182 0.000000
vt 0.477273 0.000000
vt 0.329545 0.000000
vt 0.340909 0.000000
vt 0.465909 0.000000
vt 0.352273 0.000000
vt 0.454545 0.000000
vt 0.954545 0.000000
vt 0.363636 0.000000
vt 0.443182 0.000000
vt 0.375000 0.000000
vt 0.386364 0.000000
vt 0.397727 0.000000
vt 0.409091 0.000000
vt 0.420455 0.000000
vt 0.431818 0.000000
vt 0.965909 0.000000
vt 0.977273 0.000000
vt 0.988636 0.000000
vt 1.000000 0.000000
vt 0.000000 0.000000
vt 0.011364 0.000000
vt 0.272727 0.000000
vt 0.261364 0.000000
vt 0.022727 0.000000
vt 0.250000 0.000000
vt 0.034091 0.000000
vt 0.238636 0.000000
vt 0.045455 0.000000
vt 0.227273 0.000000
vt 0.056818 0.000000
vt 0.215909 0.000000
vt 0.068182 0.000000
vt 0.204545 0.000000
vt 0.079545 0.000000
vt 0.193182 0.000000
vt 0.090909 0.000000
vt 0.181818 0.000000
vt 0.102273 0.000000
vt 0.170455 0.000000
vt 0.113636 0.000000
vt 0.159091 0.000000
vt 0.125000 0.000000
vt 0.147727 0.000000
vt 0.136364 0.000000
vt 0.013699 0.000000
vt 0.534247 0.000000
vt 0.506849 0.000000
vt 0.520548 0.000000
vt 0.547945 0.000000
vt 0.986301 0.000000
vt 0.561644 0.000000
vt 0.972603 0.000000
vt 0.575342 0.000000
vt 0.958904 0.000000
vt 0.589041 0.000000
vt 0.945205 0.000000
vt 0.602740 0.000000
vt 0.931507 0.000000
vt 0.616438 0.000000
vt 0.917808 0.000000
vt 0.630137 0.000000
vt 0.904110 0.000000
vt 0.643836 0.000000
vt 0.890411 0.000000
vt 0.657534 0.000000
vt 0.876712 0.000000
vt 0.671233 0.000000
vt 0.863014 0.000000
vt 0.684932 0.000000
vt 0.849315 0.000000
vt 0.835616 0.000000
vt 0.821918 0.000000
vt 0.808219 0.000000
vt 0.794521 0.000000
vt 0.780822 0.000000
vt 0.767123 0.000000
vt 0.753425 0.000000
vt 0.739726 0.000000
vt 0.726027 0.000000
vt 0.712329 0.000000
vt 0.698630 0.000000
vt 0.027397 0.000000
vt 0.041096 0.000000
vt 0.054795 0.000000
vt 0.068493 0.000000
vt 0.082192 0.000000
vt 0.095890 0.000000
vt 0.109589 0.000000
vt 0.123288 0.000000
vt 0.136986 0.000000
vt 0.150685 0.000000
vt 0.164384 0.000000
vt 0.178082 0.000000
vt 0.191781 0.000000
vt 0.205479 0.000000
vt 0.219178 0.000000
vt 0.246575 0.000000
vt 0.287671 0.000000
vt 0.328767 0.000000
vt 0.342466 0.000000
vt 0.356164 0.000000
vt 0.369863 0.000000
vt 0.383562 0.000000
vt 0.397260 0.000000
vt 0.410959 0.000000
vt 0.424658 0.000000
vt 0.438356 0.000000
vt 0.232877 0.000000
vt 0.260274 0.000000
vt 0.273973 0.000000
vt 0.301370 0.000000
vt 0.315068 0.000000
vt 0.452055 0.000000
vt 0.465753 0.000000
vt 0.479452 0.000000
vt 0.493151 0.000000
vt 0.005682 0.000000
vt 0.017045 0.000000
vt 0.028409 0.000000
vt 0.039773 0.000000
vt 0.994318 0.000000
vt 0.051136 0.000000
vt 0.982955 0.000000
vt 0.062500 0.000000
vt 0.971591 0.000000
vt 0.073864 0.000000
vt 0.960227 0.000000
vt 0.948864 0.000000
vt 0.937500 0.000000
vt 0.085227 0.000000
vt 0.857955 0.000000
vt 0.869318 0.000000
vt 0.880682 0.000000
vt 0.892045 0.000000
vt 0.903409 0.000000
vt 0.914773 0.000000
vt 0.926136 0.000000
vt 0.096591 0.000000
vt 0.846591 0.000000
vt 0.835227 0.000000
vt 0.823864 0.000000
vt 0.812500 0.000000
vt 0.801136 0.000000
vt 0.221591 0.000000
vt 0.210227 0.000000
vt 0.107955 0.000000
vt 0.789773 0.000000
vt 0.778409 0.000000
vt 0.232955 0.000000
vt 0.198864 0.000000
vt 0.767045 0.000000
vt 0.119318 0.000000
vt 0.244318 0.000000
vt 0.187500 0.000000
vt 0.755682 0.000000
vt 0.255682 0.000000
vt 0.130682 0.000000
vt 0.176136 0.000000
vt 0.357955 0.000000
vt 0.346591 0.000000
vt 0.267045 0.000000
vt 0.744318 0.000000
vt 0.335227 0.000000
vt 0.164773 0.000000
vt 0.142045 0.000000
vt 0.323864 0.000000
vt 0.369318 0.000000
vt 0.278409 0.000000
vt 0.312500 0.000000
vt 0.380682 0.000000
vt 0.732955 0.000000
vt 0.153409 0.000000
vt 0.392045 0.000000
vt 0.301136 0.000000
vt 0.289773 0.000000
vt 0.403409 0.000000
vt 0.721591 0.000000
vt 0.414773 0.000000
vt 0.426136 0.000000
vt 0.710227 0.000000
vt 0.698864 0.000000
vt 0.437500 0.000000
vt 0.687500 0.000000
vt 0.676136 0.000000
vt 0.573864 0.000000
vt 0.664773 0.000000
vt 0.448864 0.000000
vt 0.585227 0.000000
vt 0.653409 0.000000
vt 0.596591 0.000000
vt 0.607955 0.000000
vt 0.619318 0.000000
vt 0.630682 0.000000
vt 0.642045 0.000000
vt 0.562500 0.000000
vt 0.460227 0.000000
vt 0.551136 0.000000
vt 0.471591 0.000000
vt 0.539773 0.000000
vt 0.482955 0.000000
vt 0.528409 0.000000
vt 0.494318 0.000000
vt 0.505682 0.000000
vt 0.517045 0.000000
vt 0.013605 0.000000
vt 0.006803 0.000000
vt 0.020408 0.000000
vt 0.258503 0.000000
vt 0.244898 0.000000
vt 0.251701 0.000000
vt 0.027211 0.000000
vt 0.238095 0.000000
vt 0.231293 0.000000
vt 0.034014 0.000000
vt 0.224490 0.000000
vt 0.040816 0.000000
vt 0.217687 0.000000
vt 0.210884 0.000000
vt 0.047619 0.000000
vt 0.204082 0.000000
vt 0.054422 0.000000
vt 0.197279 0.000000
vt 0.061224 0.000000
vt 0.190476 0.000000
vt 0.068027 0.000000
vt 0.183673 0.000000
vt 0.074830 0.000000
vt 0.176871 0.000000
vt 0.081633 0.000000
vt 0.170068 0.000000
vt 0.088435 0.000000
vt 0.163265 0.000000
vt 0.156463 0.000000
vt 0.149660 0.000000
vt 0.142857 0.000000
vt 0.136054 0.000000
vt 0.129252 0.000000
vt 0.122449 0.000000
vt 0.115646 0.000000
vt 0.108844 0.000000
vt 0.102041 0.000000
vt 0.095238 0.000000
vt 0.265306 0.000000
vt 0.993197 0.000000
vt 0.272109 0.000000
vt 0.986395 0.000000
vt 0.278912 0.000000
vt 0.979592 0.000000
vt 0.285714 0.000000
vt 0.292517 0.000000
vt 0.972789 0.000000
vt 0.299320 0.000000
vt 0.965986 0.000000
vt 0.306122 0.000000
vt 0.312925 0.000000
vt 0.959184 0.000000
vt 0.319728 0.000000
vt 0.952381 0.000000
vt 0.326531 0.000000
vt 0.945578 0.000000
vt 0.938776 0.000000
vt 0.333333 0.000000
vt 0.931973 0.000000
vt 0.925170 0.000000
vt 0.340136 0.000000
vt 0.346939 0.000000
vt 0.353741 0.000000
vt 0.360544 0.000000
vt 0.367347 0.000000
vt 0.374150 0.000000
vt 0.387755 0.000000
vt 0.394558 0.000000
vt 0.401361 0.000000
vt 0.408163 0.000000
vt 0.414966 0.000000
vt 0.421769 0.000000
vt 0.918367 0.000000
vt 0.380952 0.000000
vt 0.428571 0.000000
vt 0.911565 0.000000
vt 0.435374 0.000000
vt 0.904762 0.000000
vt 0.442177 0.000000
vt 0.897959 0.000000
vt 0.448980 0.000000
vt 0.891156 0.000000
vt 0.455782 0.000000
vt 0.884354 0.000000
vt 0.462585 0.000000
vt 0.877551 0.000000
vt 0.469388 0.000000
vt 0.870748 0.000000
vt 0.476190 0.000000
vt 0.482993 0.000000
vt 0.863946 0.000000
vt 0.489796 0.000000
vt 0.857143 0.000000
vt 0.496599 0.000000
vt 0.850340 0.000000
vt 0.503401 0.000000
vt 0.843537 0.000000
vt 0.510204 0.000000
vt 0.836735 0.000000
vt 0.517007 0.000000
vt 0.829932 0.000000
vt 0.523810 0.000000
vt 0.673469 0.000000
vt 0.823129 0.000000
vt 0.666667 0.000000
vt 0.680272 0.000000
vt 0.816327 0.000000
vt 0.530612 0.000000
vt 0.687075 0.000000
vt 0.659864 0.000000
vt 0.809524 0.000000
vt 0.537415 0.000000
vt 0.693878 0.000000
vt 0.653061 0.000000
vt 0.802721 0.000000
vt 0.544218 0.000000
vt 0.700680 0.000000
vt 0.646259 0.000000
vt 0.795918 0.000000
vt 0.551020 0.000000
vt 0.707483 0.000000
vt 0.639456 0.000000
vt 0.789116 0.000000
vt 0.557823 0.000000
vt 0.714286 0.000000
vt 0.632653 0.000000
vt 0.782313 0.000000
vt 0.564626 0.000000
vt 0.721088 0.000000
vt 0.625850 0.000000
vt 0.571429 0.000000
vt 0.775510 0.000000
vt 0.727891 0.000000
vt 0.619048 0.000000
vt 0.578231 0.000000
vt 0.768707 0.000000
vt 0.734694 0.000000
vt 0.585034 0.000000
vt 0.612245 0.000000
vt 0.761905 0.000000
vt 0.591837 0.000000
vt 0.741497 0.000000
vt 0.605442 0.000000
vt 0.748299 0.000000
vt 0.755102 0.000000
vt 0.598639 0.000000
vt 0.134021 0.000000
vt 0.113402 0.000000
vt 0.123711 0.000000
vt 0.103093 0.000000
vt 0.092784 0.000000
vt 0.144330 0.000000
vt 0.082474 0.000000
vt 0.072165 0.000000
vt 0.061856 0.000000
vt 0.154639 0.000000
vt 0.051546 0.000000
vt 0.041237 0.000000
vt 0.030928 0.000000
vt 0.164948 0.000000
vt 0.020619 0.000000
vt 0.010309 0.000000
vt 0.175258 0.000000
vt 0.896907 0.000000
vt 0.907216 0.000000
vt 0.917526 0.000000
vt 0.927835 0.000000
vt 0.938144 0.000000
vt 0.948454 0.000000
vt 0.958763 0.000000
vt 0.969072 0.000000
vt 0.979381 0.000000
vt 0.989691 0.000000
vt 0.185567 0.000000
vt 0.876289 0.000000
vt 0.886598 0.000000
vt 0.865979 0.000000
vt 0.855670 0.000000
vt 0.845361 0.000000
vt 0.195876 0.000000
vt 0.835052 0.000000
vt 0.824742 0.000000
vt 0.206186 0.000000
vt 0.814433 0.000000
vt 0.804124 0.000000
vt 0.216495 0.000000
vt 0.793814 0.000000
vt 0.226804 0.000000
vt 0.783505 0.000000
vt 0.773196 0.000000
vt 0.237113 0.000000
vt 0.762887 0.000000
vt 0.247423 0.000000
vt 0.752577 0.000000
vt 0.742268 0.000000
vt 0.257732 0.000000
vt 0.731959 0.000000
vt 0.268041 0.000000
vt 0.721649 0.000000
vt 0.278351 0.000000
vt 0.711340 0.000000
vt 0.288660 0.000000
vt 0.701031 0.000000
vt 0.298969 0.000000
vt 0.690722 0.000000
vt 0.515464 0.000000
vt 0.494845 0.000000
vt 0.505155 0.000000
vt 0.680412 0.000000
vt 0.525773 0.000000
vt 0.309278 0.000000
vt 0.536082 0.000000
vt 0.670103 0.000000
vt 0.546392 0.000000
vt 0.556701 0.000000
vt 0.659794 0.000000
vt 0.567010 0.000000
vt 0.319588 0.000000
vt 0.577320 0.000000
vt 0.649485 0.000000
vt 0.587629 0.000000
vt 0.597938 0.000000
vt 0.639175 0.000000
vt 0.608247 0.000000
vt 0.618557 0.000000
vt 0.628866 0.000000
vt 0.329897 0.000000
vt 0.484536 0.000000
vt 0.340206 0.000000
vt 0.474227 0.000000
vt 0.463918 0.000000
vt 0.453608 0.000000
vt 0.350515 0.000000
vt 0.443299 0.000000
vt 0.432990 0.000000
vt 0.422680 0.000000
vt 0.360825 0.000000
vt 0.412371 0.000000
vt 0.402062 0.000000
vt 0.391753 0.000000
vt 0.371134 0.000000
vt 0.381443 0.000000
vt 0.200000 0.000000
vt 0.100000 0.000000
vt 0.800000 0.000000
vt 0.700000 0.000000
vt 0.900000 0.000000
vt 0.400000 0.000000
vt 0.300000 0.000000
vt 0.600000 0.000000
vt 0.018182 0.000000
vt 0.527273 0.000000
vt 0.509091 0.000000
vt 0.490909 0.000000
vt 0.472727 0.000000
vt 0.436364 0.000000
vt 0.418182 0.000000
vt 0.381818 0.000000
vt 0.563636 0.000000
vt 0.581818 0.000000
vt 0.345455 0.000000
vt 0.618182 0.000000
vt 0.654545 0.000000
vt 0.327273 0.000000
vt 0.672727 0.000000
vt 0.690909 0.000000
vt 0.709091 0.000000
vt 0.309091 0.000000
vt 0.745455 0.000000
vt 0.290909 0.000000
vt 0.763636 0.000000
vt 0.781818 0.000000
vt 0.254545 0.000000
vt 0.836364 0.000000
vt 0.236364 0.000000
vt 0.854545 0.000000
vt 0.872727 0.000000
vt 0.218182 0.000000
vt 0.890909 0.000000
vt 0.927273 0.000000
vt 0.945455 0.000000
vt 0.963636 0.000000
vt 0.981818 0.000000
vt 0.054545 0.000000
vt 0.163636 0.000000
vt 0.145455 0.000000
vt 0.127273 0.000000
vt 0.109091 0.000000
vt 0.072727 0.000000
vt 0.036364 0.000000
vt 0.107438 0.000000
vt 0.099174 0.000000
vt 0.082645 0.000000
vt 0.074380 0.000000
vt 0.115702 0.000000
vt 0.066116 0.000000
vt 0.057851 0.000000
vt 0.123967 0.000000
vt 0.049587 0.000000
vt 0.041322 0.000000
vt 0.132231 0.000000
vt 0.033058 0.000000
vt 0.024793 0.000000
vt 0.140496 0.000000
vt 0.016529 0.000000
vt 0.008264 0.000000
vt 0.148760 0.000000
vt 0.933884 0.000000
vt 0.942149 0.000000
vt 0.950413 0.000000
vt 0.958678 0.000000
vt 0.966942 0.000000
vt 0.975207 0.000000
vt 0.983471 0.000000
vt 0.991736 0.000000
vt 0.157025 0.000000
vt 0.917355 0.000000
vt 0.925620 0.000000
vt 0.165289 0.000000
vt 0.900826 0.000000
vt 0.173554 0.000000
vt 0.892562 0.000000
vt 0.884298 0.000000
vt 0.876033 0.000000
vt 0.867769 0.000000
vt 0.859504 0.000000
vt 0.851240 0.000000
vt 0.842975 0.000000
vt 0.834711 0.000000
vt 0.826446 0.000000
vt 0.190083 0.000000
vt 0.809917 0.000000
vt 0.198347 0.000000
vt 0.801653 0.000000
vt 0.793388 0.000000
vt 0.206612 0.000000
vt 0.785124 0.000000
vt 0.776860 0.000000
vt 0.214876 0.000000
vt 0.768595 0.000000
vt 0.223140 0.000000
vt 0.760331 0.000000
vt 0.752066 0.000000
vt 0.231405 0.000000
vt 0.743802 0.000000
vt 0.239669 0.000000
vt 0.735537 0.000000
vt 0.247934 0.000000
vt 0.256198 0.000000
vt 0.719008 0.000000
vt 0.264463 0.000000
vt 0.710744 0.000000
vt 0.280992 0.000000
vt 0.289256 0.000000
vt 0.702479 0.000000
vt 0.297521 0.000000
vt 0.504132 0.000000
vt 0.487603 0.000000
vt 0.495868 0.000000
vt 0.694215 0.000000
vt 0.305785 0.000000
vt 0.479339 0.000000
vt 0.314050 0.000000
vt 0.685950 0.000000
vt 0.471074 0.000000
vt 0.322314 0.000000
vt 0.462810 0.000000
vt 0.330579 0.000000
vt 0.338843 0.000000
vt 0.677686 0.000000
vt 0.347107 0.000000
vt 0.446281 0.000000
vt 0.355372 0.000000
vt 0.438017 0.000000
vt 0.669421 0.000000
vt 0.429752 0.000000
vt 0.371901 0.000000
vt 0.421488 0.000000
vt 0.380165 0.000000
vt 0.413223 0.000000
vt 0.388430 0.000000
vt 0.404959 0.000000
vt 0.661157 0.000000
vt 0.396694 0.000000
vt 0.652893 0.000000
vt 0.512397 0.000000
vt 0.520661 0.000000
vt 0.644628 0.000000
vt 0.528926 0.000000
vt 0.537190 0.000000
vt 0.628099 0.000000
vt 0.553719 0.000000
vt 0.561983 0.000000
vt 0.619835 0.000000
vt 0.570248 0.000000
vt 0.578512 0.000000
vt 0.611570 0.000000
vt 0.586777 0.000000
vt 0.595041 0.000000
vt 0.603306 0.000000
s 0
usemtl マテリアル.002
f 67/1/1 65/2/1 66/3/1
f 67/1/1 64/4/1 65/2/1
f 67/1/1 63/5/1 64/4/1
f 68/6/1 63/5/1 67/1/1
f 68/6/1 62/7/1 63/5/1
f 69/8/1 62/7/1 68/6/1
f 69/8/1 61/9/1 62/7/1
f 70/10/1 61/9/1 69/8/1
f 70/10/1 60/11/1 61/9/1
f 71/12/1 60/11/1 70/10/1
f 71/12/1 59/13/1 60/11/1
f 72/14/1 59/13/1 71/12/1
f 72/14/1 58/15/1 59/13/1
f 73/16/1 58/15/1 72/14/1
f 73/16/1 57/17/1 58/15/1
f 74/18/1 57/17/1 73/16/1
f 74/18/1 56/19/1 57/17/1
f 75/20/1 56/19/1 74/18/1
f 75/20/1 55/21/1 56/19/1
f 76/22/1 55/21/1 75/20/1
f 76/22/1 54/23/1 55/21/1
f 77/24/1 54/23/1 76/22/1
f 77/24/1 53/25/1 54/23/1
f 78/26/1 53/25/1 77/24/1
f 79/27/1 53/25/1 78/26/1
f 79/27/1 52/28/1 53/25/1
f 80/29/1 52/28/1 79/27/1
f 81/30/1 52/28/1 80/29/1
f 82/31/1 52/28/1 81/30/1
f 82/31/1 51/32/1 52/28/1
f 82/31/1 50/33/1 51/32/1
f 83/34/1 50/33/1 82/31/1
f 83/34/1 49/35/1 50/33/1
f 83/34/1 48/36/1 49/35/1
f 83/34/1 47/37/1 48/36/1
f 83/34/1 46/38/1 47/37/1
f 84/39/1 27/40/1 83/34/1
f 27/40/1 46/38/1 83/34/1
f 27/40/1 45/41/1 46/38/1
f 84/39/1 26/42/1 27/40/1
f 28/43/1 45/41/1 27/40/1
f 28/43/1 44/44/1 45/41/1
f 29/45/1 44/44/1 28/43/1
f 29/45/1 43/46/1 44/44/1
f 30/47/1 43/46/1 29/45/1
f 31/48/1 43/46/1 30/47/1
f 31/48/1 42/49/1 43/46/1
f 32/50/1 42/49/1 31/48/1
f 32/50/1 41/51/1 42/49/1
f 85/52/1 26/42/1 84/39/1
f 33/53/1 41/51/1 32/50/1
f 33/53/1 40/54/1 41/51/1
f 34/55/1 40/54/1 33/53/1
f 34/55/1 35/56/1 40/54/1
f 35/56/1 36/57/1 40/54/1
f 36/57/1 37/58/1 40/54/1
f 37/58/1 38/59/1 40/54/1
f 38/59/1 39/60/1 40/54/1
f 86/61/1 26/42/1 85/52/1
f 87/62/1 26/42/1 86/61/1
f 88/63/1 26/42/1 87/62/1
f 89/64/1 26/42/1 88/63/1
f 1/65/1 26/42/1 89/64/1
f 2/66/1 26/42/1 1/65/1
f 2/66/1 25/67/1 26/42/1
f 2/66/1 24/68/1 25/67/1
f 3/69/1 24/68/1 2/66/1
f 3/69/1 23/70/1 24/68/1
f 4/71/1 23/70/1 3/69/1
f 4/71/1 22/72/1 23/70/1
f 5/73/1 22/72/1 4/71/1
f 5/73/1 21/74/1 22/72/1
f 6/75/1 21/74/1 5/73/1
f 6/75/1 20/76/1 21/74/1
f 7/77/1 20/76/1 6/75/1
f 7/77/1 19/78/1 20/76/1
f 8/79/1 19/78/1 7/77/1
f 8/79/1 18/80/1 19/78/1
f 9/81/1 18/80/1 8/79/1
f 9/81/1 17/82/1 18/80/1
f 10/83/1 17/82/1 9/81/1
f 10/83/1 16/84/1 17/82/1
f 11/85/1 16/84/1 10/83/1
f 11/85/1 15/86/1 16/84/1
f 12/87/1 15/86/1 11/85/1
f 12/87/1 14/88/1 15/86/1
f 13/89/1 14/88/1 12/87/1
f 91/90/1 163/64/1 90/65/1
f 129/91/1 127/92/1 128/93/1
f 130/94/1 127/92/1 129/91/1
f 91/90/1 162/95/1 163/64/1
f 131/96/1 127/92/1 130/94/1
f 91/90/1 161/97/1 162/95/1
f 132/98/1 127/92/1 131/96/1
f 91/90/1 160/99/1 161/97/1
f 133/100/1 127/92/1 132/98/1
f 91/90/1 159/101/1 160/99/1
f 134/102/1 127/92/1 133/100/1
f 91/90/1 158/103/1 159/101/1
f 135/104/1 127/92/1 134/102/1
f 91/90/1 157/105/1 158/103/1
f 136/106/1 127/92/1 135/104/1
f 91/90/1 156/107/1 157/105/1
f 137/108/1 127/92/1 136/106/1
f 91/90/1 155/109/1 156/107/1
f 138/110/1 127/92/1 137/108/1
f 91/90/1 154/111/1 155/109/1
f 139/112/1 127/92/1 138/110/1
f 91/90/1 153/113/1 154/111/1
f 140/114/1 127/92/1 139/112/1
f 91/90/1 152/115/1 153/113/1
f 91/90/1 151/116/1 152/115/1
f 91/90/1 150/117/1 151/116/1
f 91/90/1 149/118/1 150/117/1
f 91/90/1 148/119/1 149/118/1
f 91/90/1 147/120/1 148/119/1
f 91/90/1 146/121/1 147/120/1
f 91/90/1 145/122/1 146/121/1
f 91/90/1 144/123/1 145/122/1
f 91/90/1 143/124/1 144/123/1
f 91/90/1 142/125/1 143/124/1
f 91/90/1 141/126/1 142/125/1
f 91/90/1 140/114/1 141/126/1
f 91/90/1 92/127/1 140/114/1
f 92/127/1 93/128/1 140/114/1
f 93/128/1 94/129/1 140/114/1
f 94/129/1 95/130/1 140/114/1
f 95/130/1 96/131/1 140/114/1
f 96/131/1 97/132/1 140/114/1
f 97/132/1 98/133/1 140/114/1
f 98/133/1 99/134/1 140/114/1
f 99/134/1 100/135/1 140/114/1
f 100/135/1 101/136/1 140/114/1
f 101/136/1 102/137/1 140/114/1
f 102/137/1 103/138/1 140/114/1
f 103/138/1 104/139/1 140/114/1
f 104/139/1 105/140/1 140/114/1
f 105/140/1 106/141/1 140/114/1
f 106/141/1 108/142/1 140/114/1
f 108/142/1 111/143/1 140/114/1
f 111/143/1 114/144/1 140/114/1
f 114/144/1 115/145/1 140/114/1
f 115/145/1 116/146/1 140/114/1
f 116/146/1 117/147/1 140/114/1
f 117/147/1 118/148/1 140/114/1
f 118/148/1 119/149/1 140/114/1
f 119/149/1 120/150/1 140/114/1
f 120/150/1 121/151/1 140/114/1
f 121/151/1 122/152/1 140/114/1
f 122/152/1 127/92/1 140/114/1
f 107/153/1 108/142/1 106/141/1
f 109/154/1 111/143/1 108/142/1
f 110/155/1 111/143/1 109/154/1
f 112/156/2 114/144/2 111/143/2
f 113/157/1 114/144/1 112/156/1
f 123/158/1 127/92/1 122/152/1
f 124/159/1 127/92/1 123/158/1
f 125/160/1 127/92/1 124/159/1
f 126/161/1 127/92/1 125/160/1
f 166/66/1 164/65/1 165/162/1
f 167/163/1 164/65/1 166/66/1
f 168/69/1 164/65/1 167/163/1
f 169/164/1 164/65/1 168/69/1
f 170/71/1 164/65/1 169/164/1
f 170/71/1 340/64/1 164/65/1
f 171/165/1 340/64/1 170/71/1
f 171/165/1 339/166/1 340/64/1
f 172/73/1 339/166/1 171/165/1
f 172/73/1 338/63/1 339/166/1
f 173/167/1 338/63/1 172/73/1
f 173/167/1 337/168/1 338/63/1
f 174/75/1 337/168/1 173/167/1
f 174/75/1 336/62/1 337/168/1
f 175/169/1 336/62/1 174/75/1
f 175/169/1 335/170/1 336/62/1
f 176/77/1 335/170/1 175/169/1
f 176/77/1 334/61/1 335/170/1
f 177/171/1 334/61/1 176/77/1
f 177/171/1 333/172/1 334/61/1
f 178/79/1 333/172/1 177/171/1
f 178/79/1 332/52/1 333/172/1
f 178/79/1 331/173/1 332/52/1
f 178/79/1 330/39/1 331/173/1
f 178/79/1 329/174/1 330/39/1
f 179/175/1 329/174/1 178/79/1
f 179/175/1 328/34/1 329/174/1
f 180/81/1 328/34/1 179/175/1
f 316/24/1 314/22/1 315/176/1
f 317/177/1 314/22/1 316/24/1
f 318/26/1 314/22/1 317/177/1
f 319/178/1 314/22/1 318/26/1
f 320/27/1 314/22/1 319/178/1
f 321/179/1 314/22/1 320/27/1
f 322/29/1 314/22/1 321/179/1
f 323/180/1 314/22/1 322/29/1
f 324/30/1 314/22/1 323/180/1
f 325/181/1 314/22/1 324/30/1
f 326/31/1 314/22/1 325/181/1
f 327/182/1 314/22/1 326/31/1
f 180/81/1 327/182/1 328/34/1
f 180/81/1 314/22/1 327/182/1
f 181/183/1 314/22/1 180/81/1
f 181/183/1 313/184/1 314/22/1
f 181/183/1 312/20/1 313/184/1
f 181/183/1 311/185/1 312/20/1
f 181/183/1 310/18/1 311/185/1
f 182/83/1 310/18/1 181/183/1
f 182/83/1 309/186/1 310/18/1
f 182/83/1 308/16/1 309/186/1
f 182/83/1 307/187/1 308/16/1
f 182/83/1 202/76/1 307/187/1
f 202/76/1 306/14/1 307/187/1
f 202/76/1 305/188/1 306/14/1
f 202/76/1 203/189/1 305/188/1
f 203/189/1 304/12/1 305/188/1
f 182/83/1 201/190/1 202/76/1
f 204/74/1 304/12/1 203/189/1
f 183/191/1 201/190/1 182/83/1
f 204/74/1 303/192/1 304/12/1
f 204/74/1 302/10/1 303/192/1
f 204/74/1 301/193/1 302/10/1
f 205/194/1 301/193/1 204/74/1
f 183/191/1 200/78/1 201/190/1
f 184/85/1 200/78/1 183/191/1
f 205/194/1 300/8/1 301/193/1
f 206/72/1 300/8/1 205/194/1
f 184/85/1 199/195/1 200/78/1
f 206/72/1 299/196/1 300/8/1
f 185/197/1 199/195/1 184/85/1
f 207/198/1 299/196/1 206/72/1
f 185/197/1 198/80/1 199/195/1
f 207/198/1 298/6/1 299/196/1
f 208/70/1 298/6/1 207/198/1
f 185/197/1 197/199/1 198/80/1
f 186/87/1 197/199/1 185/197/1
f 208/70/1 297/200/1 298/6/1
f 209/201/1 297/200/1 208/70/1
f 186/87/1 196/82/1 197/199/1
f 187/202/1 196/82/1 186/87/1
f 210/68/1 297/200/1 209/201/1
f 187/202/1 195/203/1 196/82/1
f 210/68/1 296/1/1 297/200/1
f 228/53/1 226/50/1 227/204/1
f 228/53/1 225/205/1 226/50/1
f 188/89/1 195/203/1 187/202/1
f 188/89/1 194/84/1 195/203/1
f 211/206/1 296/1/1 210/68/1
f 228/53/1 224/48/1 225/205/1
f 211/206/1 295/207/1 296/1/1
f 228/53/1 223/208/1 224/48/1
f 188/89/1 193/209/1 194/84/1
f 228/53/1 222/47/1 223/208/1
f 212/67/1 295/207/1 211/206/1
f 189/210/1 193/209/1 188/89/1
f 212/67/1 294/3/1 295/207/1
f 228/53/1 221/211/1 222/47/1
f 229/212/1 221/211/1 228/53/1
f 189/210/1 192/86/1 193/209/1
f 229/212/1 220/45/1 221/211/1
f 230/55/1 220/45/1 229/212/1
f 213/213/1 294/3/1 212/67/1
f 190/88/1 192/86/1 189/210/1
f 230/55/1 219/214/1 220/45/1
f 231/215/1 219/214/1 230/55/1
f 213/213/1 293/216/1 294/3/1
f 190/88/1 191/217/1 192/86/1
f 231/215/1 218/43/1 219/214/1
f 232/56/1 218/43/1 231/215/1
f 214/42/1 293/216/1 213/213/1
f 233/218/1 218/43/1 232/56/1
f 233/218/1 217/219/1 218/43/1
f 214/42/1 292/2/1 293/216/1
f 234/57/1 217/219/1 233/218/1
f 234/57/1 216/40/1 217/219/1
f 215/220/1 292/2/1 214/42/1
f 235/221/1 216/40/1 234/57/1
f 235/221/1 215/220/1 216/40/1
f 215/220/1 291/222/1 292/2/1
f 236/58/1 215/220/1 235/221/1
f 236/58/1 291/222/1 215/220/1
f 237/223/1 291/222/1 236/58/1
f 237/223/1 290/4/1 291/222/1
f 238/59/1 290/4/1 237/223/1
f 239/224/1 290/4/1 238/59/1
f 239/224/1 289/225/1 290/4/1
f 240/60/1 289/225/1 239/224/1
f 240/60/1 288/5/1 289/225/1
f 240/60/1 287/226/1 288/5/1
f 241/227/1 287/226/1 240/60/1
f 241/227/1 286/7/1 287/226/1
f 241/227/1 285/228/1 286/7/1
f 241/227/1 284/9/1 285/228/1
f 242/54/1 284/9/1 241/227/1
f 242/54/1 283/229/1 284/9/1
f 242/54/1 282/11/1 283/229/1
f 242/54/1 265/230/1 282/11/1
f 265/230/1 281/231/1 282/11/1
f 243/232/1 265/230/1 242/54/1
f 243/232/1 264/32/1 265/230/1
f 266/28/1 281/231/1 265/230/1
f 266/28/1 280/13/1 281/231/1
f 267/233/1 280/13/1 266/28/1
f 267/233/1 279/234/1 280/13/1
f 267/233/1 278/15/1 279/234/1
f 268/25/1 278/15/1 267/233/1
f 268/25/1 269/235/1 278/15/1
f 269/235/1 270/23/1 278/15/1
f 270/23/1 271/236/1 278/15/1
f 271/236/1 272/21/1 278/15/1
f 272/21/1 273/237/1 278/15/1
f 273/237/1 274/19/1 278/15/1
f 274/19/1 275/238/1 278/15/1
f 275/238/1 276/17/1 278/15/1
f 276/17/1 277/239/1 278/15/1
f 244/51/1 264/32/1 243/232/1
f 244/51/1 263/240/1 264/32/1
f 245/241/1 263/240/1 244/51/1
f 245/241/1 262/33/1 263/240/1
f 246/49/1 262/33/1 245/241/1
f 246/49/1 261/242/1 262/33/1
f 247/243/1 261/242/1 246/49/1
f 247/243/1 260/35/1 261/242/1
f 248/46/1 260/35/1 247/243/1
f 248/46/1 259/244/1 260/35/1
f 249/245/1 259/244/1 248/46/1
f 249/245/1 258/36/1 259/244/1
f 250/44/1 258/36/1 249/245/1
f 250/44/1 257/246/1 258/36/1
f 251/247/1 257/246/1 250/44/1
f 252/41/1 257/246/1 251/247/1
f 252/41/1 256/37/1 257/246/1
f 253/248/1 256/37/1 252/41/1
f 253/248/1 255/249/1 256/37/1
f 253/248/1 254/38/1 255/249/1
f 343/250/1 341/65/1 342/251/1
f 344/252/1 341/65/1 343/250/1
f 379/253/1 377/254/1 378/255/1
f 345/256/1 341/65/1 344/252/1
f 379/253/1 376/257/1 377/254/1
f 379/253/1 375/258/1 376/257/1
f 346/259/1 341/65/1 345/256/1
f 379/253/1 374/260/1 375/258/1
f 347/261/1 341/65/1 346/259/1
f 379/253/1 373/262/1 374/260/1
f 379/253/1 372/263/1 373/262/1
f 348/264/1 341/65/1 347/261/1
f 379/253/1 371/265/1 372/263/1
f 349/266/1 341/65/1 348/264/1
f 379/253/1 370/267/1 371/265/1
f 350/268/1 341/65/1 349/266/1
f 379/253/1 369/269/1 370/267/1
f 351/270/1 341/65/1 350/268/1
f 379/253/1 368/271/1 369/269/1
f 352/272/1 341/65/1 351/270/1
f 379/253/1 367/273/1 368/271/1
f 353/274/1 341/65/1 352/272/1
f 379/253/1 366/275/1 367/273/1
f 354/276/1 341/65/1 353/274/1
f 379/253/1 365/277/1 366/275/1
f 379/253/1 364/278/1 365/277/1
f 379/253/1 363/279/1 364/278/1
f 379/253/1 362/280/1 363/279/1
f 379/253/1 361/281/1 362/280/1
f 379/253/1 360/282/1 361/281/1
f 379/253/1 359/283/1 360/282/1
f 379/253/1 358/284/1 359/283/1
f 379/253/1 357/285/1 358/284/1
f 379/253/1 356/286/1 357/285/1
f 379/253/1 355/287/1 356/286/1
f 379/253/1 354/276/1 355/287/1
f 379/253/1 341/65/1 354/276/1
f 379/253/1 380/288/1 341/65/1
f 380/288/1 488/64/1 341/65/1
f 380/288/1 487/289/1 488/64/1
f 380/288/1 381/290/1 487/289/1
f 381/290/1 486/291/1 487/289/1
f 381/290/1 382/292/1 486/291/1
f 382/292/1 485/293/1 486/291/1
f 382/292/1 383/294/1 485/293/1
f 383/294/1 384/295/1 485/293/1
f 384/295/1 484/296/1 485/293/1
f 384/295/1 385/297/1 484/296/1
f 385/297/1 483/298/1 484/296/1
f 385/297/1 386/299/1 483/298/1
f 386/299/1 387/300/1 483/298/1
f 387/300/1 482/301/1 483/298/1
f 387/300/1 388/302/1 482/301/1
f 388/302/1 481/303/1 482/301/1
f 388/302/1 389/304/1 481/303/1
f 389/304/1 480/305/1 481/303/1
f 389/304/1 479/306/1 480/305/1
f 389/304/1 390/307/1 479/306/1
f 390/307/1 478/308/1 479/306/1
f 390/307/1 477/309/1 478/308/1
f 390/307/1 391/310/1 477/309/1
f 391/310/1 392/311/1 477/309/1
f 392/311/1 393/312/1 477/309/1
f 393/312/1 394/313/1 477/309/1
f 394/313/1 395/314/1 477/309/1
f 395/314/1 396/315/1 477/309/1
f 396/315/1 398/316/1 477/309/1
f 398/316/1 399/317/1 477/309/1
f 399/317/1 400/318/1 477/309/1
f 400/318/1 401/319/1 477/309/1
f 401/319/1 402/320/1 477/309/1
f 402/320/1 403/321/1 477/309/1
f 403/321/1 476/322/1 477/309/1
f 397/323/1 398/316/1 396/315/1
f 404/324/1 476/322/1 403/321/1
f 404/324/1 475/325/1 476/322/1
f 405/326/1 475/325/1 404/324/1
f 405/326/1 474/327/1 475/325/1
f 406/328/1 474/327/1 405/326/1
f 406/328/1 473/329/1 474/327/1
f 407/330/1 473/329/1 406/328/1
f 407/330/1 472/331/1 473/329/1
f 408/332/1 472/331/1 407/330/1
f 408/332/1 471/333/1 472/331/1
f 409/334/1 471/333/1 408/332/1
f 409/334/1 470/335/1 471/333/1
f 410/336/1 470/335/1 409/334/1
f 410/336/1 469/337/1 470/335/1
f 411/338/1 469/337/1 410/336/1
f 412/339/1 469/337/1 411/338/1
f 412/339/1 468/340/1 469/337/1
f 413/341/1 468/340/1 412/339/1
f 413/341/1 467/342/1 468/340/1
f 414/343/1 467/342/1 413/341/1
f 414/343/1 466/344/1 467/342/1
f 415/345/1 466/344/1 414/343/1
f 415/345/1 465/346/1 466/344/1
f 416/347/1 465/346/1 415/345/1
f 416/347/1 464/348/1 465/346/1
f 417/349/1 464/348/1 416/347/1
f 417/349/1 463/350/1 464/348/1
f 418/351/1 463/350/1 417/349/1
f 418/351/1 440/352/1 463/350/1
f 440/352/1 462/353/1 463/350/1
f 418/351/1 439/354/1 440/352/1
f 441/355/1 462/353/1 440/352/1
f 441/355/1 461/356/1 462/353/1
f 419/357/1 439/354/1 418/351/1
f 442/358/1 461/356/1 441/355/1
f 419/357/1 438/359/1 439/354/1
f 442/358/1 460/360/1 461/356/1
f 420/361/1 438/359/1 419/357/1
f 443/362/1 460/360/1 442/358/1
f 420/361/1 437/363/1 438/359/1
f 443/362/1 459/364/1 460/360/1
f 421/365/1 437/363/1 420/361/1
f 444/366/1 459/364/1 443/362/1
f 421/365/1 436/367/1 437/363/1
f 444/366/1 458/368/1 459/364/1
f 422/369/1 436/367/1 421/365/1
f 445/370/1 458/368/1 444/366/1
f 422/369/1 435/371/1 436/367/1
f 445/370/1 457/372/1 458/368/1
f 423/373/1 435/371/1 422/369/1
f 446/374/1 457/372/1 445/370/1
f 423/373/1 434/375/1 435/371/1
f 446/374/1 456/376/1 457/372/1
f 424/377/1 434/375/1 423/373/1
f 447/378/1 456/376/1 446/374/1
f 424/377/1 433/379/1 434/375/1
f 425/380/1 433/379/1 424/377/1
f 447/378/1 455/381/1 456/376/1
f 448/382/1 455/381/1 447/378/1
f 425/380/1 432/383/1 433/379/1
f 426/384/1 432/383/1 425/380/1
f 448/382/1 454/385/1 455/381/1
f 449/386/1 454/385/1 448/382/1
f 427/387/1 432/383/1 426/384/1
f 427/387/1 431/388/1 432/383/1
f 449/386/1 453/389/1 454/385/1
f 428/390/1 431/388/1 427/387/1
f 450/391/1 453/389/1 449/386/1
f 428/390/1 430/392/1 431/388/1
f 450/391/1 451/393/1 453/389/1
f 451/393/1 452/394/1 453/389/1
f 428/390/1 429/395/1 430/392/1
f 491/82/1 499/30/1 490/81/1
f 499/30/1 489/65/1 490/81/1
f 499/30/1 500/64/1 489/65/1
f 491/82/1 498/16/1 499/30/1
f 491/82/1 495/35/1 498/16/1
f 495/35/1 497/2/1 498/16/1
f 495/35/1 496/17/1 497/2/1
f 491/82/1 494/51/1 495/35/1
f 491/82/1 493/53/1 494/51/1
f 491/82/1 492/67/1 493/53/1
f 514/396/1 512/397/1 513/398/1
f 514/396/1 511/399/1 512/397/1
f 514/396/1 510/400/1 511/399/1
f 515/401/1 510/400/1 514/396/1
f 515/401/1 509/402/1 510/400/1
f 515/401/1 508/403/1 509/402/1
f 515/401/1 507/404/1 508/403/1
f 516/405/1 507/404/1 515/401/1
f 516/405/1 506/406/1 507/404/1
f 516/405/1 505/407/1 506/406/1
f 516/405/1 504/408/1 505/407/1
f 517/409/1 504/408/1 516/405/1
f 517/409/1 503/410/1 504/408/1
f 517/409/1 502/411/1 503/410/1
f 517/409/1 501/65/1 502/411/1
f 518/412/1 501/65/1 517/409/1
f 518/412/1 588/413/1 501/65/1
f 588/413/1 589/414/1 501/65/1
f 589/414/1 590/415/1 501/65/1
f 590/415/1 591/416/1 501/65/1
f 591/416/1 592/417/1 501/65/1
f 592/417/1 593/418/1 501/65/1
f 593/418/1 594/419/1 501/65/1
f 594/419/1 595/420/1 501/65/1
f 595/420/1 596/421/1 501/65/1
f 596/421/1 597/422/1 501/65/1
f 597/422/1 598/64/1 501/65/1
f 519/423/1 586/424/1 518/412/1
f 586/424/1 587/425/1 518/412/1
f 587/425/1 588/413/1 518/412/1
f 519/423/1 585/426/1 586/424/1
f 519/423/1 584/427/1 585/426/1
f 519/423/1 583/428/1 584/427/1
f 520/429/1 583/428/1 519/423/1
f 520/429/1 582/430/1 583/428/1
f 520/429/1 581/431/1 582/430/1
f 521/432/1 581/431/1 520/429/1
f 521/432/1 580/433/1 581/431/1
f 521/432/1 579/434/1 580/433/1
f 522/435/1 579/434/1 521/432/1
f 522/435/1 578/436/1 579/434/1
f 523/437/1 578/436/1 522/435/1
f 523/437/1 577/438/1 578/436/1
f 523/437/1 576/439/1 577/438/1
f 524/440/1 576/439/1 523/437/1
f 524/440/1 575/441/1 576/439/1
f 525/442/1 575/441/1 524/440/1
f 525/442/1 574/443/1 575/441/1
f 525/442/1 573/444/1 574/443/1
f 526/445/1 573/444/1 525/442/1
f 526/445/1 572/446/1 573/444/1
f 527/447/1 572/446/1 526/445/1
f 527/447/1 571/448/1 572/446/1
f 528/449/1 571/448/1 527/447/1
f 528/449/1 570/450/1 571/448/1
f 529/451/1 570/450/1 528/449/1
f 529/451/1 569/452/1 570/450/1
f 530/453/1 569/452/1 529/451/1
f 530/453/1 568/454/1 569/452/1
f 551/455/1 549/456/1 550/457/1
f 530/453/1 567/458/1 568/454/1
f 552/459/1 549/456/1 551/455/1
f 531/460/1 567/458/1 530/453/1
f 553/461/1 549/456/1 552/459/1
f 531/460/1 566/462/1 567/458/1
f 554/463/1 549/456/1 553/461/1
f 555/464/1 549/456/1 554/463/1
f 531/460/1 565/465/1 566/462/1
f 556/466/1 549/456/1 555/464/1
f 532/467/1 565/465/1 531/460/1
f 557/468/1 549/456/1 556/466/1
f 532/467/1 564/469/1 565/465/1
f 558/470/1 549/456/1 557/468/1
f 559/471/1 549/456/1 558/470/1
f 532/467/1 563/472/1 564/469/1
f 560/473/1 549/456/1 559/471/1
f 561/474/1 549/456/1 560/473/1
f 532/467/1 562/475/1 563/472/1
f 562/475/1 549/456/1 561/474/1
f 532/467/1 549/456/1 562/475/1
f 533/476/1 549/456/1 532/467/1
f 533/476/1 548/477/1 549/456/1
f 534/478/1 548/477/1 533/476/1
f 534/478/1 547/479/1 548/477/1
f 534/478/1 546/480/1 547/479/1
f 534/478/1 545/481/1 546/480/1
f 535/482/1 545/481/1 534/478/1
f 535/482/1 544/483/1 545/481/1
f 535/482/1 543/484/1 544/483/1
f 535/482/1 542/485/1 543/484/1
f 536/486/1 542/485/1 535/482/1
f 536/486/1 541/487/1 542/485/1
f 536/486/1 540/488/1 541/487/1
f 536/486/1 539/489/1 540/488/1
f 537/490/1 539/489/1 536/486/1
f 537/490/1 538/491/1 539/489/1
f 601/492/1 599/65/1 600/493/1
f 601/492/1 607/494/1 599/65/1
f 607/494/1 606/495/1 599/65/1
f 601/492/1 609/64/1 607/494/1
f 608/496/1 606/495/1 607/494/1
f 601/492/1 603/497/1 609/64/1
f 603/497/1 608/496/1 609/64/1
f 603/497/1 604/41/1 608/496/1
f 604/41/1 606/495/1 608/496/1
f 601/492/1 602/498/1 603/497/1
f 605/499/1 606/495/1 604/41/1
f 611/500/1 639/501/1 610/65/1
f 639/501/1 638/502/1 610/65/1
f 639/501/1 637/503/1 638/502/1
f 639/501/1 636/504/1 637/503/1
f 639/501/1 635/51/1 636/504/1
f 639/501/1 634/505/1 635/51/1
f 639/501/1 633/506/1 634/505/1
f 639/501/1 632/497/1 633/506/1
f 639/501/1 631/507/1 632/497/1
f 639/501/1 640/35/1 631/507/1
f 640/35/1 630/53/1 631/507/1
f 611/500/1 665/64/1 639/501/1
f 641/508/1 630/53/1 640/35/1
f 642/509/1 630/53/1 641/508/1
f 643/499/1 630/53/1 642/509/1
f 643/499/1 629/510/1 630/53/1
f 644/511/1 629/510/1 643/499/1
f 645/17/1 629/510/1 644/511/1
f 646/512/1 629/510/1 645/17/1
f 646/512/1 628/513/1 629/510/1
f 647/514/1 628/513/1 646/512/1
f 648/515/1 628/513/1 647/514/1
f 649/516/1 628/513/1 648/515/1
f 649/516/1 627/517/1 628/513/1
f 650/2/1 627/517/1 649/516/1
f 651/518/1 627/517/1 650/2/1
f 651/518/1 626/519/1 627/517/1
f 652/520/1 626/519/1 651/518/1
f 653/521/1 626/519/1 652/520/1
f 653/521/1 625/67/1 626/519/1
f 654/494/1 625/67/1 653/521/1
f 654/494/1 624/522/1 625/67/1
f 655/16/1 624/522/1 654/494/1
f 656/523/1 624/522/1 655/16/1
f 656/523/1 623/524/1 624/522/1
f 657/525/1 623/524/1 656/523/1
f 658/526/1 623/524/1 657/525/1
f 658/526/1 622/527/1 623/524/1
f 659/528/1 622/527/1 658/526/1
f 660/30/1 622/527/1 659/528/1
f 661/529/1 622/527/1 660/30/1
f 662/530/1 622/527/1 661/529/1
f 662/530/1 621/492/1 622/527/1
f 663/531/1 621/492/1 662/530/1
f 664/532/1 621/492/1 663/531/1
f 611/500/1 613/533/1 665/64/1
f 613/533/1 664/532/1 665/64/1
f 613/533/1 621/492/1 664/532/1
f 613/533/1 620/82/1 621/492/1
f 613/533/1 619/534/1 620/82/1
f 613/533/1 618/535/1 619/534/1
f 613/533/1 617/536/1 618/535/1
f 613/533/1 616/537/1 617/536/1
f 613/533/1 615/81/1 616/537/1
f 613/533/1 614/538/1 615/81/1
f 611/500/1 612/539/1 613/533/1
f 679/540/1 677/81/1 678/541/1
f 679/540/1 676/542/1 677/81/1
f 679/540/1 675/543/1 676/542/1
f 680/544/1 675/543/1 679/540/1
f 680/544/1 674/545/1 675/543/1
f 680/544/1 673/546/1 674/545/1
f 681/547/1 673/546/1 680/544/1
f 681/547/1 672/548/1 673/546/1
f 681/547/1 671/549/1 672/548/1
f 682/550/1 671/549/1 681/547/1
f 682/550/1 670/551/1 671/549/1
f 682/550/1 669/552/1 670/551/1
f 683/553/1 669/552/1 682/550/1
f 683/553/1 668/554/1 669/552/1
f 683/553/1 667/555/1 668/554/1
f 684/556/1 667/555/1 683/553/1
f 684/556/1 666/65/1 667/555/1
f 684/556/1 779/557/1 666/65/1
f 779/557/1 780/558/1 666/65/1
f 780/558/1 781/559/1 666/65/1
f 781/559/1 782/560/1 666/65/1
f 782/560/1 783/561/1 666/65/1
f 783/561/1 784/562/1 666/65/1
f 784/562/1 785/563/1 666/65/1
f 785/563/1 786/564/1 666/65/1
f 786/564/1 787/64/1 666/65/1
f 685/565/1 777/566/1 684/556/1
f 777/566/1 778/567/1 684/556/1
f 778/567/1 779/557/1 684/556/1
f 686/568/1 775/569/1 685/565/1
f 775/569/1 776/30/1 685/565/1
f 776/30/1 777/566/1 685/565/1
f 687/570/1 774/571/1 686/568/1
f 774/571/1 775/569/1 686/568/1
f 687/570/1 773/572/1 774/571/1
f 687/570/1 772/573/1 773/572/1
f 687/570/1 771/574/1 772/573/1
f 687/570/1 770/575/1 771/574/1
f 687/570/1 769/576/1 770/575/1
f 688/82/1 769/576/1 687/570/1
f 688/82/1 768/577/1 769/576/1
f 688/82/1 767/578/1 768/577/1
f 688/82/1 766/579/1 767/578/1
f 689/580/1 766/579/1 688/82/1
f 689/580/1 765/16/1 766/579/1
f 689/580/1 764/581/1 765/16/1
f 690/582/1 764/581/1 689/580/1
f 690/582/1 763/583/1 764/581/1
f 690/582/1 762/584/1 763/583/1
f 691/585/1 762/584/1 690/582/1
f 691/585/1 761/586/1 762/584/1
f 691/585/1 760/587/1 761/586/1
f 692/588/1 760/587/1 691/585/1
f 692/588/1 759/589/1 760/587/1
f 693/590/1 759/589/1 692/588/1
f 693/590/1 758/591/1 759/589/1
f 693/590/1 757/592/1 758/591/1
f 694/593/1 757/592/1 693/590/1
f 694/593/1 756/594/1 757/592/1
f 695/595/1 756/594/1 694/593/1
f 695/595/1 755/596/1 756/594/1
f 696/597/1 755/596/1 695/595/1
f 696/597/1 754/2/1 755/596/1
f 697/598/1 754/2/1 696/597/1
f 697/598/1 753/599/1 754/2/1
f 698/600/1 753/599/1 697/598/1
f 699/67/1 753/599/1 698/600/1
f 699/67/1 752/601/1 753/599/1
f 700/602/1 752/601/1 699/67/1
f 701/603/1 752/601/1 700/602/1
f 701/603/1 751/604/1 752/601/1
f 702/605/1 751/604/1 701/603/1
f 727/606/1 725/607/1 726/608/1
f 702/605/1 750/609/1 751/604/1
f 703/610/1 750/609/1 702/605/1
f 727/606/1 724/611/1 725/607/1
f 704/612/1 750/609/1 703/610/1
f 704/612/1 749/613/1 750/609/1
f 727/606/1 723/614/1 724/611/1
f 705/615/1 749/613/1 704/612/1
f 727/606/1 722/616/1 723/614/1
f 706/617/1 749/613/1 705/615/1
f 707/618/1 749/613/1 706/617/1
f 707/618/1 748/619/1 749/613/1
f 727/606/1 721/51/1 722/616/1
f 708/620/1 748/619/1 707/618/1
f 727/606/1 720/621/1 721/51/1
f 709/622/1 748/619/1 708/620/1
f 727/606/1 719/623/1 720/621/1
f 709/622/1 747/624/1 748/619/1
f 710/53/1 747/624/1 709/622/1
f 727/606/1 718/625/1 719/623/1
f 711/626/1 747/624/1 710/53/1
f 727/606/1 717/627/1 718/625/1
f 712/628/1 747/624/1 711/626/1
f 727/606/1 716/629/1 717/627/1
f 713/630/1 747/624/1 712/628/1
f 727/606/1 715/631/1 716/629/1
f 713/630/1 746/632/1 747/624/1
f 714/633/1 746/632/1 713/630/1
f 727/606/1 714/633/1 715/631/1
f 727/606/1 746/632/1 714/633/1
f 727/606/1 745/634/1 746/632/1
f 728/635/1 745/634/1 727/606/1
f 729/636/1 745/634/1 728/635/1
f 729/636/1 744/637/1 745/634/1
f 730/638/1 744/637/1 729/636/1
f 730/638/1 743/17/1 744/637/1
f 731/639/1 743/17/1 730/638/1
f 732/35/1 743/17/1 731/639/1
f 732/35/1 742/640/1 743/17/1
f 733/641/1 742/640/1 732/35/1
f 734/642/1 742/640/1 733/641/1
f 734/642/1 741/643/1 742/640/1
f 735/644/1 741/643/1 734/642/1
f 736/645/1 741/643/1 735/644/1
f 736/645/1 740/646/1 741/643/1
f 737/647/1 740/646/1 736/645/1
f 738/648/1 740/646/1 737/647/1
f 738/648/1 739/649/1 740/646/1
