# Blender 4.4.1
# www.blender.org
mtllib gameClearSpace.mtl
o テキスト.001
v -2.626500 -0.274000 0.000000
v -2.701500 -0.324000 0.000000
v -2.722075 -0.306157 0.000000
v -2.741769 -0.287176 0.000000
v -2.760532 -0.267125 0.000000
v -2.778315 -0.246074 0.000000
v -2.795071 -0.224093 0.000000
v -2.810750 -0.201250 0.000000
v -2.825305 -0.177616 0.000000
v -2.838686 -0.153259 0.000000
v -2.850844 -0.128250 0.000000
v -2.861732 -0.102657 0.000000
v -2.871300 -0.076551 0.000000
v -2.879500 -0.050000 0.000000
v -2.885782 -0.022751 0.000000
v -2.891171 0.008495 0.000000
v -2.895735 0.042984 0.000000
v -2.899537 0.079963 0.000000
v -2.902645 0.118678 0.000000
v -2.905125 0.158375 0.000000
v -2.907042 0.198301 0.000000
v -2.908463 0.237704 0.000000
v -2.909453 0.275828 0.000000
v -2.910079 0.311921 0.000000
v -2.910406 0.345230 0.000000
v -2.910500 0.375000 0.000000
v -2.910579 0.382490 0.000000
v -2.910801 0.389917 0.000000
v -2.911141 0.397219 0.000000
v -2.911574 0.404333 0.000000
v -2.912077 0.411198 0.000000
v -2.912625 0.417750 0.000000
v -2.913194 0.423927 0.000000
v -2.913759 0.429667 0.000000
v -2.914297 0.434906 0.000000
v -2.914783 0.439583 0.000000
v -2.915192 0.443635 0.000000
v -2.915500 0.447000 0.000000
v -2.823500 0.447000 0.000000
v -2.824478 0.441725 0.000000
v -2.825408 0.436384 0.000000
v -2.826281 0.430953 0.000000
v -2.827093 0.425407 0.000000
v -2.827835 0.419723 0.000000
v -2.828500 0.413875 0.000000
v -2.829082 0.407840 0.000000
v -2.829574 0.401593 0.000000
v -2.829969 0.395109 0.000000
v -2.830259 0.388366 0.000000
v -2.830438 0.381337 0.000000
v -2.830500 0.374000 0.000000
v -2.830464 0.344510 0.000000
v -2.830292 0.312000 0.000000
v -2.829891 0.277156 0.000000
v -2.829167 0.240667 0.000000
v -2.828026 0.203219 0.000000
v -2.826375 0.165500 0.000000
v -2.824120 0.128198 0.000000
v -2.821167 0.092000 0.000000
v -2.817422 0.057594 0.000000
v -2.812792 0.025667 0.000000
v -2.807183 -0.003094 0.000000
v -2.800500 -0.028000 0.000000
v -2.792379 -0.052071 0.000000
v -2.783028 -0.075736 0.000000
v -2.772469 -0.098922 0.000000
v -2.760722 -0.121556 0.000000
v -2.747809 -0.143564 0.000000
v -2.733750 -0.164875 0.000000
v -2.718566 -0.185415 0.000000
v -2.702278 -0.205111 0.000000
v -2.684906 -0.223891 0.000000
v -2.666472 -0.241681 0.000000
v -2.646997 -0.258408 0.000000
v -3.084500 -0.279000 0.000000
v -3.137500 -0.323000 0.000000
v -3.139334 -0.321459 0.000000
v -3.141338 -0.319838 0.000000
v -3.143516 -0.318141 0.000000
v -3.145871 -0.316370 0.000000
v -3.148406 -0.314531 0.000000
v -3.151125 -0.312625 0.000000
v -3.154032 -0.310657 0.000000
v -3.157130 -0.308630 0.000000
v -3.160422 -0.306547 0.000000
v -3.163913 -0.304412 0.000000
v -3.167604 -0.302229 0.000000
v -3.171500 -0.300000 0.000000
v -3.200935 -0.284810 0.000000
v -3.231065 -0.267815 0.000000
v -3.261625 -0.249125 0.000000
v -3.292352 -0.228852 0.000000
v -3.322982 -0.207106 0.000000
v -3.353250 -0.184000 0.000000
v -3.382894 -0.159644 0.000000
v -3.411649 -0.134148 0.000000
v -3.439250 -0.107625 0.000000
v -3.465436 -0.080185 0.000000
v -3.489940 -0.051940 0.000000
v -3.512500 -0.023000 0.000000
v -3.465500 0.045000 0.000000
v -3.445336 0.017224 0.000000
v -3.423523 -0.009542 0.000000
v -3.400328 -0.035203 0.000000
v -3.376019 -0.059667 0.000000
v -3.350862 -0.082839 0.000000
v -3.325125 -0.104625 0.000000
v -3.299076 -0.124932 0.000000
v -3.272981 -0.143667 0.000000
v -3.247109 -0.160734 0.000000
v -3.221727 -0.176042 0.000000
v -3.197101 -0.189495 0.000000
v -3.173500 -0.201000 0.000000
v -3.173500 -0.184338 0.000000
v -3.173500 -0.151870 0.000000
v -3.173500 -0.106625 0.000000
v -3.173500 -0.051630 0.000000
v -3.173500 0.010088 0.000000
v -3.173500 0.075500 0.000000
v -3.173500 0.141579 0.000000
v -3.173500 0.205296 0.000000
v -3.173500 0.263625 0.000000
v -3.173500 0.313537 0.000000
v -3.173500 0.352005 0.000000
v -3.173500 0.376000 0.000000
v -3.173560 0.385286 0.000000
v -3.173727 0.394120 0.000000
v -3.173985 0.402469 0.000000
v -3.174315 0.410296 0.000000
v -3.174701 0.417568 0.000000
v -3.175125 0.424250 0.000000
v -3.175570 0.430307 0.000000
v -3.176019 0.435704 0.000000
v -3.176453 0.440406 0.000000
v -3.176857 0.444380 0.000000
v -3.177212 0.447589 0.000000
v -3.177500 0.450000 0.000000
v -3.085500 0.450000 0.000000
v -3.085809 0.447589 0.000000
v -3.086218 0.444380 0.000000
v -3.086703 0.440406 0.000000
v -3.087241 0.435704 0.000000
v -3.087806 0.430307 0.000000
v -3.088375 0.424250 0.000000
v -3.088923 0.417568 0.000000
v -3.089426 0.410296 0.000000
v -3.089859 0.402469 0.000000
v -3.090199 0.394120 0.000000
v -3.090421 0.385286 0.000000
v -3.090500 0.376000 0.000000
v -3.090500 0.351858 0.000000
v -3.090500 0.312949 0.000000
v -3.090500 0.262297 0.000000
v -3.090500 0.202926 0.000000
v -3.090500 0.137861 0.000000
v -3.090500 0.070125 0.000000
v -3.090500 0.002744 0.000000
v -3.090500 -0.061259 0.000000
v -3.090500 -0.118859 0.000000
v -3.090500 -0.167032 0.000000
v -3.090500 -0.202754 0.000000
v -3.090500 -0.223000 0.000000
v -3.090458 -0.227998 0.000000
v -3.090333 -0.232981 0.000000
v -3.090125 -0.237938 0.000000
v -3.089833 -0.242852 0.000000
v -3.089458 -0.247711 0.000000
v -3.089000 -0.252500 0.000000
v -3.088459 -0.257206 0.000000
v -3.087834 -0.261815 0.000000
v -3.087125 -0.266312 0.000000
v -3.086334 -0.270685 0.000000
v -3.085459 -0.274919 0.000000
v -1.897500 -0.212000 0.000000
v -1.897458 -0.221483 0.000000
v -1.897329 -0.231366 0.000000
v -1.897110 -0.241547 0.000000
v -1.896796 -0.251926 0.000000
v -1.896386 -0.262402 0.000000
v -1.895875 -0.272875 0.000000
v -1.895260 -0.283244 0.000000
v -1.894537 -0.293407 0.000000
v -1.893703 -0.303266 0.000000
v -1.892755 -0.312718 0.000000
v -1.891688 -0.321663 0.000000
v -1.890500 -0.330000 0.000000
v -1.987500 -0.330000 0.000000
v -1.986542 -0.321338 0.000000
v -1.985667 -0.311954 0.000000
v -1.984875 -0.302000 0.000000
v -1.984167 -0.291630 0.000000
v -1.983542 -0.280995 0.000000
v -1.983000 -0.270250 0.000000
v -1.982542 -0.259546 0.000000
v -1.982167 -0.249037 0.000000
v -1.981875 -0.238875 0.000000
v -1.981667 -0.229213 0.000000
v -1.981542 -0.220204 0.000000
v -1.981500 -0.212000 0.000000
v -1.980500 0.118000 0.000000
v -2.009469 0.108606 0.000000
v -2.040584 0.098019 0.000000
v -2.073406 0.086375 0.000000
v -2.107500 0.073815 0.000000
v -2.142427 0.060477 0.000000
v -2.177750 0.046500 0.000000
v -2.213032 0.032023 0.000000
v -2.247833 0.017185 0.000000
v -2.281719 0.002125 0.000000
v -2.314250 -0.013019 0.000000
v -2.344990 -0.028106 0.000000
v -2.373500 -0.043000 0.000000
v -2.407500 0.042000 0.000000
v -2.379562 0.055616 0.000000
v -2.348579 0.069847 0.000000
v -2.315047 0.084516 0.000000
v -2.279463 0.099444 0.000000
v -2.242324 0.114457 0.000000
v -2.204125 0.129375 0.000000
v -2.165364 0.144023 0.000000
v -2.126537 0.158222 0.000000
v -2.088141 0.171797 0.000000
v -2.050672 0.184569 0.000000
v -2.014626 0.196363 0.000000
v -1.980500 0.207000 0.000000
v -1.980500 0.370000 0.000000
v -1.980581 0.377756 0.000000
v -1.980810 0.385968 0.000000
v -1.981172 0.394547 0.000000
v -1.981648 0.403407 0.000000
v -1.982222 0.412462 0.000000
v -1.982875 0.421625 0.000000
v -1.983591 0.430808 0.000000
v -1.984352 0.439926 0.000000
v -1.985141 0.448891 0.000000
v -1.985940 0.457616 0.000000
v -1.986732 0.466014 0.000000
v -1.987500 0.474000 0.000000
v -1.889500 0.474000 0.000000
v -1.890918 0.465976 0.000000
v -1.892176 0.457477 0.000000
v -1.893281 0.448609 0.000000
v -1.894241 0.439482 0.000000
v -1.895062 0.430201 0.000000
v -1.895750 0.420875 0.000000
v -1.896314 0.411612 0.000000
v -1.896760 0.402519 0.000000
v -1.897094 0.393703 0.000000
v -1.897324 0.385273 0.000000
v -1.897457 0.377336 0.000000
v -1.897500 0.370000 0.000000
v -1.897500 0.341972 0.000000
v -1.897500 0.301611 0.000000
v -1.897500 0.251500 0.000000
v -1.897500 0.194222 0.000000
v -1.897500 0.132361 0.000000
v -1.897500 0.068500 0.000000
v -1.897500 0.005222 0.000000
v -1.897500 -0.054889 0.000000
v -1.897500 -0.109250 0.000000
v -1.897500 -0.155278 0.000000
v -1.897500 -0.190389 0.000000
v -0.646500 0.061000 0.000000
v -0.686500 -0.017000 0.000000
v -0.721191 -0.005906 0.000000
v -0.755695 0.005838 0.000000
v -0.789906 0.018172 0.000000
v -0.823722 0.031037 0.000000
v -0.857038 0.044374 0.000000
v -0.889750 0.058125 0.000000
v -0.921754 0.072230 0.000000
v -0.952945 0.086630 0.000000
v -0.983219 0.101266 0.000000
v -1.012472 0.116079 0.000000
v -1.040601 0.131010 0.000000
v -1.067500 0.146000 0.000000
v -1.067500 -0.224000 0.000000
v -1.067439 -0.233725 0.000000
v -1.067264 -0.243801 0.000000
v -1.066984 -0.254078 0.000000
v -1.066611 -0.264407 0.000000
v -1.066155 -0.274639 0.000000
v -1.065625 -0.284625 0.000000
v -1.065033 -0.294215 0.000000
v -1.064389 -0.303259 0.000000
v -1.063703 -0.311609 0.000000
v -1.062986 -0.319116 0.000000
v -1.062248 -0.325629 0.000000
v -1.061500 -0.331000 0.000000
v -1.159500 -0.331000 0.000000
v -1.158542 -0.325419 0.000000
v -1.157667 -0.318769 0.000000
v -1.156875 -0.311188 0.000000
v -1.156167 -0.302815 0.000000
v -1.155542 -0.293789 0.000000
v -1.155000 -0.284250 0.000000
v -1.154542 -0.274336 0.000000
v -1.154167 -0.264185 0.000000
v -1.153875 -0.253938 0.000000
v -1.153667 -0.243731 0.000000
v -1.153542 -0.233706 0.000000
v -1.153500 -0.224000 0.000000
v -1.153500 0.198000 0.000000
v -1.178788 0.215164 0.000000
v -1.203639 0.232644 0.000000
v -1.228032 0.250422 0.000000
v -1.251945 0.268482 0.000000
v -1.275358 0.286805 0.000000
v -1.298250 0.305375 0.000000
v -1.320601 0.324174 0.000000
v -1.342389 0.343185 0.000000
v -1.363594 0.362391 0.000000
v -1.384195 0.381773 0.000000
v -1.404170 0.401315 0.000000
v -1.423500 0.421000 0.000000
v -1.356500 0.483000 0.000000
v -1.338620 0.462182 0.000000
v -1.319542 0.441287 0.000000
v -1.299360 0.420406 0.000000
v -1.278167 0.399630 0.000000
v -1.256058 0.379047 0.000000
v -1.233125 0.358750 0.000000
v -1.209464 0.338828 0.000000
v -1.185167 0.319370 0.000000
v -1.160328 0.300469 0.000000
v -1.135042 0.282213 0.000000
v -1.109401 0.264693 0.000000
v -1.083500 0.248000 0.000000
v -1.054888 0.230513 0.000000
v -1.024602 0.213106 0.000000
v -0.992719 0.195859 0.000000
v -0.959315 0.178852 0.000000
v -0.924467 0.162164 0.000000
v -0.888250 0.145875 0.000000
v -0.850742 0.130065 0.000000
v -0.812019 0.114815 0.000000
v -0.772156 0.100203 0.000000
v -0.731232 0.086310 0.000000
v -0.689321 0.073216 0.000000
v -0.096500 0.485000 -0.000000
v -0.005500 0.514000 -0.000000
v -0.003801 0.507328 -0.000000
v -0.001741 0.500370 -0.000000
v 0.000625 0.493219 -0.000000
v 0.003241 0.485963 -0.000000
v 0.006051 0.478693 -0.000000
v 0.009000 0.471500 -0.000000
v 0.012032 0.464473 -0.000000
v 0.015092 0.457704 -0.000000
v 0.018125 0.451281 -0.000000
v 0.021074 0.445296 -0.000000
v 0.023884 0.439839 -0.000000
v 0.026500 0.435000 -0.000000
v 0.039404 0.411080 -0.000000
v 0.054653 0.385056 -0.000000
v 0.072297 0.357281 -0.000000
v 0.092389 0.328111 -0.000000
v 0.114981 0.297899 -0.000000
v 0.140125 0.267000 -0.000000
v 0.167873 0.235767 -0.000000
v 0.198278 0.204556 -0.000000
v 0.231390 0.173719 -0.000000
v 0.267264 0.143611 -0.000000
v 0.305950 0.114587 -0.000000
v 0.347500 0.087000 -0.000000
v 0.280500 0.035000 -0.000000
v 0.252980 0.054671 -0.000000
v 0.226426 0.075116 -0.000000
v 0.200844 0.096234 -0.000000
v 0.176241 0.117926 -0.000000
v 0.152624 0.140090 -0.000000
v 0.130000 0.162625 -0.000000
v 0.108376 0.185431 -0.000000
v 0.087759 0.208407 -0.000000
v 0.068156 0.231453 -0.000000
v 0.049574 0.254468 -0.000000
v 0.032020 0.277350 -0.000000
v 0.015500 0.300000 -0.000000
v -0.322500 0.300000 0.000000
v -0.316864 0.278986 0.000000
v -0.309996 0.257051 0.000000
v -0.301953 0.234359 0.000000
v -0.292796 0.211074 0.000000
v -0.282584 0.187358 0.000000
v -0.271375 0.163375 0.000000
v -0.259229 0.139288 0.000000
v -0.246204 0.115259 0.000000
v -0.232360 0.091453 0.000000
v -0.217755 0.068032 0.000000
v -0.202449 0.045160 0.000000
v -0.186500 0.023000 0.000000
v -0.168904 0.035224 0.000000
v -0.151148 0.047375 0.000000
v -0.133281 0.059422 0.000000
v -0.115352 0.071333 0.000000
v -0.097409 0.083078 0.000000
v -0.079500 0.094625 0.000000
v -0.061675 0.105943 0.000000
v -0.043982 0.117000 -0.000000
v -0.026469 0.127766 -0.000000
v -0.009185 0.138208 -0.000000
v 0.007820 0.148297 -0.000000
v 0.024500 0.158000 -0.000000
v 0.078500 0.103000 -0.000000
v 0.062259 0.092757 -0.000000
v 0.045574 0.082056 -0.000000
v 0.028500 0.070938 -0.000000
v 0.011092 0.059444 -0.000000
v -0.006593 0.047618 -0.000000
v -0.024500 0.035500 0.000000
v -0.042574 0.023132 0.000000
v -0.060759 0.010556 0.000000
v -0.079000 -0.002187 0.000000
v -0.097241 -0.015056 0.000000
v -0.115426 -0.028007 0.000000
v -0.133500 -0.041000 0.000000
v -0.110207 -0.065126 0.000000
v -0.085320 -0.088921 0.000000
v -0.058828 -0.112266 0.000000
v -0.030722 -0.135037 0.000000
v -0.000991 -0.157114 0.000000
v 0.030375 -0.178375 0.000000
v 0.063387 -0.198699 0.000000
v 0.098055 -0.217963 0.000000
v 0.134390 -0.236047 -0.000000
v 0.172403 -0.252829 -0.000000
v 0.212102 -0.268187 -0.000000
v 0.253500 -0.282000 -0.000000
v 0.181500 -0.344000 -0.000000
v 0.140201 -0.327659 0.000000
v 0.100778 -0.310185 0.000000
v 0.063187 -0.291656 0.000000
v 0.027389 -0.272148 0.000000
v -0.006660 -0.251737 0.000000
v -0.039000 -0.230500 0.000000
v -0.069674 -0.208513 0.000000
v -0.098722 -0.185852 0.000000
v -0.126188 -0.162594 0.000000
v -0.152111 -0.138815 0.000000
v -0.176535 -0.114591 0.000000
v -0.199500 -0.090000 0.000000
v -0.209685 -0.098207 0.000000
v -0.219727 -0.106324 0.000000
v -0.229610 -0.114344 0.000000
v -0.239315 -0.122259 0.000000
v -0.248826 -0.130064 0.000000
v -0.258125 -0.137750 0.000000
v -0.267195 -0.145311 0.000000
v -0.276019 -0.152741 0.000000
v -0.284578 -0.160031 0.000000
v -0.292857 -0.167176 0.000000
v -0.300836 -0.174168 0.000000
v -0.308500 -0.181000 0.000000
v -0.367500 -0.112000 0.000000
v -0.359337 -0.105399 0.000000
v -0.350861 -0.098606 0.000000
v -0.342094 -0.091641 0.000000
v -0.333056 -0.084519 0.000000
v -0.323768 -0.077258 0.000000
v -0.314250 -0.069875 0.000000
v -0.304524 -0.062388 0.000000
v -0.294611 -0.054815 0.000000
v -0.284531 -0.047172 0.000000
v -0.274306 -0.039477 0.000000
v -0.263955 -0.031747 0.000000
v -0.253500 -0.024000 0.000000
v -0.272038 0.001789 0.000000
v -0.289639 0.028065 0.000000
v -0.306281 0.054688 0.000000
v -0.321945 0.081519 0.000000
v -0.336608 0.108419 0.000000
v -0.350250 0.135250 0.000000
v -0.362851 0.161873 0.000000
v -0.374389 0.188148 0.000000
v -0.384844 0.213937 0.000000
v -0.394195 0.239102 0.000000
v -0.402420 0.263502 0.000000
v -0.409500 0.287000 0.000000
v -0.411061 0.291156 0.000000
v -0.412736 0.295583 0.000000
v -0.414516 0.300219 0.000000
v -0.416389 0.305000 0.000000
v -0.418346 0.309865 0.000000
v -0.420375 0.314750 0.000000
v -0.422467 0.319594 0.000000
v -0.424611 0.324333 0.000000
v -0.426797 0.328906 0.000000
v -0.429014 0.333250 0.000000
v -0.431252 0.337302 0.000000
v -0.433500 0.341000 0.000000
v -0.367500 0.381000 0.000000
v -0.363146 0.379333 0.000000
v -0.358584 0.377829 0.000000
v -0.353813 0.376484 0.000000
v -0.348834 0.375296 0.000000
v -0.343646 0.374261 0.000000
v -0.338250 0.373375 0.000000
v -0.332646 0.372635 0.000000
v -0.326833 0.372037 0.000000
v -0.320813 0.371578 0.000000
v -0.314583 0.371255 0.000000
v -0.308146 0.371063 0.000000
v -0.301500 0.371000 0.000000
v -0.030500 0.371000 -0.000000
v -0.051500 0.407000 -0.000000
v -0.054162 0.411819 -0.000000
v -0.057125 0.417222 -0.000000
v -0.060360 0.423125 -0.000000
v -0.063834 0.429444 -0.000000
v -0.067516 0.436097 -0.000000
v -0.071375 0.443000 -0.000000
v -0.075380 0.450069 -0.000000
v -0.079500 0.457222 -0.000000
v -0.083703 0.464375 -0.000000
v -0.087959 0.471444 -0.000000
v -0.092235 0.478347 -0.000000
v 0.755500 0.382000 -0.000000
v 1.142500 0.382000 -0.000000
v 1.142500 -0.300000 -0.000000
v 0.746500 -0.300000 -0.000000
v 0.746500 -0.212000 -0.000000
v 1.044500 -0.212000 -0.000000
v 1.044500 0.000000 -0.000000
v 0.765500 0.000000 -0.000000
v 0.765500 0.088000 -0.000000
v 1.044500 0.088000 -0.000000
v 1.044500 0.294000 -0.000000
v 0.755500 0.294000 -0.000000
v 1.269500 0.335000 -0.000000
v 1.292304 0.344295 -0.000000
v 1.314264 0.352690 -0.000000
v 1.335453 0.360203 -0.000000
v 1.355944 0.366852 -0.000000
v 1.375811 0.372653 -0.000000
v 1.395125 0.377625 -0.000000
v 1.413960 0.381784 -0.000000
v 1.432389 0.385148 -0.000000
v 1.450484 0.387734 -0.000000
v 1.468319 0.389560 -0.000000
v 1.485967 0.390643 -0.000000
v 1.503500 0.391000 -0.000000
v 1.556444 0.387889 -0.000000
v 1.606551 0.378778 -0.000000
v 1.653484 0.364000 -0.000000
v 1.696907 0.343889 -0.000000
v 1.736483 0.318778 -0.000000
v 1.771875 0.289000 -0.000000
v 1.802746 0.254889 -0.000000
v 1.828759 0.216778 -0.000000
v 1.849578 0.175000 -0.000000
v 1.864866 0.129889 -0.000000
v 1.874285 0.081778 -0.000000
v 1.877500 0.031000 -0.000000
v 1.875148 -0.005730 -0.000000
v 1.868019 -0.043838 -0.000000
v 1.856000 -0.082453 -0.000000
v 1.838981 -0.120704 -0.000000
v 1.816852 -0.157718 -0.000000
v 1.789500 -0.192625 -0.000000
v 1.756815 -0.224553 -0.000000
v 1.718685 -0.252630 -0.000000
v 1.675000 -0.275984 -0.000000
v 1.625648 -0.293745 -0.000000
v 1.570518 -0.305041 -0.000000
v 1.509500 -0.309000 -0.000000
v 1.483442 -0.308488 -0.000000
v 1.458704 -0.306986 -0.000000
v 1.435188 -0.304547 -0.000000
v 1.412796 -0.301222 -0.000000
v 1.391433 -0.297064 -0.000000
v 1.371000 -0.292125 -0.000000
v 1.351401 -0.286457 -0.000000
v 1.332537 -0.280111 -0.000000
v 1.314313 -0.273141 -0.000000
v 1.296630 -0.265597 -0.000000
v 1.279391 -0.257533 -0.000000
v 1.262500 -0.249000 -0.000000
v 1.262500 -0.142000 -0.000000
v 1.281888 -0.154019 -0.000000
v 1.301519 -0.165065 -0.000000
v 1.321344 -0.175125 -0.000000
v 1.341315 -0.184185 -0.000000
v 1.361383 -0.192231 -0.000000
v 1.381500 -0.199250 -0.000000
v 1.401617 -0.205227 -0.000000
v 1.421685 -0.210148 -0.000000
v 1.441656 -0.214000 -0.000000
v 1.461481 -0.216769 -0.000000
v 1.481112 -0.218440 -0.000000
v 1.500500 -0.219000 -0.000000
v 1.540382 -0.216826 -0.000000
v 1.577889 -0.210440 -0.000000
v 1.612813 -0.200047 -0.000000
v 1.644944 -0.185852 -0.000000
v 1.674076 -0.168060 -0.000000
v 1.700000 -0.146875 -0.000000
v 1.722507 -0.122503 -0.000000
v 1.741389 -0.095148 -0.000000
v 1.756437 -0.065016 -0.000000
v 1.767444 -0.032310 -0.000000
v 1.774201 0.002763 -0.000000
v 1.776500 0.040000 -0.000000
v 1.774127 0.076646 -0.000000
v 1.767185 0.111417 -0.000000
v 1.755937 0.144062 -0.000000
v 1.740648 0.174333 -0.000000
v 1.721581 0.201979 -0.000000
v 1.699000 0.226750 -0.000000
v 1.673169 0.248396 -0.000000
v 1.644352 0.266667 -0.000000
v 1.612813 0.281312 -0.000000
v 1.578815 0.292083 -0.000000
v 1.542623 0.298729 -0.000000
v 1.504500 0.301000 -0.000000
v 1.484885 0.300539 -0.000000
v 1.465495 0.299144 -0.000000
v 1.446266 0.296797 -0.000000
v 1.427130 0.293481 -0.000000
v 1.408021 0.289180 -0.000000
v 1.388875 0.283875 -0.000000
v 1.369624 0.277549 -0.000000
v 1.350204 0.270185 -0.000000
v 1.330547 0.261766 -0.000000
v 1.310588 0.252273 -0.000000
v 1.290261 0.241690 -0.000000
v 1.269500 0.230000 -0.000000
v 2.230500 0.386000 -0.000000
v 2.299500 0.386000 -0.000000
v 2.592500 -0.300000 -0.000000
v 2.492500 -0.300000 -0.000000
v 2.406500 -0.099000 -0.000000
v 2.116500 -0.099000 -0.000000
v 2.025500 -0.300000 -0.000000
v 1.925500 -0.300000 -0.000000
v 2.266500 0.236000 -0.000000
v 2.156500 -0.011000 -0.000000
v 2.368500 -0.011000 -0.000000
v 3.032500 0.382000 -0.000000
v 3.032500 -0.300000 -0.000000
v 2.934500 -0.300000 -0.000000
v 2.934500 -0.005000 -0.000000
v 2.832500 -0.005000 -0.000000
v 2.794784 -0.003285 -0.000000
v 2.760602 0.001718 -0.000000
v 2.729906 0.009797 -0.000000
v 2.702648 0.020741 -0.000000
v 2.678779 0.034337 -0.000000
v 2.658250 0.050375 -0.000000
v 2.641013 0.068642 -0.000000
v 2.627018 0.088926 -0.000000
v 2.616219 0.111016 -0.000000
v 2.608565 0.134699 -0.000000
v 2.604008 0.159765 -0.000000
v 2.602500 0.186000 -0.000000
v 2.603924 0.212544 -0.000000
v 2.608227 0.238019 -0.000000
v 2.615453 0.262188 -0.000000
v 2.625648 0.284815 -0.000000
v 2.638857 0.305664 -0.000000
v 2.655125 0.324500 -0.000000
v 2.674497 0.341086 -0.000000
v 2.697019 0.355185 -0.000000
v 2.722735 0.366563 -0.000000
v 2.751690 0.374981 -0.000000
v 2.783930 0.380206 -0.000000
v 2.819500 0.382000 -0.000000
v 2.934500 0.294000 -0.000000
v 2.819500 0.294000 -0.000000
v 2.798522 0.292909 -0.000000
v 2.780005 0.289769 -0.000000
v 2.763828 0.284781 -0.000000
v 2.749871 0.278148 -0.000000
v 2.738010 0.270071 -0.000000
v 2.728125 0.260750 -0.000000
v 2.720094 0.250388 -0.000000
v 2.713796 0.239185 -0.000000
v 2.709110 0.227344 -0.000000
v 2.705912 0.215065 -0.000000
v 2.704083 0.202550 -0.000000
v 2.703500 0.190000 -0.000000
v 2.704467 0.173610 -0.000000
v 2.707320 0.158463 -0.000000
v 2.711985 0.144594 -0.000000
v 2.718389 0.132037 -0.000000
v 2.726460 0.120828 -0.000000
v 2.736125 0.111000 -0.000000
v 2.747311 0.102589 -0.000000
v 2.759944 0.095630 -0.000000
v 2.773953 0.090156 -0.000000
v 2.789264 0.086204 -0.000000
v 2.805804 0.083807 -0.000000
v 2.823500 0.083000 -0.000000
v 2.934500 0.083000 -0.000000
v 3.161500 0.343000 -0.000000
v 3.173581 0.350667 -0.000000
v 3.185815 0.357667 -0.000000
v 3.198188 0.364000 -0.000000
v 3.210685 0.369667 -0.000000
v 3.223294 0.374667 -0.000000
v 3.236000 0.379000 -0.000000
v 3.248789 0.382667 -0.000000
v 3.261648 0.385667 -0.000000
v 3.274563 0.388000 -0.000000
v 3.287519 0.389667 -0.000000
v 3.300503 0.390667 -0.000000
v 3.313500 0.391000 -0.000000
v 3.343832 0.389539 -0.000000
v 3.372236 0.385227 -0.000000
v 3.398578 0.378172 -0.000000
v 3.422722 0.368481 -0.000000
v 3.444533 0.356263 -0.000000
v 3.463875 0.341625 -0.000000
v 3.480613 0.324674 -0.000000
v 3.494611 0.305519 -0.000000
v 3.505734 0.284266 -0.000000
v 3.513847 0.261023 -0.000000
v 3.518814 0.235899 -0.000000
v 3.520500 0.209000 -0.000000
v 3.514696 0.165641 -0.000000
v 3.498648 0.128380 -0.000000
v 3.474406 0.096188 -0.000000
v 3.444019 0.068037 -0.000000
v 3.409534 0.042900 -0.000000
v 3.373000 0.019750 -0.000000
v 3.336467 -0.002442 -0.000000
v 3.301982 -0.024704 -0.000000
v 3.271594 -0.048063 -0.000000
v 3.247352 -0.073546 -0.000000
v 3.231305 -0.102183 -0.000000
v 3.225500 -0.135000 -0.000000
v 3.226233 -0.144675 -0.000000
v 3.228445 -0.154565 -0.000000
v 3.232156 -0.164469 -0.000000
v 3.237389 -0.174185 -0.000000
v 3.244163 -0.183513 -0.000000
v 3.252500 -0.192250 -0.000000
v 3.262420 -0.200196 -0.000000
v 3.273944 -0.207148 -0.000000
v 3.287094 -0.212906 -0.000000
v 3.301889 -0.217269 -0.000000
v 3.318351 -0.220034 -0.000000
v 3.336500 -0.221000 -0.000000
v 3.353162 -0.220274 -0.000000
v 3.369625 -0.218111 -0.000000
v 3.385859 -0.214531 -0.000000
v 3.401834 -0.209556 -0.000000
v 3.417516 -0.203205 -0.000000
v 3.432875 -0.195500 -0.000000
v 3.447880 -0.186462 -0.000000
v 3.462500 -0.176111 -0.000000
v 3.476703 -0.164469 -0.000000
v 3.490458 -0.151556 -0.000000
v 3.503735 -0.137392 -0.000000
v 3.516500 -0.122000 -0.000000
v 3.516500 -0.246000 -0.000000
v 3.502181 -0.256273 -0.000000
v 3.487699 -0.265597 -0.000000
v 3.473016 -0.273984 -0.000000
v 3.458093 -0.281444 -0.000000
v 3.442892 -0.287988 -0.000000
v 3.427375 -0.293625 -0.000000
v 3.411504 -0.298366 -0.000000
v 3.395241 -0.302222 -0.000000
v 3.378547 -0.305203 -0.000000
v 3.361384 -0.307319 -0.000000
v 3.343715 -0.308582 -0.000000
v 3.325500 -0.309000 -0.000000
v 3.298634 -0.307403 -0.000000
v 3.273157 -0.302727 -0.000000
v 3.249250 -0.295141 -0.000000
v 3.227093 -0.284815 -0.000000
v 3.206866 -0.271920 -0.000000
v 3.188750 -0.256625 -0.000000
v 3.172926 -0.239101 -0.000000
v 3.159574 -0.219519 -0.000000
v 3.148875 -0.198047 -0.000000
v 3.141009 -0.174856 -0.000000
v 3.136157 -0.150117 -0.000000
v 3.134500 -0.124000 -0.000000
v 3.140304 -0.074109 -0.000000
v 3.156352 -0.032120 -0.000000
v 3.180594 0.003187 -0.000000
v 3.210981 0.033037 -0.000000
v 3.245466 0.058650 -0.000000
v 3.282000 0.081250 -0.000000
v 3.318533 0.102058 -0.000000
v 3.353018 0.122296 -0.000000
v 3.383406 0.143188 -0.000000
v 3.407648 0.165954 -0.000000
v 3.423695 0.191817 -0.000000
v 3.429500 0.222000 -0.000000
v 3.428578 0.233677 -0.000000
v 3.425875 0.244667 -0.000000
v 3.421484 0.254906 -0.000000
v 3.415500 0.264333 -0.000000
v 3.408015 0.272885 -0.000000
v 3.399125 0.280500 -0.000000
v 3.388922 0.287115 -0.000000
v 3.377500 0.292667 -0.000000
v 3.364953 0.297094 -0.000000
v 3.351375 0.300333 -0.000000
v 3.336859 0.302323 -0.000000
v 3.321500 0.303000 -0.000000
v 3.309796 0.302653 -0.000000
v 3.297704 0.301560 -0.000000
v 3.285250 0.299641 -0.000000
v 3.272463 0.296815 -0.000000
v 3.259370 0.293003 -0.000000
v 3.246000 0.288125 -0.000000
v 3.232380 0.282101 -0.000000
v 3.218537 0.274852 -0.000000
v 3.204500 0.266297 -0.000000
v 3.190296 0.256356 -0.000000
v 3.175954 0.244951 -0.000000
v 3.161500 0.232000 -0.000000
vn -0.0000 -0.0000 -1.0000
vt 0.802326 0.000000
vt 0.790698 0.000000
vt 0.796512 0.000000
vt 0.784884 0.000000
vt 0.808140 0.000000
vt 0.779070 0.000000
vt 0.813953 0.000000
vt 0.773256 0.000000
vt 0.819767 0.000000
vt 0.767442 0.000000
vt 0.825581 0.000000
vt 0.761628 0.000000
vt 0.831395 0.000000
vt 0.755814 0.000000
vt 0.837209 0.000000
vt 0.750000 0.000000
vt 0.843023 0.000000
vt 0.744186 0.000000
vt 0.848837 0.000000
vt 0.738372 0.000000
vt 0.854651 0.000000
vt 0.732558 0.000000
vt 0.860465 0.000000
vt 0.726744 0.000000
vt 0.866279 0.000000
vt 0.720930 0.000000
vt 0.872093 0.000000
vt 0.715116 0.000000
vt 0.709302 0.000000
vt 0.877907 0.000000
vt 0.703488 0.000000
vt 0.883721 0.000000
vt 0.697674 0.000000
vt 0.889535 0.000000
vt 0.691860 0.000000
vt 0.895349 0.000000
vt 0.686047 0.000000
vt 0.901163 0.000000
vt 0.680233 0.000000
vt 0.906977 0.000000
vt 0.587209 0.000000
vt 0.575581 0.000000
vt 0.581395 0.000000
vt 0.593023 0.000000
vt 0.674419 0.000000
vt 0.912791 0.000000
vt 0.598837 0.000000
vt 0.569767 0.000000
vt 0.604651 0.000000
vt 0.668605 0.000000
vt 0.563953 0.000000
vt 0.610465 0.000000
vt 0.918605 0.000000
vt 0.558140 0.000000
vt 0.616279 0.000000
vt 0.622093 0.000000
vt 0.662791 0.000000
vt 0.552326 0.000000
vt 0.924419 0.000000
vt 0.627907 0.000000
vt 0.546512 0.000000
vt 0.633721 0.000000
vt 0.656977 0.000000
vt 0.540698 0.000000
vt 0.639535 0.000000
vt 0.930233 0.000000
vt 0.645349 0.000000
vt 0.534884 0.000000
vt 0.651163 0.000000
vt 0.936047 0.000000
vt 0.529070 0.000000
vt 0.941860 0.000000
vt 0.947674 0.000000
vt 0.523256 0.000000
vt 0.953488 0.000000
vt 0.959302 0.000000
vt 0.965116 0.000000
vt 0.970930 0.000000
vt 0.517442 0.000000
vt 0.976744 0.000000
vt 0.982558 0.000000
vt 0.988372 0.000000
vt 0.994186 0.000000
vt 0.511628 0.000000
vt 1.000000 0.000000
vt 0.430233 0.000000
vt 0.436047 0.000000
vt 0.441860 0.000000
vt 0.447674 0.000000
vt 0.453488 0.000000
vt 0.459302 0.000000
vt 0.465116 0.000000
vt 0.470930 0.000000
vt 0.476744 0.000000
vt 0.482558 0.000000
vt 0.488372 0.000000
vt 0.494186 0.000000
vt 0.500000 0.000000
vt 0.505814 0.000000
vt 0.226744 0.000000
vt 0.215116 0.000000
vt 0.220930 0.000000
vt 0.209302 0.000000
vt 0.203488 0.000000
vt 0.232558 0.000000
vt 0.197674 0.000000
vt 0.238372 0.000000
vt 0.191860 0.000000
vt 0.244186 0.000000
vt 0.186047 0.000000
vt 0.250000 0.000000
vt 0.180233 0.000000
vt 0.255814 0.000000
vt 0.174419 0.000000
vt 0.261628 0.000000
vt 0.168605 0.000000
vt 0.267442 0.000000
vt 0.162791 0.000000
vt 0.273256 0.000000
vt 0.156977 0.000000
vt 0.279070 0.000000
vt 0.151163 0.000000
vt 0.284884 0.000000
vt 0.145349 0.000000
vt 0.290698 0.000000
vt 0.139535 0.000000
vt 0.296512 0.000000
vt 0.133721 0.000000
vt 0.302326 0.000000
vt 0.308140 0.000000
vt 0.127907 0.000000
vt 0.313953 0.000000
vt 0.122093 0.000000
vt 0.319767 0.000000
vt 0.116279 0.000000
vt 0.325581 0.000000
vt 0.110465 0.000000
vt 0.331395 0.000000
vt 0.104651 0.000000
vt 0.337209 0.000000
vt 0.098837 0.000000
vt 0.343023 0.000000
vt 0.093023 0.000000
vt 0.348837 0.000000
vt 0.087209 0.000000
vt 0.354651 0.000000
vt 0.081395 0.000000
vt 0.360465 0.000000
vt 0.075581 0.000000
vt 0.366279 0.000000
vt 0.069767 0.000000
vt 0.372093 0.000000
vt 0.377907 0.000000
vt 0.063953 0.000000
vt 0.383721 0.000000
vt 0.058140 0.000000
vt 0.389535 0.000000
vt 0.052326 0.000000
vt 0.395349 0.000000
vt 0.046512 0.000000
vt 0.401163 0.000000
vt 0.040698 0.000000
vt 0.406977 0.000000
vt 0.034884 0.000000
vt 0.412791 0.000000
vt 0.418605 0.000000
vt 0.029070 0.000000
vt 0.424419 0.000000
vt 0.023256 0.000000
vt 0.000000 0.000000
vt 0.017442 0.000000
vt 0.005814 0.000000
vt 0.011628 0.000000
vt 0.727273 0.000000
vt 0.738636 0.000000
vt 0.715909 0.000000
vt 0.704545 0.000000
vt 0.761364 0.000000
vt 0.693182 0.000000
vt 0.772727 0.000000
vt 0.681818 0.000000
vt 0.784091 0.000000
vt 0.670455 0.000000
vt 0.795455 0.000000
vt 0.659091 0.000000
vt 0.806818 0.000000
vt 0.647727 0.000000
vt 0.818182 0.000000
vt 0.636364 0.000000
vt 0.829545 0.000000
vt 0.625000 0.000000
vt 0.840909 0.000000
vt 0.613636 0.000000
vt 0.852273 0.000000
vt 0.602273 0.000000
vt 0.863636 0.000000
vt 0.590909 0.000000
vt 0.875000 0.000000
vt 0.886364 0.000000
vt 0.579545 0.000000
vt 0.897727 0.000000
vt 0.909091 0.000000
vt 0.920455 0.000000
vt 0.568182 0.000000
vt 0.556818 0.000000
vt 0.931818 0.000000
vt 0.545455 0.000000
vt 0.534091 0.000000
vt 0.522727 0.000000
vt 0.511364 0.000000
vt 0.943182 0.000000
vt 0.295455 0.000000
vt 0.284091 0.000000
vt 0.306818 0.000000
vt 0.488636 0.000000
vt 0.318182 0.000000
vt 0.477273 0.000000
vt 0.329545 0.000000
vt 0.340909 0.000000
vt 0.465909 0.000000
vt 0.352273 0.000000
vt 0.454545 0.000000
vt 0.954545 0.000000
vt 0.363636 0.000000
vt 0.443182 0.000000
vt 0.375000 0.000000
vt 0.386364 0.000000
vt 0.397727 0.000000
vt 0.409091 0.000000
vt 0.420455 0.000000
vt 0.431818 0.000000
vt 0.965909 0.000000
vt 0.977273 0.000000
vt 0.988636 0.000000
vt 0.011364 0.000000
vt 0.272727 0.000000
vt 0.261364 0.000000
vt 0.022727 0.000000
vt 0.034091 0.000000
vt 0.238636 0.000000
vt 0.045455 0.000000
vt 0.227273 0.000000
vt 0.056818 0.000000
vt 0.215909 0.000000
vt 0.068182 0.000000
vt 0.204545 0.000000
vt 0.079545 0.000000
vt 0.193182 0.000000
vt 0.090909 0.000000
vt 0.181818 0.000000
vt 0.102273 0.000000
vt 0.170455 0.000000
vt 0.113636 0.000000
vt 0.159091 0.000000
vt 0.125000 0.000000
vt 0.147727 0.000000
vt 0.136364 0.000000
vt 0.710526 0.000000
vt 0.684211 0.000000
vt 0.697368 0.000000
vt 0.723684 0.000000
vt 0.736842 0.000000
vt 0.671053 0.000000
vt 0.657895 0.000000
vt 0.763158 0.000000
vt 0.644737 0.000000
vt 0.776316 0.000000
vt 0.631579 0.000000
vt 0.789474 0.000000
vt 0.618421 0.000000
vt 0.802632 0.000000
vt 0.605263 0.000000
vt 0.815789 0.000000
vt 0.592105 0.000000
vt 0.828947 0.000000
vt 0.578947 0.000000
vt 0.842105 0.000000
vt 0.565789 0.000000
vt 0.855263 0.000000
vt 0.552632 0.000000
vt 0.868421 0.000000
vt 0.539474 0.000000
vt 0.881579 0.000000
vt 0.526316 0.000000
vt 0.894737 0.000000
vt 0.171053 0.000000
vt 0.513158 0.000000
vt 0.907895 0.000000
vt 0.921053 0.000000
vt 0.934211 0.000000
vt 0.157895 0.000000
vt 0.184211 0.000000
vt 0.947368 0.000000
vt 0.144737 0.000000
vt 0.960526 0.000000
vt 0.131579 0.000000
vt 0.973684 0.000000
vt 0.118421 0.000000
vt 0.986842 0.000000
vt 0.105263 0.000000
vt 0.092105 0.000000
vt 0.013158 0.000000
vt 0.078947 0.000000
vt 0.065789 0.000000
vt 0.052632 0.000000
vt 0.039474 0.000000
vt 0.026316 0.000000
vt 0.197368 0.000000
vt 0.486842 0.000000
vt 0.210526 0.000000
vt 0.473684 0.000000
vt 0.223684 0.000000
vt 0.460526 0.000000
vt 0.236842 0.000000
vt 0.447368 0.000000
vt 0.434211 0.000000
vt 0.263158 0.000000
vt 0.421053 0.000000
vt 0.276316 0.000000
vt 0.407895 0.000000
vt 0.289474 0.000000
vt 0.394737 0.000000
vt 0.302632 0.000000
vt 0.381579 0.000000
vt 0.315789 0.000000
vt 0.368421 0.000000
vt 0.328947 0.000000
vt 0.355263 0.000000
vt 0.342105 0.000000
vt 0.005682 0.000000
vt 0.017045 0.000000
vt 0.028409 0.000000
vt 0.039773 0.000000
vt 0.994318 0.000000
vt 0.051136 0.000000
vt 0.982955 0.000000
vt 0.062500 0.000000
vt 0.971591 0.000000
vt 0.073864 0.000000
vt 0.960227 0.000000
vt 0.948864 0.000000
vt 0.937500 0.000000
vt 0.085227 0.000000
vt 0.857955 0.000000
vt 0.869318 0.000000
vt 0.880682 0.000000
vt 0.892045 0.000000
vt 0.903409 0.000000
vt 0.914773 0.000000
vt 0.926136 0.000000
vt 0.096591 0.000000
vt 0.846591 0.000000
vt 0.835227 0.000000
vt 0.823864 0.000000
vt 0.812500 0.000000
vt 0.801136 0.000000
vt 0.221591 0.000000
vt 0.210227 0.000000
vt 0.107955 0.000000
vt 0.789773 0.000000
vt 0.778409 0.000000
vt 0.232955 0.000000
vt 0.198864 0.000000
vt 0.767045 0.000000
vt 0.119318 0.000000
vt 0.244318 0.000000
vt 0.187500 0.000000
vt 0.755682 0.000000
vt 0.255682 0.000000
vt 0.130682 0.000000
vt 0.176136 0.000000
vt 0.357955 0.000000
vt 0.346591 0.000000
vt 0.267045 0.000000
vt 0.744318 0.000000
vt 0.335227 0.000000
vt 0.164773 0.000000
vt 0.142045 0.000000
vt 0.323864 0.000000
vt 0.369318 0.000000
vt 0.278409 0.000000
vt 0.312500 0.000000
vt 0.380682 0.000000
vt 0.732955 0.000000
vt 0.153409 0.000000
vt 0.392045 0.000000
vt 0.301136 0.000000
vt 0.289773 0.000000
vt 0.403409 0.000000
vt 0.721591 0.000000
vt 0.414773 0.000000
vt 0.426136 0.000000
vt 0.710227 0.000000
vt 0.698864 0.000000
vt 0.437500 0.000000
vt 0.687500 0.000000
vt 0.676136 0.000000
vt 0.573864 0.000000
vt 0.664773 0.000000
vt 0.448864 0.000000
vt 0.585227 0.000000
vt 0.653409 0.000000
vt 0.596591 0.000000
vt 0.607955 0.000000
vt 0.619318 0.000000
vt 0.630682 0.000000
vt 0.642045 0.000000
vt 0.562500 0.000000
vt 0.460227 0.000000
vt 0.551136 0.000000
vt 0.471591 0.000000
vt 0.539773 0.000000
vt 0.482955 0.000000
vt 0.528409 0.000000
vt 0.494318 0.000000
vt 0.505682 0.000000
vt 0.517045 0.000000
vt 0.134021 0.000000
vt 0.113402 0.000000
vt 0.123711 0.000000
vt 0.103093 0.000000
vt 0.092784 0.000000
vt 0.144330 0.000000
vt 0.082474 0.000000
vt 0.072165 0.000000
vt 0.061856 0.000000
vt 0.154639 0.000000
vt 0.051546 0.000000
vt 0.041237 0.000000
vt 0.030928 0.000000
vt 0.164948 0.000000
vt 0.020619 0.000000
vt 0.010309 0.000000
vt 0.175258 0.000000
vt 0.896907 0.000000
vt 0.907216 0.000000
vt 0.917526 0.000000
vt 0.927835 0.000000
vt 0.938144 0.000000
vt 0.948454 0.000000
vt 0.958763 0.000000
vt 0.969072 0.000000
vt 0.979381 0.000000
vt 0.989691 0.000000
vt 0.185567 0.000000
vt 0.876289 0.000000
vt 0.886598 0.000000
vt 0.865979 0.000000
vt 0.855670 0.000000
vt 0.845361 0.000000
vt 0.195876 0.000000
vt 0.835052 0.000000
vt 0.824742 0.000000
vt 0.206186 0.000000
vt 0.814433 0.000000
vt 0.804124 0.000000
vt 0.216495 0.000000
vt 0.793814 0.000000
vt 0.226804 0.000000
vt 0.783505 0.000000
vt 0.773196 0.000000
vt 0.237113 0.000000
vt 0.762887 0.000000
vt 0.247423 0.000000
vt 0.752577 0.000000
vt 0.742268 0.000000
vt 0.257732 0.000000
vt 0.731959 0.000000
vt 0.268041 0.000000
vt 0.721649 0.000000
vt 0.278351 0.000000
vt 0.711340 0.000000
vt 0.288660 0.000000
vt 0.701031 0.000000
vt 0.298969 0.000000
vt 0.690722 0.000000
vt 0.515464 0.000000
vt 0.494845 0.000000
vt 0.505155 0.000000
vt 0.680412 0.000000
vt 0.525773 0.000000
vt 0.309278 0.000000
vt 0.536082 0.000000
vt 0.670103 0.000000
vt 0.546392 0.000000
vt 0.556701 0.000000
vt 0.659794 0.000000
vt 0.567010 0.000000
vt 0.319588 0.000000
vt 0.577320 0.000000
vt 0.649485 0.000000
vt 0.587629 0.000000
vt 0.597938 0.000000
vt 0.639175 0.000000
vt 0.608247 0.000000
vt 0.618557 0.000000
vt 0.628866 0.000000
vt 0.329897 0.000000
vt 0.484536 0.000000
vt 0.340206 0.000000
vt 0.474227 0.000000
vt 0.463918 0.000000
vt 0.453608 0.000000
vt 0.350515 0.000000
vt 0.443299 0.000000
vt 0.432990 0.000000
vt 0.422680 0.000000
vt 0.360825 0.000000
vt 0.412371 0.000000
vt 0.402062 0.000000
vt 0.391753 0.000000
vt 0.371134 0.000000
vt 0.381443 0.000000
vt 0.200000 0.000000
vt 0.100000 0.000000
vt 0.800000 0.000000
vt 0.700000 0.000000
vt 0.900000 0.000000
vt 0.400000 0.000000
vt 0.300000 0.000000
vt 0.600000 0.000000
vt 0.018182 0.000000
vt 0.527273 0.000000
vt 0.509091 0.000000
vt 0.490909 0.000000
vt 0.472727 0.000000
vt 0.436364 0.000000
vt 0.418182 0.000000
vt 0.381818 0.000000
vt 0.563636 0.000000
vt 0.581818 0.000000
vt 0.345455 0.000000
vt 0.618182 0.000000
vt 0.654545 0.000000
vt 0.327273 0.000000
vt 0.672727 0.000000
vt 0.690909 0.000000
vt 0.709091 0.000000
vt 0.309091 0.000000
vt 0.745455 0.000000
vt 0.290909 0.000000
vt 0.763636 0.000000
vt 0.781818 0.000000
vt 0.254545 0.000000
vt 0.836364 0.000000
vt 0.236364 0.000000
vt 0.854545 0.000000
vt 0.872727 0.000000
vt 0.218182 0.000000
vt 0.890909 0.000000
vt 0.927273 0.000000
vt 0.945455 0.000000
vt 0.963636 0.000000
vt 0.981818 0.000000
vt 0.054545 0.000000
vt 0.163636 0.000000
vt 0.145455 0.000000
vt 0.127273 0.000000
vt 0.109091 0.000000
vt 0.072727 0.000000
vt 0.036364 0.000000
vt 0.107438 0.000000
vt 0.099174 0.000000
vt 0.082645 0.000000
vt 0.074380 0.000000
vt 0.115702 0.000000
vt 0.066116 0.000000
vt 0.057851 0.000000
vt 0.123967 0.000000
vt 0.049587 0.000000
vt 0.041322 0.000000
vt 0.132231 0.000000
vt 0.033058 0.000000
vt 0.024793 0.000000
vt 0.140496 0.000000
vt 0.016529 0.000000
vt 0.008264 0.000000
vt 0.148760 0.000000
vt 0.933884 0.000000
vt 0.942149 0.000000
vt 0.950413 0.000000
vt 0.958678 0.000000
vt 0.966942 0.000000
vt 0.975207 0.000000
vt 0.983471 0.000000
vt 0.991736 0.000000
vt 0.157025 0.000000
vt 0.917355 0.000000
vt 0.925620 0.000000
vt 0.165289 0.000000
vt 0.900826 0.000000
vt 0.173554 0.000000
vt 0.892562 0.000000
vt 0.884298 0.000000
vt 0.876033 0.000000
vt 0.867769 0.000000
vt 0.859504 0.000000
vt 0.851240 0.000000
vt 0.842975 0.000000
vt 0.834711 0.000000
vt 0.826446 0.000000
vt 0.190083 0.000000
vt 0.809917 0.000000
vt 0.198347 0.000000
vt 0.801653 0.000000
vt 0.793388 0.000000
vt 0.206612 0.000000
vt 0.785124 0.000000
vt 0.776860 0.000000
vt 0.214876 0.000000
vt 0.768595 0.000000
vt 0.223140 0.000000
vt 0.760331 0.000000
vt 0.752066 0.000000
vt 0.231405 0.000000
vt 0.743802 0.000000
vt 0.239669 0.000000
vt 0.735537 0.000000
vt 0.247934 0.000000
vt 0.256198 0.000000
vt 0.719008 0.000000
vt 0.264463 0.000000
vt 0.710744 0.000000
vt 0.280992 0.000000
vt 0.289256 0.000000
vt 0.702479 0.000000
vt 0.297521 0.000000
vt 0.504132 0.000000
vt 0.487603 0.000000
vt 0.495868 0.000000
vt 0.694215 0.000000
vt 0.305785 0.000000
vt 0.479339 0.000000
vt 0.314050 0.000000
vt 0.685950 0.000000
vt 0.471074 0.000000
vt 0.322314 0.000000
vt 0.462810 0.000000
vt 0.330579 0.000000
vt 0.338843 0.000000
vt 0.677686 0.000000
vt 0.347107 0.000000
vt 0.446281 0.000000
vt 0.355372 0.000000
vt 0.438017 0.000000
vt 0.669421 0.000000
vt 0.429752 0.000000
vt 0.371901 0.000000
vt 0.421488 0.000000
vt 0.380165 0.000000
vt 0.413223 0.000000
vt 0.388430 0.000000
vt 0.404959 0.000000
vt 0.661157 0.000000
vt 0.396694 0.000000
vt 0.652893 0.000000
vt 0.512397 0.000000
vt 0.520661 0.000000
vt 0.644628 0.000000
vt 0.528926 0.000000
vt 0.537190 0.000000
vt 0.628099 0.000000
vt 0.553719 0.000000
vt 0.561983 0.000000
vt 0.619835 0.000000
vt 0.570248 0.000000
vt 0.578512 0.000000
vt 0.611570 0.000000
vt 0.586777 0.000000
vt 0.595041 0.000000
vt 0.603306 0.000000
s 0
usemtl マテリアル.001
f 139/1/1 137/2/1 138/3/1
f 139/1/1 136/4/1 137/2/1
f 140/5/1 136/4/1 139/1/1
f 140/5/1 135/6/1 136/4/1
f 141/7/1 135/6/1 140/5/1
f 141/7/1 134/8/1 135/6/1
f 142/9/1 134/8/1 141/7/1
f 142/9/1 133/10/1 134/8/1
f 143/11/1 133/10/1 142/9/1
f 143/11/1 132/12/1 133/10/1
f 144/13/1 132/12/1 143/11/1
f 144/13/1 131/14/1 132/12/1
f 145/15/1 131/14/1 144/13/1
f 145/15/1 130/16/1 131/14/1
f 146/17/1 130/16/1 145/15/1
f 146/17/1 129/18/1 130/16/1
f 147/19/1 129/18/1 146/17/1
f 147/19/1 128/20/1 129/18/1
f 148/21/1 128/20/1 147/19/1
f 148/21/1 127/22/1 128/20/1
f 149/23/1 127/22/1 148/21/1
f 149/23/1 126/24/1 127/22/1
f 150/25/1 126/24/1 149/23/1
f 150/25/1 125/26/1 126/24/1
f 151/27/1 125/26/1 150/25/1
f 151/27/1 124/28/1 125/26/1
f 151/27/1 123/29/1 124/28/1
f 152/30/1 123/29/1 151/27/1
f 152/30/1 122/31/1 123/29/1
f 153/32/1 122/31/1 152/30/1
f 153/32/1 121/33/1 122/31/1
f 154/34/1 121/33/1 153/32/1
f 154/34/1 120/35/1 121/33/1
f 155/36/1 120/35/1 154/34/1
f 155/36/1 119/37/1 120/35/1
f 156/38/1 119/37/1 155/36/1
f 156/38/1 118/39/1 119/37/1
f 157/40/1 118/39/1 156/38/1
f 102/41/1 100/42/1 101/43/1
f 103/44/1 100/42/1 102/41/1
f 157/40/1 117/45/1 118/39/1
f 158/46/1 117/45/1 157/40/1
f 104/47/1 100/42/1 103/44/1
f 104/47/1 99/48/1 100/42/1
f 105/49/1 99/48/1 104/47/1
f 158/46/1 116/50/1 117/45/1
f 105/49/1 98/51/1 99/48/1
f 106/52/1 98/51/1 105/49/1
f 159/53/1 116/50/1 158/46/1
f 106/52/1 97/54/1 98/51/1
f 107/55/1 97/54/1 106/52/1
f 108/56/1 97/54/1 107/55/1
f 159/53/1 115/57/1 116/50/1
f 108/56/1 96/58/1 97/54/1
f 160/59/1 115/57/1 159/53/1
f 109/60/1 96/58/1 108/56/1
f 109/60/1 95/61/1 96/58/1
f 110/62/1 95/61/1 109/60/1
f 160/59/1 114/63/1 115/57/1
f 110/62/1 94/64/1 95/61/1
f 111/65/1 94/64/1 110/62/1
f 161/66/1 114/63/1 160/59/1
f 112/67/1 94/64/1 111/65/1
f 112/67/1 93/68/1 94/64/1
f 161/66/1 113/69/1 114/63/1
f 113/69/1 93/68/1 112/67/1
f 161/66/1 93/68/1 113/69/1
f 162/70/1 93/68/1 161/66/1
f 162/70/1 92/71/1 93/68/1
f 163/72/1 92/71/1 162/70/1
f 164/73/1 92/71/1 163/72/1
f 164/73/1 91/74/1 92/71/1
f 165/75/1 91/74/1 164/73/1
f 166/76/1 91/74/1 165/75/1
f 167/77/1 91/74/1 166/76/1
f 168/78/1 91/74/1 167/77/1
f 168/78/1 90/79/1 91/74/1
f 169/80/1 90/79/1 168/78/1
f 170/81/1 90/79/1 169/80/1
f 171/82/1 90/79/1 170/81/1
f 172/83/1 90/79/1 171/82/1
f 172/83/1 89/84/1 90/79/1
f 173/85/1 89/84/1 172/83/1
f 75/86/1 89/84/1 173/85/1
f 76/87/1 77/88/1 75/86/1
f 77/88/1 78/89/1 75/86/1
f 78/89/1 79/90/1 75/86/1
f 79/90/1 80/91/1 75/86/1
f 80/91/1 81/92/1 75/86/1
f 81/92/1 82/93/1 75/86/1
f 82/93/1 83/94/1 75/86/1
f 83/94/1 84/95/1 75/86/1
f 84/95/1 85/96/1 75/86/1
f 85/96/1 86/97/1 75/86/1
f 86/97/1 87/98/1 75/86/1
f 87/98/1 88/99/1 75/86/1
f 88/99/1 89/84/1 75/86/1
f 40/100/1 38/101/1 39/102/1
f 40/100/1 37/103/1 38/101/1
f 40/100/1 36/104/1 37/103/1
f 41/105/1 36/104/1 40/100/1
f 41/105/1 35/106/1 36/104/1
f 42/107/1 35/106/1 41/105/1
f 42/107/1 34/108/1 35/106/1
f 43/109/1 34/108/1 42/107/1
f 43/109/1 33/110/1 34/108/1
f 44/111/1 33/110/1 43/109/1
f 44/111/1 32/112/1 33/110/1
f 45/113/1 32/112/1 44/111/1
f 45/113/1 31/114/1 32/112/1
f 46/115/1 31/114/1 45/113/1
f 46/115/1 30/116/1 31/114/1
f 47/117/1 30/116/1 46/115/1
f 47/117/1 29/118/1 30/116/1
f 48/119/1 29/118/1 47/117/1
f 48/119/1 28/120/1 29/118/1
f 49/121/1 28/120/1 48/119/1
f 49/121/1 27/122/1 28/120/1
f 50/123/1 27/122/1 49/121/1
f 50/123/1 26/124/1 27/122/1
f 51/125/1 26/124/1 50/123/1
f 51/125/1 25/126/1 26/124/1
f 52/127/1 25/126/1 51/125/1
f 52/127/1 24/128/1 25/126/1
f 53/129/1 24/128/1 52/127/1
f 54/130/1 24/128/1 53/129/1
f 54/130/1 23/131/1 24/128/1
f 55/132/1 23/131/1 54/130/1
f 55/132/1 22/133/1 23/131/1
f 56/134/1 22/133/1 55/132/1
f 56/134/1 21/135/1 22/133/1
f 57/136/1 21/135/1 56/134/1
f 57/136/1 20/137/1 21/135/1
f 58/138/1 20/137/1 57/136/1
f 58/138/1 19/139/1 20/137/1
f 59/140/1 19/139/1 58/138/1
f 59/140/1 18/141/1 19/139/1
f 60/142/1 18/141/1 59/140/1
f 60/142/1 17/143/1 18/141/1
f 61/144/1 17/143/1 60/142/1
f 61/144/1 16/145/1 17/143/1
f 62/146/1 16/145/1 61/144/1
f 62/146/1 15/147/1 16/145/1
f 63/148/1 15/147/1 62/146/1
f 63/148/1 14/149/1 15/147/1
f 64/150/1 14/149/1 63/148/1
f 64/150/1 13/151/1 14/149/1
f 65/152/1 13/151/1 64/150/1
f 66/153/1 13/151/1 65/152/1
f 66/153/1 12/154/1 13/151/1
f 67/155/1 12/154/1 66/153/1
f 67/155/1 11/156/1 12/154/1
f 68/157/1 11/156/1 67/155/1
f 68/157/1 10/158/1 11/156/1
f 69/159/1 10/158/1 68/157/1
f 69/159/1 9/160/1 10/158/1
f 70/161/1 9/160/1 69/159/1
f 70/161/1 8/162/1 9/160/1
f 71/163/1 8/162/1 70/161/1
f 71/163/1 7/164/1 8/162/1
f 72/165/1 7/164/1 71/163/1
f 73/166/1 7/164/1 72/165/1
f 73/166/1 6/167/1 7/164/1
f 74/168/1 6/167/1 73/166/1
f 74/168/1 5/169/1 6/167/1
f 1/170/1 5/169/1 74/168/1
f 1/170/1 4/171/1 5/169/1
f 2/172/1 4/171/1 1/170/1
f 2/172/1 3/173/1 4/171/1
f 240/16/1 238/174/1 239/175/1
f 240/16/1 237/176/1 238/174/1
f 240/16/1 236/177/1 237/176/1
f 241/178/1 236/177/1 240/16/1
f 241/178/1 235/179/1 236/177/1
f 242/180/1 235/179/1 241/178/1
f 242/180/1 234/181/1 235/179/1
f 243/182/1 234/181/1 242/180/1
f 243/182/1 233/183/1 234/181/1
f 244/184/1 233/183/1 243/182/1
f 244/184/1 232/185/1 233/183/1
f 245/186/1 232/185/1 244/184/1
f 245/186/1 231/187/1 232/185/1
f 246/188/1 231/187/1 245/186/1
f 246/188/1 230/189/1 231/187/1
f 247/190/1 230/189/1 246/188/1
f 247/190/1 229/191/1 230/189/1
f 248/192/1 229/191/1 247/190/1
f 248/192/1 228/193/1 229/191/1
f 249/194/1 228/193/1 248/192/1
f 249/194/1 227/195/1 228/193/1
f 250/196/1 227/195/1 249/194/1
f 250/196/1 226/197/1 227/195/1
f 251/198/1 226/197/1 250/196/1
f 252/199/1 226/197/1 251/198/1
f 252/199/1 225/200/1 226/197/1
f 253/201/1 225/200/1 252/199/1
f 254/202/1 225/200/1 253/201/1
f 255/203/1 225/200/1 254/202/1
f 255/203/1 224/204/1 225/200/1
f 255/203/1 223/205/1 224/204/1
f 256/206/1 223/205/1 255/203/1
f 256/206/1 222/207/1 223/205/1
f 256/206/1 221/208/1 222/207/1
f 256/206/1 220/209/1 221/208/1
f 256/206/1 219/210/1 220/209/1
f 257/211/1 200/212/1 256/206/1
f 200/212/1 219/210/1 256/206/1
f 200/212/1 218/98/1 219/210/1
f 257/211/1 199/213/1 200/212/1
f 201/214/1 218/98/1 200/212/1
f 201/214/1 217/215/1 218/98/1
f 202/216/1 217/215/1 201/214/1
f 202/216/1 216/217/1 217/215/1
f 203/218/1 216/217/1 202/216/1
f 204/219/1 216/217/1 203/218/1
f 204/219/1 215/220/1 216/217/1
f 205/221/1 215/220/1 204/219/1
f 205/221/1 214/222/1 215/220/1
f 258/223/1 199/213/1 257/211/1
f 206/224/1 214/222/1 205/221/1
f 206/224/1 213/225/1 214/222/1
f 207/226/1 213/225/1 206/224/1
f 207/226/1 208/227/1 213/225/1
f 208/227/1 209/228/1 213/225/1
f 209/228/1 210/229/1 213/225/1
f 210/229/1 211/230/1 213/225/1
f 211/230/1 212/231/1 213/225/1
f 259/232/1 199/213/1 258/223/1
f 260/233/1 199/213/1 259/232/1
f 261/234/1 199/213/1 260/233/1
f 262/85/1 199/213/1 261/234/1
f 174/170/1 199/213/1 262/85/1
f 175/235/1 199/213/1 174/170/1
f 175/235/1 198/236/1 199/213/1
f 175/235/1 197/237/1 198/236/1
f 176/238/1 197/237/1 175/235/1
f 176/238/1 196/111/1 197/237/1
f 177/239/1 196/111/1 176/238/1
f 177/239/1 195/240/1 196/111/1
f 178/241/1 195/240/1 177/239/1
f 178/241/1 194/242/1 195/240/1
f 179/243/1 194/242/1 178/241/1
f 179/243/1 193/244/1 194/242/1
f 180/245/1 193/244/1 179/243/1
f 180/245/1 192/246/1 193/244/1
f 181/247/1 192/246/1 180/245/1
f 181/247/1 191/248/1 192/246/1
f 182/249/1 191/248/1 181/247/1
f 182/249/1 190/250/1 191/248/1
f 183/251/1 190/250/1 182/249/1
f 183/251/1 189/252/1 190/250/1
f 184/253/1 189/252/1 183/251/1
f 184/253/1 188/254/1 189/252/1
f 185/255/1 188/254/1 184/253/1
f 185/255/1 187/256/1 188/254/1
f 186/257/1 187/256/1 185/255/1
f 317/258/1 315/259/1 316/260/1
f 318/261/1 315/259/1 317/258/1
f 319/262/1 315/259/1 318/261/1
f 319/262/1 314/263/1 315/259/1
f 320/16/1 314/263/1 319/262/1
f 320/16/1 313/264/1 314/263/1
f 321/265/1 313/264/1 320/16/1
f 321/265/1 312/266/1 313/264/1
f 322/267/1 312/266/1 321/265/1
f 322/267/1 311/268/1 312/266/1
f 323/269/1 311/268/1 322/267/1
f 323/269/1 310/270/1 311/268/1
f 324/271/1 310/270/1 323/269/1
f 324/271/1 309/272/1 310/270/1
f 325/273/1 309/272/1 324/271/1
f 325/273/1 308/274/1 309/272/1
f 326/275/1 308/274/1 325/273/1
f 326/275/1 307/276/1 308/274/1
f 327/277/1 307/276/1 326/275/1
f 327/277/1 306/278/1 307/276/1
f 328/279/1 306/278/1 327/277/1
f 328/279/1 305/280/1 306/278/1
f 329/281/1 305/280/1 328/279/1
f 329/281/1 304/282/1 305/280/1
f 330/283/1 304/282/1 329/281/1
f 330/283/1 303/284/1 304/282/1
f 331/285/1 303/284/1 330/283/1
f 331/285/1 276/286/1 303/284/1
f 276/286/1 302/287/1 303/284/1
f 332/288/1 276/286/1 331/285/1
f 333/289/1 276/286/1 332/288/1
f 334/290/1 276/286/1 333/289/1
f 334/290/1 275/291/1 276/286/1
f 277/292/1 302/287/1 276/286/1
f 335/293/1 275/291/1 334/290/1
f 335/293/1 274/294/1 275/291/1
f 336/295/1 274/294/1 335/293/1
f 336/295/1 273/296/1 274/294/1
f 337/297/1 273/296/1 336/295/1
f 337/297/1 272/298/1 273/296/1
f 338/299/1 272/298/1 337/297/1
f 338/299/1 271/300/1 272/298/1
f 339/85/1 271/300/1 338/299/1
f 263/170/1 271/300/1 339/85/1
f 263/170/1 270/301/1 271/300/1
f 264/302/1 270/301/1 263/170/1
f 264/302/1 269/303/1 270/301/1
f 264/302/1 268/304/1 269/303/1
f 264/302/1 267/305/1 268/304/1
f 264/302/1 266/306/1 267/305/1
f 264/302/1 265/307/1 266/306/1
f 278/308/1 302/287/1 277/292/1
f 278/308/1 301/98/1 302/287/1
f 278/308/1 300/309/1 301/98/1
f 279/310/1 300/309/1 278/308/1
f 279/310/1 299/311/1 300/309/1
f 280/312/1 299/311/1 279/310/1
f 280/312/1 298/313/1 299/311/1
f 281/314/1 298/313/1 280/312/1
f 281/314/1 297/315/1 298/313/1
f 282/111/1 297/315/1 281/314/1
f 282/111/1 296/316/1 297/315/1
f 283/317/1 296/316/1 282/111/1
f 283/317/1 295/318/1 296/316/1
f 284/319/1 295/318/1 283/317/1
f 284/319/1 294/320/1 295/318/1
f 285/321/1 294/320/1 284/319/1
f 285/321/1 293/322/1 294/320/1
f 286/323/1 293/322/1 285/321/1
f 286/323/1 292/324/1 293/322/1
f 287/325/1 292/324/1 286/323/1
f 287/325/1 291/326/1 292/324/1
f 288/327/1 291/326/1 287/325/1
f 288/327/1 290/328/1 291/326/1
f 289/329/1 290/328/1 288/327/1
f 342/235/1 340/170/1 341/330/1
f 343/331/1 340/170/1 342/235/1
f 344/238/1 340/170/1 343/331/1
f 345/332/1 340/170/1 344/238/1
f 346/239/1 340/170/1 345/332/1
f 346/239/1 516/85/1 340/170/1
f 347/333/1 516/85/1 346/239/1
f 347/333/1 515/334/1 516/85/1
f 348/241/1 515/334/1 347/333/1
f 348/241/1 514/234/1 515/334/1
f 349/335/1 514/234/1 348/241/1
f 349/335/1 513/336/1 514/234/1
f 350/243/1 513/336/1 349/335/1
f 350/243/1 512/233/1 513/336/1
f 351/337/1 512/233/1 350/243/1
f 351/337/1 511/338/1 512/233/1
f 352/245/1 511/338/1 351/337/1
f 352/245/1 510/232/1 511/338/1
f 353/339/1 510/232/1 352/245/1
f 353/339/1 509/340/1 510/232/1
f 354/247/1 509/340/1 353/339/1
f 354/247/1 508/223/1 509/340/1
f 354/247/1 507/341/1 508/223/1
f 354/247/1 506/211/1 507/341/1
f 354/247/1 505/342/1 506/211/1
f 355/343/1 505/342/1 354/247/1
f 355/343/1 504/206/1 505/342/1
f 356/249/1 504/206/1 355/343/1
f 492/196/1 490/194/1 491/344/1
f 493/345/1 490/194/1 492/196/1
f 494/198/1 490/194/1 493/345/1
f 495/346/1 490/194/1 494/198/1
f 496/199/1 490/194/1 495/346/1
f 497/347/1 490/194/1 496/199/1
f 498/201/1 490/194/1 497/347/1
f 499/348/1 490/194/1 498/201/1
f 500/202/1 490/194/1 499/348/1
f 501/349/1 490/194/1 500/202/1
f 502/203/1 490/194/1 501/349/1
f 503/350/1 490/194/1 502/203/1
f 356/249/1 503/350/1 504/206/1
f 356/249/1 490/194/1 503/350/1
f 357/351/1 490/194/1 356/249/1
f 357/351/1 489/352/1 490/194/1
f 357/351/1 488/192/1 489/352/1
f 357/351/1 487/353/1 488/192/1
f 357/351/1 486/190/1 487/353/1
f 358/251/1 486/190/1 357/351/1
f 358/251/1 485/354/1 486/190/1
f 358/251/1 484/188/1 485/354/1
f 358/251/1 483/355/1 484/188/1
f 358/251/1 378/244/1 483/355/1
f 378/244/1 482/186/1 483/355/1
f 378/244/1 481/356/1 482/186/1
f 378/244/1 379/357/1 481/356/1
f 379/357/1 480/184/1 481/356/1
f 358/251/1 377/358/1 378/244/1
f 380/242/1 480/184/1 379/357/1
f 359/359/1 377/358/1 358/251/1
f 380/242/1 479/360/1 480/184/1
f 380/242/1 478/182/1 479/360/1
f 380/242/1 477/361/1 478/182/1
f 381/362/1 477/361/1 380/242/1
f 359/359/1 376/246/1 377/358/1
f 360/253/1 376/246/1 359/359/1
f 381/362/1 476/180/1 477/361/1
f 382/240/1 476/180/1 381/362/1
f 360/253/1 375/363/1 376/246/1
f 382/240/1 475/364/1 476/180/1
f 361/365/1 375/363/1 360/253/1
f 383/366/1 475/364/1 382/240/1
f 361/365/1 374/248/1 375/363/1
f 383/366/1 474/178/1 475/364/1
f 384/111/1 474/178/1 383/366/1
f 361/365/1 373/367/1 374/248/1
f 362/255/1 373/367/1 361/365/1
f 384/111/1 473/368/1 474/178/1
f 385/369/1 473/368/1 384/111/1
f 362/255/1 372/250/1 373/367/1
f 363/370/1 372/250/1 362/255/1
f 386/237/1 473/368/1 385/369/1
f 363/370/1 371/371/1 372/250/1
f 386/237/1 472/16/1 473/368/1
f 404/224/1 402/221/1 403/372/1
f 404/224/1 401/373/1 402/221/1
f 364/257/1 371/371/1 363/370/1
f 364/257/1 370/252/1 371/371/1
f 387/374/1 472/16/1 386/237/1
f 404/224/1 400/219/1 401/373/1
f 387/374/1 471/375/1 472/16/1
f 404/224/1 399/376/1 400/219/1
f 364/257/1 369/377/1 370/252/1
f 404/224/1 398/218/1 399/376/1
f 388/236/1 471/375/1 387/374/1
f 365/378/1 369/377/1 364/257/1
f 388/236/1 470/175/1 471/375/1
f 404/224/1 397/379/1 398/218/1
f 405/380/1 397/379/1 404/224/1
f 365/378/1 368/254/1 369/377/1
f 405/380/1 396/216/1 397/379/1
f 406/226/1 396/216/1 405/380/1
f 389/381/1 470/175/1 388/236/1
f 366/256/1 368/254/1 365/378/1
f 406/226/1 395/382/1 396/216/1
f 407/383/1 395/382/1 406/226/1
f 389/381/1 469/384/1 470/175/1
f 366/256/1 367/385/1 368/254/1
f 407/383/1 394/214/1 395/382/1
f 408/227/1 394/214/1 407/383/1
f 390/213/1 469/384/1 389/381/1
f 409/386/1 394/214/1 408/227/1
f 409/386/1 393/387/1 394/214/1
f 390/213/1 468/174/1 469/384/1
f 410/228/1 393/387/1 409/386/1
f 410/228/1 392/212/1 393/387/1
f 391/388/1 468/174/1 390/213/1
f 411/389/1 392/212/1 410/228/1
f 411/389/1 391/388/1 392/212/1
f 391/388/1 467/390/1 468/174/1
f 412/229/1 391/388/1 411/389/1
f 412/229/1 467/390/1 391/388/1
f 413/391/1 467/390/1 412/229/1
f 413/391/1 466/176/1 467/390/1
f 414/230/1 466/176/1 413/391/1
f 415/392/1 466/176/1 414/230/1
f 415/392/1 465/393/1 466/176/1
f 416/231/1 465/393/1 415/392/1
f 416/231/1 464/177/1 465/393/1
f 416/231/1 463/394/1 464/177/1
f 417/395/1 463/394/1 416/231/1
f 417/395/1 462/179/1 463/394/1
f 417/395/1 461/396/1 462/179/1
f 417/395/1 460/181/1 461/396/1
f 418/225/1 460/181/1 417/395/1
f 418/225/1 459/397/1 460/181/1
f 418/225/1 458/183/1 459/397/1
f 418/225/1 441/398/1 458/183/1
f 441/398/1 457/399/1 458/183/1
f 419/400/1 441/398/1 418/225/1
f 419/400/1 440/204/1 441/398/1
f 442/200/1 457/399/1 441/398/1
f 442/200/1 456/185/1 457/399/1
f 443/401/1 456/185/1 442/200/1
f 443/401/1 455/402/1 456/185/1
f 443/401/1 454/187/1 455/402/1
f 444/197/1 454/187/1 443/401/1
f 444/197/1 445/403/1 454/187/1
f 445/403/1 446/195/1 454/187/1
f 446/195/1 447/404/1 454/187/1
f 447/404/1 448/193/1 454/187/1
f 448/193/1 449/405/1 454/187/1
f 449/405/1 450/191/1 454/187/1
f 450/191/1 451/406/1 454/187/1
f 451/406/1 452/189/1 454/187/1
f 452/189/1 453/407/1 454/187/1
f 420/222/1 440/204/1 419/400/1
f 420/222/1 439/408/1 440/204/1
f 421/409/1 439/408/1 420/222/1
f 421/409/1 438/205/1 439/408/1
f 422/220/1 438/205/1 421/409/1
f 422/220/1 437/410/1 438/205/1
f 423/411/1 437/410/1 422/220/1
f 423/411/1 436/207/1 437/410/1
f 424/217/1 436/207/1 423/411/1
f 424/217/1 435/412/1 436/207/1
f 425/413/1 435/412/1 424/217/1
f 425/413/1 434/208/1 435/412/1
f 426/215/1 434/208/1 425/413/1
f 426/215/1 433/414/1 434/208/1
f 427/415/1 433/414/1 426/215/1
f 428/98/1 433/414/1 427/415/1
f 428/98/1 432/209/1 433/414/1
f 429/416/1 432/209/1 428/98/1
f 429/416/1 431/417/1 432/209/1
f 429/416/1 430/210/1 431/417/1
f 519/250/1 527/202/1 518/249/1
f 527/202/1 517/170/1 518/249/1
f 527/202/1 528/85/1 517/170/1
f 519/250/1 526/188/1 527/202/1
f 519/250/1 523/207/1 526/188/1
f 523/207/1 525/174/1 526/188/1
f 523/207/1 524/189/1 525/174/1
f 519/250/1 522/222/1 523/207/1
f 519/250/1 521/224/1 522/222/1
f 519/250/1 520/236/1 521/224/1
f 542/418/1 540/419/1 541/420/1
f 542/418/1 539/421/1 540/419/1
f 542/418/1 538/422/1 539/421/1
f 543/423/1 538/422/1 542/418/1
f 543/423/1 537/424/1 538/422/1
f 543/423/1 536/425/1 537/424/1
f 543/423/1 535/426/1 536/425/1
f 544/427/1 535/426/1 543/423/1
f 544/427/1 534/428/1 535/426/1
f 544/427/1 533/429/1 534/428/1
f 544/427/1 532/430/1 533/429/1
f 545/431/1 532/430/1 544/427/1
f 545/431/1 531/432/1 532/430/1
f 545/431/1 530/433/1 531/432/1
f 545/431/1 529/170/1 530/433/1
f 546/434/1 529/170/1 545/431/1
f 546/434/1 616/435/1 529/170/1
f 616/435/1 617/436/1 529/170/1
f 617/436/1 618/437/1 529/170/1
f 618/437/1 619/438/1 529/170/1
f 619/438/1 620/439/1 529/170/1
f 620/439/1 621/440/1 529/170/1
f 621/440/1 622/441/1 529/170/1
f 622/441/1 623/442/1 529/170/1
f 623/442/1 624/443/1 529/170/1
f 624/443/1 625/444/1 529/170/1
f 625/444/1 626/85/1 529/170/1
f 547/445/1 614/446/1 546/434/1
f 614/446/1 615/447/1 546/434/1
f 615/447/1 616/435/1 546/434/1
f 547/445/1 613/448/1 614/446/1
f 547/445/1 612/449/1 613/448/1
f 547/445/1 611/450/1 612/449/1
f 548/451/1 611/450/1 547/445/1
f 548/451/1 610/452/1 611/450/1
f 548/451/1 609/453/1 610/452/1
f 549/454/1 609/453/1 548/451/1
f 549/454/1 608/455/1 609/453/1
f 549/454/1 607/456/1 608/455/1
f 550/457/1 607/456/1 549/454/1
f 550/457/1 606/458/1 607/456/1
f 551/459/1 606/458/1 550/457/1
f 551/459/1 605/460/1 606/458/1
f 551/459/1 604/461/1 605/460/1
f 552/462/1 604/461/1 551/459/1
f 552/462/1 603/463/1 604/461/1
f 553/464/1 603/463/1 552/462/1
f 553/464/1 602/465/1 603/463/1
f 553/464/1 601/466/1 602/465/1
f 554/467/1 601/466/1 553/464/1
f 554/467/1 600/468/1 601/466/1
f 555/469/1 600/468/1 554/467/1
f 555/469/1 599/470/1 600/468/1
f 556/471/1 599/470/1 555/469/1
f 556/471/1 598/472/1 599/470/1
f 557/473/1 598/472/1 556/471/1
f 557/473/1 597/474/1 598/472/1
f 558/475/1 597/474/1 557/473/1
f 558/475/1 596/476/1 597/474/1
f 579/477/1 577/478/1 578/479/1
f 558/475/1 595/480/1 596/476/1
f 580/481/1 577/478/1 579/477/1
f 559/482/1 595/480/1 558/475/1
f 581/483/1 577/478/1 580/481/1
f 559/482/1 594/484/1 595/480/1
f 582/485/1 577/478/1 581/483/1
f 583/486/1 577/478/1 582/485/1
f 559/482/1 593/487/1 594/484/1
f 584/488/1 577/478/1 583/486/1
f 560/489/1 593/487/1 559/482/1
f 585/490/1 577/478/1 584/488/1
f 560/489/1 592/491/1 593/487/1
f 586/492/1 577/478/1 585/490/1
f 587/493/1 577/478/1 586/492/1
f 560/489/1 591/494/1 592/491/1
f 588/495/1 577/478/1 587/493/1
f 589/496/1 577/478/1 588/495/1
f 560/489/1 590/497/1 591/494/1
f 590/497/1 577/478/1 589/496/1
f 560/489/1 577/478/1 590/497/1
f 561/498/1 577/478/1 560/489/1
f 561/498/1 576/499/1 577/478/1
f 562/500/1 576/499/1 561/498/1
f 562/500/1 575/501/1 576/499/1
f 562/500/1 574/502/1 575/501/1
f 562/500/1 573/503/1 574/502/1
f 563/504/1 573/503/1 562/500/1
f 563/504/1 572/505/1 573/503/1
f 563/504/1 571/506/1 572/505/1
f 563/504/1 570/507/1 571/506/1
f 564/508/1 570/507/1 563/504/1
f 564/508/1 569/509/1 570/507/1
f 564/508/1 568/510/1 569/509/1
f 564/508/1 567/511/1 568/510/1
f 565/512/1 567/511/1 564/508/1
f 565/512/1 566/513/1 567/511/1
f 629/514/1 627/170/1 628/515/1
f 629/514/1 635/516/1 627/170/1
f 635/516/1 634/517/1 627/170/1
f 629/514/1 637/85/1 635/516/1
f 636/518/1 634/517/1 635/516/1
f 629/514/1 631/519/1 637/85/1
f 631/519/1 636/518/1 637/85/1
f 631/519/1 632/98/1 636/518/1
f 632/98/1 634/517/1 636/518/1
f 629/514/1 630/520/1 631/519/1
f 633/521/1 634/517/1 632/98/1
f 639/522/1 667/523/1 638/170/1
f 667/523/1 666/524/1 638/170/1
f 667/523/1 665/525/1 666/524/1
f 667/523/1 664/526/1 665/525/1
f 667/523/1 663/222/1 664/526/1
f 667/523/1 662/527/1 663/222/1
f 667/523/1 661/528/1 662/527/1
f 667/523/1 660/519/1 661/528/1
f 667/523/1 659/529/1 660/519/1
f 667/523/1 668/207/1 659/529/1
f 668/207/1 658/224/1 659/529/1
f 639/522/1 693/85/1 667/523/1
f 669/530/1 658/224/1 668/207/1
f 670/531/1 658/224/1 669/530/1
f 671/521/1 658/224/1 670/531/1
f 671/521/1 657/532/1 658/224/1
f 672/533/1 657/532/1 671/521/1
f 673/189/1 657/532/1 672/533/1
f 674/534/1 657/532/1 673/189/1
f 674/534/1 656/535/1 657/532/1
f 675/536/1 656/535/1 674/534/1
f 676/537/1 656/535/1 675/536/1
f 677/538/1 656/535/1 676/537/1
f 677/538/1 655/539/1 656/535/1
f 678/174/1 655/539/1 677/538/1
f 679/540/1 655/539/1 678/174/1
f 679/540/1 654/541/1 655/539/1
f 680/542/1 654/541/1 679/540/1
f 681/543/1 654/541/1 680/542/1
f 681/543/1 653/236/1 654/541/1
f 682/516/1 653/236/1 681/543/1
f 682/516/1 652/544/1 653/236/1
f 683/188/1 652/544/1 682/516/1
f 684/545/1 652/544/1 683/188/1
f 684/545/1 651/546/1 652/544/1
f 685/547/1 651/546/1 684/545/1
f 686/548/1 651/546/1 685/547/1
f 686/548/1 650/549/1 651/546/1
f 687/550/1 650/549/1 686/548/1
f 688/202/1 650/549/1 687/550/1
f 689/551/1 650/549/1 688/202/1
f 690/552/1 650/549/1 689/551/1
f 690/552/1 649/514/1 650/549/1
f 691/553/1 649/514/1 690/552/1
f 692/554/1 649/514/1 691/553/1
f 639/522/1 641/555/1 693/85/1
f 641/555/1 692/554/1 693/85/1
f 641/555/1 649/514/1 692/554/1
f 641/555/1 648/250/1 649/514/1
f 641/555/1 647/556/1 648/250/1
f 641/555/1 646/557/1 647/556/1
f 641/555/1 645/558/1 646/557/1
f 641/555/1 644/559/1 645/558/1
f 641/555/1 643/249/1 644/559/1
f 641/555/1 642/560/1 643/249/1
f 639/522/1 640/561/1 641/555/1
f 707/562/1 705/249/1 706/563/1
f 707/562/1 704/564/1 705/249/1
f 707/562/1 703/565/1 704/564/1
f 708/566/1 703/565/1 707/562/1
f 708/566/1 702/567/1 703/565/1
f 708/566/1 701/568/1 702/567/1
f 709/569/1 701/568/1 708/566/1
f 709/569/1 700/570/1 701/568/1
f 709/569/1 699/571/1 700/570/1
f 710/572/1 699/571/1 709/569/1
f 710/572/1 698/573/1 699/571/1
f 710/572/1 697/574/1 698/573/1
f 711/575/1 697/574/1 710/572/1
f 711/575/1 696/576/1 697/574/1
f 711/575/1 695/577/1 696/576/1
f 712/578/1 695/577/1 711/575/1
f 712/578/1 694/170/1 695/577/1
f 712/578/1 807/579/1 694/170/1
f 807/579/1 808/580/1 694/170/1
f 808/580/1 809/581/1 694/170/1
f 809/581/1 810/582/1 694/170/1
f 810/582/1 811/583/1 694/170/1
f 811/583/1 812/584/1 694/170/1
f 812/584/1 813/585/1 694/170/1
f 813/585/1 814/586/1 694/170/1
f 814/586/1 815/85/1 694/170/1
f 713/587/1 805/588/1 712/578/1
f 805/588/1 806/589/1 712/578/1
f 806/589/1 807/579/1 712/578/1
f 714/590/1 803/591/1 713/587/1
f 803/591/1 804/202/1 713/587/1
f 804/202/1 805/588/1 713/587/1
f 715/592/1 802/593/1 714/590/1
f 802/593/1 803/591/1 714/590/1
f 715/592/1 801/594/1 802/593/1
f 715/592/1 800/595/1 801/594/1
f 715/592/1 799/596/1 800/595/1
f 715/592/1 798/597/1 799/596/1
f 715/592/1 797/598/1 798/597/1
f 716/250/1 797/598/1 715/592/1
f 716/250/1 796/599/1 797/598/1
f 716/250/1 795/600/1 796/599/1
f 716/250/1 794/601/1 795/600/1
f 717/602/1 794/601/1 716/250/1
f 717/602/1 793/188/1 794/601/1
f 717/602/1 792/603/1 793/188/1
f 718/604/1 792/603/1 717/602/1
f 718/604/1 791/605/1 792/603/1
f 718/604/1 790/606/1 791/605/1
f 719/607/1 790/606/1 718/604/1
f 719/607/1 789/608/1 790/606/1
f 719/607/1 788/609/1 789/608/1
f 720/610/1 788/609/1 719/607/1
f 720/610/1 787/611/1 788/609/1
f 721/612/1 787/611/1 720/610/1
f 721/612/1 786/613/1 787/611/1
f 721/612/1 785/614/1 786/613/1
f 722/615/1 785/614/1 721/612/1
f 722/615/1 784/616/1 785/614/1
f 723/617/1 784/616/1 722/615/1
f 723/617/1 783/618/1 784/616/1
f 724/619/1 783/618/1 723/617/1
f 724/619/1 782/174/1 783/618/1
f 725/620/1 782/174/1 724/619/1
f 725/620/1 781/621/1 782/174/1
f 726/622/1 781/621/1 725/620/1
f 727/236/1 781/621/1 726/622/1
f 727/236/1 780/623/1 781/621/1
f 728/624/1 780/623/1 727/236/1
f 729/625/1 780/623/1 728/624/1
f 729/625/1 779/626/1 780/623/1
f 730/627/1 779/626/1 729/625/1
f 755/628/1 753/629/1 754/630/1
f 730/627/1 778/631/1 779/626/1
f 731/632/1 778/631/1 730/627/1
f 755/628/1 752/633/1 753/629/1
f 732/634/1 778/631/1 731/632/1
f 732/634/1 777/635/1 778/631/1
f 755/628/1 751/636/1 752/633/1
f 733/637/1 777/635/1 732/634/1
f 755/628/1 750/638/1 751/636/1
f 734/639/1 777/635/1 733/637/1
f 735/640/1 777/635/1 734/639/1
f 735/640/1 776/641/1 777/635/1
f 755/628/1 749/222/1 750/638/1
f 736/642/1 776/641/1 735/640/1
f 755/628/1 748/643/1 749/222/1
f 737/644/1 776/641/1 736/642/1
f 755/628/1 747/645/1 748/643/1
f 737/644/1 775/646/1 776/641/1
f 738/224/1 775/646/1 737/644/1
f 755/628/1 746/647/1 747/645/1
f 739/648/1 775/646/1 738/224/1
f 755/628/1 745/649/1 746/647/1
f 740/650/1 775/646/1 739/648/1
f 755/628/1 744/651/1 745/649/1
f 741/652/1 775/646/1 740/650/1
f 755/628/1 743/653/1 744/651/1
f 741/652/1 774/654/1 775/646/1
f 742/655/1 774/654/1 741/652/1
f 755/628/1 742/655/1 743/653/1
f 755/628/1 774/654/1 742/655/1
f 755/628/1 773/656/1 774/654/1
f 756/657/1 773/656/1 755/628/1
f 757/658/1 773/656/1 756/657/1
f 757/658/1 772/659/1 773/656/1
f 758/660/1 772/659/1 757/658/1
f 758/660/1 771/189/1 772/659/1
f 759/661/1 771/189/1 758/660/1
f 760/207/1 771/189/1 759/661/1
f 760/207/1 770/662/1 771/189/1
f 761/663/1 770/662/1 760/207/1
f 762/664/1 770/662/1 761/663/1
f 762/664/1 769/665/1 770/662/1
f 763/666/1 769/665/1 762/664/1
f 764/667/1 769/665/1 763/666/1
f 764/667/1 768/668/1 769/665/1
f 765/669/1 768/668/1 764/667/1
f 766/670/1 768/668/1 765/669/1
f 766/670/1 767/671/1 768/668/1
