# Blender 4.4.1
# www.blender.org
mtllib enemy.mtl
o Cube
v -0.405952 0.557401 0.388940
v -0.346121 -0.405952 0.403434
v -0.405952 0.251771 -0.405952
v -0.346121 -0.405952 -0.340690
v 0.405952 0.557401 0.388940
v 0.346121 -0.405952 0.403434
v 0.405952 0.251771 -0.405952
v 0.346121 -0.405952 -0.340690
v -0.405952 0.335622 0.439083
v 0.405952 -0.002276 -0.405952
v -0.405952 -0.002276 -0.405952
v 0.405952 0.335622 0.439083
v 0.346121 -0.405952 -0.108544
v -0.405952 0.492294 -0.259362
v 0.405952 0.492294 -0.259362
v -0.346121 -0.405952 -0.108544
v -0.405952 0.003997 -0.143793
v 0.405952 0.003997 -0.143793
v 0.000000 -0.405952 0.403434
v 0.000000 0.251771 -0.405952
v 0.000000 -0.405952 -0.340690
v 0.000000 0.557401 0.388940
v 0.000000 0.335622 0.439083
v 0.000000 -0.002276 -0.405952
v 0.000000 -0.405952 -0.108544
v 0.000000 0.492294 -0.259362
v -0.405952 -0.102664 0.471723
v -0.405952 0.597463 0.034320
v 0.405952 0.195507 0.131080
v 0.405952 -0.102664 0.471723
v 0.000000 -0.102664 0.471723
v 0.405952 0.597463 0.034320
v -0.405952 0.195507 0.131080
v 0.000000 -0.000549 -0.167455
v 0.000000 0.597463 0.034320
v 0.000000 0.199390 0.119249
v -0.346121 -0.405952 0.065510
v 0.346121 -0.405952 0.065510
v 0.000000 -0.405952 0.065510
v 0.000000 -0.091847 0.081184
v -0.405952 -0.095932 0.093015
v 0.405952 -0.095932 0.093015
v -0.405952 0.248146 -0.201577
v 0.405952 0.458424 0.472565
v -0.405952 0.458424 0.472565
v 0.000000 0.124747 -0.405952
v 0.000000 0.458424 0.472565
v 0.405952 0.248146 -0.201577
v 0.405952 0.124747 -0.405952
v -0.405952 0.124747 -0.405952
v -0.405952 0.396485 0.082700
v 0.405952 0.396485 0.082700
v 0.405952 0.586622 0.244523
v 0.405952 0.289054 0.336717
v 0.000000 0.290345 0.332785
v -0.405952 0.289054 0.336717
v -0.405952 0.586622 0.244523
v 0.000000 0.586622 0.244523
v -0.405952 0.437838 0.342992
v 0.405952 0.437838 0.342992
v -0.405952 -0.359675 0.469204
v 0.405952 -0.359675 0.469204
v 0.000000 -0.359675 0.469204
v -0.405952 -0.321263 -0.144737
v 0.000000 -0.323522 -0.405952
v 0.405952 -0.321263 -0.144737
v 0.405952 -0.323522 -0.405952
v -0.405952 -0.323522 -0.405952
v -0.405952 -0.357250 0.089276
v 0.405952 -0.357250 0.089276
vn -0.0000 0.5204 -0.8539
vn -0.0000 -0.0000 -1.0000
vn 1.0000 -0.0000 -0.0000
vn -0.0000 -1.0000 -0.0000
vn -1.0000 -0.0000 -0.0000
vn -0.0000 0.6454 0.7639
vn -0.0000 0.9415 -0.3371
vn -0.0085 -0.9152 0.4028
vn -0.0034 -0.9153 0.4029
vn -0.0086 -0.9152 0.4028
vn -0.0000 0.9987 0.0515
vn -0.0243 -0.8201 0.5717
vn 0.0165 0.9303 0.3665
vn 0.0243 -0.8201 0.5717
vn -0.0165 0.9303 0.3665
vn 0.0086 -0.9152 0.4028
vn 0.0034 -0.9153 0.4029
vn 0.0085 -0.9152 0.4028
vn -0.0000 -0.0098 1.0000
vn 0.0047 0.9997 0.0228
vn -0.0000 0.9997 0.0228
vn -0.0047 0.9997 0.0228
vn -0.0000 -0.2630 0.9648
vn 0.0137 -0.9152 0.4028
vn -0.0000 0.9801 0.1983
vn -0.0137 -0.9152 0.4028
vn 0.7403 -0.6696 -0.0591
vn -0.6229 -0.7823 -0.0026
vn -0.0000 -0.8178 0.5754
vn -0.0000 -0.6207 -0.7840
vn -0.7403 -0.6696 -0.0591
vn 0.8138 -0.5811 0.0027
vn 0.6229 -0.7823 -0.0026
vn -0.8138 -0.5811 0.0027
vt 0.127640 0.587196
vt 0.006369 0.587196
vt 0.006369 0.515343
vt 0.127640 0.515343
vt 0.127640 0.477397
vt 0.006369 0.477397
vt 0.505283 0.054054
vt 0.475867 0.009607
vt 0.519009 0.018337
vt 0.543991 0.047904
vt 0.434242 0.440131
vt 0.434242 0.336733
vt 0.503591 0.336733
vt 0.503591 0.440131
vt 0.207757 0.110722
vt 0.225020 0.037786
vt 0.268811 0.109639
vt 0.268811 0.147585
vt 0.104982 0.721205
vt 0.066273 0.721205
vt 0.066273 0.599933
vt 0.104982 0.599933
vt 0.122834 0.066408
vt 0.137287 0.006369
vt 0.382246 0.440131
vt 0.382246 0.336733
vt 0.281549 0.147585
vt 0.281549 0.109639
vt 0.325340 0.037786
vt 0.342602 0.110722
vt 0.642339 0.127640
vt 0.642339 0.248911
vt 0.556728 0.248911
vt 0.556728 0.127640
vt 0.642339 0.006369
vt 0.556728 0.006369
vt 0.382246 0.543529
vt 0.434242 0.543529
vt 0.104982 0.842476
vt 0.066273 0.842476
vt 0.503591 0.543529
vt 0.248911 0.477397
vt 0.248911 0.515343
vt 0.248911 0.587196
vt 0.292229 0.816683
vt 0.261649 0.816683
vt 0.261649 0.695412
vt 0.293404 0.695412
vt 0.705214 0.006369
vt 0.705214 0.127640
vt 0.435773 0.816683
vt 0.353660 0.816683
vt 0.357194 0.695412
vt 0.442842 0.695412
vt 0.632971 0.440131
vt 0.708799 0.440131
vt 0.701828 0.561402
vt 0.629368 0.561402
vt 0.705214 0.248911
vt 0.353660 0.574140
vt 0.435773 0.574140
vt 0.629368 0.318860
vt 0.701828 0.318860
vt 0.261649 0.574140
vt 0.292229 0.574140
vt 0.797688 0.440131
vt 0.721537 0.440131
vt 0.721537 0.318860
vt 0.797688 0.318860
vt 0.190777 0.280823
vt 0.190495 0.183657
vt 0.268811 0.185531
vt 0.268811 0.281497
vt 0.429490 0.291573
vt 0.430607 0.213509
vt 0.543739 0.215520
vt 0.542987 0.292298
vt 0.127640 0.343484
vt 0.127640 0.439451
vt 0.006369 0.439451
vt 0.006369 0.343484
vt 0.281549 0.281497
vt 0.281549 0.185531
vt 0.359864 0.183657
vt 0.359582 0.280823
vt 0.120870 0.291573
vt 0.119753 0.213509
vt 0.248911 0.343484
vt 0.248911 0.439451
vt 0.797688 0.561402
vt 0.721537 0.561402
vt 0.045077 0.054054
vt 0.074492 0.009607
vt 0.413073 0.006369
vt 0.427525 0.066408
vt 0.007373 0.292298
vt 0.006620 0.215520
vt 0.516329 0.318860
vt 0.516329 0.440131
vt 0.516329 0.561402
vt 0.281297 0.543529
vt 0.281297 0.440131
vt 0.281297 0.336733
vt 0.441978 0.126446
vt 0.046951 0.098501
vt 0.108382 0.126446
vt 0.155431 0.842476
vt 0.117719 0.842476
vt 0.117719 0.721205
vt 0.155431 0.721205
vt 0.117719 0.599933
vt 0.155431 0.599933
vt 0.503408 0.098501
vt 0.533988 0.084589
vt 0.016371 0.084589
vt 0.006369 0.047904
vt 0.031350 0.018337
vt 0.748815 0.127640
vt 0.748815 0.248911
vt 0.748815 0.006369
vt 0.370394 0.306122
vt 0.422390 0.306122
vt 0.261649 0.318860
vt 0.375146 0.318860
vt 0.261649 0.561402
vt 0.261649 0.440131
vt 0.231038 0.318860
vt 0.127640 0.318860
vt 0.127970 0.306122
vt 0.179965 0.306122
vt 0.301045 0.306122
vt 0.024242 0.318860
vt 0.375146 0.561402
vt 0.249315 0.306122
s 1
usemtl Material.001
f 26/1/1 15/2/1 7/3/1 20/4/1
f 46/5/2 20/4/2 7/3/2 49/6/2
f 60/7/3 53/8/3 5/9/3 44/10/3
f 25/11/4 16/12/4 4/13/4 21/14/4
f 43/15/5 14/16/5 3/17/5 50/18/5
f 47/19/6 22/20/6 1/21/6 45/22/6
f 51/23/5 28/24/5 14/16/5 43/15/5
f 39/25/4 37/26/4 16/12/4 25/11/4
f 49/27/3 7/28/3 15/29/3 48/30/3
f 35/31/7 32/32/7 15/33/7 26/34/7
f 28/35/7 35/31/7 26/34/7 14/36/7
f 38/37/4 39/25/4 25/11/4 13/38/4
f 44/39/6 5/40/6 22/20/6 47/19/6
f 13/38/4 25/11/4 21/14/4 8/41/4
f 50/42/2 3/43/2 20/4/2 46/5/2
f 14/44/1 26/1/1 20/4/1 3/43/1
f 54/45/8 12/46/9 23/47/9 55/48/10
f 57/49/11 58/50/11 35/31/11 28/35/11
f 18/51/12 29/52/12 36/53/12 34/54/12
f 40/55/13 34/56/13 17/57/13 41/58/13
f 58/50/11 53/59/11 32/32/11 35/31/11
f 34/54/14 36/53/14 33/60/14 17/61/14
f 42/62/15 18/63/15 34/56/15 40/55/15
f 55/48/16 23/47/17 9/64/17 56/65/18
f 63/66/19 31/67/19 27/68/19 61/69/19
f 64/70/5 17/71/5 11/72/5 68/73/5
f 70/74/3 42/75/3 30/76/3 62/77/3
f 65/78/2 24/79/2 10/80/2 67/81/2
f 67/82/3 10/83/3 18/84/3 66/85/3
f 69/86/5 41/87/5 17/71/5 64/70/5
f 68/88/2 11/89/2 24/79/2 65/78/2
f 62/90/19 30/91/19 31/67/19 63/66/19
f 59/92/5 57/93/5 28/24/5 51/23/5
f 48/30/3 15/29/3 32/94/3 52/95/3
f 61/96/5 27/97/5 41/87/5 69/86/5
f 66/85/3 18/84/3 42/75/3 70/74/3
f 30/98/20 42/62/20 40/55/21 31/99/21
f 31/99/21 40/55/21 41/58/22 27/100/22
f 6/101/4 19/102/4 39/25/4 38/37/4
f 19/102/4 2/103/4 37/26/4 39/25/4
f 18/84/3 48/30/3 52/95/3 29/104/3
f 56/105/5 59/92/5 51/23/5 33/106/5
f 11/89/2 50/42/2 46/5/2 24/79/2
f 12/107/23 44/108/23 47/109/23 23/110/23
f 10/83/3 49/27/3 48/30/3 18/84/3
f 33/106/5 51/23/5 43/15/5 17/71/5
f 23/110/23 47/109/23 45/111/23 9/112/23
f 17/71/5 43/15/5 50/18/5 11/72/5
f 54/113/3 60/7/3 44/10/3 12/114/3
f 24/79/2 46/5/2 49/6/2 10/80/2
f 29/104/3 52/95/3 60/7/3 54/113/3
f 9/115/5 45/116/5 59/92/5 56/105/5
f 45/116/5 1/117/5 57/93/5 59/92/5
f 36/53/24 55/48/16 56/65/18 33/60/24
f 22/118/25 5/119/25 53/59/25 58/50/25
f 1/120/25 22/118/25 58/50/25 57/49/25
f 29/52/26 54/45/8 55/48/10 36/53/26
f 52/95/3 32/94/3 53/8/3 60/7/3
f 13/121/27 66/85/27 70/74/27 38/122/27
f 2/103/28 61/123/28 69/124/28 37/26/28
f 6/101/29 62/125/29 63/126/29 19/102/29
f 4/127/30 68/88/30 65/78/30 21/128/30
f 37/129/31 69/86/31 64/70/31 16/130/31
f 8/131/32 67/82/32 66/85/32 13/121/32
f 21/128/30 65/78/30 67/81/30 8/132/30
f 38/37/33 70/133/33 62/125/33 6/101/33
f 16/130/34 64/70/34 68/73/34 4/134/34
f 19/102/29 63/126/29 61/123/29 2/103/29
o 円柱
v 0.000000 0.771515 -0.382416
v 0.000000 0.771515 0.717584
v 0.136563 0.758065 -0.382416
v 0.136563 0.758065 0.717584
v 0.267878 0.718231 -0.382416
v 0.267878 0.718231 0.717584
v 0.388899 0.653544 -0.382416
v 0.388899 0.653544 0.717584
v 0.494975 0.566490 -0.382416
v 0.494975 0.566490 0.717584
v 0.582029 0.460414 -0.382416
v 0.582029 0.460414 0.717584
v 0.646716 0.339393 -0.382416
v 0.646716 0.339393 0.717584
v 0.686550 0.208078 -0.382416
v 0.686550 0.208078 0.717584
v 0.700000 0.071515 -0.382416
v 0.700000 0.071515 0.717584
v 0.686550 -0.065048 -0.382416
v 0.686550 -0.065048 0.717584
v 0.646716 -0.196363 -0.382416
v 0.646716 -0.196363 0.717584
v 0.582029 -0.317384 -0.382416
v 0.582029 -0.317384 0.717584
v 0.494975 -0.423460 -0.382416
v 0.494975 -0.423460 0.717584
v 0.388899 -0.510514 -0.382416
v 0.388899 -0.510514 0.717584
v 0.267878 -0.575201 -0.382416
v 0.267878 -0.575201 0.717584
v 0.136563 -0.615035 -0.382416
v 0.136563 -0.615035 0.717584
v 0.000000 -0.628485 -0.382416
v 0.000000 -0.628485 0.717584
v -0.136563 -0.615035 -0.382416
v -0.136563 -0.615035 0.717584
v -0.267878 -0.575201 -0.382416
v -0.267878 -0.575201 0.717584
v -0.388899 -0.510514 -0.382416
v -0.388899 -0.510514 0.717584
v -0.494975 -0.423460 -0.382416
v -0.494975 -0.423460 0.717584
v -0.582029 -0.317384 -0.382416
v -0.582029 -0.317384 0.717584
v -0.646716 -0.196363 -0.382416
v -0.646716 -0.196363 0.717584
v -0.686550 -0.065048 -0.382416
v -0.686550 -0.065048 0.717584
v -0.700000 0.071515 -0.382416
v -0.700000 0.071515 0.717584
v -0.686550 0.208078 -0.382416
v -0.686550 0.208078 0.717584
v -0.646716 0.339393 -0.382416
v -0.646716 0.339393 0.717584
v -0.582029 0.460414 -0.382416
v -0.582029 0.460414 0.717584
v -0.494975 0.566490 -0.382416
v -0.494975 0.566490 0.717584
v -0.388899 0.653544 -0.382416
v -0.388899 0.653544 0.717584
v -0.267878 0.718231 -0.382416
v -0.267878 0.718231 0.717584
v -0.136563 0.758065 -0.382416
v -0.136563 0.758065 0.717584
vn -0.0000 0.6405 -0.7679
vn -0.0000 0.6405 0.7679
vn 0.1250 0.6282 -0.7679
vn 0.1250 0.6282 0.7679
vn 0.2451 0.5918 -0.7679
vn 0.2451 0.5918 0.7679
vn 0.3559 0.5326 -0.7679
vn 0.3558 0.5326 0.7679
vn 0.4529 0.4529 -0.7679
vn 0.4529 0.4529 0.7679
vn 0.5326 0.3559 -0.7679
vn 0.5326 0.3558 0.7679
vn 0.5918 0.2451 -0.7679
vn 0.5918 0.2451 0.7679
vn 0.6282 0.1250 -0.7679
vn 0.6282 0.1250 0.7679
vn 0.6405 -0.0000 -0.7679
vn 0.6405 -0.0000 0.7679
vn 0.6282 -0.1250 -0.7679
vn 0.6282 -0.1250 0.7679
vn 0.5918 -0.2451 -0.7679
vn 0.5918 -0.2451 0.7679
vn 0.5326 -0.3559 -0.7679
vn 0.5326 -0.3558 0.7679
vn 0.4529 -0.4529 -0.7679
vn 0.4529 -0.4529 0.7679
vn 0.3559 -0.5326 -0.7679
vn 0.3558 -0.5326 0.7679
vn 0.2451 -0.5918 -0.7679
vn 0.2451 -0.5918 0.7679
vn 0.1250 -0.6282 -0.7679
vn 0.1250 -0.6282 0.7679
vn -0.0000 -0.6405 -0.7679
vn -0.0000 -0.6405 0.7679
vn -0.1250 -0.6282 -0.7679
vn -0.1250 -0.6282 0.7679
vn -0.2451 -0.5918 -0.7679
vn -0.2451 -0.5918 0.7679
vn -0.3559 -0.5326 -0.7679
vn -0.3558 -0.5326 0.7679
vn -0.4529 -0.4529 -0.7679
vn -0.4529 -0.4529 0.7679
vn -0.5326 -0.3559 -0.7679
vn -0.5326 -0.3558 0.7679
vn -0.5918 -0.2451 -0.7679
vn -0.5918 -0.2451 0.7679
vn -0.6282 -0.1250 -0.7679
vn -0.6282 -0.1250 0.7679
vn -0.6405 -0.0000 -0.7679
vn -0.6405 -0.0000 0.7679
vn -0.6282 0.1250 -0.7679
vn -0.6282 0.1250 0.7679
vn -0.5918 0.2451 -0.7679
vn -0.5918 0.2451 0.7679
vn -0.5326 0.3559 -0.7679
vn -0.5326 0.3558 0.7679
vn -0.4529 0.4529 -0.7679
vn -0.4529 0.4529 0.7679
vn -0.3559 0.5326 -0.7679
vn -0.3558 0.5326 0.7679
vn -0.2451 0.5918 -0.7679
vn -0.2451 0.5918 0.7679
vn -0.1250 0.6282 -0.7679
vn -0.1250 0.6282 0.7679
vt 0.318865 0.000120
vt 0.000120 0.031362
vt 0.000120 0.000120
vt 0.318865 0.031362
vt 0.000120 0.062605
vt 0.318865 0.062605
vt 0.000120 0.093847
vt 0.318865 0.093847
vt 0.000120 0.125090
vt 0.318865 0.125090
vt 0.000120 0.156332
vt 0.318865 0.156332
vt 0.000120 0.187575
vt 0.318865 0.187575
vt 0.000120 0.218817
vt 0.318865 0.218817
vt 0.000120 0.250060
vt 0.318865 0.250060
vt 0.000120 0.281302
vt 0.318865 0.281302
vt 0.000120 0.312545
vt 0.318865 0.312545
vt 0.000120 0.343787
vt 0.318865 0.343787
vt 0.000120 0.375030
vt 0.318865 0.375030
vt 0.000120 0.406272
vt 0.318865 0.406272
vt 0.000120 0.437515
vt 0.318865 0.437515
vt 0.000120 0.468757
vt 0.318865 0.468757
vt 0.000120 0.500000
vt 0.318865 0.500000
vt 0.000120 0.531242
vt 0.318865 0.531242
vt 0.000120 0.562485
vt 0.318865 0.562485
vt 0.000120 0.593728
vt 0.318865 0.593727
vt 0.000120 0.624970
vt 0.318865 0.624970
vt 0.000120 0.656213
vt 0.318865 0.656213
vt 0.000120 0.687455
vt 0.318865 0.687455
vt 0.000120 0.718698
vt 0.318865 0.718697
vt 0.000120 0.749940
vt 0.318865 0.749940
vt 0.000120 0.781183
vt 0.318865 0.781183
vt 0.000120 0.812425
vt 0.318865 0.812425
vt 0.000120 0.843668
vt 0.318865 0.843668
vt 0.000120 0.874910
vt 0.318865 0.874910
vt 0.000120 0.906153
vt 0.318865 0.906153
vt 0.000120 0.937395
vt 0.325200 0.429912
vt 0.523974 0.323665
vt 0.630220 0.522439
vt 0.318865 0.937395
vt 0.000120 0.968638
vt 0.318865 0.968638
vt 0.000120 0.999880
vt 0.618264 0.233853
vt 0.402582 0.299279
vt 0.337156 0.083597
vt 0.618264 0.551303
vt 0.600907 0.577280
vt 0.578815 0.599372
vt 0.552838 0.616729
vt 0.523974 0.628685
vt 0.493331 0.634780
vt 0.462089 0.634780
vt 0.431447 0.628685
vt 0.402583 0.616729
vt 0.376605 0.599372
vt 0.354514 0.577280
vt 0.337156 0.551303
vt 0.325200 0.522439
vt 0.319105 0.491796
vt 0.319105 0.460554
vt 0.337156 0.401047
vt 0.402583 0.335621
vt 0.354514 0.375070
vt 0.376605 0.352979
vt 0.431447 0.323665
vt 0.462089 0.317570
vt 0.493332 0.317570
vt 0.552838 0.335621
vt 0.618264 0.401047
vt 0.578815 0.352978
vt 0.600907 0.375070
vt 0.630220 0.429912
vt 0.636315 0.460554
vt 0.636315 0.491796
vt 0.318865 0.999880
vt 0.354514 0.057620
vt 0.376605 0.035528
vt 0.402583 0.018171
vt 0.431447 0.006215
vt 0.462089 0.000120
vt 0.493331 0.000120
vt 0.523974 0.006215
vt 0.552838 0.018171
vt 0.578815 0.035528
vt 0.600907 0.057620
vt 0.618264 0.083597
vt 0.630220 0.112462
vt 0.636315 0.143104
vt 0.636315 0.174346
vt 0.630220 0.204988
vt 0.600907 0.259830
vt 0.578815 0.281922
vt 0.552838 0.299279
vt 0.523974 0.311235
vt 0.493331 0.317330
vt 0.462089 0.317330
vt 0.431447 0.311235
vt 0.376605 0.281922
vt 0.354514 0.259830
vt 0.337156 0.233853
vt 0.325200 0.204988
vt 0.319105 0.174346
vt 0.319105 0.143104
vt 0.325200 0.112462
s 1
usemtl マテリアル.002
f 72/135/36 73/136/37 71/137/35
f 74/138/38 75/139/39 73/136/37
f 76/140/40 77/141/41 75/139/39
f 78/142/42 79/143/43 77/141/41
f 80/144/44 81/145/45 79/143/43
f 82/146/46 83/147/47 81/145/45
f 84/148/48 85/149/49 83/147/47
f 86/150/50 87/151/51 85/149/49
f 88/152/52 89/153/53 87/151/51
f 90/154/54 91/155/55 89/153/53
f 92/156/56 93/157/57 91/155/55
f 94/158/58 95/159/59 93/157/57
f 96/160/60 97/161/61 95/159/59
f 98/162/62 99/163/63 97/161/61
f 100/164/64 101/165/65 99/163/63
f 102/166/66 103/167/67 101/165/65
f 104/168/68 105/169/69 103/167/67
f 106/170/70 107/171/71 105/169/69
f 108/172/72 109/173/73 107/171/71
f 110/174/74 111/175/75 109/173/73
f 112/176/76 113/177/77 111/175/75
f 114/178/78 115/179/79 113/177/77
f 116/180/80 117/181/81 115/179/79
f 118/182/82 119/183/83 117/181/81
f 120/184/84 121/185/85 119/183/83
f 122/186/86 123/187/87 121/185/85
f 124/188/88 125/189/89 123/187/87
f 126/190/90 127/191/91 125/189/89
f 128/192/92 129/193/93 127/191/91
f 130/194/94 131/195/95 129/193/93
f 108/196/72 92/197/56 76/198/40
f 132/199/96 133/200/97 131/195/95
f 134/201/98 71/202/35 133/200/97
f 101/203/65 117/204/81 133/205/97
f 72/135/36 74/138/38 73/136/37
f 74/138/38 76/140/40 75/139/39
f 76/140/40 78/142/42 77/141/41
f 78/142/42 80/144/44 79/143/43
f 80/144/44 82/146/46 81/145/45
f 82/146/46 84/148/48 83/147/47
f 84/148/48 86/150/50 85/149/49
f 86/150/50 88/152/52 87/151/51
f 88/152/52 90/154/54 89/153/53
f 90/154/54 92/156/56 91/155/55
f 92/156/56 94/158/58 93/157/57
f 94/158/58 96/160/60 95/159/59
f 96/160/60 98/162/62 97/161/61
f 98/162/62 100/164/64 99/163/63
f 100/164/64 102/166/66 101/165/65
f 102/166/66 104/168/68 103/167/67
f 104/168/68 106/170/70 105/169/69
f 106/170/70 108/172/72 107/171/71
f 108/172/72 110/174/74 109/173/73
f 110/174/74 112/176/76 111/175/75
f 112/176/76 114/178/78 113/177/77
f 114/178/78 116/180/80 115/179/79
f 116/180/80 118/182/82 117/181/81
f 118/182/82 120/184/84 119/183/83
f 120/184/84 122/186/86 121/185/85
f 122/186/86 124/188/88 123/187/87
f 124/188/88 126/190/90 125/189/89
f 126/190/90 128/192/92 127/191/91
f 128/192/92 130/194/94 129/193/93
f 130/194/94 132/199/96 131/195/95
f 76/198/40 74/206/38 72/207/36
f 72/207/36 134/208/98 76/198/40
f 134/208/98 132/209/96 76/198/40
f 132/209/96 130/210/94 128/211/92
f 128/211/92 126/212/90 124/213/88
f 124/213/88 122/214/86 120/215/84
f 120/215/84 118/216/82 124/213/88
f 118/216/82 116/217/80 124/213/88
f 116/217/80 114/218/78 112/219/76
f 112/219/76 110/220/74 108/196/72
f 108/196/72 106/221/70 100/222/64
f 106/221/70 104/223/68 100/222/64
f 104/223/68 102/224/66 100/222/64
f 100/222/64 98/225/62 96/226/60
f 96/226/60 94/227/58 92/197/56
f 92/197/56 90/228/54 84/229/48
f 90/228/54 88/230/52 84/229/48
f 88/230/52 86/231/50 84/229/48
f 84/229/48 82/232/46 80/233/44
f 80/233/44 78/234/42 76/198/40
f 132/209/96 128/211/92 76/198/40
f 128/211/92 124/213/88 76/198/40
f 116/217/80 112/219/76 124/213/88
f 112/219/76 108/196/72 124/213/88
f 100/222/64 96/226/60 108/196/72
f 96/226/60 92/197/56 108/196/72
f 84/229/48 80/233/44 92/197/56
f 80/233/44 76/198/40 92/197/56
f 76/198/40 124/213/88 108/196/72
f 132/199/96 134/201/98 133/200/97
f 134/201/98 72/235/36 71/202/35
f 133/205/97 71/236/35 73/237/37
f 73/237/37 75/238/39 77/239/41
f 77/239/41 79/240/43 81/241/45
f 81/241/45 83/242/47 85/243/49
f 85/243/49 87/244/51 89/245/53
f 89/245/53 91/246/55 93/247/57
f 93/247/57 95/248/59 97/249/61
f 97/249/61 99/250/63 101/203/65
f 101/203/65 103/251/67 105/252/69
f 105/252/69 107/253/71 109/254/73
f 109/254/73 111/255/75 113/256/77
f 113/256/77 115/257/79 117/204/81
f 117/204/81 119/258/83 121/259/85
f 121/259/85 123/260/87 125/261/89
f 125/261/89 127/262/91 129/263/93
f 129/263/93 131/264/95 133/205/97
f 133/205/97 73/237/37 85/243/49
f 73/237/37 77/239/41 85/243/49
f 77/239/41 81/241/45 85/243/49
f 85/243/49 89/245/53 101/203/65
f 89/245/53 93/247/57 101/203/65
f 93/247/57 97/249/61 101/203/65
f 101/203/65 105/252/69 117/204/81
f 105/252/69 109/254/73 117/204/81
f 109/254/73 113/256/77 117/204/81
f 117/204/81 121/259/85 133/205/97
f 121/259/85 125/261/89 133/205/97
f 125/261/89 129/263/93 133/205/97
f 133/205/97 85/243/49 101/203/65
