# Blender 4.4.1
# www.blender.org
mtllib goal.mtl
o 平面
v 0.347507 3.991985 -0.000000
v 2.347507 3.991985 -0.000000
v 0.347507 5.276663 0.000000
v 2.347507 5.276663 0.000000
v 0.000000 0.021585 -1.000000
v 0.000000 0.978415 -1.000000
v 0.195090 0.021585 -0.980785
v 0.195090 0.978415 -0.980785
v 0.382683 0.021585 -0.923879
v 0.382683 0.978415 -0.923879
v 0.555570 0.021585 -0.831470
v 0.555570 0.978415 -0.831470
v 0.707107 0.021585 -0.707107
v 0.707107 0.978415 -0.707107
v 0.831470 0.021585 -0.555570
v 0.831470 0.978415 -0.555570
v 0.923879 0.021585 -0.382683
v 0.923879 0.978415 -0.382683
v 0.980785 0.021585 -0.195090
v 0.980785 0.978415 -0.195090
v 1.000000 0.021585 0.000000
v 1.000000 0.978415 0.000000
v 0.980785 0.021585 0.195090
v 0.980785 0.978415 0.195090
v 0.923879 0.021585 0.382683
v 0.923879 0.978415 0.382683
v 0.831470 0.021585 0.555570
v 0.831470 0.978415 0.555570
v 0.707107 0.021585 0.707107
v 0.707107 0.978415 0.707107
v 0.555570 0.021585 0.831470
v 0.555570 0.978415 0.831470
v 0.382683 0.021585 0.923879
v 0.382683 0.978415 0.923879
v 0.195090 0.021585 0.980785
v 0.195090 0.978415 0.980785
v 0.000000 0.021585 1.000000
v 0.000000 0.978415 1.000000
v -0.195090 0.021585 0.980785
v -0.195090 0.978415 0.980785
v -0.382683 0.021585 0.923879
v -0.382683 0.978415 0.923879
v -0.555570 0.021585 0.831470
v -0.555570 0.978415 0.831470
v -0.707107 0.021585 0.707107
v -0.707107 0.978415 0.707107
v -0.831470 0.021585 0.555570
v -0.831470 0.978415 0.555570
v -0.923879 0.021585 0.382683
v -0.923879 0.978415 0.382683
v -0.980785 0.021585 0.195090
v -0.980785 0.978415 0.195090
v -1.000000 0.021585 0.000000
v -1.000000 0.978415 0.000000
v -0.980785 0.021585 -0.195090
v -0.980785 0.978415 -0.195090
v -0.923879 0.021585 -0.382683
v -0.923879 0.978415 -0.382683
v -0.831470 0.021585 -0.555570
v -0.831470 0.978415 -0.555570
v -0.707107 0.021585 -0.707107
v -0.707107 0.978415 -0.707107
v -0.555570 0.021585 -0.831470
v -0.555570 0.978415 -0.831470
v -0.382683 0.021585 -0.923879
v -0.382683 0.978415 -0.923879
v -0.195090 0.021585 -0.980785
v -0.195090 0.978415 -0.980785
v 0.000000 0.915814 -0.356509
v 0.000000 5.403457 -0.356509
v 0.069552 0.915814 -0.349659
v 0.069552 5.403457 -0.349659
v 0.136430 0.915814 -0.329372
v 0.136430 5.403457 -0.329372
v 0.198066 0.915814 -0.296427
v 0.198066 5.403457 -0.296427
v 0.252090 0.915814 -0.252090
v 0.252090 5.403457 -0.252090
v 0.296427 0.915814 -0.198066
v 0.296427 5.403457 -0.198066
v 0.329372 0.915814 -0.136430
v 0.329372 5.403457 -0.136430
v 0.349659 0.915814 -0.069552
v 0.349659 5.403457 -0.069552
v 0.356509 0.915814 0.000000
v 0.356509 5.403457 -0.000000
v 0.349659 0.915814 0.069552
v 0.349659 5.403457 0.069552
v 0.329372 0.915814 0.136430
v 0.329372 5.403457 0.136430
v 0.296427 0.915814 0.198066
v 0.296427 5.403457 0.198066
v 0.252090 0.915814 0.252090
v 0.252090 5.403457 0.252090
v 0.198066 0.915814 0.296427
v 0.198066 5.403457 0.296427
v 0.136430 0.915814 0.329372
v 0.136430 5.403457 0.329372
v 0.069552 0.915814 0.349659
v 0.069552 5.403457 0.349659
v 0.000000 0.915814 0.356509
v 0.000000 5.403457 0.356509
v -0.069552 0.915814 0.349659
v -0.069552 5.403457 0.349659
v -0.136430 0.915814 0.329372
v -0.136430 5.403457 0.329372
v -0.198066 0.915814 0.296427
v -0.198066 5.403457 0.296427
v -0.252090 0.915814 0.252090
v -0.252090 5.403457 0.252090
v -0.296427 0.915814 0.198066
v -0.296427 5.403457 0.198066
v -0.329372 0.915814 0.136430
v -0.329372 5.403457 0.136430
v -0.349659 0.915814 0.069552
v -0.349659 5.403457 0.069552
v -0.356509 0.915814 0.000000
v -0.356509 5.403457 -0.000000
v -0.349659 0.915814 -0.069552
v -0.349659 5.403457 -0.069552
v -0.329372 0.915814 -0.136430
v -0.329372 5.403457 -0.136430
v -0.296427 0.915814 -0.198066
v -0.296427 5.403457 -0.198066
v -0.252090 0.915814 -0.252090
v -0.252090 5.403457 -0.252090
v -0.198066 0.915814 -0.296427
v -0.198066 5.403457 -0.296427
v -0.136430 0.915814 -0.329372
v -0.136430 5.403457 -0.329372
v -0.069552 0.915814 -0.349659
v -0.069552 5.403457 -0.349659
vn -0.0000 -0.0000 1.0000
vn 0.0980 -0.0000 -0.9952
vn 0.2903 -0.0000 -0.9569
vn 0.4714 -0.0000 -0.8819
vn 0.6344 -0.0000 -0.7730
vn 0.7730 -0.0000 -0.6344
vn 0.8819 -0.0000 -0.4714
vn 0.9569 -0.0000 -0.2903
vn 0.9952 -0.0000 -0.0980
vn 0.9952 -0.0000 0.0980
vn 0.9569 -0.0000 0.2903
vn 0.8819 -0.0000 0.4714
vn 0.7730 -0.0000 0.6344
vn 0.6344 -0.0000 0.7730
vn 0.4714 -0.0000 0.8819
vn 0.2903 -0.0000 0.9569
vn 0.0980 -0.0000 0.9952
vn -0.0980 -0.0000 0.9952
vn -0.2903 -0.0000 0.9569
vn -0.4714 -0.0000 0.8819
vn -0.6344 -0.0000 0.7730
vn -0.7730 -0.0000 0.6344
vn -0.8819 -0.0000 0.4714
vn -0.9569 -0.0000 0.2903
vn -0.9952 -0.0000 0.0980
vn -0.9952 -0.0000 -0.0980
vn -0.9569 -0.0000 -0.2903
vn -0.8819 -0.0000 -0.4714
vn -0.7730 -0.0000 -0.6344
vn -0.6344 -0.0000 -0.7730
vn -0.4714 -0.0000 -0.8819
vn -0.0000 1.0000 -0.0000
vn -0.2903 -0.0000 -0.9569
vn -0.0980 -0.0000 -0.9952
vn -0.0000 -1.0000 -0.0000
vt 0.010900 0.990018
vt 0.010900 0.774578
vt 0.226339 0.774578
vt 0.226339 0.990018
vt 0.010332 0.010766
vt 0.247073 0.010765
vt 0.247073 0.033970
vt 0.010332 0.033970
vt 0.247073 0.057175
vt 0.010332 0.057175
vt 0.247073 0.080379
vt 0.010332 0.080379
vt 0.247073 0.103584
vt 0.010332 0.103584
vt 0.247073 0.126788
vt 0.010332 0.126788
vt 0.247073 0.149993
vt 0.010332 0.149993
vt 0.247073 0.173198
vt 0.010332 0.173198
vt 0.247073 0.196402
vt 0.010332 0.196402
vt 0.247073 0.219607
vt 0.010332 0.219607
vt 0.247073 0.242811
vt 0.010332 0.242811
vt 0.247073 0.266016
vt 0.010332 0.266016
vt 0.247073 0.289220
vt 0.010332 0.289221
vt 0.247073 0.312425
vt 0.010332 0.312425
vt 0.247073 0.335630
vt 0.010332 0.335630
vt 0.247073 0.358834
vt 0.010332 0.358834
vt 0.247073 0.382039
vt 0.010332 0.382039
vt 0.247073 0.405243
vt 0.010332 0.405243
vt 0.247073 0.428448
vt 0.010332 0.428448
vt 0.247073 0.451653
vt 0.010332 0.451653
vt 0.247073 0.474857
vt 0.010332 0.474857
vt 0.247073 0.498062
vt 0.010332 0.498062
vt 0.247073 0.521266
vt 0.010332 0.521266
vt 0.247073 0.544471
vt 0.010332 0.544471
vt 0.247073 0.567675
vt 0.010332 0.567676
vt 0.247073 0.590880
vt 0.010332 0.590880
vt 0.247073 0.614085
vt 0.010332 0.614085
vt 0.247073 0.637289
vt 0.010332 0.637289
vt 0.247073 0.660494
vt 0.010332 0.660494
vt 0.247073 0.683698
vt 0.010332 0.683698
vt 0.247073 0.706903
vt 0.010332 0.706903
vt 0.724390 0.803302
vt 0.733270 0.781863
vt 0.746161 0.762569
vt 0.762570 0.746161
vt 0.781863 0.733270
vt 0.803302 0.724390
vt 0.826060 0.719863
vt 0.849265 0.719863
vt 0.872024 0.724390
vt 0.893462 0.733270
vt 0.912756 0.746161
vt 0.929164 0.762569
vt 0.942056 0.781863
vt 0.950936 0.803302
vt 0.955463 0.826060
vt 0.955463 0.849265
vt 0.950936 0.872024
vt 0.942056 0.893462
vt 0.929164 0.912756
vt 0.912756 0.929164
vt 0.893462 0.942056
vt 0.872023 0.950936
vt 0.849265 0.955463
vt 0.826060 0.955463
vt 0.803302 0.950936
vt 0.781863 0.942056
vt 0.762569 0.929164
vt 0.746161 0.912756
vt 0.733270 0.893462
vt 0.724390 0.872023
vt 0.719863 0.849265
vt 0.719863 0.826060
vt 0.247073 0.730108
vt 0.010332 0.730108
vt 0.247073 0.753312
vt 0.010332 0.753312
vt 0.752930 0.463533
vt 0.736522 0.479941
vt 0.717228 0.492833
vt 0.695790 0.501713
vt 0.673031 0.506240
vt 0.649827 0.506240
vt 0.627068 0.501713
vt 0.605630 0.492833
vt 0.586336 0.479941
vt 0.569928 0.463533
vt 0.557036 0.444239
vt 0.548156 0.422801
vt 0.543629 0.400042
vt 0.543629 0.376837
vt 0.548156 0.354079
vt 0.557036 0.332640
vt 0.569928 0.313347
vt 0.586336 0.296938
vt 0.605630 0.284047
vt 0.627068 0.275167
vt 0.649827 0.270640
vt 0.673031 0.270640
vt 0.695790 0.275167
vt 0.717228 0.284047
vt 0.736522 0.296938
vt 0.752930 0.313347
vt 0.765822 0.332640
vt 0.774702 0.354079
vt 0.779229 0.376837
vt 0.779229 0.400042
vt 0.774702 0.422801
vt 0.765822 0.444239
vt 0.283322 0.010766
vt 0.520062 0.010766
vt 0.520062 0.033970
vt 0.283322 0.033970
vt 0.520062 0.057175
vt 0.283322 0.057175
vt 0.520062 0.080379
vt 0.283322 0.080379
vt 0.520062 0.103584
vt 0.283322 0.103584
vt 0.520062 0.126788
vt 0.283322 0.126788
vt 0.520062 0.149993
vt 0.283322 0.149993
vt 0.520062 0.173198
vt 0.283322 0.173198
vt 0.520062 0.196402
vt 0.283322 0.196402
vt 0.520062 0.219607
vt 0.283322 0.219607
vt 0.520062 0.242811
vt 0.283322 0.242811
vt 0.520062 0.266016
vt 0.283322 0.266016
vt 0.520062 0.289221
vt 0.283322 0.289221
vt 0.520062 0.312425
vt 0.283322 0.312425
vt 0.520062 0.335630
vt 0.283322 0.335630
vt 0.520062 0.358834
vt 0.283322 0.358834
vt 0.520062 0.382039
vt 0.283322 0.382039
vt 0.520062 0.405243
vt 0.283322 0.405243
vt 0.520062 0.428448
vt 0.283322 0.428448
vt 0.520062 0.451653
vt 0.283322 0.451653
vt 0.520062 0.474857
vt 0.283322 0.474857
vt 0.520062 0.498062
vt 0.283322 0.498062
vt 0.520062 0.521266
vt 0.283322 0.521266
vt 0.520062 0.544471
vt 0.283322 0.544471
vt 0.520062 0.567676
vt 0.283322 0.567676
vt 0.520062 0.590880
vt 0.283322 0.590880
vt 0.520062 0.614085
vt 0.283322 0.614085
vt 0.520062 0.637289
vt 0.283322 0.637289
vt 0.520062 0.660494
vt 0.283322 0.660494
vt 0.520062 0.683698
vt 0.283322 0.683698
vt 0.520062 0.706903
vt 0.283322 0.706903
vt 0.774702 0.613246
vt 0.779229 0.636005
vt 0.779229 0.659209
vt 0.774702 0.681968
vt 0.765822 0.703406
vt 0.752930 0.722700
vt 0.736522 0.739108
vt 0.717228 0.752000
vt 0.695790 0.760880
vt 0.673031 0.765407
vt 0.649826 0.765407
vt 0.627068 0.760880
vt 0.605630 0.752000
vt 0.586336 0.739108
vt 0.569928 0.722700
vt 0.557036 0.703406
vt 0.548156 0.681967
vt 0.543629 0.659209
vt 0.543629 0.636004
vt 0.548156 0.613245
vt 0.557036 0.591807
vt 0.569928 0.572513
vt 0.586336 0.556105
vt 0.605630 0.543214
vt 0.627068 0.534334
vt 0.649827 0.529807
vt 0.673031 0.529807
vt 0.695790 0.534334
vt 0.717228 0.543214
vt 0.736522 0.556106
vt 0.752930 0.572514
vt 0.765822 0.591808
vt 0.520062 0.730108
vt 0.283322 0.730108
vt 0.520062 0.753312
vt 0.283322 0.753312
vt 0.557036 0.073473
vt 0.569928 0.054179
vt 0.586336 0.037771
vt 0.605630 0.024879
vt 0.627068 0.015999
vt 0.649827 0.011472
vt 0.673031 0.011473
vt 0.695790 0.016000
vt 0.717228 0.024880
vt 0.736522 0.037771
vt 0.752930 0.054180
vt 0.765822 0.073473
vt 0.774702 0.094912
vt 0.779229 0.117670
vt 0.779229 0.140875
vt 0.774702 0.163634
vt 0.765822 0.185072
vt 0.752930 0.204366
vt 0.736522 0.220774
vt 0.717228 0.233666
vt 0.695790 0.242546
vt 0.673031 0.247073
vt 0.649827 0.247072
vt 0.627068 0.242546
vt 0.605630 0.233665
vt 0.586336 0.220774
vt 0.569928 0.204366
vt 0.557036 0.185072
vt 0.548156 0.163633
vt 0.543629 0.140875
vt 0.543629 0.117670
vt 0.548156 0.094911
s 0
usemtl goal
f 1/1/1 2/2/1 4/3/1 3/4/1
f 5/5/2 6/6/2 8/7/2 7/8/2
f 7/8/3 8/7/3 10/9/3 9/10/3
f 9/10/4 10/9/4 12/11/4 11/12/4
f 11/12/5 12/11/5 14/13/5 13/14/5
f 13/14/6 14/13/6 16/15/6 15/16/6
f 15/16/7 16/15/7 18/17/7 17/18/7
f 17/18/8 18/17/8 20/19/8 19/20/8
f 19/20/9 20/19/9 22/21/9 21/22/9
f 21/22/10 22/21/10 24/23/10 23/24/10
f 23/24/11 24/23/11 26/25/11 25/26/11
f 25/26/12 26/25/12 28/27/12 27/28/12
f 27/28/13 28/27/13 30/29/13 29/30/13
f 29/30/14 30/29/14 32/31/14 31/32/14
f 31/32/15 32/31/15 34/33/15 33/34/15
f 33/34/16 34/33/16 36/35/16 35/36/16
f 35/36/17 36/35/17 38/37/17 37/38/17
f 37/38/18 38/37/18 40/39/18 39/40/18
f 39/40/19 40/39/19 42/41/19 41/42/19
f 41/42/20 42/41/20 44/43/20 43/44/20
f 43/44/21 44/43/21 46/45/21 45/46/21
f 45/46/22 46/45/22 48/47/22 47/48/22
f 47/48/23 48/47/23 50/49/23 49/50/23
f 49/50/24 50/49/24 52/51/24 51/52/24
f 51/52/25 52/51/25 54/53/25 53/54/25
f 53/54/26 54/53/26 56/55/26 55/56/26
f 55/56/27 56/55/27 58/57/27 57/58/27
f 57/58/28 58/57/28 60/59/28 59/60/28
f 59/60/29 60/59/29 62/61/29 61/62/29
f 61/62/30 62/61/30 64/63/30 63/64/30
f 63/64/31 64/63/31 66/65/31 65/66/31
f 8/67/32 6/68/32 68/69/32 66/70/32 64/71/32 62/72/32 60/73/32 58/74/32 56/75/32 54/76/32 52/77/32 50/78/32 48/79/32 46/80/32 44/81/32 42/82/32 40/83/32 38/84/32 36/85/32 34/86/32 32/87/32 30/88/32 28/89/32 26/90/32 24/91/32 22/92/32 20/93/32 18/94/32 16/95/32 14/96/32 12/97/32 10/98/32
f 65/66/33 66/65/33 68/99/33 67/100/33
f 67/100/34 68/99/34 6/101/34 5/102/34
f 5/103/35 7/104/35 9/105/35 11/106/35 13/107/35 15/108/35 17/109/35 19/110/35 21/111/35 23/112/35 25/113/35 27/114/35 29/115/35 31/116/35 33/117/35 35/118/35 37/119/35 39/120/35 41/121/35 43/122/35 45/123/35 47/124/35 49/125/35 51/126/35 53/127/35 55/128/35 57/129/35 59/130/35 61/131/35 63/132/35 65/133/35 67/134/35
f 69/135/2 70/136/2 72/137/2 71/138/2
f 71/138/3 72/137/3 74/139/3 73/140/3
f 73/140/4 74/139/4 76/141/4 75/142/4
f 75/142/5 76/141/5 78/143/5 77/144/5
f 77/144/6 78/143/6 80/145/6 79/146/6
f 79/146/7 80/145/7 82/147/7 81/148/7
f 81/148/8 82/147/8 84/149/8 83/150/8
f 83/150/9 84/149/9 86/151/9 85/152/9
f 85/152/10 86/151/10 88/153/10 87/154/10
f 87/154/11 88/153/11 90/155/11 89/156/11
f 89/156/12 90/155/12 92/157/12 91/158/12
f 91/158/13 92/157/13 94/159/13 93/160/13
f 93/160/14 94/159/14 96/161/14 95/162/14
f 95/162/15 96/161/15 98/163/15 97/164/15
f 97/164/16 98/163/16 100/165/16 99/166/16
f 99/166/17 100/165/17 102/167/17 101/168/17
f 101/168/18 102/167/18 104/169/18 103/170/18
f 103/170/19 104/169/19 106/171/19 105/172/19
f 105/172/20 106/171/20 108/173/20 107/174/20
f 107/174/21 108/173/21 110/175/21 109/176/21
f 109/176/22 110/175/22 112/177/22 111/178/22
f 111/178/23 112/177/23 114/179/23 113/180/23
f 113/180/24 114/179/24 116/181/24 115/182/24
f 115/182/25 116/181/25 118/183/25 117/184/25
f 117/184/26 118/183/26 120/185/26 119/186/26
f 119/186/27 120/185/27 122/187/27 121/188/27
f 121/188/28 122/187/28 124/189/28 123/190/28
f 123/190/29 124/189/29 126/191/29 125/192/29
f 125/192/30 126/191/30 128/193/30 127/194/30
f 127/194/31 128/193/31 130/195/31 129/196/31
f 72/197/32 70/198/32 132/199/32 130/200/32 128/201/32 126/202/32 124/203/32 122/204/32 120/205/32 118/206/32 116/207/32 114/208/32 112/209/32 110/210/32 108/211/32 106/212/32 104/213/32 102/214/32 100/215/32 98/216/32 96/217/32 94/218/32 92/219/32 90/220/32 88/221/32 86/222/32 84/223/32 82/224/32 80/225/32 78/226/32 76/227/32 74/228/32
f 129/196/33 130/195/33 132/229/33 131/230/33
f 131/230/34 132/229/34 70/231/34 69/232/34
f 69/233/35 71/234/35 73/235/35 75/236/35 77/237/35 79/238/35 81/239/35 83/240/35 85/241/35 87/242/35 89/243/35 91/244/35 93/245/35 95/246/35 97/247/35 99/248/35 101/249/35 103/250/35 105/251/35 107/252/35 109/253/35 111/254/35 113/255/35 115/256/35 117/257/35 119/258/35 121/259/35 123/260/35 125/261/35 127/262/35 129/263/35 131/264/35
