# Blender 4.4.1
# www.blender.org
mtllib bullet.mtl
o 球
v 0.000000 0.415735 -0.277785
v 0.000000 0.277785 -0.415735
v 0.000000 0.097545 -0.490393
v 0.000000 0.000000 -0.500000
v 0.000000 -0.097545 -0.490393
v 0.000000 -0.277785 -0.415735
v 0.019030 0.490393 -0.095671
v 0.037329 0.461940 -0.187665
v 0.054193 0.415735 -0.272448
v 0.068975 0.353553 -0.346760
v 0.081106 0.277785 -0.407747
v 0.090120 0.191342 -0.453064
v 0.095671 0.097545 -0.480970
v 0.097545 0.000000 -0.490393
v 0.095671 -0.097545 -0.480970
v 0.090120 -0.191342 -0.453064
v 0.081106 -0.277785 -0.407747
v 0.068975 -0.353553 -0.346760
v 0.054193 -0.415735 -0.272448
v 0.037329 -0.461940 -0.187665
v 0.019030 -0.490393 -0.095671
v 0.037329 0.490393 -0.090120
v 0.073223 0.461940 -0.176777
v 0.106304 0.415735 -0.256640
v 0.135299 0.353553 -0.326641
v 0.159095 0.277785 -0.384089
v 0.176777 0.191342 -0.426777
v 0.187665 0.097545 -0.453064
v 0.191342 0.000000 -0.461940
v 0.187665 -0.097545 -0.453064
v 0.176777 -0.191342 -0.426777
v 0.159095 -0.277785 -0.384089
v 0.135299 -0.353553 -0.326641
v 0.106304 -0.415735 -0.256640
v 0.073223 -0.461940 -0.176777
v 0.037329 -0.490393 -0.090120
v 0.054193 0.490393 -0.081106
v 0.106304 0.461940 -0.159095
v 0.154329 0.415735 -0.230970
v 0.196424 0.353553 -0.293969
v 0.230970 0.277785 -0.345671
v 0.256640 0.191342 -0.384089
v 0.272448 0.097545 -0.407747
v 0.277785 0.000000 -0.415735
v 0.272448 -0.097545 -0.407747
v 0.256640 -0.191342 -0.384089
v 0.230970 -0.277785 -0.345671
v 0.196424 -0.353553 -0.293969
v 0.154329 -0.415735 -0.230970
v 0.106304 -0.461940 -0.159095
v 0.054193 -0.490393 -0.081106
v 0.068975 0.490393 -0.068975
v 0.135299 0.461940 -0.135299
v 0.196424 0.415735 -0.196424
v 0.250000 0.353553 -0.250000
v 0.293969 0.277785 -0.293969
v 0.326641 0.191342 -0.326641
v 0.346760 0.097545 -0.346760
v 0.353553 0.000000 -0.353553
v 0.346760 -0.097545 -0.346760
v 0.326641 -0.191342 -0.326641
v 0.293969 -0.277785 -0.293969
v 0.250000 -0.353553 -0.250000
v 0.196424 -0.415735 -0.196424
v 0.135299 -0.461940 -0.135299
v 0.068975 -0.490393 -0.068975
v 0.081106 0.490393 -0.054193
v 0.159095 0.461940 -0.106304
v 0.230970 0.415735 -0.154329
v 0.293969 0.353553 -0.196424
v 0.345671 0.277785 -0.230970
v 0.384089 0.191342 -0.256640
v 0.407747 0.097545 -0.272447
v 0.415735 0.000000 -0.277785
v 0.407747 -0.097545 -0.272447
v 0.384089 -0.191342 -0.256640
v 0.345671 -0.277785 -0.230970
v 0.293969 -0.353553 -0.196424
v 0.230970 -0.415735 -0.154329
v 0.159095 -0.461940 -0.106304
v 0.081106 -0.490393 -0.054193
v 0.000000 0.500000 0.000000
v 0.090120 0.490393 -0.037329
v 0.176777 0.461940 -0.073223
v 0.256640 0.415735 -0.106304
v 0.326641 0.353553 -0.135299
v 0.384089 0.277785 -0.159095
v 0.426777 0.191342 -0.176777
v 0.453064 0.097545 -0.187665
v 0.461940 0.000000 -0.191342
v 0.453064 -0.097545 -0.187665
v 0.426777 -0.191342 -0.176777
v 0.384089 -0.277785 -0.159095
v 0.326641 -0.353553 -0.135299
v 0.256640 -0.415735 -0.106304
v 0.176777 -0.461940 -0.073223
v 0.090120 -0.490393 -0.037329
v 0.095671 0.490393 -0.019030
v 0.187665 0.461940 -0.037329
v 0.272448 0.415735 -0.054193
v 0.346760 0.353553 -0.068975
v 0.407746 0.277785 -0.081106
v 0.453064 0.191342 -0.090120
v 0.480970 0.097545 -0.095671
v 0.490393 0.000000 -0.097545
v 0.480970 -0.097545 -0.095671
v 0.453064 -0.191342 -0.090120
v 0.407746 -0.277785 -0.081106
v 0.346760 -0.353553 -0.068975
v 0.272448 -0.415735 -0.054193
v 0.187665 -0.461940 -0.037329
v 0.095671 -0.490393 -0.019030
v 0.097545 0.490393 0.000000
v 0.191342 0.461940 0.000000
v 0.277785 0.415735 0.000000
v 0.353553 0.353553 -0.000000
v 0.415735 0.277785 0.000000
v 0.461940 0.191342 -0.000000
v 0.490393 0.097545 0.000000
v 0.500000 0.000000 0.000000
v 0.490393 -0.097545 0.000000
v 0.461940 -0.191342 -0.000000
v 0.415735 -0.277785 0.000000
v 0.353553 -0.353553 -0.000000
v 0.277785 -0.415735 0.000000
v 0.191342 -0.461940 0.000000
v 0.097545 -0.490393 0.000000
v 0.095671 0.490393 0.019030
v 0.187665 0.461940 0.037329
v 0.272447 0.415735 0.054193
v 0.346760 0.353553 0.068975
v 0.407746 0.277785 0.081106
v 0.453064 0.191342 0.090120
v 0.480970 0.097545 0.095671
v 0.490392 0.000000 0.097545
v 0.480970 -0.097545 0.095671
v 0.453064 -0.191342 0.090120
v 0.407746 -0.277785 0.081106
v 0.346760 -0.353553 0.068975
v 0.272447 -0.415735 0.054193
v 0.187665 -0.461940 0.037329
v 0.095671 -0.490393 0.019030
v 0.090120 0.490393 0.037329
v 0.176777 0.461940 0.073223
v 0.256640 0.415735 0.106304
v 0.326641 0.353553 0.135299
v 0.384089 0.277785 0.159095
v 0.426777 0.191342 0.176777
v 0.453064 0.097545 0.187665
v 0.461940 0.000000 0.191342
v 0.453064 -0.097545 0.187665
v 0.426777 -0.191342 0.176777
v 0.384089 -0.277785 0.159095
v 0.326641 -0.353553 0.135299
v 0.256640 -0.415735 0.106304
v 0.176777 -0.461940 0.073223
v 0.090120 -0.490393 0.037329
v 0.081106 0.490393 0.054193
v 0.159095 0.461940 0.106304
v 0.230970 0.415735 0.154329
v 0.293969 0.353553 0.196424
v 0.345671 0.277785 0.230970
v 0.384089 0.191342 0.256640
v 0.407746 0.097545 0.272448
v 0.415735 0.000000 0.277785
v 0.407746 -0.097545 0.272448
v 0.384089 -0.191342 0.256640
v 0.345671 -0.277785 0.230970
v 0.293969 -0.353553 0.196424
v 0.230970 -0.415735 0.154329
v 0.159095 -0.461940 0.106304
v 0.081106 -0.490393 0.054193
v 0.068975 0.490393 0.068975
v 0.135299 0.461940 0.135299
v 0.196424 0.415735 0.196424
v 0.250000 0.353553 0.250000
v 0.293969 0.277785 0.293969
v 0.326641 0.191342 0.326641
v 0.346760 0.097545 0.346760
v 0.353553 0.000000 0.353553
v 0.346760 -0.097545 0.346760
v 0.326641 -0.191342 0.326641
v 0.293969 -0.277785 0.293969
v 0.250000 -0.353553 0.250000
v 0.196424 -0.415735 0.196424
v 0.135299 -0.461940 0.135299
v 0.068975 -0.490393 0.068975
v 0.054193 0.490393 0.081106
v 0.106304 0.461940 0.159095
v 0.154329 0.415735 0.230970
v 0.196424 0.353553 0.293969
v 0.230970 0.277785 0.345671
v 0.256640 0.191342 0.384089
v 0.272447 0.097545 0.407746
v 0.277785 0.000000 0.415735
v 0.272447 -0.097545 0.407746
v 0.256640 -0.191342 0.384089
v 0.230970 -0.277785 0.345671
v 0.196424 -0.353553 0.293969
v 0.154329 -0.415735 0.230970
v 0.106304 -0.461940 0.159095
v 0.054193 -0.490393 0.081106
v 0.037329 0.490393 0.090120
v 0.073223 0.461940 0.176777
v 0.106304 0.415735 0.256640
v 0.135299 0.353553 0.326641
v 0.159095 0.277785 0.384089
v 0.176777 0.191342 0.426777
v 0.187665 0.097545 0.453064
v 0.191341 0.000000 0.461940
v 0.187665 -0.097545 0.453064
v 0.176777 -0.191342 0.426777
v 0.159095 -0.277785 0.384089
v 0.135299 -0.353553 0.326641
v 0.106304 -0.415735 0.256640
v 0.073223 -0.461940 0.176777
v 0.037329 -0.490393 0.090120
v 0.019030 0.490393 0.095671
v 0.037329 0.461940 0.187665
v 0.054193 0.415735 0.272447
v 0.068975 0.353553 0.346760
v 0.081106 0.277785 0.407746
v 0.090120 0.191342 0.453064
v 0.095671 0.097545 0.480970
v 0.097545 0.000000 0.490392
v 0.095671 -0.097545 0.480970
v 0.090120 -0.191342 0.453064
v 0.081106 -0.277785 0.407746
v 0.068975 -0.353553 0.346760
v 0.054193 -0.415735 0.272447
v 0.037329 -0.461940 0.187665
v 0.019030 -0.490393 0.095671
v -0.000000 0.490393 0.097545
v -0.000000 0.461940 0.191342
v -0.000000 0.415735 0.277785
v -0.000000 0.353553 0.353553
v -0.000000 0.277785 0.415735
v 0.000000 0.191342 0.461940
v -0.000000 0.097545 0.490392
v -0.000000 0.000000 0.500000
v -0.000000 -0.097545 0.490392
v 0.000000 -0.191342 0.461940
v -0.000000 -0.277785 0.415735
v -0.000000 -0.353553 0.353553
v -0.000000 -0.415735 0.277785
v -0.000000 -0.461940 0.191342
v -0.000000 -0.490393 0.097545
v -0.019030 0.490393 0.095671
v -0.037329 0.461940 0.187665
v -0.054193 0.415735 0.272447
v -0.068975 0.353553 0.346760
v -0.081106 0.277785 0.407746
v -0.090120 0.191342 0.453064
v -0.095671 0.097545 0.480970
v -0.097545 0.000000 0.490392
v -0.095671 -0.097545 0.480970
v -0.090120 -0.191342 0.453064
v -0.081106 -0.277785 0.407746
v -0.068975 -0.353553 0.346760
v -0.054193 -0.415735 0.272447
v -0.037329 -0.461940 0.187665
v -0.019030 -0.490393 0.095671
v -0.037329 0.490393 0.090120
v -0.073223 0.461940 0.176777
v -0.106304 0.415735 0.256640
v -0.135299 0.353553 0.326641
v -0.159095 0.277785 0.384089
v -0.176777 0.191342 0.426777
v -0.187665 0.097545 0.453064
v -0.191342 0.000000 0.461939
v -0.187665 -0.097545 0.453064
v -0.176777 -0.191342 0.426777
v -0.159095 -0.277785 0.384089
v -0.135299 -0.353553 0.326641
v -0.106304 -0.415735 0.256640
v -0.073223 -0.461940 0.176777
v -0.037329 -0.490393 0.090120
v -0.054193 0.490393 0.081106
v -0.106304 0.461940 0.159095
v -0.154329 0.415735 0.230970
v -0.196424 0.353553 0.293969
v -0.230970 0.277785 0.345671
v -0.256640 0.191342 0.384089
v -0.272448 0.097545 0.407746
v -0.277785 0.000000 0.415734
v -0.272448 -0.097545 0.407746
v -0.256640 -0.191342 0.384089
v -0.230970 -0.277785 0.345671
v -0.196424 -0.353553 0.293969
v -0.154329 -0.415735 0.230970
v -0.106304 -0.461940 0.159095
v -0.054193 -0.490393 0.081106
v -0.068975 0.490393 0.068975
v -0.135299 0.461940 0.135299
v -0.196424 0.415735 0.196424
v -0.250000 0.353553 0.250000
v -0.293969 0.277785 0.293969
v -0.326641 0.191342 0.326641
v -0.346760 0.097545 0.346760
v -0.353553 0.000000 0.353553
v -0.346760 -0.097545 0.346760
v -0.326641 -0.191342 0.326641
v -0.293969 -0.277785 0.293969
v -0.250000 -0.353553 0.250000
v -0.196424 -0.415735 0.196424
v -0.135299 -0.461940 0.135299
v -0.068975 -0.490393 0.068975
v 0.000000 -0.500000 0.000000
v -0.081106 0.490393 0.054193
v -0.159095 0.461940 0.106304
v -0.230970 0.415735 0.154329
v -0.293969 0.353553 0.196424
v -0.345671 0.277785 0.230970
v -0.384089 0.191342 0.256640
v -0.407746 0.097545 0.272447
v -0.415735 0.000000 0.277785
v -0.407746 -0.097545 0.272447
v -0.384089 -0.191342 0.256640
v -0.345671 -0.277785 0.230970
v -0.293969 -0.353553 0.196424
v -0.230970 -0.415735 0.154329
v -0.159095 -0.461940 0.106304
v -0.081106 -0.490393 0.054193
v -0.090120 0.490393 0.037329
v -0.176777 0.461940 0.073223
v -0.256640 0.415735 0.106304
v -0.326641 0.353553 0.135299
v -0.384089 0.277785 0.159095
v -0.426777 0.191342 0.176777
v -0.453064 0.097545 0.187665
v -0.461939 0.000000 0.191341
v -0.453064 -0.097545 0.187665
v -0.426777 -0.191342 0.176777
v -0.384089 -0.277785 0.159095
v -0.326641 -0.353553 0.135299
v -0.256640 -0.415735 0.106304
v -0.176777 -0.461940 0.073223
v -0.090120 -0.490393 0.037329
v -0.095671 0.490393 0.019030
v -0.187665 0.461940 0.037329
v -0.272447 0.415735 0.054193
v -0.346760 0.353553 0.068975
v -0.407746 0.277785 0.081106
v -0.453064 0.191342 0.090120
v -0.480970 0.097545 0.095671
v -0.490392 0.000000 0.097545
v -0.480970 -0.097545 0.095671
v -0.453064 -0.191342 0.090120
v -0.407746 -0.277785 0.081106
v -0.346760 -0.353553 0.068975
v -0.272447 -0.415735 0.054193
v -0.187665 -0.461940 0.037329
v -0.095671 -0.490393 0.019030
v -0.097545 0.490393 -0.000000
v -0.191342 0.461940 -0.000000
v -0.277785 0.415735 -0.000000
v -0.353553 0.353553 -0.000000
v -0.415735 0.277785 -0.000000
v -0.461940 0.191342 -0.000000
v -0.490392 0.097545 -0.000000
v -0.500000 0.000000 -0.000000
v -0.490392 -0.097545 -0.000000
v -0.461940 -0.191342 -0.000000
v -0.415735 -0.277785 -0.000000
v -0.353553 -0.353553 -0.000000
v -0.277785 -0.415735 -0.000000
v -0.191342 -0.461940 -0.000000
v -0.097545 -0.490393 -0.000000
v -0.095671 0.490393 -0.019030
v -0.187665 0.461940 -0.037329
v -0.272447 0.415735 -0.054193
v -0.346760 0.353553 -0.068975
v -0.407746 0.277785 -0.081106
v -0.453064 0.191342 -0.090120
v -0.480970 0.097545 -0.095671
v -0.490392 0.000000 -0.097545
v -0.480970 -0.097545 -0.095671
v -0.453064 -0.191342 -0.090120
v -0.407746 -0.277785 -0.081106
v -0.346760 -0.353553 -0.068975
v -0.272447 -0.415735 -0.054193
v -0.187665 -0.461940 -0.037329
v -0.095671 -0.490393 -0.019030
v -0.090120 0.490393 -0.037329
v -0.176777 0.461940 -0.073223
v -0.256640 0.415735 -0.106304
v -0.326641 0.353553 -0.135299
v -0.384089 0.277785 -0.159095
v -0.426776 0.191342 -0.176777
v -0.453063 0.097545 -0.187665
v -0.461939 0.000000 -0.191342
v -0.453063 -0.097545 -0.187665
v -0.426776 -0.191342 -0.176777
v -0.384089 -0.277785 -0.159095
v -0.326641 -0.353553 -0.135299
v -0.256640 -0.415735 -0.106304
v -0.176777 -0.461940 -0.073223
v -0.090120 -0.490393 -0.037329
v -0.081106 0.490393 -0.054193
v -0.159095 0.461940 -0.106304
v -0.230970 0.415735 -0.154329
v -0.293969 0.353553 -0.196424
v -0.345671 0.277785 -0.230970
v -0.384089 0.191342 -0.256640
v -0.407746 0.097545 -0.272448
v -0.415734 0.000000 -0.277785
v -0.407746 -0.097545 -0.272448
v -0.384089 -0.191342 -0.256640
v -0.345671 -0.277785 -0.230970
v -0.293969 -0.353553 -0.196424
v -0.230970 -0.415735 -0.154329
v -0.159095 -0.461940 -0.106304
v -0.081106 -0.490393 -0.054193
v -0.068975 0.490393 -0.068975
v -0.135299 0.461940 -0.135299
v -0.196423 0.415735 -0.196424
v -0.250000 0.353553 -0.250000
v -0.293969 0.277785 -0.293969
v -0.326641 0.191342 -0.326641
v -0.346760 0.097545 -0.346760
v -0.353553 0.000000 -0.353553
v -0.346760 -0.097545 -0.346760
v -0.326641 -0.191342 -0.326641
v -0.293969 -0.277785 -0.293969
v -0.250000 -0.353553 -0.250000
v -0.196423 -0.415735 -0.196424
v -0.135299 -0.461940 -0.135299
v -0.068975 -0.490393 -0.068975
v -0.054193 0.490393 -0.081106
v -0.106304 0.461940 -0.159095
v -0.154329 0.415735 -0.230970
v -0.196424 0.353553 -0.293969
v -0.230970 0.277785 -0.345671
v -0.256640 0.191342 -0.384089
v -0.272447 0.097545 -0.407746
v -0.277785 0.000000 -0.415734
v -0.272447 -0.097545 -0.407746
v -0.256640 -0.191342 -0.384089
v -0.230970 -0.277785 -0.345671
v -0.196424 -0.353553 -0.293969
v -0.154329 -0.415735 -0.230970
v -0.106304 -0.461940 -0.159095
v -0.054193 -0.490393 -0.081106
v -0.037329 0.490393 -0.090120
v -0.073223 0.461940 -0.176777
v -0.106304 0.415735 -0.256640
v -0.135299 0.353553 -0.326641
v -0.159095 0.277785 -0.384089
v -0.176777 0.191342 -0.426776
v -0.187665 0.097545 -0.453063
v -0.191341 0.000000 -0.461939
v -0.187665 -0.097545 -0.453063
v -0.176777 -0.191342 -0.426776
v -0.159095 -0.277785 -0.384089
v -0.135299 -0.353553 -0.326641
v -0.106304 -0.415735 -0.256640
v -0.073223 -0.461940 -0.176777
v -0.037329 -0.490393 -0.090120
v -0.019030 0.490393 -0.095671
v -0.037329 0.461940 -0.187665
v -0.054193 0.415735 -0.272447
v -0.068975 0.353553 -0.346760
v -0.081106 0.277785 -0.407746
v -0.090120 0.191342 -0.453063
v -0.095671 0.097545 -0.480970
v -0.097545 0.000000 -0.490392
v -0.095671 -0.097545 -0.480970
v -0.090120 -0.191342 -0.453063
v -0.081106 -0.277785 -0.407746
v -0.068975 -0.353553 -0.346760
v -0.054193 -0.415735 -0.272447
v -0.037329 -0.461940 -0.187665
v -0.019030 -0.490393 -0.095671
v 0.000000 0.490393 -0.097545
v 0.000000 0.461940 -0.191342
v 0.000000 0.353553 -0.353553
v 0.000000 0.191342 -0.461940
v 0.000000 -0.191342 -0.461940
v 0.000000 -0.353553 -0.353553
v 0.000000 -0.415735 -0.277785
v 0.000000 -0.461940 -0.191342
v 0.000000 -0.490393 -0.097545
vn -0.0000 0.8286 -0.5598
vn -0.0000 0.5528 -0.8333
vn -0.0000 0.1939 -0.9810
vn -0.0000 -0.0000 -1.0000
vn -0.0000 -0.1939 -0.9810
vn -0.0000 -0.5528 -0.8333
vn 0.0392 0.9796 -0.1971
vn 0.0757 0.9217 -0.3804
vn 0.1092 0.8286 -0.5490
vn 0.1385 0.7041 -0.6965
vn 0.1626 0.5528 -0.8173
vn 0.1804 0.3805 -0.9070
vn 0.1914 0.1939 -0.9622
vn 0.1951 -0.0000 -0.9808
vn 0.1914 -0.1939 -0.9622
vn 0.1804 -0.3805 -0.9070
vn 0.1626 -0.5528 -0.8173
vn 0.1385 -0.7041 -0.6965
vn 0.1092 -0.8286 -0.5490
vn 0.0757 -0.9217 -0.3804
vn 0.0392 -0.9796 -0.1971
vn 0.0769 0.9796 -0.1857
vn 0.1484 0.9217 -0.3584
vn 0.2142 0.8286 -0.5172
vn 0.2718 0.7041 -0.6561
vn 0.3189 0.5528 -0.7699
vn 0.3539 0.3805 -0.8544
vn 0.3754 0.1939 -0.9063
vn 0.3827 -0.0000 -0.9239
vn 0.3754 -0.1939 -0.9063
vn 0.3539 -0.3805 -0.8544
vn 0.3189 -0.5528 -0.7699
vn 0.2718 -0.7041 -0.6561
vn 0.2142 -0.8286 -0.5172
vn 0.1484 -0.9217 -0.3584
vn 0.0769 -0.9796 -0.1857
vn 0.1117 0.9796 -0.1671
vn 0.2155 0.9217 -0.3225
vn 0.3110 0.8286 -0.4654
vn 0.3945 0.7041 -0.5905
vn 0.4630 0.5528 -0.6929
vn 0.5138 0.3805 -0.7689
vn 0.5450 0.1939 -0.8157
vn 0.5556 -0.0000 -0.8315
vn 0.5450 -0.1939 -0.8157
vn 0.5138 -0.3805 -0.7689
vn 0.4630 -0.5528 -0.6929
vn 0.3945 -0.7041 -0.5905
vn 0.3110 -0.8286 -0.4654
vn 0.2155 -0.9217 -0.3225
vn 0.1117 -0.9796 -0.1671
vn 0.1421 0.9796 -0.1421
vn 0.2743 0.9217 -0.2743
vn 0.3958 0.8286 -0.3958
vn 0.5021 0.7041 -0.5021
vn 0.5893 0.5528 -0.5893
vn 0.6539 0.3805 -0.6539
vn 0.6937 0.1939 -0.6937
vn 0.7071 -0.0000 -0.7071
vn 0.6937 -0.1939 -0.6937
vn 0.6539 -0.3805 -0.6539
vn 0.5893 -0.5528 -0.5893
vn 0.5021 -0.7041 -0.5021
vn 0.3958 -0.8286 -0.3958
vn 0.2743 -0.9217 -0.2743
vn 0.1421 -0.9796 -0.1421
vn 0.1671 0.9796 -0.1117
vn 0.3225 0.9217 -0.2155
vn 0.4654 0.8286 -0.3110
vn 0.5905 0.7041 -0.3945
vn 0.6929 0.5528 -0.4630
vn 0.7689 0.3805 -0.5138
vn 0.8157 0.1939 -0.5450
vn 0.8315 -0.0000 -0.5556
vn 0.8157 -0.1939 -0.5450
vn 0.7689 -0.3805 -0.5138
vn 0.6929 -0.5528 -0.4630
vn 0.5905 -0.7041 -0.3945
vn 0.4654 -0.8286 -0.3110
vn 0.3225 -0.9217 -0.2155
vn 0.1671 -0.9796 -0.1117
vn -0.0000 1.0000 -0.0000
vn 0.1857 0.9796 -0.0769
vn 0.3584 0.9217 -0.1484
vn 0.5172 0.8286 -0.2142
vn 0.6561 0.7041 -0.2718
vn 0.7699 0.5528 -0.3189
vn 0.8544 0.3805 -0.3539
vn 0.9063 0.1939 -0.3754
vn 0.9239 -0.0000 -0.3827
vn 0.9063 -0.1939 -0.3754
vn 0.8544 -0.3805 -0.3539
vn 0.7699 -0.5528 -0.3189
vn 0.6561 -0.7041 -0.2718
vn 0.5172 -0.8286 -0.2142
vn 0.3584 -0.9217 -0.1484
vn 0.1857 -0.9796 -0.0769
vn 0.1971 0.9796 -0.0392
vn 0.3804 0.9217 -0.0757
vn 0.5490 0.8286 -0.1092
vn 0.6965 0.7041 -0.1385
vn 0.8173 0.5528 -0.1626
vn 0.9070 0.3805 -0.1804
vn 0.9622 0.1939 -0.1914
vn 0.9808 -0.0000 -0.1951
vn 0.9622 -0.1939 -0.1914
vn 0.9070 -0.3805 -0.1804
vn 0.8173 -0.5528 -0.1626
vn 0.6965 -0.7041 -0.1385
vn 0.5490 -0.8286 -0.1092
vn 0.3804 -0.9217 -0.0757
vn 0.1971 -0.9796 -0.0392
vn 0.2010 0.9796 -0.0000
vn 0.3879 0.9217 -0.0000
vn 0.5598 0.8286 -0.0000
vn 0.7101 0.7041 -0.0000
vn 0.8333 0.5528 -0.0000
vn 0.9248 0.3805 -0.0000
vn 0.9810 0.1939 -0.0000
vn 1.0000 -0.0000 -0.0000
vn 0.9810 -0.1939 -0.0000
vn 0.9248 -0.3805 -0.0000
vn 0.8333 -0.5528 -0.0000
vn 0.7101 -0.7041 -0.0000
vn 0.5598 -0.8286 -0.0000
vn 0.3879 -0.9217 -0.0000
vn 0.2010 -0.9796 -0.0000
vn 0.1971 0.9796 0.0392
vn 0.3804 0.9217 0.0757
vn 0.5490 0.8286 0.1092
vn 0.6965 0.7041 0.1385
vn 0.8173 0.5528 0.1626
vn 0.9070 0.3805 0.1804
vn 0.9622 0.1939 0.1914
vn 0.9808 -0.0000 0.1951
vn 0.9622 -0.1939 0.1914
vn 0.9070 -0.3805 0.1804
vn 0.8173 -0.5528 0.1626
vn 0.6965 -0.7041 0.1385
vn 0.5490 -0.8286 0.1092
vn 0.3804 -0.9217 0.0757
vn 0.1971 -0.9796 0.0392
vn 0.1857 0.9796 0.0769
vn 0.3584 0.9217 0.1484
vn 0.5172 0.8286 0.2142
vn 0.6561 0.7041 0.2718
vn 0.7699 0.5528 0.3189
vn 0.8544 0.3805 0.3539
vn 0.9063 0.1939 0.3754
vn 0.9239 -0.0000 0.3827
vn 0.9063 -0.1939 0.3754
vn 0.8544 -0.3805 0.3539
vn 0.7699 -0.5528 0.3189
vn 0.6561 -0.7041 0.2718
vn 0.5172 -0.8286 0.2142
vn 0.3584 -0.9217 0.1484
vn 0.1857 -0.9796 0.0769
vn 0.1671 0.9796 0.1117
vn 0.3225 0.9217 0.2155
vn 0.4654 0.8286 0.3110
vn 0.5905 0.7041 0.3945
vn 0.6929 0.5528 0.4630
vn 0.7689 0.3805 0.5138
vn 0.8157 0.1939 0.5450
vn 0.8315 -0.0000 0.5556
vn 0.8157 -0.1939 0.5450
vn 0.7689 -0.3805 0.5138
vn 0.6929 -0.5528 0.4630
vn 0.5905 -0.7041 0.3945
vn 0.4654 -0.8286 0.3110
vn 0.3225 -0.9217 0.2155
vn 0.1671 -0.9796 0.1117
vn 0.1421 0.9796 0.1421
vn 0.2743 0.9217 0.2743
vn 0.3958 0.8286 0.3958
vn 0.5021 0.7041 0.5021
vn 0.5893 0.5528 0.5893
vn 0.6539 0.3805 0.6539
vn 0.6937 0.1939 0.6937
vn 0.7071 -0.0000 0.7071
vn 0.6937 -0.1939 0.6937
vn 0.6539 -0.3805 0.6539
vn 0.5893 -0.5528 0.5893
vn 0.5021 -0.7041 0.5021
vn 0.3958 -0.8286 0.3958
vn 0.2743 -0.9217 0.2743
vn 0.1421 -0.9796 0.1421
vn 0.1117 0.9796 0.1671
vn 0.2155 0.9217 0.3225
vn 0.3110 0.8286 0.4654
vn 0.3945 0.7041 0.5905
vn 0.4630 0.5528 0.6929
vn 0.5138 0.3805 0.7689
vn 0.5450 0.1939 0.8157
vn 0.5556 -0.0000 0.8315
vn 0.5450 -0.1939 0.8157
vn 0.5138 -0.3805 0.7689
vn 0.4630 -0.5528 0.6929
vn 0.3945 -0.7041 0.5905
vn 0.3110 -0.8286 0.4654
vn 0.2155 -0.9217 0.3225
vn 0.1117 -0.9796 0.1671
vn 0.0769 0.9796 0.1857
vn 0.1484 0.9217 0.3584
vn 0.2142 0.8286 0.5172
vn 0.2718 0.7041 0.6561
vn 0.3189 0.5528 0.7699
vn 0.3539 0.3805 0.8544
vn 0.3754 0.1939 0.9063
vn 0.3827 -0.0000 0.9239
vn 0.3754 -0.1939 0.9063
vn 0.3539 -0.3805 0.8544
vn 0.3189 -0.5528 0.7699
vn 0.2718 -0.7041 0.6561
vn 0.2142 -0.8286 0.5172
vn 0.1484 -0.9217 0.3584
vn 0.0769 -0.9796 0.1857
vn 0.0392 0.9796 0.1971
vn 0.0757 0.9217 0.3804
vn 0.1092 0.8286 0.5490
vn 0.1385 0.7041 0.6965
vn 0.1626 0.5528 0.8173
vn 0.1804 0.3805 0.9070
vn 0.1914 0.1939 0.9622
vn 0.1951 -0.0000 0.9808
vn 0.1914 -0.1939 0.9622
vn 0.1804 -0.3805 0.9070
vn 0.1626 -0.5528 0.8173
vn 0.1385 -0.7041 0.6965
vn 0.1092 -0.8286 0.5490
vn 0.0757 -0.9217 0.3804
vn 0.0392 -0.9796 0.1971
vn -0.0000 0.9796 0.2010
vn -0.0000 0.9217 0.3879
vn -0.0000 0.8286 0.5598
vn -0.0000 0.7041 0.7101
vn -0.0000 0.5528 0.8333
vn -0.0000 0.3805 0.9248
vn -0.0000 0.1939 0.9810
vn -0.0000 -0.0000 1.0000
vn -0.0000 -0.1939 0.9810
vn -0.0000 -0.3805 0.9248
vn -0.0000 -0.5528 0.8333
vn -0.0000 -0.7041 0.7101
vn -0.0000 -0.8286 0.5598
vn -0.0000 -0.9217 0.3879
vn -0.0000 -0.9796 0.2010
vn -0.0392 0.9796 0.1971
vn -0.0757 0.9217 0.3804
vn -0.1092 0.8286 0.5490
vn -0.1385 0.7041 0.6965
vn -0.1626 0.5528 0.8173
vn -0.1804 0.3805 0.9070
vn -0.1914 0.1939 0.9622
vn -0.1951 -0.0000 0.9808
vn -0.1914 -0.1939 0.9622
vn -0.1804 -0.3805 0.9070
vn -0.1626 -0.5528 0.8173
vn -0.1385 -0.7041 0.6965
vn -0.1092 -0.8286 0.5490
vn -0.0757 -0.9217 0.3804
vn -0.0392 -0.9796 0.1971
vn -0.0769 0.9796 0.1857
vn -0.1484 0.9217 0.3584
vn -0.2142 0.8286 0.5172
vn -0.2718 0.7041 0.6561
vn -0.3189 0.5528 0.7699
vn -0.3539 0.3805 0.8544
vn -0.3754 0.1939 0.9063
vn -0.3827 -0.0000 0.9239
vn -0.3754 -0.1939 0.9063
vn -0.3539 -0.3805 0.8544
vn -0.3189 -0.5528 0.7699
vn -0.2718 -0.7041 0.6561
vn -0.2142 -0.8286 0.5172
vn -0.1484 -0.9217 0.3584
vn -0.0769 -0.9796 0.1857
vn -0.1117 0.9796 0.1671
vn -0.2155 0.9217 0.3225
vn -0.3110 0.8286 0.4654
vn -0.3945 0.7041 0.5905
vn -0.4630 0.5528 0.6929
vn -0.5138 0.3805 0.7689
vn -0.5450 0.1939 0.8157
vn -0.5556 -0.0000 0.8315
vn -0.5450 -0.1939 0.8157
vn -0.5138 -0.3805 0.7689
vn -0.4630 -0.5528 0.6929
vn -0.3945 -0.7041 0.5905
vn -0.3110 -0.8286 0.4654
vn -0.2155 -0.9217 0.3225
vn -0.1117 -0.9796 0.1671
vn -0.1421 0.9796 0.1421
vn -0.2743 0.9217 0.2743
vn -0.3958 0.8286 0.3958
vn -0.5021 0.7041 0.5021
vn -0.5893 0.5528 0.5893
vn -0.6539 0.3805 0.6539
vn -0.6937 0.1939 0.6937
vn -0.7071 -0.0000 0.7071
vn -0.6937 -0.1939 0.6937
vn -0.6539 -0.3805 0.6539
vn -0.5893 -0.5528 0.5893
vn -0.5021 -0.7041 0.5021
vn -0.3958 -0.8286 0.3958
vn -0.2743 -0.9217 0.2743
vn -0.1421 -0.9796 0.1421
vn -0.0000 -1.0000 -0.0000
vn -0.1671 0.9796 0.1117
vn -0.3225 0.9217 0.2155
vn -0.4654 0.8286 0.3110
vn -0.5905 0.7041 0.3945
vn -0.6929 0.5528 0.4630
vn -0.7689 0.3805 0.5138
vn -0.8157 0.1939 0.5450
vn -0.8315 -0.0000 0.5556
vn -0.8157 -0.1939 0.5450
vn -0.7689 -0.3805 0.5138
vn -0.6929 -0.5528 0.4630
vn -0.5905 -0.7041 0.3945
vn -0.4654 -0.8286 0.3110
vn -0.3225 -0.9217 0.2155
vn -0.1671 -0.9796 0.1117
vn -0.1857 0.9796 0.0769
vn -0.3584 0.9217 0.1484
vn -0.5172 0.8286 0.2142
vn -0.6561 0.7041 0.2718
vn -0.7699 0.5528 0.3189
vn -0.8544 0.3805 0.3539
vn -0.9063 0.1939 0.3754
vn -0.9239 -0.0000 0.3827
vn -0.9063 -0.1939 0.3754
vn -0.8544 -0.3805 0.3539
vn -0.7699 -0.5528 0.3189
vn -0.6561 -0.7041 0.2718
vn -0.5172 -0.8286 0.2142
vn -0.3584 -0.9217 0.1484
vn -0.1857 -0.9796 0.0769
vn -0.1971 0.9796 0.0392
vn -0.3804 0.9217 0.0757
vn -0.5490 0.8286 0.1092
vn -0.6965 0.7041 0.1385
vn -0.8173 0.5528 0.1626
vn -0.9070 0.3805 0.1804
vn -0.9622 0.1939 0.1914
vn -0.9808 -0.0000 0.1951
vn -0.9622 -0.1939 0.1914
vn -0.9070 -0.3805 0.1804
vn -0.8173 -0.5528 0.1626
vn -0.6965 -0.7041 0.1385
vn -0.5490 -0.8286 0.1092
vn -0.3804 -0.9217 0.0757
vn -0.1971 -0.9796 0.0392
vn -0.2010 0.9796 -0.0000
vn -0.3879 0.9217 -0.0000
vn -0.5598 0.8286 -0.0000
vn -0.7101 0.7041 -0.0000
vn -0.8333 0.5528 -0.0000
vn -0.9248 0.3805 -0.0000
vn -0.9810 0.1939 -0.0000
vn -1.0000 -0.0000 -0.0000
vn -0.9810 -0.1939 -0.0000
vn -0.9248 -0.3805 -0.0000
vn -0.8333 -0.5528 -0.0000
vn -0.7101 -0.7041 -0.0000
vn -0.5598 -0.8286 -0.0000
vn -0.3879 -0.9217 -0.0000
vn -0.2010 -0.9796 -0.0000
vn -0.1971 0.9796 -0.0392
vn -0.3804 0.9217 -0.0757
vn -0.5490 0.8286 -0.1092
vn -0.6965 0.7041 -0.1385
vn -0.8173 0.5528 -0.1626
vn -0.9070 0.3805 -0.1804
vn -0.9622 0.1939 -0.1914
vn -0.9808 -0.0000 -0.1951
vn -0.9622 -0.1939 -0.1914
vn -0.9070 -0.3805 -0.1804
vn -0.8173 -0.5528 -0.1626
vn -0.6965 -0.7041 -0.1385
vn -0.5490 -0.8286 -0.1092
vn -0.3804 -0.9217 -0.0757
vn -0.1971 -0.9796 -0.0392
vn -0.1857 0.9796 -0.0769
vn -0.3584 0.9217 -0.1484
vn -0.5172 0.8286 -0.2142
vn -0.6561 0.7041 -0.2718
vn -0.7699 0.5528 -0.3189
vn -0.8544 0.3805 -0.3539
vn -0.9063 0.1939 -0.3754
vn -0.9239 -0.0000 -0.3827
vn -0.9063 -0.1939 -0.3754
vn -0.8544 -0.3805 -0.3539
vn -0.7699 -0.5528 -0.3189
vn -0.6561 -0.7041 -0.2718
vn -0.5172 -0.8286 -0.2142
vn -0.3584 -0.9217 -0.1484
vn -0.1857 -0.9796 -0.0769
vn -0.1671 0.9796 -0.1117
vn -0.3225 0.9217 -0.2155
vn -0.4654 0.8286 -0.3110
vn -0.5905 0.7041 -0.3945
vn -0.6929 0.5528 -0.4630
vn -0.7689 0.3805 -0.5138
vn -0.8157 0.1939 -0.5450
vn -0.8315 -0.0000 -0.5556
vn -0.8157 -0.1939 -0.5450
vn -0.7689 -0.3805 -0.5138
vn -0.6929 -0.5528 -0.4630
vn -0.5905 -0.7041 -0.3945
vn -0.4654 -0.8286 -0.3110
vn -0.3225 -0.9217 -0.2155
vn -0.1671 -0.9796 -0.1117
vn -0.1421 0.9796 -0.1421
vn -0.2743 0.9217 -0.2743
vn -0.3958 0.8286 -0.3958
vn -0.5021 0.7041 -0.5021
vn -0.5893 0.5528 -0.5893
vn -0.6539 0.3805 -0.6539
vn -0.6937 0.1939 -0.6937
vn -0.7071 -0.0000 -0.7071
vn -0.6937 -0.1939 -0.6937
vn -0.6539 -0.3805 -0.6539
vn -0.5893 -0.5528 -0.5893
vn -0.5021 -0.7041 -0.5021
vn -0.3958 -0.8286 -0.3958
vn -0.2743 -0.9217 -0.2743
vn -0.1421 -0.9796 -0.1421
vn -0.1117 0.9796 -0.1671
vn -0.2155 0.9217 -0.3225
vn -0.3110 0.8286 -0.4654
vn -0.3945 0.7041 -0.5905
vn -0.4630 0.5528 -0.6929
vn -0.5138 0.3805 -0.7689
vn -0.5450 0.1939 -0.8157
vn -0.5556 -0.0000 -0.8315
vn -0.5450 -0.1939 -0.8157
vn -0.5138 -0.3805 -0.7689
vn -0.4630 -0.5528 -0.6929
vn -0.3945 -0.7041 -0.5905
vn -0.3110 -0.8286 -0.4654
vn -0.2155 -0.9217 -0.3225
vn -0.1117 -0.9796 -0.1671
vn -0.0769 0.9796 -0.1857
vn -0.1484 0.9217 -0.3584
vn -0.2142 0.8286 -0.5172
vn -0.2718 0.7041 -0.6561
vn -0.3189 0.5528 -0.7699
vn -0.3539 0.3805 -0.8544
vn -0.3754 0.1939 -0.9063
vn -0.3827 -0.0000 -0.9239
vn -0.3754 -0.1939 -0.9063
vn -0.3539 -0.3805 -0.8544
vn -0.3189 -0.5528 -0.7699
vn -0.2718 -0.7041 -0.6561
vn -0.2142 -0.8286 -0.5172
vn -0.1484 -0.9217 -0.3584
vn -0.0769 -0.9796 -0.1857
vn -0.0392 0.9796 -0.1971
vn -0.0757 0.9217 -0.3804
vn -0.1092 0.8286 -0.5490
vn -0.1385 0.7041 -0.6965
vn -0.1626 0.5528 -0.8173
vn -0.1804 0.3805 -0.9070
vn -0.1914 0.1939 -0.9622
vn -0.1951 -0.0000 -0.9808
vn -0.1914 -0.1939 -0.9622
vn -0.1804 -0.3805 -0.9070
vn -0.1626 -0.5528 -0.8173
vn -0.1385 -0.7041 -0.6965
vn -0.1092 -0.8286 -0.5490
vn -0.0757 -0.9217 -0.3804
vn -0.0392 -0.9796 -0.1971
vn -0.0000 0.9796 -0.2010
vn -0.0000 0.9217 -0.3879
vn -0.0000 0.7041 -0.7101
vn -0.0000 0.3805 -0.9248
vn -0.0000 -0.3805 -0.9248
vn -0.0000 -0.7041 -0.7101
vn -0.0000 -0.8286 -0.5598
vn -0.0000 -0.9217 -0.3879
vn -0.0000 -0.9796 -0.2010
vt 0.327020 0.341250
vt 0.349756 0.366813
vt 0.325949 0.365152
vt 0.131472 0.390622
vt 0.090768 0.429697
vt 0.085335 0.419313
vt 0.302744 0.364917
vt 0.302122 0.341118
vt 0.527936 0.412065
vt 0.583175 0.444342
vt 0.522720 0.423405
vt 0.035081 0.452221
vt 0.279609 0.366103
vt 0.277407 0.342499
vt 0.477799 0.383793
vt 0.470713 0.399272
vt 0.256035 0.368837
vt 0.252224 0.345869
vt 0.440284 0.366317
vt 0.433652 0.384909
vt 0.231134 0.373297
vt 0.226001 0.351505
vt 0.408392 0.355068
vt 0.402596 0.375895
vt 0.197833 0.359905
vt 0.204224 0.380037
vt 0.375143 0.370170
vt 0.379195 0.347963
vt 0.174301 0.390026
vt 0.167237 0.372185
vt 0.352508 0.343481
vt 0.138801 0.405283
vt 0.209695 0.399543
vt 0.180019 0.407497
vt 0.347777 0.388702
vt 0.144837 0.420037
vt 0.325185 0.387490
vt 0.095290 0.440502
vt 0.303255 0.387320
vt 0.577262 0.455616
vt 0.517504 0.434607
vt 0.037905 0.458167
vt 0.281360 0.388275
vt 0.464996 0.414673
vt 0.258929 0.390427
vt 0.428368 0.402997
vt 0.235173 0.394024
vt 0.397940 0.395907
vt 0.371801 0.391391
vt 0.261284 0.411096
vt 0.423837 0.420666
vt 0.238522 0.413989
vt 0.394372 0.415150
vt 0.213685 0.418352
vt 0.369301 0.411611
vt 0.184862 0.424619
vt 0.346240 0.409575
vt 0.149766 0.434825
vt 0.324636 0.408708
vt 0.098958 0.451649
vt 0.303717 0.408595
vt 0.573406 0.462689
vt 0.513116 0.445996
vt 0.040261 0.464787
vt 0.282773 0.409382
vt 0.460418 0.429922
vt 0.188657 0.441493
vt 0.153714 0.449620
vt 0.345080 0.429622
vt 0.324239 0.429001
vt 0.101825 0.463078
vt 0.304066 0.429068
vt 0.570197 0.470244
vt 0.509494 0.457540
vt 0.042088 0.471988
vt 0.283904 0.429674
vt 0.456376 0.444991
vt 0.263158 0.431016
vt 0.420514 0.437892
vt 0.241120 0.433276
vt 0.391836 0.433780
vt 0.216871 0.436684
vt 0.367291 0.431146
vt 0.453223 0.459982
vt 0.418075 0.454761
vt 0.264610 0.450349
vt 0.243105 0.452061
vt 0.389996 0.451907
vt 0.219323 0.454637
vt 0.365839 0.450108
vt 0.191550 0.458172
vt 0.344266 0.449055
vt 0.156788 0.464403
vt 0.324011 0.448685
vt 0.103937 0.474748
vt 0.304399 0.448834
vt 0.567482 0.478008
vt 0.506623 0.469189
vt 0.043346 0.479687
vt 0.284802 0.449323
vt 0.343798 0.468024
vt 0.323936 0.467893
vt 0.158949 0.479142
vt 0.106430 0.486291
vt 0.304715 0.468112
vt 0.565110 0.485909
vt 0.504490 0.480862
vt 0.046301 0.493238
vt 0.285507 0.468504
vt 0.451425 0.474899
vt 0.265696 0.469256
vt 0.416277 0.471447
vt 0.244559 0.470482
vt 0.388496 0.469747
vt 0.221106 0.472308
vt 0.365072 0.468589
vt 0.193633 0.474689
vt 0.266456 0.487886
vt 0.245534 0.488668
vt 0.387848 0.487337
vt 0.222271 0.489797
vt 0.364583 0.486850
vt 0.194971 0.491095
vt 0.343612 0.486686
vt 0.160318 0.493800
vt 0.324000 0.486787
vt 0.108214 0.497806
vt 0.305017 0.487073
vt 0.563289 0.494049
vt 0.503049 0.492530
vt 0.048576 0.501150
vt 0.286041 0.487381
vt 0.450434 0.489666
vt 0.415212 0.488004
vt 0.109301 0.509266
vt 0.324204 0.505518
vt 0.305313 0.505875
vt 0.562156 0.502308
vt 0.502275 0.504192
vt 0.050300 0.509081
vt 0.286420 0.506107
vt 0.449770 0.504351
vt 0.266912 0.506378
vt 0.414997 0.504419
vt 0.246060 0.506740
vt 0.387748 0.504782
vt 0.222851 0.507199
vt 0.364561 0.504947
vt 0.195604 0.507447
vt 0.343712 0.505192
vt 0.160874 0.508398
vt 0.388211 0.522160
vt 0.222859 0.524615
vt 0.364983 0.522999
vt 0.195551 0.523826
vt 0.344103 0.523666
vt 0.160685 0.522990
vt 0.324553 0.524226
vt 0.108613 0.520751
vt 0.305608 0.524662
vt 0.561519 0.510467
vt 0.502184 0.515814
vt 0.050364 0.511500
vt 0.286655 0.524825
vt 0.449885 0.519012
vt 0.267078 0.524870
vt 0.415466 0.520741
vt 0.246151 0.524819
vt 0.325058 0.543056
vt 0.305912 0.543583
vt 0.561231 0.518500
vt 0.502786 0.527330
vt 0.049006 0.519519
vt 0.107239 0.532301
vt 0.286748 0.543680
vt 0.451289 0.533583
vt 0.266954 0.543497
vt 0.416491 0.537087
vt 0.245805 0.543026
vt 0.389250 0.539577
vt 0.222287 0.542145
vt 0.365854 0.541130
vt 0.194818 0.540309
vt 0.344799 0.542243
vt 0.159647 0.537642
vt 0.221098 0.559886
vt 0.390932 0.557154
vt 0.367198 0.559467
vt 0.193193 0.556916
vt 0.345824 0.561062
vt 0.158150 0.552393
vt 0.325739 0.562157
vt 0.106288 0.543928
vt 0.306234 0.562790
vt 0.561677 0.526420
vt 0.504084 0.538747
vt 0.047449 0.533263
vt 0.286701 0.562823
vt 0.453031 0.548168
vt 0.266531 0.562401
vt 0.418418 0.553522
vt 0.245003 0.561485
vt 0.047167 0.535607
vt 0.103547 0.555249
vt 0.286504 0.582417
vt 0.455642 0.562770
vt 0.265785 0.581732
vt 0.421133 0.570057
vt 0.243707 0.580325
vt 0.393325 0.574956
vt 0.219266 0.577920
vt 0.369043 0.578122
vt 0.190940 0.573703
vt 0.347219 0.580271
vt 0.155365 0.567191
vt 0.326620 0.581692
vt 0.306581 0.582451
vt 0.562626 0.534026
vt 0.506114 0.550024
vt 0.216705 0.596400
vt 0.187824 0.590817
vt 0.349063 0.600054
vt 0.151622 0.582079
vt 0.327735 0.601841
vt 0.100041 0.566493
vt 0.306964 0.602749
vt 0.563932 0.541301
vt 0.508908 0.561084
vt 0.044432 0.542983
vt 0.286145 0.602645
vt 0.459657 0.577249
vt 0.264679 0.601664
vt 0.424576 0.586757
vt 0.241860 0.599704
vt 0.396242 0.593100
vt 0.371668 0.597280
vt 0.464257 0.591791
vt 0.263158 0.622390
vt 0.429218 0.603760
vt 0.239378 0.619788
vt 0.400310 0.611748
vt 0.213299 0.615453
vt 0.374829 0.617029
vt 0.183579 0.608328
vt 0.351380 0.620552
vt 0.147296 0.597158
vt 0.329125 0.622802
vt 0.095745 0.577604
vt 0.307394 0.623899
vt 0.565937 0.548196
vt 0.512496 0.571911
vt 0.041215 0.550135
vt 0.285600 0.623717
vt 0.354301 0.642021
vt 0.178223 0.626221
vt 0.141722 0.612384
vt 0.330852 0.644828
vt 0.091520 0.588882
vt 0.307885 0.646159
vt 0.568377 0.554533
vt 0.516933 0.582430
vt 0.036096 0.561690
vt 0.284836 0.645883
vt 0.470039 0.606303
vt 0.261143 0.644136
vt 0.435003 0.621038
vt 0.236146 0.640755
vt 0.405381 0.630948
vt 0.208921 0.635171
vt 0.378864 0.637589
vt 0.258523 0.667177
vt 0.442160 0.638622
vt 0.231998 0.662826
vt 0.411688 0.650834
vt 0.203388 0.655691
vt 0.383941 0.659153
vt 0.171684 0.644489
vt 0.357968 0.664714
vt 0.134508 0.627536
vt 0.333001 0.668219
vt 0.085532 0.599355
vt 0.308454 0.669843
vt 0.571261 0.560206
vt 0.522282 0.592554
vt 0.035093 0.563572
vt 0.283803 0.669450
vt 0.477128 0.620747
vt 0.125862 0.642666
vt 0.362576 0.688951
vt 0.335684 0.693348
vt 0.078558 0.609425
vt 0.309123 0.695347
vt 0.574355 0.565168
vt 0.528590 0.602143
vt 0.030674 0.568811
vt 0.282429 0.694804
vt 0.486090 0.634845
vt 0.255137 0.691858
vt 0.450777 0.656454
vt 0.226705 0.686281
vt 0.419513 0.671528
vt 0.196410 0.677226
vt 0.390309 0.681959
vt 0.163505 0.663322
vt 0.461586 0.674735
vt 0.250762 0.718609
vt 0.219951 0.711446
vt 0.429282 0.693238
vt 0.187628 0.699948
vt 0.398320 0.706309
vt 0.153381 0.682725
vt 0.368396 0.715138
vt 0.115530 0.657670
vt 0.339060 0.720694
vt 0.070551 0.618971
vt 0.309921 0.723184
vt 0.575831 0.566350
vt 0.536439 0.610634
vt 0.025858 0.573351
vt 0.280611 0.722439
vt 0.496276 0.648753
vt 0.375805 0.743782
vt 0.343352 0.750883
vt 0.061469 0.627831
vt 0.310885 0.754025
vt 0.580644 0.569276
vt 0.545310 0.618430
vt 0.020809 0.577070
vt 0.278195 0.753001
vt 0.508475 0.662195
vt 0.245077 0.747981
vt 0.474779 0.693298
vt 0.211290 0.738712
vt 0.441468 0.716039
vt 0.176553 0.724040
vt 0.408454 0.732532
vt 0.140892 0.702666
vt 0.103237 0.672377
vt 0.237611 0.780697
vt 0.200084 0.768563
vt 0.456735 0.740002
vt 0.162509 0.749676
vt 0.421396 0.761028
vt 0.125484 0.723035
vt 0.385350 0.775547
vt 0.088675 0.686517
vt 0.348880 0.784755
vt 0.051284 0.635803
vt 0.312066 0.788779
vt 0.585394 0.571334
vt 0.555217 0.625316
vt 0.015707 0.579858
vt 0.274956 0.787361
vt 0.523213 0.674707
vt 0.490651 0.711781
vt 0.039995 0.642637
vt 0.356118 0.823464
vt 0.313534 0.828705
vt 0.591979 0.573662
vt 0.565946 0.631471
vt 0.010777 0.581631
vt 0.270552 0.826720
vt 0.540193 0.686173
vt 0.227658 0.817723
vt 0.510510 0.730260
vt 0.185405 0.801589
vt 0.476126 0.765252
vt 0.144552 0.776990
vt 0.438145 0.792307
vt 0.106446 0.743580
vt 0.397842 0.811324
vt 0.071516 0.699689
vt 0.121338 0.806016
vt 0.500877 0.791567
vt 0.460149 0.826901
vt 0.082889 0.763802
vt 0.414509 0.852332
vt 0.051425 0.711311
vt 0.365768 0.868644
vt 0.027651 0.648033
vt 0.315388 0.875558
vt 0.595003 0.574028
vt 0.577652 0.636020
vt 0.006299 0.582365
vt 0.264466 0.872780
vt 0.560098 0.695703
vt 0.214126 0.860411
vt 0.534383 0.747623
vt 0.165867 0.838500
vt 0.597293 0.573505
vt 0.590163 0.638644
vt 0.002608 0.582123
vt 0.014378 0.651641
vt 0.255955 0.928044
vt 0.582553 0.702568
vt 0.195224 0.910797
vt 0.564166 0.763271
vt 0.139375 0.880053
vt 0.533107 0.818718
vt 0.090886 0.836587
vt 0.489589 0.865376
vt 0.053758 0.782751
vt 0.437345 0.900407
vt 0.028120 0.720556
vt 0.378843 0.922692
vt 0.317769 0.931737
vt 0.575885 0.845949
vt 0.529482 0.907539
vt 0.049992 0.868298
vt 0.018048 0.798597
vt 0.470137 0.959022
vt 0.001446 0.726295
vt 0.396593 0.989264
vt 0.000411 0.653075
vt 0.320854 0.999922
vt 0.598411 0.572511
vt 0.603161 0.638987
vt 0.000078 0.581107
vt 0.244177 0.996322
vt 0.607660 0.705480
vt 0.167504 0.972755
vt 0.600383 0.775068
vt 0.102894 0.926386
vt 0.289647 0.000078
vt 0.230139 0.085158
vt 0.209083 0.017637
vt 0.610894 0.284098
vt 0.598090 0.358392
vt 0.584390 0.289615
vt 0.171774 0.108620
vt 0.139418 0.053186
vt 0.595702 0.210658
vt 0.558784 0.227360
vt 0.078699 0.101241
vt 0.119712 0.144221
vt 0.520930 0.173193
vt 0.560407 0.142672
vt 0.076887 0.190372
vt 0.036150 0.164296
vt 0.511078 0.082324
vt 0.473217 0.129768
vt 0.008330 0.232603
vt 0.044823 0.245517
vt 0.417346 0.098249
vt 0.444950 0.039344
vt 0.025370 0.306473
vt 0.000078 0.303297
vt 0.371656 0.010177
vt 0.356619 0.079730
vt 0.017312 0.371274
vt 0.004294 0.370919
vt 0.292979 0.075180
vt 0.612004 0.356956
vt 0.612376 0.428654
vt 0.008990 0.437506
vt 0.108527 0.217430
vt 0.073938 0.261444
vt 0.397893 0.148452
vt 0.048305 0.313592
vt 0.347133 0.135882
vt 0.029995 0.373983
vt 0.295385 0.133230
vt 0.610033 0.427715
vt 0.584858 0.362030
vt 0.009836 0.437329
vt 0.244167 0.139989
vt 0.560904 0.298865
vt 0.195025 0.156414
vt 0.529702 0.246297
vt 0.149323 0.182586
vt 0.490715 0.203608
vt 0.446304 0.171272
vt 0.540574 0.310475
vt 0.211965 0.197685
vt 0.506289 0.266432
vt 0.171425 0.217239
vt 0.467475 0.232744
vt 0.133237 0.244053
vt 0.426519 0.208201
vt 0.098161 0.279305
vt 0.383995 0.191425
vt 0.067998 0.323410
vt 0.340691 0.182512
vt 0.041767 0.378257
vt 0.297216 0.180807
vt 0.606563 0.427548
vt 0.572550 0.367491
vt 0.014075 0.436175
vt 0.254114 0.185710
vt 0.373825 0.228790
vt 0.085095 0.335160
vt 0.336122 0.222275
vt 0.052516 0.384471
vt 0.298650 0.221135
vt 0.602215 0.428208
vt 0.561326 0.374406
vt 0.015445 0.436196
vt 0.261452 0.224823
vt 0.523470 0.323829
vt 0.224600 0.233808
vt 0.487009 0.287118
vt 0.188253 0.248694
vt 0.449394 0.260297
vt 0.152642 0.269609
vt 0.411654 0.241365
vt 0.117917 0.297928
vt 0.234220 0.265911
vt 0.509020 0.338195
vt 0.471400 0.307624
vt 0.201272 0.277436
vt 0.435235 0.286174
vt 0.168004 0.293934
vt 0.400301 0.271407
vt 0.134075 0.316775
vt 0.366226 0.261818
vt 0.099727 0.348135
vt 0.332789 0.256955
vt 0.062178 0.391975
vt 0.299797 0.256183
vt 0.597427 0.429938
vt 0.551231 0.382472
vt 0.019066 0.437515
vt 0.267013 0.259023
vt 0.112179 0.361895
vt 0.360462 0.291464
vt 0.330314 0.287786
vt 0.070747 0.400515
vt 0.300729 0.287270
vt 0.592439 0.432721
vt 0.542259 0.391430
vt 0.022897 0.439956
vt 0.271312 0.289494
vt 0.496922 0.353150
vt 0.241662 0.294856
vt 0.458642 0.327743
vt 0.211489 0.303914
vt 0.424097 0.310477
vt 0.180251 0.317041
vt 0.391506 0.298885
vt 0.147326 0.335533
vt 0.247466 0.321276
vt 0.219634 0.328543
vt 0.415390 0.333313
vt 0.190052 0.339008
vt 0.384577 0.324293
vt 0.158225 0.354037
vt 0.356073 0.318422
vt 0.122727 0.376133
vt 0.328456 0.315648
vt 0.078251 0.409884
vt 0.301495 0.315332
vt 0.591078 0.434079
vt 0.534907 0.401720
vt 0.026700 0.443479
vt 0.274686 0.317086
vt 0.486229 0.368315
vt 0.448442 0.347220
vt 0.584196 0.442454
vt 0.033694 0.450741
s 1
usemtl マテリアル
f 3/1/3 12/2/12 13/3/13
f 481/4/481 21/5/21 482/6/482
f 3/1/3 14/7/14 4/8/4
f 474/9/474 82/10/82 7/11/7
f 308/12/308 482/6/482 21/5/21
f 4/8/4 15/13/15 5/14/5
f 475/15/475 7/11/7 8/16/8
f 5/14/5 16/17/16 478/18/478
f 1/19/1 8/16/8 9/20/9
f 478/18/478 17/21/17 6/22/6
f 476/23/476 9/20/9 10/24/10
f 479/25/479 17/21/17 18/26/18
f 476/23/476 11/27/11 2/28/2
f 479/25/479 19/29/19 480/30/480
f 477/31/477 11/27/11 12/2/12
f 480/30/480 20/32/20 481/4/481
f 19/29/19 33/33/33 34/34/34
f 11/27/11 27/35/27 12/2/12
f 20/32/20 34/34/34 35/36/35
f 13/3/13 27/35/27 28/37/28
f 20/32/20 36/38/36 21/5/21
f 13/3/13 29/39/29 14/7/14
f 7/11/7 82/40/82 22/41/22
f 308/42/308 21/5/21 36/38/36
f 14/7/14 30/43/30 15/13/15
f 7/11/7 23/44/23 8/16/8
f 15/13/15 31/45/31 16/17/16
f 8/16/8 24/46/24 9/20/9
f 17/21/17 31/45/31 32/47/32
f 9/20/9 25/48/25 10/24/10
f 18/26/18 32/47/32 33/33/33
f 10/24/10 26/49/26 11/27/11
f 30/43/30 46/50/46 31/45/31
f 23/44/23 39/51/39 24/46/24
f 32/47/32 46/50/46 47/52/47
f 24/46/24 40/53/40 25/48/25
f 33/33/33 47/52/47 48/54/48
f 25/48/25 41/55/41 26/49/26
f 34/34/34 48/54/48 49/56/49
f 26/49/26 42/57/42 27/35/27
f 35/36/35 49/56/49 50/58/50
f 28/37/28 42/57/42 43/59/43
f 36/38/36 50/58/50 51/60/51
f 29/39/29 43/59/43 44/61/44
f 22/41/22 82/62/82 37/63/37
f 308/64/308 36/38/36 51/60/51
f 29/39/29 45/65/45 30/43/30
f 22/41/22 38/66/38 23/44/23
f 50/58/50 64/67/64 65/68/65
f 43/59/43 57/69/57 58/70/58
f 51/60/51 65/68/65 66/71/66
f 44/61/44 58/70/58 59/72/59
f 37/63/37 82/73/82 52/74/52
f 308/75/308 51/60/51 66/71/66
f 44/61/44 60/76/60 45/65/45
f 37/63/37 53/77/53 38/66/38
f 45/65/45 61/78/61 46/50/46
f 38/66/38 54/79/54 39/51/39
f 47/52/47 61/78/61 62/80/62
f 39/51/39 55/81/55 40/53/40
f 47/52/47 63/82/63 48/54/48
f 41/55/41 55/81/55 56/83/56
f 49/56/49 63/82/63 64/67/64
f 41/55/41 57/69/57 42/57/42
f 54/79/54 68/84/68 69/85/69
f 62/80/62 76/86/76 77/87/77
f 54/79/54 70/88/70 55/81/55
f 62/80/62 78/89/78 63/82/63
f 56/83/56 70/88/70 71/90/71
f 64/67/64 78/89/78 79/91/79
f 56/83/56 72/92/72 57/69/57
f 64/67/64 80/93/80 65/68/65
f 58/70/58 72/92/72 73/94/73
f 65/68/65 81/95/81 66/71/66
f 59/72/59 73/94/73 74/96/74
f 52/74/52 82/97/82 67/98/67
f 308/99/308 66/71/66 81/95/81
f 59/72/59 75/100/75 60/76/60
f 53/77/53 67/98/67 68/84/68
f 60/76/60 76/86/76 61/78/61
f 73/94/73 88/101/88 89/102/89
f 81/95/81 96/103/96 97/104/97
f 74/96/74 89/102/89 90/105/90
f 67/98/67 82/106/82 83/107/83
f 308/108/308 81/95/81 97/104/97
f 74/96/74 91/109/91 75/100/75
f 67/98/67 84/110/84 68/84/68
f 75/100/75 92/111/92 76/86/76
f 68/84/68 85/112/85 69/85/69
f 77/87/77 92/111/92 93/113/93
f 69/85/69 86/114/86 70/88/70
f 77/87/77 94/115/94 78/89/78
f 71/90/71 86/114/86 87/116/87
f 79/91/79 94/115/94 95/117/95
f 71/90/71 88/101/88 72/92/72
f 80/93/80 95/117/95 96/103/96
f 93/113/93 107/118/107 108/119/108
f 85/112/85 101/120/101 86/114/86
f 93/113/93 109/121/109 94/115/94
f 87/116/87 101/120/101 102/122/102
f 95/117/95 109/121/109 110/123/110
f 87/116/87 103/124/103 88/101/88
f 95/117/95 111/125/111 96/103/96
f 89/102/89 103/124/103 104/126/104
f 96/103/96 112/127/112 97/104/97
f 90/105/90 104/126/104 105/128/105
f 83/107/83 82/129/82 98/130/98
f 308/131/308 97/104/97 112/127/112
f 90/105/90 106/132/106 91/109/91
f 83/107/83 99/133/99 84/110/84
f 91/109/91 107/118/107 92/111/92
f 85/112/85 99/133/99 100/134/100
f 111/125/111 127/135/127 112/127/112
f 105/128/105 119/136/119 120/137/120
f 98/130/98 82/138/82 113/139/113
f 308/140/308 112/127/112 127/135/127
f 105/128/105 121/141/121 106/132/106
f 98/130/98 114/142/114 99/133/99
f 106/132/106 122/143/122 107/118/107
f 99/133/99 115/144/115 100/134/100
f 108/119/108 122/143/122 123/145/123
f 100/134/100 116/146/116 101/120/101
f 108/119/108 124/147/124 109/121/109
f 102/122/102 116/146/116 117/148/117
f 110/123/110 124/147/124 125/149/125
f 102/122/102 118/150/118 103/124/103
f 111/125/111 125/149/125 126/151/126
f 104/126/104 118/150/118 119/136/119
f 115/144/115 131/152/131 116/146/116
f 123/145/123 139/153/139 124/147/124
f 117/148/117 131/152/131 132/154/132
f 125/149/125 139/153/139 140/155/140
f 117/148/117 133/156/133 118/150/118
f 125/149/125 141/157/141 126/151/126
f 119/136/119 133/156/133 134/158/134
f 126/151/126 142/159/142 127/135/127
f 120/137/120 134/158/134 135/160/135
f 113/139/113 82/161/82 128/162/128
f 308/163/308 127/135/127 142/159/142
f 120/137/120 136/164/136 121/141/121
f 114/142/114 128/162/128 129/165/129
f 121/141/121 137/166/137 122/143/122
f 115/144/115 129/165/129 130/167/130
f 123/145/123 137/166/137 138/168/138
f 135/160/135 149/169/149 150/170/150
f 128/162/128 82/171/82 143/172/143
f 308/173/308 142/159/142 157/174/157
f 135/160/135 151/175/151 136/164/136
f 128/162/128 144/176/144 129/165/129
f 136/164/136 152/177/152 137/166/137
f 129/165/129 145/178/145 130/167/130
f 138/168/138 152/177/152 153/179/153
f 130/167/130 146/180/146 131/152/131
f 138/168/138 154/181/154 139/153/139
f 132/154/132 146/180/146 147/182/147
f 140/155/140 154/181/154 155/183/155
f 132/154/132 148/184/148 133/156/133
f 141/157/141 155/183/155 156/185/156
f 134/158/134 148/184/148 149/169/149
f 141/157/141 157/174/157 142/159/142
f 153/179/153 169/186/169 154/181/154
f 147/182/147 161/187/161 162/188/162
f 155/183/155 169/186/169 170/189/170
f 147/182/147 163/190/163 148/184/148
f 156/185/156 170/189/170 171/191/171
f 149/169/149 163/190/163 164/192/164
f 157/174/157 171/191/171 172/193/172
f 150/170/150 164/192/164 165/194/165
f 143/172/143 82/195/82 158/196/158
f 308/197/308 157/174/157 172/193/172
f 150/170/150 166/198/166 151/175/151
f 143/172/143 159/199/159 144/176/144
f 151/175/151 167/200/167 152/177/152
f 144/176/144 160/201/160 145/178/145
f 153/179/153 167/200/167 168/202/168
f 145/178/145 161/187/161 146/180/146
f 308/203/308 172/193/172 187/204/187
f 165/194/165 181/205/181 166/198/166
f 158/196/158 174/206/174 159/199/159
f 166/198/166 182/207/182 167/200/167
f 159/199/159 175/208/175 160/201/160
f 168/202/168 182/207/182 183/209/183
f 160/201/160 176/210/176 161/187/161
f 168/202/168 184/211/184 169/186/169
f 162/188/162 176/210/176 177/212/177
f 170/189/170 184/211/184 185/213/185
f 162/188/162 178/214/178 163/190/163
f 171/191/171 185/213/185 186/215/186
f 164/192/164 178/214/178 179/216/179
f 172/193/172 186/215/186 187/204/187
f 165/194/165 179/216/179 180/217/180
f 158/196/158 82/218/82 173/219/173
f 185/213/185 199/220/199 200/221/200
f 177/212/177 193/222/193 178/214/178
f 185/213/185 201/223/201 186/215/186
f 179/216/179 193/222/193 194/224/194
f 186/215/186 202/225/202 187/204/187
f 180/217/180 194/224/194 195/226/195
f 173/219/173 82/227/82 188/228/188
f 308/229/308 187/204/187 202/225/202
f 180/217/180 196/230/196 181/205/181
f 174/206/174 188/228/188 189/231/189
f 181/205/181 197/232/197 182/207/182
f 175/208/175 189/231/189 190/233/190
f 183/209/183 197/232/197 198/234/198
f 175/208/175 191/235/191 176/210/176
f 183/209/183 199/220/199 184/211/184
f 177/212/177 191/235/191 192/236/192
f 188/228/188 204/237/204 189/231/189
f 196/230/196 212/238/212 197/232/197
f 189/231/189 205/239/205 190/233/190
f 198/234/198 212/238/212 213/240/213
f 190/233/190 206/241/206 191/235/191
f 198/234/198 214/242/214 199/220/199
f 192/236/192 206/241/206 207/243/207
f 200/221/200 214/242/214 215/244/215
f 192/236/192 208/245/208 193/222/193
f 201/223/201 215/244/215 216/246/216
f 194/224/194 208/245/208 209/247/209
f 202/225/202 216/246/216 217/248/217
f 195/226/195 209/247/209 210/249/210
f 188/228/188 82/250/82 203/251/203
f 308/252/308 202/225/202 217/248/217
f 195/226/195 211/253/211 196/230/196
f 207/243/207 223/254/223 208/245/208
f 216/246/216 230/255/230 231/256/231
f 209/247/209 223/254/223 224/257/224
f 217/248/217 231/256/231 232/258/232
f 210/249/210 224/257/224 225/259/225
f 203/251/203 82/260/82 218/261/218
f 308/262/308 217/248/217 232/258/232
f 210/249/210 226/263/226 211/253/211
f 203/251/203 219/264/219 204/237/204
f 211/253/211 227/265/227 212/238/212
f 204/237/204 220/266/220 205/239/205
f 213/240/213 227/265/227 228/267/228
f 205/239/205 221/268/221 206/241/206
f 213/240/213 229/269/229 214/242/214
f 207/243/207 221/268/221 222/270/222
f 215/244/215 229/269/229 230/255/230
f 226/263/226 242/271/242 227/265/227
f 219/264/219 235/272/235 220/266/220
f 228/267/228 242/271/242 243/273/243
f 220/266/220 236/274/236 221/268/221
f 228/267/228 244/275/244 229/269/229
f 222/270/222 236/274/236 237/276/237
f 230/255/230 244/275/244 245/277/245
f 222/270/222 238/278/238 223/254/223
f 231/256/231 245/277/245 246/279/246
f 224/257/224 238/278/238 239/280/239
f 231/256/231 247/281/247 232/258/232
f 225/259/225 239/280/239 240/282/240
f 218/261/218 82/283/82 233/284/233
f 308/285/308 232/258/232 247/281/247
f 225/259/225 241/286/241 226/263/226
f 219/264/219 233/284/233 234/287/234
f 245/277/245 261/288/261 246/279/246
f 239/280/239 253/289/253 254/290/254
f 246/279/246 262/291/262 247/281/247
f 240/282/240 254/290/254 255/292/255
f 233/284/233 82/293/82 248/294/248
f 308/295/308 247/281/247 262/291/262
f 240/282/240 256/296/256 241/286/241
f 234/287/234 248/294/248 249/297/249
f 241/286/241 257/298/257 242/271/242
f 235/272/235 249/297/249 250/299/250
f 243/273/243 257/298/257 258/300/258
f 235/272/235 251/301/251 236/274/236
f 243/273/243 259/302/259 244/275/244
f 237/276/237 251/301/251 252/303/252
f 245/277/245 259/302/259 260/304/260
f 237/276/237 253/289/253 238/278/238
f 249/297/249 265/305/265 250/299/250
f 258/300/258 272/306/272 273/307/273
f 250/299/250 266/308/266 251/301/251
f 258/300/258 274/309/274 259/302/259
f 252/303/252 266/308/266 267/310/267
f 260/304/260 274/309/274 275/311/275
f 252/303/252 268/312/268 253/289/253
f 261/288/261 275/311/275 276/313/276
f 254/290/254 268/312/268 269/314/269
f 261/288/261 277/315/277 262/291/262
f 255/292/255 269/314/269 270/316/270
f 248/294/248 82/317/82 263/318/263
f 308/319/308 262/291/262 277/315/277
f 255/292/255 271/320/271 256/296/256
f 249/297/249 263/318/263 264/321/264
f 256/296/256 272/306/272 257/298/257
f 269/314/269 283/322/283 284/323/284
f 276/313/276 292/324/292 277/315/277
f 270/316/270 284/323/284 285/325/285
f 263/318/263 82/326/82 278/327/278
f 308/328/308 277/315/277 292/324/292
f 270/316/270 286/329/286 271/320/271
f 263/318/263 279/330/279 264/321/264
f 271/320/271 287/331/287 272/306/272
f 264/321/264 280/332/280 265/305/265
f 273/307/273 287/331/287 288/333/288
f 265/305/265 281/334/281 266/308/266
f 273/307/273 289/335/289 274/309/274
f 267/310/267 281/334/281 282/336/282
f 275/311/275 289/335/289 290/337/290
f 267/310/267 283/322/283 268/312/268
f 275/311/275 291/338/291 276/313/276
f 288/333/288 302/339/302 303/340/303
f 280/332/280 296/341/296 281/334/281
f 288/333/288 304/342/304 289/335/289
f 282/336/282 296/341/296 297/343/297
f 290/337/290 304/342/304 305/344/305
f 282/336/282 298/345/298 283/322/283
f 290/337/290 306/346/306 291/338/291
f 284/323/284 298/345/298 299/347/299
f 292/324/292 306/346/306 307/348/307
f 285/325/285 299/347/299 300/349/300
f 278/327/278 82/350/82 293/351/293
f 308/352/308 292/324/292 307/348/307
f 285/325/285 301/353/301 286/329/286
f 278/327/278 294/354/294 279/330/279
f 286/329/286 302/339/302 287/331/287
f 280/332/280 294/354/294 295/355/295
f 306/346/306 323/356/323 307/348/307
f 300/349/300 315/357/315 316/358/316
f 293/351/293 82/359/82 309/360/309
f 308/361/308 307/348/307 323/356/323
f 300/349/300 317/362/317 301/353/301
f 294/354/294 309/360/309 310/363/310
f 301/353/301 318/364/318 302/339/302
f 295/355/295 310/363/310 311/365/311
f 303/340/303 318/364/318 319/366/319
f 295/355/295 312/367/312 296/341/296
f 303/340/303 320/368/320 304/342/304
f 297/343/297 312/367/312 313/369/313
f 305/344/305 320/368/320 321/370/321
f 297/343/297 314/371/314 298/345/298
f 305/344/305 322/372/322 306/346/306
f 299/347/299 314/371/314 315/357/315
f 319/366/319 335/373/335 320/368/320
f 313/369/313 327/374/327 328/375/328
f 321/370/321 335/373/335 336/376/336
f 313/369/313 329/377/329 314/371/314
f 321/370/321 337/378/337 322/372/322
f 315/357/315 329/377/329 330/379/330
f 323/356/323 337/378/337 338/380/338
f 316/358/316 330/379/330 331/381/331
f 309/360/309 82/382/82 324/383/324
f 308/384/308 323/356/323 338/380/338
f 316/358/316 332/385/332 317/362/317
f 309/360/309 325/386/325 310/363/310
f 317/362/317 333/387/333 318/364/318
f 310/363/310 326/388/326 311/365/311
f 319/366/319 333/387/333 334/389/334
f 311/365/311 327/374/327 312/367/312
f 324/383/324 82/390/82 339/391/339
f 308/392/308 338/380/338 353/393/353
f 331/381/331 347/394/347 332/385/332
f 324/383/324 340/395/340 325/386/325
f 332/385/332 348/396/348 333/387/333
f 326/388/326 340/395/340 341/397/341
f 334/389/334 348/396/348 349/398/349
f 326/388/326 342/399/342 327/374/327
f 334/389/334 350/400/350 335/373/335
f 328/375/328 342/399/342 343/401/343
f 336/376/336 350/400/350 351/402/351
f 328/375/328 344/403/344 329/377/329
f 336/376/336 352/404/352 337/378/337
f 330/379/330 344/403/344 345/405/345
f 338/380/338 352/404/352 353/393/353
f 331/381/331 345/405/345 346/406/346
f 343/401/343 357/407/357 358/408/358
f 351/402/351 365/409/365 366/410/366
f 343/401/343 359/411/359 344/403/344
f 351/402/351 367/412/367 352/404/352
f 345/405/345 359/411/359 360/413/360
f 353/393/353 367/412/367 368/414/368
f 346/406/346 360/413/360 361/415/361
f 339/391/339 82/416/82 354/417/354
f 308/418/308 353/393/353 368/414/368
f 346/406/346 362/419/362 347/394/347
f 339/391/339 355/420/355 340/395/340
f 347/394/347 363/421/363 348/396/348
f 341/397/341 355/420/355 356/422/356
f 349/398/349 363/421/363 364/423/364
f 341/397/341 357/407/357 342/399/342
f 349/398/349 365/409/365 350/400/350
f 361/424/361 377/425/377 362/426/362
f 355/427/355 369/428/369 370/429/370
f 362/426/362 378/430/378 363/431/363
f 356/432/356 370/429/370 371/433/371
f 364/434/364 378/430/378 379/435/379
f 356/432/356 372/436/372 357/437/357
f 364/434/364 380/438/380 365/439/365
f 358/440/358 372/436/372 373/441/373
f 366/442/366 380/438/380 381/443/381
f 358/440/358 374/444/374 359/445/359
f 366/442/366 382/446/382 367/447/367
f 360/448/360 374/444/374 375/449/375
f 367/447/367 383/450/383 368/451/368
f 361/424/361 375/449/375 376/452/376
f 354/453/354 82/454/82 369/428/369
f 308/455/308 368/451/368 383/450/383
f 381/443/381 395/456/395 396/457/396
f 373/441/373 389/458/389 374/444/374
f 381/443/381 397/459/397 382/446/382
f 375/449/375 389/458/389 390/460/390
f 382/446/382 398/461/398 383/450/383
f 376/452/376 390/460/390 391/462/391
f 369/428/369 82/463/82 384/464/384
f 308/465/308 383/450/383 398/461/398
f 376/452/376 392/466/392 377/425/377
f 370/429/370 384/464/384 385/467/385
f 377/425/377 393/468/393 378/430/378
f 371/433/371 385/467/385 386/469/386
f 379/435/379 393/468/393 394/470/394
f 371/433/371 387/471/387 372/436/372
f 379/435/379 395/456/395 380/438/380
f 373/441/373 387/471/387 388/472/388
f 384/464/384 400/473/400 385/467/385
f 392/466/392 408/474/408 393/468/393
f 386/469/386 400/473/400 401/475/401
f 394/470/394 408/474/408 409/476/409
f 386/469/386 402/477/402 387/471/387
f 394/470/394 410/478/410 395/456/395
f 388/472/388 402/477/402 403/479/403
f 396/457/396 410/478/410 411/480/411
f 388/472/388 404/481/404 389/458/389
f 396/457/396 412/482/412 397/459/397
f 390/460/390 404/481/404 405/483/405
f 398/461/398 412/482/412 413/484/413
f 391/462/391 405/483/405 406/485/406
f 384/464/384 82/486/82 399/487/399
f 308/488/308 398/461/398 413/484/413
f 391/462/391 407/489/407 392/466/392
f 403/479/403 419/490/419 404/481/404
f 411/480/411 427/491/427 412/482/412
f 405/483/405 419/490/419 420/492/420
f 412/482/412 428/493/428 413/484/413
f 406/485/406 420/492/420 421/494/421
f 399/487/399 82/495/82 414/496/414
f 308/497/308 413/484/413 428/493/428
f 406/485/406 422/498/422 407/489/407
f 399/487/399 415/499/415 400/473/400
f 407/489/407 423/500/423 408/474/408
f 401/475/401 415/499/415 416/501/416
f 409/476/409 423/500/423 424/502/424
f 401/475/401 417/503/417 402/477/402
f 409/476/409 425/504/425 410/478/410
f 403/479/403 417/503/417 418/505/418
f 411/480/411 425/504/425 426/506/426
f 422/498/422 438/507/438 423/500/423
f 416/501/416 430/508/430 431/509/431
f 424/502/424 438/507/438 439/510/439
f 416/501/416 432/511/432 417/503/417
f 424/502/424 440/512/440 425/504/425
f 418/505/418 432/511/432 433/513/433
f 426/506/426 440/512/440 441/514/441
f 418/505/418 434/515/434 419/490/419
f 426/506/426 442/516/442 427/491/427
f 420/492/420 434/515/434 435/517/435
f 428/493/428 442/516/442 443/518/443
f 421/494/421 435/517/435 436/519/436
f 414/496/414 82/520/82 429/521/429
f 308/522/308 428/493/428 443/518/443
f 421/494/421 437/523/437 422/498/422
f 414/496/414 430/508/430 415/499/415
f 441/514/441 457/524/457 442/516/442
f 435/517/435 449/525/449 450/526/450
f 442/516/442 458/527/458 443/518/443
f 436/519/436 450/526/450 451/528/451
f 429/521/429 82/529/82 444/530/444
f 308/531/308 443/518/443 458/527/458
f 436/519/436 452/532/452 437/523/437
f 430/508/430 444/530/444 445/533/445
f 437/523/437 453/534/453 438/507/438
f 431/509/431 445/533/445 446/535/446
f 439/510/439 453/534/453 454/536/454
f 431/509/431 447/537/447 432/511/432
f 439/510/439 455/538/455 440/512/440
f 433/513/433 447/537/447 448/539/448
f 441/514/441 455/538/455 456/540/456
f 433/513/433 449/525/449 434/515/434
f 454/536/454 468/541/468 469/542/469
f 446/535/446 462/543/462 447/537/447
f 454/536/454 470/544/470 455/538/455
f 448/539/448 462/543/462 463/545/463
f 456/540/456 470/544/470 471/546/471
f 448/539/448 464/547/464 449/525/449
f 456/540/456 472/548/472 457/524/457
f 450/526/450 464/547/464 465/549/465
f 458/527/458 472/548/472 473/550/473
f 451/528/451 465/549/465 466/551/466
f 444/530/444 82/552/82 459/553/459
f 308/554/308 458/527/458 473/550/473
f 451/528/451 467/555/467 452/532/452
f 444/530/444 460/556/460 445/533/445
f 452/532/452 468/541/468 453/534/453
f 446/535/446 460/556/460 461/557/461
f 472/548/472 482/6/482 473/550/473
f 466/551/466 3/1/3 4/8/4
f 459/553/459 82/558/82 474/9/474
f 308/559/308 473/550/473 482/6/482
f 466/551/466 5/14/5 467/555/467
f 459/553/459 475/15/475 460/556/460
f 467/555/467 478/18/478 468/541/468
f 461/557/461 475/15/475 1/19/1
f 468/541/468 6/22/6 469/542/469
f 462/543/462 1/19/1 476/23/476
f 469/542/469 479/25/479 470/544/470
f 463/545/463 476/23/476 2/28/2
f 471/546/471 479/25/479 480/30/480
f 464/547/464 2/28/2 477/31/477
f 471/546/471 481/4/481 472/548/472
f 465/549/465 477/31/477 3/1/3
f 3/1/3 477/31/477 12/2/12
f 481/4/481 20/32/20 21/5/21
f 3/1/3 13/3/13 14/7/14
f 4/8/4 14/7/14 15/13/15
f 475/15/475 474/9/474 7/11/7
f 5/14/5 15/13/15 16/17/16
f 1/19/1 475/15/475 8/16/8
f 478/18/478 16/17/16 17/21/17
f 476/23/476 1/19/1 9/20/9
f 479/25/479 6/22/6 17/21/17
f 476/23/476 10/24/10 11/27/11
f 479/25/479 18/26/18 19/29/19
f 477/31/477 2/28/2 11/27/11
f 480/30/480 19/29/19 20/32/20
f 19/29/19 18/26/18 33/33/33
f 11/27/11 26/49/26 27/35/27
f 20/32/20 19/29/19 34/34/34
f 13/3/13 12/2/12 27/35/27
f 20/32/20 35/36/35 36/38/36
f 13/3/13 28/37/28 29/39/29
f 14/7/14 29/39/29 30/43/30
f 7/11/7 22/41/22 23/44/23
f 15/13/15 30/43/30 31/45/31
f 8/16/8 23/44/23 24/46/24
f 17/21/17 16/17/16 31/45/31
f 9/20/9 24/46/24 25/48/25
f 18/26/18 17/21/17 32/47/32
f 10/24/10 25/48/25 26/49/26
f 30/43/30 45/65/45 46/50/46
f 23/44/23 38/66/38 39/51/39
f 32/47/32 31/45/31 46/50/46
f 24/46/24 39/51/39 40/53/40
f 33/33/33 32/47/32 47/52/47
f 25/48/25 40/53/40 41/55/41
f 34/34/34 33/33/33 48/54/48
f 26/49/26 41/55/41 42/57/42
f 35/36/35 34/34/34 49/56/49
f 28/37/28 27/35/27 42/57/42
f 36/38/36 35/36/35 50/58/50
f 29/39/29 28/37/28 43/59/43
f 29/39/29 44/61/44 45/65/45
f 22/41/22 37/63/37 38/66/38
f 50/58/50 49/56/49 64/67/64
f 43/59/43 42/57/42 57/69/57
f 51/60/51 50/58/50 65/68/65
f 44/61/44 43/59/43 58/70/58
f 44/61/44 59/72/59 60/76/60
f 37/63/37 52/74/52 53/77/53
f 45/65/45 60/76/60 61/78/61
f 38/66/38 53/77/53 54/79/54
f 47/52/47 46/50/46 61/78/61
f 39/51/39 54/79/54 55/81/55
f 47/52/47 62/80/62 63/82/63
f 41/55/41 40/53/40 55/81/55
f 49/56/49 48/54/48 63/82/63
f 41/55/41 56/83/56 57/69/57
f 54/79/54 53/77/53 68/84/68
f 62/80/62 61/78/61 76/86/76
f 54/79/54 69/85/69 70/88/70
f 62/80/62 77/87/77 78/89/78
f 56/83/56 55/81/55 70/88/70
f 64/67/64 63/82/63 78/89/78
f 56/83/56 71/90/71 72/92/72
f 64/67/64 79/91/79 80/93/80
f 58/70/58 57/69/57 72/92/72
f 65/68/65 80/93/80 81/95/81
f 59/72/59 58/70/58 73/94/73
f 59/72/59 74/96/74 75/100/75
f 53/77/53 52/74/52 67/98/67
f 60/76/60 75/100/75 76/86/76
f 73/94/73 72/92/72 88/101/88
f 81/95/81 80/93/80 96/103/96
f 74/96/74 73/94/73 89/102/89
f 74/96/74 90/105/90 91/109/91
f 67/98/67 83/107/83 84/110/84
f 75/100/75 91/109/91 92/111/92
f 68/84/68 84/110/84 85/112/85
f 77/87/77 76/86/76 92/111/92
f 69/85/69 85/112/85 86/114/86
f 77/87/77 93/113/93 94/115/94
f 71/90/71 70/88/70 86/114/86
f 79/91/79 78/89/78 94/115/94
f 71/90/71 87/116/87 88/101/88
f 80/93/80 79/91/79 95/117/95
f 93/113/93 92/111/92 107/118/107
f 85/112/85 100/134/100 101/120/101
f 93/113/93 108/119/108 109/121/109
f 87/116/87 86/114/86 101/120/101
f 95/117/95 94/115/94 109/121/109
f 87/116/87 102/122/102 103/124/103
f 95/117/95 110/123/110 111/125/111
f 89/102/89 88/101/88 103/124/103
f 96/103/96 111/125/111 112/127/112
f 90/105/90 89/102/89 104/126/104
f 90/105/90 105/128/105 106/132/106
f 83/107/83 98/130/98 99/133/99
f 91/109/91 106/132/106 107/118/107
f 85/112/85 84/110/84 99/133/99
f 111/125/111 126/151/126 127/135/127
f 105/128/105 104/126/104 119/136/119
f 105/128/105 120/137/120 121/141/121
f 98/130/98 113/139/113 114/142/114
f 106/132/106 121/141/121 122/143/122
f 99/133/99 114/142/114 115/144/115
f 108/119/108 107/118/107 122/143/122
f 100/134/100 115/144/115 116/146/116
f 108/119/108 123/145/123 124/147/124
f 102/122/102 101/120/101 116/146/116
f 110/123/110 109/121/109 124/147/124
f 102/122/102 117/148/117 118/150/118
f 111/125/111 110/123/110 125/149/125
f 104/126/104 103/124/103 118/150/118
f 115/144/115 130/167/130 131/152/131
f 123/145/123 138/168/138 139/153/139
f 117/148/117 116/146/116 131/152/131
f 125/149/125 124/147/124 139/153/139
f 117/148/117 132/154/132 133/156/133
f 125/149/125 140/155/140 141/157/141
f 119/136/119 118/150/118 133/156/133
f 126/151/126 141/157/141 142/159/142
f 120/137/120 119/136/119 134/158/134
f 120/137/120 135/160/135 136/164/136
f 114/142/114 113/139/113 128/162/128
f 121/141/121 136/164/136 137/166/137
f 115/144/115 114/142/114 129/165/129
f 123/145/123 122/143/122 137/166/137
f 135/160/135 134/158/134 149/169/149
f 135/160/135 150/170/150 151/175/151
f 128/162/128 143/172/143 144/176/144
f 136/164/136 151/175/151 152/177/152
f 129/165/129 144/176/144 145/178/145
f 138/168/138 137/166/137 152/177/152
f 130/167/130 145/178/145 146/180/146
f 138/168/138 153/179/153 154/181/154
f 132/154/132 131/152/131 146/180/146
f 140/155/140 139/153/139 154/181/154
f 132/154/132 147/182/147 148/184/148
f 141/157/141 140/155/140 155/183/155
f 134/158/134 133/156/133 148/184/148
f 141/157/141 156/185/156 157/174/157
f 153/179/153 168/202/168 169/186/169
f 147/182/147 146/180/146 161/187/161
f 155/183/155 154/181/154 169/186/169
f 147/182/147 162/188/162 163/190/163
f 156/185/156 155/183/155 170/189/170
f 149/169/149 148/184/148 163/190/163
f 157/174/157 156/185/156 171/191/171
f 150/170/150 149/169/149 164/192/164
f 150/170/150 165/194/165 166/198/166
f 143/172/143 158/196/158 159/199/159
f 151/175/151 166/198/166 167/200/167
f 144/176/144 159/199/159 160/201/160
f 153/179/153 152/177/152 167/200/167
f 145/178/145 160/201/160 161/187/161
f 165/194/165 180/217/180 181/205/181
f 158/196/158 173/219/173 174/206/174
f 166/198/166 181/205/181 182/207/182
f 159/199/159 174/206/174 175/208/175
f 168/202/168 167/200/167 182/207/182
f 160/201/160 175/208/175 176/210/176
f 168/202/168 183/209/183 184/211/184
f 162/188/162 161/187/161 176/210/176
f 170/189/170 169/186/169 184/211/184
f 162/188/162 177/212/177 178/214/178
f 171/191/171 170/189/170 185/213/185
f 164/192/164 163/190/163 178/214/178
f 172/193/172 171/191/171 186/215/186
f 165/194/165 164/192/164 179/216/179
f 185/213/185 184/211/184 199/220/199
f 177/212/177 192/236/192 193/222/193
f 185/213/185 200/221/200 201/223/201
f 179/216/179 178/214/178 193/222/193
f 186/215/186 201/223/201 202/225/202
f 180/217/180 179/216/179 194/224/194
f 180/217/180 195/226/195 196/230/196
f 174/206/174 173/219/173 188/228/188
f 181/205/181 196/230/196 197/232/197
f 175/208/175 174/206/174 189/231/189
f 183/209/183 182/207/182 197/232/197
f 175/208/175 190/233/190 191/235/191
f 183/209/183 198/234/198 199/220/199
f 177/212/177 176/210/176 191/235/191
f 188/228/188 203/251/203 204/237/204
f 196/230/196 211/253/211 212/238/212
f 189/231/189 204/237/204 205/239/205
f 198/234/198 197/232/197 212/238/212
f 190/233/190 205/239/205 206/241/206
f 198/234/198 213/240/213 214/242/214
f 192/236/192 191/235/191 206/241/206
f 200/221/200 199/220/199 214/242/214
f 192/236/192 207/243/207 208/245/208
f 201/223/201 200/221/200 215/244/215
f 194/224/194 193/222/193 208/245/208
f 202/225/202 201/223/201 216/246/216
f 195/226/195 194/224/194 209/247/209
f 195/226/195 210/249/210 211/253/211
f 207/243/207 222/270/222 223/254/223
f 216/246/216 215/244/215 230/255/230
f 209/247/209 208/245/208 223/254/223
f 217/248/217 216/246/216 231/256/231
f 210/249/210 209/247/209 224/257/224
f 210/249/210 225/259/225 226/263/226
f 203/251/203 218/261/218 219/264/219
f 211/253/211 226/263/226 227/265/227
f 204/237/204 219/264/219 220/266/220
f 213/240/213 212/238/212 227/265/227
f 205/239/205 220/266/220 221/268/221
f 213/240/213 228/267/228 229/269/229
f 207/243/207 206/241/206 221/268/221
f 215/244/215 214/242/214 229/269/229
f 226/263/226 241/286/241 242/271/242
f 219/264/219 234/287/234 235/272/235
f 228/267/228 227/265/227 242/271/242
f 220/266/220 235/272/235 236/274/236
f 228/267/228 243/273/243 244/275/244
f 222/270/222 221/268/221 236/274/236
f 230/255/230 229/269/229 244/275/244
f 222/270/222 237/276/237 238/278/238
f 231/256/231 230/255/230 245/277/245
f 224/257/224 223/254/223 238/278/238
f 231/256/231 246/279/246 247/281/247
f 225/259/225 224/257/224 239/280/239
f 225/259/225 240/282/240 241/286/241
f 219/264/219 218/261/218 233/284/233
f 245/277/245 260/304/260 261/288/261
f 239/280/239 238/278/238 253/289/253
f 246/279/246 261/288/261 262/291/262
f 240/282/240 239/280/239 254/290/254
f 240/282/240 255/292/255 256/296/256
f 234/287/234 233/284/233 248/294/248
f 241/286/241 256/296/256 257/298/257
f 235/272/235 234/287/234 249/297/249
f 243/273/243 242/271/242 257/298/257
f 235/272/235 250/299/250 251/301/251
f 243/273/243 258/300/258 259/302/259
f 237/276/237 236/274/236 251/301/251
f 245/277/245 244/275/244 259/302/259
f 237/276/237 252/303/252 253/289/253
f 249/297/249 264/321/264 265/305/265
f 258/300/258 257/298/257 272/306/272
f 250/299/250 265/305/265 266/308/266
f 258/300/258 273/307/273 274/309/274
f 252/303/252 251/301/251 266/308/266
f 260/304/260 259/302/259 274/309/274
f 252/303/252 267/310/267 268/312/268
f 261/288/261 260/304/260 275/311/275
f 254/290/254 253/289/253 268/312/268
f 261/288/261 276/313/276 277/315/277
f 255/292/255 254/290/254 269/314/269
f 255/292/255 270/316/270 271/320/271
f 249/297/249 248/294/248 263/318/263
f 256/296/256 271/320/271 272/306/272
f 269/314/269 268/312/268 283/322/283
f 276/313/276 291/338/291 292/324/292
f 270/316/270 269/314/269 284/323/284
f 270/316/270 285/325/285 286/329/286
f 263/318/263 278/327/278 279/330/279
f 271/320/271 286/329/286 287/331/287
f 264/321/264 279/330/279 280/332/280
f 273/307/273 272/306/272 287/331/287
f 265/305/265 280/332/280 281/334/281
f 273/307/273 288/333/288 289/335/289
f 267/310/267 266/308/266 281/334/281
f 275/311/275 274/309/274 289/335/289
f 267/310/267 282/336/282 283/322/283
f 275/311/275 290/337/290 291/338/291
f 288/333/288 287/331/287 302/339/302
f 280/332/280 295/355/295 296/341/296
f 288/333/288 303/340/303 304/342/304
f 282/336/282 281/334/281 296/341/296
f 290/337/290 289/335/289 304/342/304
f 282/336/282 297/343/297 298/345/298
f 290/337/290 305/344/305 306/346/306
f 284/323/284 283/322/283 298/345/298
f 292/324/292 291/338/291 306/346/306
f 285/325/285 284/323/284 299/347/299
f 285/325/285 300/349/300 301/353/301
f 278/327/278 293/351/293 294/354/294
f 286/329/286 301/353/301 302/339/302
f 280/332/280 279/330/279 294/354/294
f 306/346/306 322/372/322 323/356/323
f 300/349/300 299/347/299 315/357/315
f 300/349/300 316/358/316 317/362/317
f 294/354/294 293/351/293 309/360/309
f 301/353/301 317/362/317 318/364/318
f 295/355/295 294/354/294 310/363/310
f 303/340/303 302/339/302 318/364/318
f 295/355/295 311/365/311 312/367/312
f 303/340/303 319/366/319 320/368/320
f 297/343/297 296/341/296 312/367/312
f 305/344/305 304/342/304 320/368/320
f 297/343/297 313/369/313 314/371/314
f 305/344/305 321/370/321 322/372/322
f 299/347/299 298/345/298 314/371/314
f 319/366/319 334/389/334 335/373/335
f 313/369/313 312/367/312 327/374/327
f 321/370/321 320/368/320 335/373/335
f 313/369/313 328/375/328 329/377/329
f 321/370/321 336/376/336 337/378/337
f 315/357/315 314/371/314 329/377/329
f 323/356/323 322/372/322 337/378/337
f 316/358/316 315/357/315 330/379/330
f 316/358/316 331/381/331 332/385/332
f 309/360/309 324/383/324 325/386/325
f 317/362/317 332/385/332 333/387/333
f 310/363/310 325/386/325 326/388/326
f 319/366/319 318/364/318 333/387/333
f 311/365/311 326/388/326 327/374/327
f 331/381/331 346/406/346 347/394/347
f 324/383/324 339/391/339 340/395/340
f 332/385/332 347/394/347 348/396/348
f 326/388/326 325/386/325 340/395/340
f 334/389/334 333/387/333 348/396/348
f 326/388/326 341/397/341 342/399/342
f 334/389/334 349/398/349 350/400/350
f 328/375/328 327/374/327 342/399/342
f 336/376/336 335/373/335 350/400/350
f 328/375/328 343/401/343 344/403/344
f 336/376/336 351/402/351 352/404/352
f 330/379/330 329/377/329 344/403/344
f 338/380/338 337/378/337 352/404/352
f 331/381/331 330/379/330 345/405/345
f 343/401/343 342/399/342 357/407/357
f 351/402/351 350/400/350 365/409/365
f 343/401/343 358/408/358 359/411/359
f 351/402/351 366/410/366 367/412/367
f 345/405/345 344/403/344 359/411/359
f 353/393/353 352/404/352 367/412/367
f 346/406/346 345/405/345 360/413/360
f 346/406/346 361/415/361 362/419/362
f 339/391/339 354/417/354 355/420/355
f 347/394/347 362/419/362 363/421/363
f 341/397/341 340/395/340 355/420/355
f 349/398/349 348/396/348 363/421/363
f 341/397/341 356/422/356 357/407/357
f 349/398/349 364/423/364 365/409/365
f 361/424/361 376/452/376 377/425/377
f 355/427/355 354/453/354 369/428/369
f 362/426/362 377/425/377 378/430/378
f 356/432/356 355/427/355 370/429/370
f 364/434/364 363/431/363 378/430/378
f 356/432/356 371/433/371 372/436/372
f 364/434/364 379/435/379 380/438/380
f 358/440/358 357/437/357 372/436/372
f 366/442/366 365/439/365 380/438/380
f 358/440/358 373/441/373 374/444/374
f 366/442/366 381/443/381 382/446/382
f 360/448/360 359/445/359 374/444/374
f 367/447/367 382/446/382 383/450/383
f 361/424/361 360/448/360 375/449/375
f 381/443/381 380/438/380 395/456/395
f 373/441/373 388/472/388 389/458/389
f 381/443/381 396/457/396 397/459/397
f 375/449/375 374/444/374 389/458/389
f 382/446/382 397/459/397 398/461/398
f 376/452/376 375/449/375 390/460/390
f 376/452/376 391/462/391 392/466/392
f 370/429/370 369/428/369 384/464/384
f 377/425/377 392/466/392 393/468/393
f 371/433/371 370/429/370 385/467/385
f 379/435/379 378/430/378 393/468/393
f 371/433/371 386/469/386 387/471/387
f 379/435/379 394/470/394 395/456/395
f 373/441/373 372/436/372 387/471/387
f 384/464/384 399/487/399 400/473/400
f 392/466/392 407/489/407 408/474/408
f 386/469/386 385/467/385 400/473/400
f 394/470/394 393/468/393 408/474/408
f 386/469/386 401/475/401 402/477/402
f 394/470/394 409/476/409 410/478/410
f 388/472/388 387/471/387 402/477/402
f 396/457/396 395/456/395 410/478/410
f 388/472/388 403/479/403 404/481/404
f 396/457/396 411/480/411 412/482/412
f 390/460/390 389/458/389 404/481/404
f 398/461/398 397/459/397 412/482/412
f 391/462/391 390/460/390 405/483/405
f 391/462/391 406/485/406 407/489/407
f 403/479/403 418/505/418 419/490/419
f 411/480/411 426/506/426 427/491/427
f 405/483/405 404/481/404 419/490/419
f 412/482/412 427/491/427 428/493/428
f 406/485/406 405/483/405 420/492/420
f 406/485/406 421/494/421 422/498/422
f 399/487/399 414/496/414 415/499/415
f 407/489/407 422/498/422 423/500/423
f 401/475/401 400/473/400 415/499/415
f 409/476/409 408/474/408 423/500/423
f 401/475/401 416/501/416 417/503/417
f 409/476/409 424/502/424 425/504/425
f 403/479/403 402/477/402 417/503/417
f 411/480/411 410/478/410 425/504/425
f 422/498/422 437/523/437 438/507/438
f 416/501/416 415/499/415 430/508/430
f 424/502/424 423/500/423 438/507/438
f 416/501/416 431/509/431 432/511/432
f 424/502/424 439/510/439 440/512/440
f 418/505/418 417/503/417 432/511/432
f 426/506/426 425/504/425 440/512/440
f 418/505/418 433/513/433 434/515/434
f 426/506/426 441/514/441 442/516/442
f 420/492/420 419/490/419 434/515/434
f 428/493/428 427/491/427 442/516/442
f 421/494/421 420/492/420 435/517/435
f 421/494/421 436/519/436 437/523/437
f 414/496/414 429/521/429 430/508/430
f 441/514/441 456/540/456 457/524/457
f 435/517/435 434/515/434 449/525/449
f 442/516/442 457/524/457 458/527/458
f 436/519/436 435/517/435 450/526/450
f 436/519/436 451/528/451 452/532/452
f 430/508/430 429/521/429 444/530/444
f 437/523/437 452/532/452 453/534/453
f 431/509/431 430/508/430 445/533/445
f 439/510/439 438/507/438 453/534/453
f 431/509/431 446/535/446 447/537/447
f 439/510/439 454/536/454 455/538/455
f 433/513/433 432/511/432 447/537/447
f 441/514/441 440/512/440 455/538/455
f 433/513/433 448/539/448 449/525/449
f 454/536/454 453/534/453 468/541/468
f 446/535/446 461/557/461 462/543/462
f 454/536/454 469/542/469 470/544/470
f 448/539/448 447/537/447 462/543/462
f 456/540/456 455/538/455 470/544/470
f 448/539/448 463/545/463 464/547/464
f 456/540/456 471/546/471 472/548/472
f 450/526/450 449/525/449 464/547/464
f 458/527/458 457/524/457 472/548/472
f 451/528/451 450/526/450 465/549/465
f 451/528/451 466/551/466 467/555/467
f 444/530/444 459/553/459 460/556/460
f 452/532/452 467/555/467 468/541/468
f 446/535/446 445/533/445 460/556/460
f 472/548/472 481/4/481 482/6/482
f 466/551/466 465/549/465 3/1/3
f 466/551/466 4/8/4 5/14/5
f 459/553/459 474/9/474 475/15/475
f 467/555/467 5/14/5 478/18/478
f 461/557/461 460/556/460 475/15/475
f 468/541/468 478/18/478 6/22/6
f 462/543/462 461/557/461 1/19/1
f 469/542/469 6/22/6 479/25/479
f 463/545/463 462/543/462 476/23/476
f 471/546/471 470/544/470 479/25/479
f 464/547/464 463/545/463 2/28/2
f 471/546/471 480/30/480 481/4/481
f 465/549/465 464/547/464 477/31/477
