# Blender 4.4.1
# www.blender.org
mtllib gameClear.mtl
o テキスト
v -2.931000 0.376000 0.000000
v -2.882000 0.423000 0.000000
v -2.877835 0.422252 0.000000
v -2.872926 0.421514 0.000000
v -2.867406 0.420797 0.000000
v -2.861408 0.420111 0.000000
v -2.855062 0.419467 0.000000
v -2.848500 0.418875 0.000000
v -2.841856 0.418345 0.000000
v -2.835259 0.417889 0.000000
v -2.828844 0.417516 0.000000
v -2.822741 0.417236 0.000000
v -2.817082 0.417061 0.000000
v -2.812000 0.417000 0.000000
v -2.789019 0.417000 0.000000
v -2.751981 0.417000 0.000000
v -2.703750 0.417000 0.000000
v -2.647185 0.417000 0.000000
v -2.585148 0.417000 0.000000
v -2.520500 0.417000 0.000000
v -2.456102 0.417000 0.000000
v -2.394815 0.417000 0.000000
v -2.339500 0.417000 0.000000
v -2.293019 0.417000 0.000000
v -2.258232 0.417000 0.000000
v -2.238000 0.417000 0.000000
v -2.228653 0.417082 0.000000
v -2.219139 0.417319 0.000000
v -2.209500 0.417703 0.000000
v -2.199778 0.418222 0.000000
v -2.190014 0.418866 0.000000
v -2.180250 0.419625 0.000000
v -2.170528 0.420488 0.000000
v -2.160889 0.421444 0.000000
v -2.151375 0.422484 0.000000
v -2.142028 0.423597 0.000000
v -2.132889 0.424773 0.000000
v -2.124000 0.426000 0.000000
v -2.124000 0.335000 0.000000
v -2.133729 0.335958 0.000000
v -2.143417 0.336833 0.000000
v -2.153063 0.337625 0.000000
v -2.162667 0.338333 0.000000
v -2.172229 0.338958 0.000000
v -2.181750 0.339500 0.000000
v -2.191229 0.339958 0.000000
v -2.200667 0.340333 0.000000
v -2.210063 0.340625 0.000000
v -2.219417 0.340833 0.000000
v -2.228729 0.340958 0.000000
v -2.238000 0.341000 0.000000
v -2.257752 0.341000 0.000000
v -2.291681 0.341000 0.000000
v -2.337047 0.341000 0.000000
v -2.391111 0.341000 0.000000
v -2.451134 0.341000 0.000000
v -2.514375 0.341000 0.000000
v -2.578095 0.341000 0.000000
v -2.639555 0.341000 0.000000
v -2.696016 0.341000 0.000000
v -2.744736 0.341000 0.000000
v -2.782978 0.341000 0.000000
v -2.808000 0.341000 0.000000
v -2.798516 0.324580 0.000000
v -2.786709 0.306560 0.000000
v -2.772797 0.287297 0.000000
v -2.757000 0.267148 0.000000
v -2.739537 0.246472 0.000000
v -2.720625 0.225625 0.000000
v -2.700485 0.204966 0.000000
v -2.679334 0.184852 0.000000
v -2.657391 0.165641 0.000000
v -2.634876 0.147690 0.000000
v -2.612006 0.131357 0.000000
v -2.589000 0.117000 0.000000
v -2.655000 0.064000 0.000000
v -2.683083 0.084727 0.000000
v -2.710250 0.107153 0.000000
v -2.736375 0.130891 0.000000
v -2.761333 0.155556 0.000000
v -2.785000 0.180762 0.000000
v -2.807250 0.206125 0.000000
v -2.827958 0.231259 0.000000
v -2.847000 0.255778 0.000000
v -2.864250 0.279297 0.000000
v -2.879583 0.301431 0.000000
v -2.892875 0.321793 0.000000
v -2.904000 0.340000 0.000000
v -2.905868 0.342828 0.000000
v -2.907944 0.345792 0.000000
v -2.910187 0.348859 0.000000
v -2.912555 0.352000 0.000000
v -2.915007 0.355182 0.000000
v -2.917500 0.358375 0.000000
v -2.919993 0.361547 0.000000
v -2.922445 0.364667 0.000000
v -2.924813 0.367703 0.000000
v -2.927056 0.370625 0.000000
v -2.929132 0.373401 0.000000
v -2.532000 0.244000 0.000000
v -2.442000 0.244000 0.000000
v -2.442709 0.237580 0.000000
v -2.443338 0.231306 0.000000
v -2.443890 0.225156 0.000000
v -2.444370 0.219111 0.000000
v -2.444780 0.213149 0.000000
v -2.445125 0.207250 0.000000
v -2.445406 0.201392 0.000000
v -2.445629 0.195556 0.000000
v -2.445797 0.189719 0.000000
v -2.445912 0.183861 0.000000
v -2.445978 0.177962 0.000000
v -2.446000 0.172000 0.000000
v -2.445477 0.130764 0.000000
v -2.443653 0.090616 0.000000
v -2.440141 0.051641 0.000000
v -2.434556 0.013926 0.000000
v -2.426512 -0.022442 0.000000
v -2.415625 -0.057375 0.000000
v -2.401509 -0.090788 0.000000
v -2.383778 -0.122593 0.000000
v -2.362047 -0.152703 0.000000
v -2.335930 -0.181032 0.000000
v -2.305043 -0.207494 0.000000
v -2.269000 -0.232000 0.000000
v -2.261882 -0.236915 0.000000
v -2.254556 -0.241653 0.000000
v -2.247063 -0.246203 0.000000
v -2.239445 -0.250556 0.000000
v -2.231743 -0.254700 0.000000
v -2.224000 -0.258625 0.000000
v -2.216257 -0.262321 0.000000
v -2.208556 -0.265778 0.000000
v -2.200938 -0.268984 0.000000
v -2.193445 -0.271931 0.000000
v -2.186118 -0.274606 0.000000
v -2.179000 -0.277000 0.000000
v -2.253000 -0.337000 0.000000
v -2.312057 -0.304065 0.000000
v -2.362208 -0.268685 0.000000
v -2.404172 -0.230750 0.000000
v -2.438667 -0.190148 0.000000
v -2.466412 -0.146768 0.000000
v -2.488125 -0.100500 0.000000
v -2.504526 -0.051231 0.000000
v -2.516333 0.001148 0.000000
v -2.524266 0.056750 0.000000
v -2.529042 0.115685 0.000000
v -2.531380 0.178065 0.000000
v -1.312000 0.451000 0.000000
v -1.221000 0.451000 0.000000
v -1.221499 0.445936 0.000000
v -1.221991 0.440319 0.000000
v -1.222469 0.434266 0.000000
v -1.222926 0.427889 0.000000
v -1.223355 0.421304 0.000000
v -1.223750 0.414625 0.000000
v -1.224103 0.407967 0.000000
v -1.224407 0.401444 0.000000
v -1.224656 0.395172 0.000000
v -1.224842 0.389264 0.000000
v -1.224959 0.383835 0.000000
v -1.225000 0.379000 0.000000
v -1.225000 0.366948 0.000000
v -1.225000 0.346833 0.000000
v -1.225000 0.320219 0.000000
v -1.225000 0.288667 0.000000
v -1.225000 0.253740 0.000000
v -1.225000 0.217000 0.000000
v -1.225000 0.180010 0.000000
v -1.225000 0.144333 0.000000
v -1.225000 0.111531 0.000000
v -1.225000 0.083167 0.000000
v -1.225000 0.060802 0.000000
v -1.225000 0.046000 0.000000
v -1.224940 0.038469 0.000000
v -1.224769 0.030921 0.000000
v -1.224500 0.023422 0.000000
v -1.224148 0.016037 0.000000
v -1.223727 0.008833 0.000000
v -1.223250 0.001875 0.000000
v -1.222731 -0.004770 0.000000
v -1.222185 -0.011037 0.000000
v -1.221625 -0.016859 0.000000
v -1.221065 -0.022171 0.000000
v -1.220518 -0.026907 0.000000
v -1.220000 -0.031000 0.000000
v -1.312000 -0.031000 0.000000
v -1.311501 -0.026201 0.000000
v -1.311009 -0.020856 0.000000
v -1.310531 -0.015047 0.000000
v -1.310074 -0.008852 0.000000
v -1.309645 -0.002351 0.000000
v -1.309250 0.004375 0.000000
v -1.308897 0.011247 0.000000
v -1.308593 0.018185 0.000000
v -1.308344 0.025109 0.000000
v -1.308158 0.031940 0.000000
v -1.308041 0.038597 0.000000
v -1.308000 0.045000 0.000000
v -1.308000 0.059822 0.000000
v -1.308000 0.082241 0.000000
v -1.308000 0.110688 0.000000
v -1.308000 0.143593 0.000000
v -1.308000 0.179387 0.000000
v -1.308000 0.216500 0.000000
v -1.308000 0.253363 0.000000
v -1.308000 0.288407 0.000000
v -1.308000 0.320063 0.000000
v -1.308000 0.346759 0.000000
v -1.308000 0.366928 0.000000
v -1.308000 0.379000 0.000000
v -1.308041 0.385096 0.000000
v -1.308158 0.391347 0.000000
v -1.308344 0.397703 0.000000
v -1.308593 0.404111 0.000000
v -1.308897 0.410519 0.000000
v -1.309250 0.416875 0.000000
v -1.309645 0.423127 0.000000
v -1.310074 0.429222 0.000000
v -1.310531 0.435109 0.000000
v -1.311009 0.440736 0.000000
v -1.311501 0.446050 0.000000
v -1.776000 0.459000 0.000000
v -1.682000 0.459000 0.000000
v -1.682729 0.452686 0.000000
v -1.683412 0.446236 0.000000
v -1.684047 0.439641 0.000000
v -1.684630 0.432889 0.000000
v -1.685157 0.425970 0.000000
v -1.685625 0.418875 0.000000
v -1.686031 0.411592 0.000000
v -1.686370 0.404111 0.000000
v -1.686641 0.396422 0.000000
v -1.686838 0.388514 0.000000
v -1.686959 0.380377 0.000000
v -1.687000 0.372000 0.000000
v -1.687000 0.362265 0.000000
v -1.687000 0.350782 0.000000
v -1.687000 0.337891 0.000000
v -1.687000 0.323926 0.000000
v -1.687000 0.309225 0.000000
v -1.687000 0.294125 0.000000
v -1.687000 0.278962 0.000000
v -1.687000 0.264074 0.000000
v -1.687000 0.249797 0.000000
v -1.687000 0.236468 0.000000
v -1.687000 0.224423 0.000000
v -1.687000 0.214000 0.000000
v -1.686723 0.168936 0.000000
v -1.685782 0.127991 0.000000
v -1.684016 0.090781 0.000000
v -1.681259 0.056926 0.000000
v -1.677350 0.026043 0.000000
v -1.672125 -0.002250 0.000000
v -1.665421 -0.028334 0.000000
v -1.657074 -0.052593 0.000000
v -1.646922 -0.075406 0.000000
v -1.634801 -0.097157 0.000000
v -1.620548 -0.118228 0.000000
v -1.604000 -0.139000 0.000000
v -1.588030 -0.155883 0.000000
v -1.571158 -0.171560 0.000000
v -1.553438 -0.186078 0.000000
v -1.534926 -0.199481 0.000000
v -1.515679 -0.211815 0.000000
v -1.495750 -0.223125 0.000000
v -1.475197 -0.233455 0.000000
v -1.454074 -0.242852 0.000000
v -1.432438 -0.251359 0.000000
v -1.410343 -0.259023 0.000000
v -1.387845 -0.265888 0.000000
v -1.365000 -0.272000 0.000000
v -1.430000 -0.341000 0.000000
v -1.448777 -0.334365 0.000000
v -1.468463 -0.326921 0.000000
v -1.488844 -0.318609 0.000000
v -1.509704 -0.309370 0.000000
v -1.530828 -0.299145 0.000000
v -1.552000 -0.287875 0.000000
v -1.573006 -0.275501 0.000000
v -1.593630 -0.261963 0.000000
v -1.613656 -0.247203 0.000000
v -1.632870 -0.231162 0.000000
v -1.651057 -0.213781 0.000000
v -1.668000 -0.195000 0.000000
v -1.685191 -0.173549 0.000000
v -1.700778 -0.151806 0.000000
v -1.714781 -0.129188 0.000000
v -1.727222 -0.105111 0.000000
v -1.738122 -0.078993 0.000000
v -1.747500 -0.050250 0.000000
v -1.755378 -0.018299 0.000000
v -1.761778 0.017444 0.000000
v -1.766719 0.057562 0.000000
v -1.770222 0.102639 0.000000
v -1.772309 0.153257 0.000000
v -1.773000 0.210000 0.000000
v -1.773000 0.220406 0.000000
v -1.773000 0.232417 0.000000
v -1.773000 0.245719 0.000000
v -1.773000 0.260000 0.000000
v -1.773000 0.274948 0.000000
v -1.773000 0.290250 0.000000
v -1.773000 0.305594 0.000000
v -1.773000 0.320667 0.000000
v -1.773000 0.335156 0.000000
v -1.773000 0.348750 0.000000
v -1.773000 0.361135 0.000000
v -1.773000 0.372000 0.000000
v -1.773021 0.380377 0.000000
v -1.773083 0.388514 0.000000
v -1.773188 0.396422 0.000000
v -1.773333 0.404111 0.000000
v -1.773521 0.411592 0.000000
v -1.773750 0.418875 0.000000
v -1.774021 0.425970 0.000000
v -1.774333 0.432889 0.000000
v -1.774687 0.439641 0.000000
v -1.775083 0.446236 0.000000
v -1.775521 0.452686 0.000000
v -0.537000 0.477000 0.000000
v -0.444000 0.507000 0.000000
v -0.442321 0.500308 0.000000
v -0.440315 0.493301 0.000000
v -0.438031 0.486078 0.000000
v -0.435519 0.478741 0.000000
v -0.432825 0.471389 0.000000
v -0.430000 0.464125 0.000000
v -0.427091 0.457048 0.000000
v -0.424148 0.450259 0.000000
v -0.421219 0.443859 0.000000
v -0.418352 0.437949 0.000000
v -0.415596 0.432629 0.000000
v -0.413000 0.428000 0.000000
v -0.401074 0.404410 0.000000
v -0.386755 0.378866 0.000000
v -0.369984 0.351703 0.000000
v -0.350704 0.323259 0.000000
v -0.328854 0.293871 0.000000
v -0.304375 0.263875 0.000000
v -0.277209 0.233608 0.000000
v -0.247296 0.203407 0.000000
v -0.214578 0.173609 0.000000
v -0.178995 0.144551 0.000000
v -0.140489 0.116569 0.000000
v -0.099000 0.090000 0.000000
v -0.168000 0.038000 0.000000
v -0.194730 0.056571 0.000000
v -0.220421 0.075736 0.000000
v -0.245078 0.095422 0.000000
v -0.268704 0.115556 0.000000
v -0.291302 0.136064 0.000000
v -0.312875 0.156875 0.000000
v -0.333428 0.177915 0.000000
v -0.352963 0.199111 0.000000
v -0.371484 0.220391 0.000000
v -0.388995 0.241681 0.000000
v -0.405499 0.262908 0.000000
v -0.421000 0.284000 0.000000
v -0.760000 0.284000 0.000000
v -0.753930 0.260502 0.000000
v -0.746273 0.235681 0.000000
v -0.737109 0.209797 0.000000
v -0.726519 0.183111 0.000000
v -0.714580 0.155884 0.000000
v -0.701375 0.128375 0.000000
v -0.686982 0.100846 0.000000
v -0.671481 0.073556 0.000000
v -0.654953 0.046766 0.000000
v -0.637477 0.020736 0.000000
v -0.619133 -0.004273 0.000000
v -0.600000 -0.028000 0.000000
v -0.576528 -0.054175 0.000000
v -0.551556 -0.079648 0.000000
v -0.525000 -0.104344 0.000000
v -0.496778 -0.128185 0.000000
v -0.466806 -0.151096 0.000000
v -0.435000 -0.173000 0.000000
v -0.401278 -0.193821 0.000000
v -0.365556 -0.213482 0.000000
v -0.327750 -0.231906 0.000000
v -0.287778 -0.249019 0.000000
v -0.245556 -0.264742 0.000000
v -0.201000 -0.279000 0.000000
v -0.273000 -0.344000 0.000000
v -0.318586 -0.326273 0.000000
v -0.361440 -0.307602 0.000000
v -0.401703 -0.288000 0.000000
v -0.439519 -0.267481 0.000000
v -0.475028 -0.246060 0.000000
v -0.508375 -0.223750 0.000000
v -0.539701 -0.200565 0.000000
v -0.569148 -0.176518 0.000000
v -0.596859 -0.151625 0.000000
v -0.622977 -0.125898 0.000000
v -0.647643 -0.099352 0.000000
v -0.671000 -0.072000 0.000000
v -0.692683 -0.044473 0.000000
v -0.713213 -0.016032 0.000000
v -0.732562 0.013109 0.000000
v -0.750704 0.042741 0.000000
v -0.767609 0.072650 0.000000
v -0.783250 0.102625 0.000000
v -0.797599 0.132454 0.000000
v -0.810630 0.161926 0.000000
v -0.822312 0.190828 0.000000
v -0.832620 0.218949 0.000000
v -0.841525 0.246077 0.000000
v -0.849000 0.272000 0.000000
v -0.850350 0.276137 0.000000
v -0.851884 0.280509 0.000000
v -0.853578 0.285062 0.000000
v -0.855407 0.289741 0.000000
v -0.857348 0.294488 0.000000
v -0.859375 0.299250 0.000000
v -0.861465 0.303970 0.000000
v -0.863593 0.308593 0.000000
v -0.865734 0.313063 0.000000
v -0.867866 0.317324 0.000000
v -0.869962 0.321322 0.000000
v -0.872000 0.325000 0.000000
v -0.805000 0.366000 0.000000
v -0.800876 0.364333 0.000000
v -0.796505 0.362829 0.000000
v -0.791891 0.361484 0.000000
v -0.787037 0.360296 0.000000
v -0.781947 0.359261 0.000000
v -0.776625 0.358375 0.000000
v -0.771074 0.357635 0.000000
v -0.765296 0.357037 0.000000
v -0.759297 0.356578 0.000000
v -0.753079 0.356255 0.000000
v -0.746645 0.356063 0.000000
v -0.740000 0.356000 0.000000
v -0.468000 0.356000 0.000000
v -0.492000 0.398000 0.000000
v -0.494661 0.403049 0.000000
v -0.497625 0.408644 0.000000
v -0.500859 0.414703 0.000000
v -0.504333 0.421148 0.000000
v -0.508016 0.427899 0.000000
v -0.511875 0.434875 0.000000
v -0.515880 0.441997 0.000000
v -0.520000 0.449185 0.000000
v -0.524203 0.456359 0.000000
v -0.528458 0.463440 0.000000
v -0.532734 0.470347 0.000000
v 0.833000 -0.189000 -0.000000
v 0.840349 -0.189249 -0.000000
v 0.847875 -0.189491 -0.000000
v 0.855547 -0.189719 -0.000000
v 0.863333 -0.189926 -0.000000
v 0.871203 -0.190105 -0.000000
v 0.879125 -0.190250 -0.000000
v 0.887068 -0.190353 -0.000000
v 0.895000 -0.190407 -0.000000
v 0.902891 -0.190406 -0.000000
v 0.910708 -0.190343 -0.000000
v 0.918422 -0.190209 -0.000000
v 0.926000 -0.190000 -0.000000
v 0.911000 -0.283000 -0.000000
v 0.903752 -0.281981 -0.000000
v 0.896519 -0.280935 -0.000000
v 0.889313 -0.279875 -0.000000
v 0.882148 -0.278815 -0.000000
v 0.875039 -0.277769 -0.000000
v 0.868000 -0.276750 -0.000000
v 0.861044 -0.275773 -0.000000
v 0.854185 -0.274852 -0.000000
v 0.847438 -0.274000 -0.000000
v 0.840815 -0.273231 -0.000000
v 0.834331 -0.272560 -0.000000
v 0.828000 -0.272000 -0.000000
v 0.790534 -0.268503 -0.000000
v 0.746018 -0.264111 -0.000000
v 0.695781 -0.258969 -0.000000
v 0.641148 -0.253222 -0.000000
v 0.583446 -0.247017 -0.000000
v 0.524000 -0.240500 -0.000000
v 0.464138 -0.233816 -0.000000
v 0.405185 -0.227111 -0.000000
v 0.348469 -0.220531 -0.000000
v 0.295315 -0.214222 -0.000000
v 0.247050 -0.208330 -0.000000
v 0.205000 -0.203000 -0.000000
v 0.199334 -0.215183 -0.000000
v 0.193843 -0.227218 -0.000000
v 0.188531 -0.239078 -0.000000
v 0.183407 -0.250741 -0.000000
v 0.178478 -0.262181 -0.000000
v 0.173750 -0.273375 -0.000000
v 0.169230 -0.284298 -0.000000
v 0.164926 -0.294926 -0.000000
v 0.160844 -0.305234 -0.000000
v 0.156991 -0.315199 0.000000
v 0.153374 -0.324796 0.000000
v 0.150000 -0.334000 0.000000
v 0.066000 -0.296000 0.000000
v 0.077835 -0.268322 0.000000
v 0.092097 -0.237241 0.000000
v 0.108422 -0.203437 -0.000000
v 0.126444 -0.167593 -0.000000
v 0.145800 -0.130387 -0.000000
v 0.166125 -0.092500 -0.000000
v 0.187054 -0.054613 -0.000000
v 0.208222 -0.017407 -0.000000
v 0.229266 0.018438 -0.000000
v 0.249819 0.052241 -0.000000
v 0.269519 0.083322 -0.000000
v 0.288000 0.111000 -0.000000
v 0.363000 0.077000 -0.000000
v 0.353591 0.064392 -0.000000
v 0.343893 0.050634 -0.000000
v 0.333953 0.035828 -0.000000
v 0.323815 0.020074 -0.000000
v 0.313524 0.003473 -0.000000
v 0.303125 -0.013875 -0.000000
v 0.292664 -0.031869 -0.000000
v 0.282185 -0.050407 -0.000000
v 0.271734 -0.069391 -0.000000
v 0.261356 -0.088718 -0.000000
v 0.251097 -0.108288 -0.000000
v 0.241000 -0.128000 -0.000000
v 0.270135 -0.131867 -0.000000
v 0.302245 -0.135940 -0.000000
v 0.336891 -0.140172 -0.000000
v 0.373630 -0.144519 -0.000000
v 0.412021 -0.148935 -0.000000
v 0.451625 -0.153375 -0.000000
v 0.491999 -0.157795 -0.000000
v 0.532704 -0.162148 -0.000000
v 0.573297 -0.166391 -0.000000
v 0.613338 -0.170477 -0.000000
v 0.652386 -0.174362 -0.000000
v 0.690000 -0.178000 -0.000000
v 0.676548 -0.142038 -0.000000
v 0.661468 -0.100056 -0.000000
v 0.645172 -0.053406 -0.000000
v 0.628074 -0.003444 -0.000000
v 0.610587 0.048476 -0.000000
v 0.593125 0.101000 -0.000000
v 0.576100 0.152774 -0.000000
v 0.559926 0.202444 -0.000000
v 0.545016 0.248656 -0.000000
v 0.531782 0.290056 -0.000000
v 0.520639 0.325288 -0.000000
v 0.512000 0.353000 -0.000000
v 0.508791 0.363175 -0.000000
v 0.505662 0.372736 -0.000000
v 0.502609 0.381734 -0.000000
v 0.499630 0.390222 -0.000000
v 0.496719 0.398252 -0.000000
v 0.493875 0.405875 -0.000000
v 0.491093 0.413144 -0.000000
v 0.488370 0.420111 -0.000000
v 0.485703 0.426828 -0.000000
v 0.483088 0.433347 -0.000000
v 0.480521 0.439721 -0.000000
v 0.478000 0.446000 -0.000000
v 0.578000 0.466000 -0.000000
v 0.578775 0.459528 -0.000000
v 0.579616 0.453056 -0.000000
v 0.580547 0.446500 -0.000000
v 0.581593 0.439778 -0.000000
v 0.582777 0.432806 -0.000000
v 0.584125 0.425500 -0.000000
v 0.585660 0.417778 -0.000000
v 0.587407 0.409556 -0.000000
v 0.589391 0.400750 -0.000000
v 0.591634 0.391278 -0.000000
v 0.594163 0.381056 -0.000000
v 0.597000 0.370000 -0.000000
v 0.605472 0.341109 -0.000000
v 0.616611 0.304370 -0.000000
v 0.630000 0.261187 -0.000000
v 0.645222 0.212963 -0.000000
v 0.661861 0.161100 -0.000000
v 0.679500 0.107000 -0.000000
v 0.697722 0.052067 -0.000000
v 0.716111 -0.002296 -0.000000
v 0.734250 -0.054688 -0.000000
v 0.751722 -0.103704 -0.000000
v 0.768111 -0.147942 -0.000000
v 0.783000 -0.186000 -0.000000
v 1.898000 0.133000 -0.000000
v 1.898000 0.035000 -0.000000
v 1.889803 0.035729 -0.000000
v 1.880759 0.036412 -0.000000
v 1.870938 0.037047 -0.000000
v 1.860407 0.037630 -0.000000
v 1.849239 0.038157 -0.000000
v 1.837500 0.038625 -0.000000
v 1.825262 0.039031 -0.000000
v 1.812593 0.039370 -0.000000
v 1.799563 0.039641 -0.000000
v 1.786241 0.039838 -0.000000
v 1.772697 0.039959 -0.000000
v 1.759000 0.040000 -0.000000
v 1.733875 0.040000 -0.000000
v 1.697500 0.040000 -0.000000
v 1.652125 0.040000 -0.000000
v 1.600000 0.040000 -0.000000
v 1.543375 0.040000 -0.000000
v 1.484500 0.040000 -0.000000
v 1.425625 0.040000 -0.000000
v 1.369000 0.040000 -0.000000
v 1.316875 0.040000 -0.000000
v 1.271500 0.040000 -0.000000
v 1.235125 0.040000 -0.000000
v 1.210000 0.040000 -0.000000
v 1.198824 0.039921 -0.000000
v 1.187838 0.039699 -0.000000
v 1.177109 0.039359 -0.000000
v 1.166704 0.038926 -0.000000
v 1.156687 0.038423 -0.000000
v 1.147125 0.037875 -0.000000
v 1.138084 0.037306 -0.000000
v 1.129630 0.036741 -0.000000
v 1.121828 0.036203 -0.000000
v 1.114745 0.035718 -0.000000
v 1.108447 0.035308 -0.000000
v 1.103000 0.035000 -0.000000
v 1.103000 0.133000 -0.000000
v 1.108792 0.132482 -0.000000
v 1.115167 0.131935 -0.000000
v 1.122125 0.131375 -0.000000
v 1.129667 0.130815 -0.000000
v 1.137792 0.130269 -0.000000
v 1.146500 0.129750 -0.000000
v 1.155792 0.129273 -0.000000
v 1.165667 0.128852 -0.000000
v 1.176125 0.128500 -0.000000
v 1.187167 0.128232 -0.000000
v 1.198792 0.128060 -0.000000
v 1.211000 0.128000 -0.000000
v 1.235914 0.128000 -0.000000
v 1.272148 0.128000 -0.000000
v 1.317438 0.128000 -0.000000
v 1.369519 0.128000 -0.000000
v 1.426127 0.128000 -0.000000
v 1.485000 0.128000 -0.000000
v 1.543873 0.128000 -0.000000
v 1.600482 0.128000 -0.000000
v 1.652562 0.128000 -0.000000
v 1.697852 0.128000 -0.000000
v 1.734086 0.128000 -0.000000
v 1.759000 0.128000 -0.000000
v 1.772926 0.128060 -0.000000
v 1.786657 0.128231 -0.000000
v 1.800125 0.128500 -0.000000
v 1.813259 0.128852 -0.000000
v 1.825991 0.129273 -0.000000
v 1.838250 0.129750 -0.000000
v 1.849967 0.130269 -0.000000
v 1.861074 0.130815 -0.000000
v 1.871500 0.131375 -0.000000
v 1.881176 0.131935 -0.000000
v 1.890032 0.132481 -0.000000
v 2.240000 0.490000 -0.000000
v 2.293000 0.467000 -0.000000
v 2.286116 0.457066 -0.000000
v 2.279014 0.446361 -0.000000
v 2.271766 0.435031 -0.000000
v 2.264445 0.423222 -0.000000
v 2.257123 0.411080 -0.000000
v 2.249875 0.398750 -0.000000
v 2.242773 0.386378 -0.000000
v 2.235889 0.374111 -0.000000
v 2.229297 0.362094 -0.000000
v 2.223070 0.350472 -0.000000
v 2.217280 0.339392 -0.000000
v 2.212000 0.329000 -0.000000
v 2.158000 0.353000 -0.000000
v 2.163337 0.363411 -0.000000
v 2.169282 0.374537 -0.000000
v 2.175734 0.386219 -0.000000
v 2.182592 0.398296 -0.000000
v 2.189756 0.410610 -0.000000
v 2.197125 0.423000 -0.000000
v 2.204597 0.435307 -0.000000
v 2.212074 0.447370 -0.000000
v 2.219453 0.459031 -0.000000
v 2.226634 0.470130 -0.000000
v 2.233516 0.480506 -0.000000
v 2.130000 0.530000 -0.000000
v 2.183000 0.507000 -0.000000
v 2.175695 0.497353 -0.000000
v 2.168310 0.486991 -0.000000
v 2.160891 0.476031 -0.000000
v 2.153482 0.464593 -0.000000
v 2.146128 0.452793 -0.000000
v 2.138875 0.440750 -0.000000
v 2.131768 0.428582 -0.000000
v 2.124852 0.416407 -0.000000
v 2.118172 0.404344 -0.000000
v 2.111773 0.392509 -0.000000
v 2.105701 0.381022 -0.000000
v 2.100000 0.370000 -0.000000
v 2.046000 0.394000 -0.000000
v 2.051148 0.403742 -0.000000
v 2.057014 0.414352 -0.000000
v 2.063484 0.425656 -0.000000
v 2.070445 0.437481 -0.000000
v 2.077780 0.449654 -0.000000
v 2.085375 0.462000 -0.000000
v 2.093117 0.474346 -0.000000
v 2.100889 0.486519 -0.000000
v 2.108578 0.498344 -0.000000
v 2.116070 0.509648 -0.000000
v 2.123248 0.520258 -0.000000
v 2.602000 0.453000 -0.000000
v 2.699000 0.472000 -0.000000
v 2.699562 0.465461 -0.000000
v 2.700250 0.458852 -0.000000
v 2.701062 0.452188 -0.000000
v 2.702000 0.445482 -0.000000
v 2.703063 0.438748 -0.000000
v 2.704250 0.432000 -0.000000
v 2.705563 0.425252 -0.000000
v 2.707000 0.418519 -0.000000
v 2.708563 0.411813 -0.000000
v 2.710250 0.405148 -0.000000
v 2.712063 0.398539 -0.000000
v 2.714000 0.392000 -0.000000
v 2.716897 0.382008 -0.000000
v 2.720093 0.371560 -0.000000
v 2.723594 0.360703 -0.000000
v 2.727407 0.349482 -0.000000
v 2.731541 0.337940 -0.000000
v 2.736000 0.326125 -0.000000
v 2.740793 0.314080 -0.000000
v 2.745926 0.301852 -0.000000
v 2.751406 0.289484 -0.000000
v 2.757241 0.277023 -0.000000
v 2.763437 0.264513 -0.000000
v 2.770000 0.252000 -0.000000
v 2.779480 0.235949 -0.000000
v 2.790338 0.218505 -0.000000
v 2.802453 0.199984 -0.000000
v 2.815704 0.180704 -0.000000
v 2.829968 0.160979 -0.000000
v 2.845125 0.141125 -0.000000
v 2.861053 0.121459 -0.000000
v 2.877630 0.102296 -0.000000
v 2.894734 0.083953 -0.000000
v 2.912245 0.066745 -0.000000
v 2.930041 0.050989 -0.000000
v 2.948000 0.037000 -0.000000
v 2.869000 -0.010000 -0.000000
v 2.854314 0.002862 -0.000000
v 2.839343 0.017310 -0.000000
v 2.824219 0.033141 -0.000000
v 2.809074 0.050148 -0.000000
v 2.794041 0.068128 -0.000000
v 2.779250 0.086875 -0.000000
v 2.764835 0.106185 -0.000000
v 2.750926 0.125852 -0.000000
v 2.737656 0.145672 -0.000000
v 2.725157 0.165440 -0.000000
v 2.713562 0.184951 -0.000000
v 2.703000 0.204000 -0.000000
v 2.446000 0.204000 -0.000000
v 2.451628 0.143024 -0.000000
v 2.460773 0.086944 -0.000000
v 2.473078 0.035531 -0.000000
v 2.488185 -0.011444 -0.000000
v 2.505737 -0.054212 -0.000000
v 2.525375 -0.093000 -0.000000
v 2.546743 -0.128038 -0.000000
v 2.569482 -0.159556 -0.000000
v 2.593235 -0.187781 -0.000000
v 2.617644 -0.212945 -0.000000
v 2.642351 -0.235274 -0.000000
v 2.667000 -0.255000 -0.000000
v 2.672662 -0.259476 -0.000000
v 2.678625 -0.263894 -0.000000
v 2.684860 -0.268234 -0.000000
v 2.691334 -0.272481 -0.000000
v 2.698016 -0.276617 -0.000000
v 2.704875 -0.280625 -0.000000
v 2.711880 -0.284487 -0.000000
v 2.719000 -0.288185 -0.000000
v 2.726203 -0.291703 -0.000000
v 2.733459 -0.295023 -0.000000
v 2.740735 -0.298128 -0.000000
v 2.748000 -0.301000 -0.000000
v 2.663000 -0.359000 -0.000000
v 2.621271 -0.330277 -0.000000
v 2.582167 -0.298963 -0.000000
v 2.545812 -0.264844 -0.000000
v 2.512333 -0.227704 -0.000000
v 2.481854 -0.187328 -0.000000
v 2.454500 -0.143500 -0.000000
v 2.430396 -0.096006 -0.000000
v 2.409667 -0.044630 -0.000000
v 2.392437 0.010844 -0.000000
v 2.378833 0.070630 -0.000000
v 2.368979 0.134943 -0.000000
v 2.363000 0.204000 -0.000000
v 2.193000 0.204000 -0.000000
v 2.186930 0.203979 -0.000000
v 2.180278 0.203917 -0.000000
v 2.173125 0.203813 -0.000000
v 2.165555 0.203667 -0.000000
v 2.157653 0.203479 -0.000000
v 2.149500 0.203250 -0.000000
v 2.141181 0.202979 -0.000000
v 2.132778 0.202667 -0.000000
v 2.124375 0.202313 -0.000000
v 2.116055 0.201917 -0.000000
v 2.107903 0.201479 -0.000000
v 2.100000 0.201000 -0.000000
v 2.100000 0.287000 -0.000000
v 2.107463 0.286061 -0.000000
v 2.115292 0.285241 -0.000000
v 2.123391 0.284531 -0.000000
v 2.131667 0.283926 -0.000000
v 2.140026 0.283418 -0.000000
v 2.148375 0.283000 -0.000000
v 2.156620 0.282665 -0.000000
v 2.164667 0.282407 -0.000000
v 2.172422 0.282219 -0.000000
v 2.179792 0.282093 -0.000000
v 2.186682 0.282022 -0.000000
v 2.193000 0.282000 -0.000000
v 2.666000 0.282000 -0.000000
v 2.662082 0.290996 -0.000000
v 2.658324 0.299968 -0.000000
v 2.654719 0.308891 -0.000000
v 2.651259 0.317741 -0.000000
v 2.647939 0.326494 -0.000000
v 2.644750 0.335125 -0.000000
v 2.641686 0.343611 -0.000000
v 2.638741 0.351926 -0.000000
v 2.635906 0.360047 -0.000000
v 2.633176 0.367949 -0.000000
v 2.630543 0.375608 -0.000000
v 2.628000 0.383000 -0.000000
v 2.626190 0.388139 -0.000000
v 2.624269 0.393532 -0.000000
v 2.622250 0.399141 -0.000000
v 2.620148 0.404926 -0.000000
v 2.617977 0.410850 -0.000000
v 2.615750 0.416875 -0.000000
v 2.613482 0.422962 -0.000000
v 2.611186 0.429074 -0.000000
v 2.608875 0.435172 -0.000000
v 2.606565 0.441218 -0.000000
v 2.604269 0.447173 -0.000000
vn -0.0000 -0.0000 -1.0000
vt 0.256757 0.000000
vt 0.243243 0.000000
vt 0.250000 0.000000
vt 0.236486 0.000000
vt 0.229730 0.000000
vt 0.013514 0.000000
vt 0.000000 0.000000
vt 0.006757 0.000000
vt 0.222973 0.000000
vt 0.020270 0.000000
vt 0.027027 0.000000
vt 0.216216 0.000000
vt 0.033784 0.000000
vt 0.209459 0.000000
vt 0.040541 0.000000
vt 0.202703 0.000000
vt 0.047297 0.000000
vt 0.054054 0.000000
vt 0.195946 0.000000
vt 0.060811 0.000000
vt 0.189189 0.000000
vt 0.067568 0.000000
vt 0.182432 0.000000
vt 0.074324 0.000000
vt 0.175676 0.000000
vt 0.081081 0.000000
vt 0.168919 0.000000
vt 0.087838 0.000000
vt 0.162162 0.000000
vt 0.155405 0.000000
vt 0.148649 0.000000
vt 0.141892 0.000000
vt 0.135135 0.000000
vt 0.128378 0.000000
vt 0.121622 0.000000
vt 0.114865 0.000000
vt 0.108108 0.000000
vt 0.101351 0.000000
vt 0.094595 0.000000
vt 0.263514 0.000000
vt 0.270270 0.000000
vt 0.277027 0.000000
vt 0.283784 0.000000
vt 0.290541 0.000000
vt 0.297297 0.000000
vt 0.304054 0.000000
vt 0.662162 0.000000
vt 0.655405 0.000000
vt 0.310811 0.000000
vt 0.648649 0.000000
vt 0.641892 0.000000
vt 0.317568 0.000000
vt 0.635135 0.000000
vt 0.628378 0.000000
vt 0.324324 0.000000
vt 0.621622 0.000000
vt 0.614865 0.000000
vt 0.331081 0.000000
vt 0.608108 0.000000
vt 0.601351 0.000000
vt 0.337838 0.000000
vt 0.594595 0.000000
vt 0.344595 0.000000
vt 0.351351 0.000000
vt 0.358108 0.000000
vt 0.364865 0.000000
vt 0.378378 0.000000
vt 0.385135 0.000000
vt 0.391892 0.000000
vt 0.405405 0.000000
vt 0.412162 0.000000
vt 0.418919 0.000000
vt 0.587838 0.000000
vt 0.371622 0.000000
vt 0.398649 0.000000
vt 0.425676 0.000000
vt 0.581081 0.000000
vt 0.432432 0.000000
vt 0.574324 0.000000
vt 0.439189 0.000000
vt 0.567568 0.000000
vt 0.445946 0.000000
vt 0.560811 0.000000
vt 0.452703 0.000000
vt 0.554054 0.000000
vt 0.459459 0.000000
vt 0.682432 0.000000
vt 0.668919 0.000000
vt 0.675676 0.000000
vt 1.000000 0.000000
vt 0.689189 0.000000
vt 0.695946 0.000000
vt 0.547297 0.000000
vt 0.466216 0.000000
vt 0.702703 0.000000
vt 0.709459 0.000000
vt 0.716216 0.000000
vt 0.722973 0.000000
vt 0.540541 0.000000
vt 0.472973 0.000000
vt 0.729730 0.000000
vt 0.736486 0.000000
vt 0.743243 0.000000
vt 0.479730 0.000000
vt 0.750000 0.000000
vt 0.533784 0.000000
vt 0.993243 0.000000
vt 0.756757 0.000000
vt 0.763514 0.000000
vt 0.486486 0.000000
vt 0.527027 0.000000
vt 0.493243 0.000000
vt 0.500000 0.000000
vt 0.520270 0.000000
vt 0.770270 0.000000
vt 0.506757 0.000000
vt 0.986486 0.000000
vt 0.513514 0.000000
vt 0.777027 0.000000
vt 0.979730 0.000000
vt 0.783784 0.000000
vt 0.790541 0.000000
vt 0.972973 0.000000
vt 0.797297 0.000000
vt 0.966216 0.000000
vt 0.804054 0.000000
vt 0.810811 0.000000
vt 0.959459 0.000000
vt 0.817568 0.000000
vt 0.952703 0.000000
vt 0.824324 0.000000
vt 0.831081 0.000000
vt 0.945946 0.000000
vt 0.837838 0.000000
vt 0.939189 0.000000
vt 0.844595 0.000000
vt 0.851351 0.000000
vt 0.858108 0.000000
vt 0.864865 0.000000
vt 0.871622 0.000000
vt 0.878378 0.000000
vt 0.885135 0.000000
vt 0.891892 0.000000
vt 0.898649 0.000000
vt 0.932432 0.000000
vt 0.905405 0.000000
vt 0.912162 0.000000
vt 0.918919 0.000000
vt 0.925676 0.000000
vt 0.444444 0.000000
vt 0.432749 0.000000
vt 0.438596 0.000000
vt 0.450292 0.000000
vt 0.994152 0.000000
vt 0.456140 0.000000
vt 0.988304 0.000000
vt 0.461988 0.000000
vt 0.982456 0.000000
vt 0.467836 0.000000
vt 0.976608 0.000000
vt 0.473684 0.000000
vt 0.970760 0.000000
vt 0.479532 0.000000
vt 0.964912 0.000000
vt 0.485380 0.000000
vt 0.959064 0.000000
vt 0.491228 0.000000
vt 0.953216 0.000000
vt 0.497076 0.000000
vt 0.947368 0.000000
vt 0.502924 0.000000
vt 0.941520 0.000000
vt 0.508772 0.000000
vt 0.935673 0.000000
vt 0.514620 0.000000
vt 0.929825 0.000000
vt 0.520468 0.000000
vt 0.923977 0.000000
vt 0.526316 0.000000
vt 0.918129 0.000000
vt 0.532164 0.000000
vt 0.912281 0.000000
vt 0.538012 0.000000
vt 0.906433 0.000000
vt 0.543860 0.000000
vt 0.900585 0.000000
vt 0.549708 0.000000
vt 0.894737 0.000000
vt 0.555556 0.000000
vt 0.888889 0.000000
vt 0.561404 0.000000
vt 0.883041 0.000000
vt 0.567251 0.000000
vt 0.877193 0.000000
vt 0.573099 0.000000
vt 0.871345 0.000000
vt 0.578947 0.000000
vt 0.865497 0.000000
vt 0.584795 0.000000
vt 0.859649 0.000000
vt 0.590643 0.000000
vt 0.853801 0.000000
vt 0.596491 0.000000
vt 0.847953 0.000000
vt 0.602339 0.000000
vt 0.842105 0.000000
vt 0.608187 0.000000
vt 0.614035 0.000000
vt 0.836257 0.000000
vt 0.619883 0.000000
vt 0.830409 0.000000
vt 0.625731 0.000000
vt 0.824561 0.000000
vt 0.631579 0.000000
vt 0.637427 0.000000
vt 0.818713 0.000000
vt 0.643275 0.000000
vt 0.812865 0.000000
vt 0.649123 0.000000
vt 0.807018 0.000000
vt 0.654971 0.000000
vt 0.801170 0.000000
vt 0.660819 0.000000
vt 0.666667 0.000000
vt 0.795322 0.000000
vt 0.672515 0.000000
vt 0.789474 0.000000
vt 0.678363 0.000000
vt 0.684211 0.000000
vt 0.783626 0.000000
vt 0.690058 0.000000
vt 0.777778 0.000000
vt 0.695906 0.000000
vt 0.701754 0.000000
vt 0.771930 0.000000
vt 0.707602 0.000000
vt 0.713450 0.000000
vt 0.766082 0.000000
vt 0.719298 0.000000
vt 0.725146 0.000000
vt 0.760234 0.000000
vt 0.754386 0.000000
vt 0.748538 0.000000
vt 0.742690 0.000000
vt 0.736842 0.000000
vt 0.730994 0.000000
vt 0.011696 0.000000
vt 0.005848 0.000000
vt 0.426901 0.000000
vt 0.421053 0.000000
vt 0.017544 0.000000
vt 0.415205 0.000000
vt 0.023392 0.000000
vt 0.409357 0.000000
vt 0.029240 0.000000
vt 0.403509 0.000000
vt 0.035088 0.000000
vt 0.397661 0.000000
vt 0.040936 0.000000
vt 0.391813 0.000000
vt 0.046784 0.000000
vt 0.385965 0.000000
vt 0.052632 0.000000
vt 0.380117 0.000000
vt 0.058480 0.000000
vt 0.374269 0.000000
vt 0.064327 0.000000
vt 0.368421 0.000000
vt 0.070175 0.000000
vt 0.362573 0.000000
vt 0.076023 0.000000
vt 0.081871 0.000000
vt 0.356725 0.000000
vt 0.087719 0.000000
vt 0.350877 0.000000
vt 0.093567 0.000000
vt 0.345029 0.000000
vt 0.099415 0.000000
vt 0.339181 0.000000
vt 0.105263 0.000000
vt 0.333333 0.000000
vt 0.111111 0.000000
vt 0.327485 0.000000
vt 0.116959 0.000000
vt 0.321637 0.000000
vt 0.122807 0.000000
vt 0.315789 0.000000
vt 0.128655 0.000000
vt 0.309942 0.000000
vt 0.134503 0.000000
vt 0.304094 0.000000
vt 0.140351 0.000000
vt 0.298246 0.000000
vt 0.146199 0.000000
vt 0.292398 0.000000
vt 0.152047 0.000000
vt 0.286550 0.000000
vt 0.280702 0.000000
vt 0.157895 0.000000
vt 0.274854 0.000000
vt 0.163743 0.000000
vt 0.269006 0.000000
vt 0.169591 0.000000
vt 0.263158 0.000000
vt 0.175439 0.000000
vt 0.257310 0.000000
vt 0.181287 0.000000
vt 0.251462 0.000000
vt 0.187135 0.000000
vt 0.245614 0.000000
vt 0.192982 0.000000
vt 0.239766 0.000000
vt 0.198830 0.000000
vt 0.233918 0.000000
vt 0.204678 0.000000
vt 0.228070 0.000000
vt 0.210526 0.000000
vt 0.222222 0.000000
vt 0.216374 0.000000
vt 0.015873 0.000000
vt 0.007937 0.000000
vt 0.023810 0.000000
vt 0.031746 0.000000
vt 0.039683 0.000000
vt 0.047619 0.000000
vt 0.055556 0.000000
vt 0.992063 0.000000
vt 0.063492 0.000000
vt 0.984127 0.000000
vt 0.071429 0.000000
vt 0.976190 0.000000
vt 0.079365 0.000000
vt 0.968254 0.000000
vt 0.087302 0.000000
vt 0.960317 0.000000
vt 0.095238 0.000000
vt 0.952381 0.000000
vt 0.103175 0.000000
vt 0.944444 0.000000
vt 0.936508 0.000000
vt 0.928571 0.000000
vt 0.920635 0.000000
vt 0.119048 0.000000
vt 0.912698 0.000000
vt 0.904762 0.000000
vt 0.126984 0.000000
vt 0.809524 0.000000
vt 0.793651 0.000000
vt 0.801587 0.000000
vt 0.817460 0.000000
vt 0.825397 0.000000
vt 0.833333 0.000000
vt 0.841270 0.000000
vt 0.849206 0.000000
vt 0.857143 0.000000
vt 0.865079 0.000000
vt 0.873016 0.000000
vt 0.880952 0.000000
vt 0.896825 0.000000
vt 0.134921 0.000000
vt 0.785714 0.000000
vt 0.142857 0.000000
vt 0.769841 0.000000
vt 0.761905 0.000000
vt 0.753968 0.000000
vt 0.746032 0.000000
vt 0.738095 0.000000
vt 0.730159 0.000000
vt 0.150794 0.000000
vt 0.301587 0.000000
vt 0.722222 0.000000
vt 0.309524 0.000000
vt 0.714286 0.000000
vt 0.293651 0.000000
vt 0.317460 0.000000
vt 0.706349 0.000000
vt 0.698413 0.000000
vt 0.690476 0.000000
vt 0.158730 0.000000
vt 0.285714 0.000000
vt 0.325397 0.000000
vt 0.682540 0.000000
vt 0.277778 0.000000
vt 0.166667 0.000000
vt 0.269841 0.000000
vt 0.674603 0.000000
vt 0.341270 0.000000
vt 0.174603 0.000000
vt 0.261905 0.000000
vt 0.349206 0.000000
vt 0.253968 0.000000
vt 0.182540 0.000000
vt 0.658730 0.000000
vt 0.246032 0.000000
vt 0.357143 0.000000
vt 0.190476 0.000000
vt 0.238095 0.000000
vt 0.650794 0.000000
vt 0.365079 0.000000
vt 0.198413 0.000000
vt 0.230159 0.000000
vt 0.642857 0.000000
vt 0.373016 0.000000
vt 0.206349 0.000000
vt 0.214286 0.000000
vt 0.380952 0.000000
vt 0.634921 0.000000
vt 0.388889 0.000000
vt 0.626984 0.000000
vt 0.396825 0.000000
vt 0.619048 0.000000
vt 0.404762 0.000000
vt 0.611111 0.000000
vt 0.412698 0.000000
vt 0.603175 0.000000
vt 0.420635 0.000000
vt 0.595238 0.000000
vt 0.428571 0.000000
vt 0.587302 0.000000
vt 0.436508 0.000000
vt 0.579365 0.000000
vt 0.452381 0.000000
vt 0.571429 0.000000
vt 0.460317 0.000000
vt 0.563492 0.000000
vt 0.468254 0.000000
vt 0.476190 0.000000
vt 0.547619 0.000000
vt 0.484127 0.000000
vt 0.539683 0.000000
vt 0.492063 0.000000
vt 0.531746 0.000000
vt 0.507937 0.000000
vt 0.523810 0.000000
vt 0.515873 0.000000
vt 0.830882 0.000000
vt 0.816176 0.000000
vt 0.823529 0.000000
vt 0.838235 0.000000
vt 0.845588 0.000000
vt 0.852941 0.000000
vt 0.808824 0.000000
vt 0.860294 0.000000
vt 0.801471 0.000000
vt 0.794118 0.000000
vt 0.867647 0.000000
vt 0.786765 0.000000
vt 0.875000 0.000000
vt 0.779412 0.000000
vt 0.882353 0.000000
vt 0.772059 0.000000
vt 0.889706 0.000000
vt 0.764706 0.000000
vt 0.897059 0.000000
vt 0.757353 0.000000
vt 0.904412 0.000000
vt 0.742647 0.000000
vt 0.911765 0.000000
vt 0.735294 0.000000
vt 0.919118 0.000000
vt 0.727941 0.000000
vt 0.720588 0.000000
vt 0.926471 0.000000
vt 0.713235 0.000000
vt 0.933824 0.000000
vt 0.705882 0.000000
vt 0.941176 0.000000
vt 0.698529 0.000000
vt 0.948529 0.000000
vt 0.691176 0.000000
vt 0.955882 0.000000
vt 0.683824 0.000000
vt 0.463235 0.000000
vt 0.448529 0.000000
vt 0.455882 0.000000
vt 0.963235 0.000000
vt 0.676471 0.000000
vt 0.441176 0.000000
vt 0.470588 0.000000
vt 0.477941 0.000000
vt 0.433824 0.000000
vt 0.970588 0.000000
vt 0.485294 0.000000
vt 0.669118 0.000000
vt 0.492647 0.000000
vt 0.426471 0.000000
vt 0.507353 0.000000
vt 0.977941 0.000000
vt 0.661765 0.000000
vt 0.514706 0.000000
vt 0.419118 0.000000
vt 0.522059 0.000000
vt 0.529412 0.000000
vt 0.654412 0.000000
vt 0.411765 0.000000
vt 0.985294 0.000000
vt 0.536765 0.000000
vt 0.544118 0.000000
vt 0.404412 0.000000
vt 0.647059 0.000000
vt 0.992647 0.000000
vt 0.551471 0.000000
vt 0.558824 0.000000
vt 0.397059 0.000000
vt 0.566176 0.000000
vt 0.573529 0.000000
vt 0.580882 0.000000
vt 0.639706 0.000000
vt 0.588235 0.000000
vt 0.595588 0.000000
vt 0.602941 0.000000
vt 0.610294 0.000000
vt 0.617647 0.000000
vt 0.625000 0.000000
vt 0.389706 0.000000
vt 0.632353 0.000000
vt 0.007353 0.000000
vt 0.014706 0.000000
vt 0.022059 0.000000
vt 0.029412 0.000000
vt 0.036765 0.000000
vt 0.095588 0.000000
vt 0.080882 0.000000
vt 0.088235 0.000000
vt 0.044118 0.000000
vt 0.073529 0.000000
vt 0.051471 0.000000
vt 0.066176 0.000000
vt 0.058824 0.000000
vt 0.132353 0.000000
vt 0.139706 0.000000
vt 0.147059 0.000000
vt 0.154412 0.000000
vt 0.161765 0.000000
vt 0.169118 0.000000
vt 0.272059 0.000000
vt 0.264706 0.000000
vt 0.279412 0.000000
vt 0.382353 0.000000
vt 0.257353 0.000000
vt 0.286765 0.000000
vt 0.242647 0.000000
vt 0.235294 0.000000
vt 0.294118 0.000000
vt 0.176471 0.000000
vt 0.227941 0.000000
vt 0.375000 0.000000
vt 0.301471 0.000000
vt 0.220588 0.000000
vt 0.213235 0.000000
vt 0.308824 0.000000
vt 0.205882 0.000000
vt 0.198529 0.000000
vt 0.316176 0.000000
vt 0.191176 0.000000
vt 0.367647 0.000000
vt 0.183824 0.000000
vt 0.323529 0.000000
vt 0.125000 0.000000
vt 0.117647 0.000000
vt 0.110294 0.000000
vt 0.102941 0.000000
vt 0.330882 0.000000
vt 0.338235 0.000000
vt 0.345588 0.000000
vt 0.352941 0.000000
vt 0.360294 0.000000
vt 0.013699 0.000000
vt 0.534247 0.000000
vt 0.506849 0.000000
vt 0.520548 0.000000
vt 0.547945 0.000000
vt 0.986301 0.000000
vt 0.561644 0.000000
vt 0.972603 0.000000
vt 0.575342 0.000000
vt 0.958904 0.000000
vt 0.589041 0.000000
vt 0.945205 0.000000
vt 0.602740 0.000000
vt 0.931507 0.000000
vt 0.616438 0.000000
vt 0.917808 0.000000
vt 0.630137 0.000000
vt 0.904110 0.000000
vt 0.643836 0.000000
vt 0.890411 0.000000
vt 0.657534 0.000000
vt 0.876712 0.000000
vt 0.671233 0.000000
vt 0.863014 0.000000
vt 0.684932 0.000000
vt 0.849315 0.000000
vt 0.835616 0.000000
vt 0.821918 0.000000
vt 0.808219 0.000000
vt 0.794521 0.000000
vt 0.780822 0.000000
vt 0.767123 0.000000
vt 0.753425 0.000000
vt 0.739726 0.000000
vt 0.726027 0.000000
vt 0.712329 0.000000
vt 0.698630 0.000000
vt 0.027397 0.000000
vt 0.041096 0.000000
vt 0.054795 0.000000
vt 0.068493 0.000000
vt 0.082192 0.000000
vt 0.095890 0.000000
vt 0.109589 0.000000
vt 0.123288 0.000000
vt 0.136986 0.000000
vt 0.150685 0.000000
vt 0.164384 0.000000
vt 0.178082 0.000000
vt 0.191781 0.000000
vt 0.205479 0.000000
vt 0.219178 0.000000
vt 0.260274 0.000000
vt 0.287671 0.000000
vt 0.342466 0.000000
vt 0.356164 0.000000
vt 0.369863 0.000000
vt 0.383562 0.000000
vt 0.397260 0.000000
vt 0.410959 0.000000
vt 0.424658 0.000000
vt 0.438356 0.000000
vt 0.232877 0.000000
vt 0.246575 0.000000
vt 0.273973 0.000000
vt 0.301370 0.000000
vt 0.315068 0.000000
vt 0.328767 0.000000
vt 0.452055 0.000000
vt 0.465753 0.000000
vt 0.479452 0.000000
vt 0.493151 0.000000
vt 0.142105 0.000000
vt 0.268421 0.000000
vt 0.136842 0.000000
vt 0.257895 0.000000
vt 0.147368 0.000000
vt 0.252632 0.000000
vt 0.152632 0.000000
vt 0.005263 0.000000
vt 0.131579 0.000000
vt 0.247368 0.000000
vt 0.126316 0.000000
vt 0.163158 0.000000
vt 0.242105 0.000000
vt 0.284211 0.000000
vt 0.273684 0.000000
vt 0.278947 0.000000
vt 0.121053 0.000000
vt 0.010526 0.000000
vt 0.289474 0.000000
vt 0.168421 0.000000
vt 0.236842 0.000000
vt 0.115789 0.000000
vt 0.294737 0.000000
vt 0.015789 0.000000
vt 0.173684 0.000000
vt 0.300000 0.000000
vt 0.231579 0.000000
vt 0.110526 0.000000
vt 0.994737 0.000000
vt 0.021053 0.000000
vt 0.305263 0.000000
vt 0.989474 0.000000
vt 0.178947 0.000000
vt 0.310526 0.000000
vt 0.226316 0.000000
vt 0.984211 0.000000
vt 0.026316 0.000000
vt 0.978947 0.000000
vt 0.184211 0.000000
vt 0.221053 0.000000
vt 0.321053 0.000000
vt 0.031579 0.000000
vt 0.100000 0.000000
vt 0.973684 0.000000
vt 0.326316 0.000000
vt 0.968421 0.000000
vt 0.189474 0.000000
vt 0.215789 0.000000
vt 0.331579 0.000000
vt 0.036842 0.000000
vt 0.963158 0.000000
vt 0.094737 0.000000
vt 0.336842 0.000000
vt 0.957895 0.000000
vt 0.194737 0.000000
vt 0.952632 0.000000
vt 0.042105 0.000000
vt 0.342105 0.000000
vt 0.089474 0.000000
vt 0.200000 0.000000
vt 0.205263 0.000000
vt 0.347368 0.000000
vt 0.942105 0.000000
vt 0.047368 0.000000
vt 0.084211 0.000000
vt 0.936842 0.000000
vt 0.352632 0.000000
vt 0.931579 0.000000
vt 0.078947 0.000000
vt 0.357895 0.000000
vt 0.926316 0.000000
vt 0.073684 0.000000
vt 0.057895 0.000000
vt 0.363158 0.000000
vt 0.921053 0.000000
vt 0.063158 0.000000
vt 0.068421 0.000000
vt 0.915789 0.000000
vt 0.910526 0.000000
vt 0.373684 0.000000
vt 0.905263 0.000000
vt 0.900000 0.000000
vt 0.378947 0.000000
vt 0.384211 0.000000
vt 0.889474 0.000000
vt 0.389474 0.000000
vt 0.884211 0.000000
vt 0.878947 0.000000
vt 0.394737 0.000000
vt 0.815789 0.000000
vt 0.805263 0.000000
vt 0.810526 0.000000
vt 0.821053 0.000000
vt 0.826316 0.000000
vt 0.831579 0.000000
vt 0.836842 0.000000
vt 0.847368 0.000000
vt 0.852632 0.000000
vt 0.857895 0.000000
vt 0.863158 0.000000
vt 0.868421 0.000000
vt 0.873684 0.000000
vt 0.400000 0.000000
vt 0.405263 0.000000
vt 0.410526 0.000000
vt 0.794737 0.000000
vt 0.800000 0.000000
vt 0.415789 0.000000
vt 0.768421 0.000000
vt 0.773684 0.000000
vt 0.778947 0.000000
vt 0.784211 0.000000
vt 0.536842 0.000000
vt 0.542105 0.000000
vt 0.742105 0.000000
vt 0.747368 0.000000
vt 0.752632 0.000000
vt 0.757895 0.000000
vt 0.763158 0.000000
vt 0.531579 0.000000
vt 0.547368 0.000000
vt 0.731579 0.000000
vt 0.426316 0.000000
vt 0.431579 0.000000
vt 0.521053 0.000000
vt 0.436842 0.000000
vt 0.515789 0.000000
vt 0.552632 0.000000
vt 0.442105 0.000000
vt 0.726316 0.000000
vt 0.510526 0.000000
vt 0.447368 0.000000
vt 0.505263 0.000000
vt 0.452632 0.000000
vt 0.557895 0.000000
vt 0.457895 0.000000
vt 0.721053 0.000000
vt 0.494737 0.000000
vt 0.463158 0.000000
vt 0.468421 0.000000
vt 0.489474 0.000000
vt 0.563158 0.000000
vt 0.484211 0.000000
vt 0.478947 0.000000
vt 0.715789 0.000000
vt 0.568421 0.000000
vt 0.710526 0.000000
vt 0.573684 0.000000
vt 0.705263 0.000000
vt 0.584211 0.000000
vt 0.700000 0.000000
vt 0.589474 0.000000
vt 0.694737 0.000000
vt 0.594737 0.000000
vt 0.600000 0.000000
vt 0.689474 0.000000
vt 0.605263 0.000000
vt 0.610526 0.000000
vt 0.615789 0.000000
vt 0.621053 0.000000
vt 0.626316 0.000000
vt 0.636842 0.000000
vt 0.642105 0.000000
vt 0.647368 0.000000
vt 0.652632 0.000000
vt 0.657895 0.000000
vt 0.663158 0.000000
vt 0.668421 0.000000
vt 0.678947 0.000000
vt 0.673684 0.000000
s 0
usemtl マテリアル
f 39/1/1 37/2/1 38/3/1
f 39/1/1 36/4/1 37/2/1
f 39/1/1 35/5/1 36/4/1
f 3/6/1 1/7/1 2/8/1
f 39/1/1 34/9/1 35/5/1
f 4/10/1 1/7/1 3/6/1
f 5/11/1 1/7/1 4/10/1
f 39/1/1 33/12/1 34/9/1
f 6/13/1 1/7/1 5/11/1
f 39/1/1 32/14/1 33/12/1
f 7/15/1 1/7/1 6/13/1
f 39/1/1 31/16/1 32/14/1
f 8/17/1 1/7/1 7/15/1
f 9/18/1 1/7/1 8/17/1
f 39/1/1 30/19/1 31/16/1
f 10/20/1 1/7/1 9/18/1
f 39/1/1 29/21/1 30/19/1
f 11/22/1 1/7/1 10/20/1
f 39/1/1 28/23/1 29/21/1
f 12/24/1 1/7/1 11/22/1
f 39/1/1 27/25/1 28/23/1
f 13/26/1 1/7/1 12/24/1
f 39/1/1 26/27/1 27/25/1
f 14/28/1 1/7/1 13/26/1
f 39/1/1 25/29/1 26/27/1
f 39/1/1 24/30/1 25/29/1
f 39/1/1 23/31/1 24/30/1
f 39/1/1 22/32/1 23/31/1
f 39/1/1 21/33/1 22/32/1
f 39/1/1 20/34/1 21/33/1
f 39/1/1 19/35/1 20/34/1
f 39/1/1 18/36/1 19/35/1
f 39/1/1 17/37/1 18/36/1
f 39/1/1 16/38/1 17/37/1
f 39/1/1 15/39/1 16/38/1
f 39/1/1 14/28/1 15/39/1
f 39/1/1 40/40/1 14/28/1
f 40/40/1 41/41/1 14/28/1
f 41/41/1 42/42/1 14/28/1
f 42/42/1 43/43/1 14/28/1
f 43/43/1 44/44/1 14/28/1
f 44/44/1 45/45/1 14/28/1
f 45/45/1 1/7/1 14/28/1
f 45/45/1 46/46/1 1/7/1
f 46/46/1 99/47/1 1/7/1
f 46/46/1 98/48/1 99/47/1
f 46/46/1 47/49/1 98/48/1
f 47/49/1 97/50/1 98/48/1
f 47/49/1 96/51/1 97/50/1
f 47/49/1 48/52/1 96/51/1
f 48/52/1 95/53/1 96/51/1
f 48/52/1 94/54/1 95/53/1
f 48/52/1 49/55/1 94/54/1
f 49/55/1 93/56/1 94/54/1
f 49/55/1 92/57/1 93/56/1
f 49/55/1 50/58/1 92/57/1
f 50/58/1 91/59/1 92/57/1
f 50/58/1 90/60/1 91/59/1
f 50/58/1 51/61/1 90/60/1
f 51/61/1 89/62/1 90/60/1
f 51/61/1 52/63/1 89/62/1
f 52/63/1 53/64/1 89/62/1
f 53/64/1 54/65/1 89/62/1
f 54/65/1 55/66/1 89/62/1
f 55/66/1 57/67/1 89/62/1
f 57/67/1 58/68/1 89/62/1
f 58/68/1 59/69/1 89/62/1
f 59/69/1 61/70/1 89/62/1
f 61/70/1 62/71/1 89/62/1
f 62/71/1 63/72/1 89/62/1
f 63/72/1 88/73/1 89/62/1
f 56/74/1 57/67/1 55/66/1
f 60/75/1 61/70/1 59/69/1
f 64/76/1 88/73/1 63/72/1
f 64/76/1 87/77/1 88/73/1
f 65/78/1 87/77/1 64/76/1
f 65/78/1 86/79/1 87/77/1
f 66/80/1 86/79/1 65/78/1
f 66/80/1 85/81/1 86/79/1
f 67/82/1 85/81/1 66/80/1
f 67/82/1 84/83/1 85/81/1
f 68/84/1 84/83/1 67/82/1
f 68/84/1 83/85/1 84/83/1
f 69/86/1 83/85/1 68/84/1
f 102/87/1 100/88/1 101/89/1
f 102/87/1 149/90/1 100/88/1
f 103/91/1 149/90/1 102/87/1
f 104/92/1 149/90/1 103/91/1
f 69/86/1 82/93/1 83/85/1
f 70/94/1 82/93/1 69/86/1
f 105/95/1 149/90/1 104/92/1
f 106/96/1 149/90/1 105/95/1
f 107/97/1 149/90/1 106/96/1
f 108/98/1 149/90/1 107/97/1
f 70/94/1 81/99/1 82/93/1
f 71/100/1 81/99/1 70/94/1
f 109/101/1 149/90/1 108/98/1
f 110/102/1 149/90/1 109/101/1
f 111/103/1 149/90/1 110/102/1
f 72/104/1 81/99/1 71/100/1
f 112/105/1 149/90/1 111/103/1
f 72/104/1 80/106/1 81/99/1
f 112/105/1 148/107/1 149/90/1
f 113/108/1 148/107/1 112/105/1
f 114/109/1 148/107/1 113/108/1
f 73/110/1 80/106/1 72/104/1
f 73/110/1 79/111/1 80/106/1
f 74/112/1 79/111/1 73/110/1
f 75/113/1 79/111/1 74/112/1
f 75/113/1 78/114/1 79/111/1
f 115/115/1 148/107/1 114/109/1
f 76/116/1 78/114/1 75/113/1
f 115/115/1 147/117/1 148/107/1
f 76/116/1 77/118/1 78/114/1
f 116/119/1 147/117/1 115/115/1
f 116/119/1 146/120/1 147/117/1
f 117/121/1 146/120/1 116/119/1
f 118/122/1 146/120/1 117/121/1
f 118/122/1 145/123/1 146/120/1
f 119/124/1 145/123/1 118/122/1
f 119/124/1 144/125/1 145/123/1
f 120/126/1 144/125/1 119/124/1
f 121/127/1 144/125/1 120/126/1
f 121/127/1 143/128/1 144/125/1
f 122/129/1 143/128/1 121/127/1
f 122/129/1 142/130/1 143/128/1
f 123/131/1 142/130/1 122/129/1
f 124/132/1 142/130/1 123/131/1
f 124/132/1 141/133/1 142/130/1
f 125/134/1 141/133/1 124/132/1
f 125/134/1 140/135/1 141/133/1
f 126/136/1 140/135/1 125/134/1
f 127/137/1 140/135/1 126/136/1
f 128/138/1 140/135/1 127/137/1
f 129/139/1 140/135/1 128/138/1
f 130/140/1 140/135/1 129/139/1
f 131/141/1 140/135/1 130/140/1
f 132/142/1 140/135/1 131/141/1
f 133/143/1 140/135/1 132/142/1
f 134/144/1 140/135/1 133/143/1
f 134/144/1 139/145/1 140/135/1
f 135/146/1 139/145/1 134/144/1
f 136/147/1 139/145/1 135/146/1
f 137/148/1 139/145/1 136/147/1
f 138/149/1 139/145/1 137/148/1
f 226/150/1 224/151/1 225/152/1
f 226/150/1 321/90/1 224/151/1
f 227/153/1 321/90/1 226/150/1
f 227/153/1 320/154/1 321/90/1
f 228/155/1 320/154/1 227/153/1
f 228/155/1 319/156/1 320/154/1
f 229/157/1 319/156/1 228/155/1
f 229/157/1 318/158/1 319/156/1
f 230/159/1 318/158/1 229/157/1
f 230/159/1 317/160/1 318/158/1
f 231/161/1 317/160/1 230/159/1
f 231/161/1 316/162/1 317/160/1
f 232/163/1 316/162/1 231/161/1
f 232/163/1 315/164/1 316/162/1
f 233/165/1 315/164/1 232/163/1
f 233/165/1 314/166/1 315/164/1
f 234/167/1 314/166/1 233/165/1
f 234/167/1 313/168/1 314/166/1
f 235/169/1 313/168/1 234/167/1
f 235/169/1 312/170/1 313/168/1
f 236/171/1 312/170/1 235/169/1
f 236/171/1 311/172/1 312/170/1
f 237/173/1 311/172/1 236/171/1
f 237/173/1 310/174/1 311/172/1
f 238/175/1 310/174/1 237/173/1
f 238/175/1 309/176/1 310/174/1
f 239/177/1 309/176/1 238/175/1
f 239/177/1 308/178/1 309/176/1
f 240/179/1 308/178/1 239/177/1
f 240/179/1 307/180/1 308/178/1
f 241/181/1 307/180/1 240/179/1
f 241/181/1 306/182/1 307/180/1
f 242/183/1 306/182/1 241/181/1
f 242/183/1 305/184/1 306/182/1
f 243/185/1 305/184/1 242/183/1
f 243/185/1 304/186/1 305/184/1
f 244/187/1 304/186/1 243/185/1
f 244/187/1 303/188/1 304/186/1
f 245/189/1 303/188/1 244/187/1
f 245/189/1 302/190/1 303/188/1
f 246/191/1 302/190/1 245/189/1
f 246/191/1 301/192/1 302/190/1
f 247/193/1 301/192/1 246/191/1
f 247/193/1 300/194/1 301/192/1
f 248/195/1 300/194/1 247/193/1
f 248/195/1 299/196/1 300/194/1
f 249/197/1 299/196/1 248/195/1
f 249/197/1 298/198/1 299/196/1
f 250/199/1 298/198/1 249/197/1
f 250/199/1 297/200/1 298/198/1
f 251/201/1 297/200/1 250/199/1
f 251/201/1 296/202/1 297/200/1
f 252/203/1 296/202/1 251/201/1
f 252/203/1 295/204/1 296/202/1
f 253/205/1 295/204/1 252/203/1
f 253/205/1 294/206/1 295/204/1
f 254/207/1 294/206/1 253/205/1
f 255/208/1 294/206/1 254/207/1
f 255/208/1 293/209/1 294/206/1
f 256/210/1 293/209/1 255/208/1
f 256/210/1 292/211/1 293/209/1
f 257/212/1 292/211/1 256/210/1
f 257/212/1 291/213/1 292/211/1
f 258/214/1 291/213/1 257/212/1
f 259/215/1 291/213/1 258/214/1
f 259/215/1 290/216/1 291/213/1
f 260/217/1 290/216/1 259/215/1
f 260/217/1 289/218/1 290/216/1
f 261/219/1 289/218/1 260/217/1
f 261/219/1 288/220/1 289/218/1
f 262/221/1 288/220/1 261/219/1
f 262/221/1 287/222/1 288/220/1
f 263/223/1 287/222/1 262/221/1
f 264/224/1 287/222/1 263/223/1
f 264/224/1 286/225/1 287/222/1
f 265/226/1 286/225/1 264/224/1
f 265/226/1 285/227/1 286/225/1
f 266/228/1 285/227/1 265/226/1
f 267/229/1 285/227/1 266/228/1
f 267/229/1 284/230/1 285/227/1
f 268/231/1 284/230/1 267/229/1
f 268/231/1 283/232/1 284/230/1
f 269/233/1 283/232/1 268/231/1
f 270/234/1 283/232/1 269/233/1
f 270/234/1 282/235/1 283/232/1
f 271/236/1 282/235/1 270/234/1
f 272/237/1 282/235/1 271/236/1
f 272/237/1 281/238/1 282/235/1
f 273/239/1 281/238/1 272/237/1
f 274/240/1 281/238/1 273/239/1
f 274/240/1 280/241/1 281/238/1
f 274/240/1 279/242/1 280/241/1
f 274/240/1 278/243/1 279/242/1
f 274/240/1 277/244/1 278/243/1
f 274/240/1 276/245/1 277/244/1
f 274/240/1 275/246/1 276/245/1
f 152/247/1 150/7/1 151/248/1
f 152/247/1 223/249/1 150/7/1
f 152/247/1 222/250/1 223/249/1
f 153/251/1 222/250/1 152/247/1
f 153/251/1 221/252/1 222/250/1
f 154/253/1 221/252/1 153/251/1
f 154/253/1 220/254/1 221/252/1
f 155/255/1 220/254/1 154/253/1
f 155/255/1 219/256/1 220/254/1
f 156/257/1 219/256/1 155/255/1
f 156/257/1 218/258/1 219/256/1
f 157/259/1 218/258/1 156/257/1
f 157/259/1 217/260/1 218/258/1
f 158/261/1 217/260/1 157/259/1
f 158/261/1 216/262/1 217/260/1
f 159/263/1 216/262/1 158/261/1
f 159/263/1 215/264/1 216/262/1
f 160/265/1 215/264/1 159/263/1
f 160/265/1 214/266/1 215/264/1
f 161/267/1 214/266/1 160/265/1
f 161/267/1 213/268/1 214/266/1
f 162/269/1 213/268/1 161/267/1
f 162/269/1 212/270/1 213/268/1
f 163/271/1 212/270/1 162/269/1
f 164/272/1 212/270/1 163/271/1
f 164/272/1 211/273/1 212/270/1
f 165/274/1 211/273/1 164/272/1
f 165/274/1 210/275/1 211/273/1
f 166/276/1 210/275/1 165/274/1
f 166/276/1 209/277/1 210/275/1
f 167/278/1 209/277/1 166/276/1
f 167/278/1 208/279/1 209/277/1
f 168/280/1 208/279/1 167/278/1
f 168/280/1 207/281/1 208/279/1
f 169/282/1 207/281/1 168/280/1
f 169/282/1 206/283/1 207/281/1
f 170/284/1 206/283/1 169/282/1
f 170/284/1 205/285/1 206/283/1
f 171/286/1 205/285/1 170/284/1
f 171/286/1 204/287/1 205/285/1
f 172/288/1 204/287/1 171/286/1
f 172/288/1 203/289/1 204/287/1
f 173/290/1 203/289/1 172/288/1
f 173/290/1 202/291/1 203/289/1
f 174/292/1 202/291/1 173/290/1
f 174/292/1 201/293/1 202/291/1
f 175/294/1 201/293/1 174/292/1
f 175/294/1 200/295/1 201/293/1
f 176/296/1 200/295/1 175/294/1
f 176/296/1 199/297/1 200/295/1
f 176/296/1 198/298/1 199/297/1
f 177/299/1 198/298/1 176/296/1
f 177/299/1 197/300/1 198/298/1
f 178/301/1 197/300/1 177/299/1
f 178/301/1 196/302/1 197/300/1
f 179/303/1 196/302/1 178/301/1
f 179/303/1 195/304/1 196/302/1
f 180/305/1 195/304/1 179/303/1
f 180/305/1 194/306/1 195/304/1
f 181/307/1 194/306/1 180/305/1
f 181/307/1 193/308/1 194/306/1
f 182/309/1 193/308/1 181/307/1
f 182/309/1 192/310/1 193/308/1
f 183/311/1 192/310/1 182/309/1
f 183/311/1 191/312/1 192/310/1
f 184/313/1 191/312/1 183/311/1
f 184/313/1 190/314/1 191/312/1
f 185/315/1 190/314/1 184/313/1
f 185/315/1 189/316/1 190/314/1
f 186/317/1 189/316/1 185/315/1
f 186/317/1 188/318/1 189/316/1
f 187/319/1 188/318/1 186/317/1
f 324/320/1 322/7/1 323/321/1
f 325/322/1 322/7/1 324/320/1
f 326/323/1 322/7/1 325/322/1
f 327/324/1 322/7/1 326/323/1
f 328/325/1 322/7/1 327/324/1
f 328/325/1 448/90/1 322/7/1
f 329/326/1 448/90/1 328/325/1
f 329/326/1 447/327/1 448/90/1
f 330/328/1 447/327/1 329/326/1
f 330/328/1 446/329/1 447/327/1
f 331/330/1 446/329/1 330/328/1
f 331/330/1 445/331/1 446/329/1
f 332/332/1 445/331/1 331/330/1
f 332/332/1 444/333/1 445/331/1
f 333/334/1 444/333/1 332/332/1
f 333/334/1 443/335/1 444/333/1
f 334/336/1 443/335/1 333/334/1
f 334/336/1 442/337/1 443/335/1
f 335/338/1 442/337/1 334/336/1
f 336/282/1 442/337/1 335/338/1
f 336/282/1 441/339/1 442/337/1
f 336/282/1 440/340/1 441/339/1
f 336/282/1 439/341/1 440/340/1
f 336/282/1 438/342/1 439/341/1
f 337/343/1 438/342/1 336/282/1
f 337/343/1 437/344/1 438/342/1
f 337/343/1 436/345/1 437/344/1
f 338/346/1 436/345/1 337/343/1
f 424/347/1 422/348/1 423/349/1
f 425/350/1 422/348/1 424/347/1
f 426/351/1 422/348/1 425/350/1
f 427/352/1 422/348/1 426/351/1
f 428/353/1 422/348/1 427/352/1
f 429/354/1 422/348/1 428/353/1
f 430/355/1 422/348/1 429/354/1
f 431/356/1 422/348/1 430/355/1
f 432/357/1 422/348/1 431/356/1
f 433/358/1 422/348/1 432/357/1
f 434/190/1 422/348/1 433/358/1
f 435/359/1 422/348/1 434/190/1
f 338/346/1 435/359/1 436/345/1
f 338/346/1 422/348/1 435/359/1
f 339/360/1 422/348/1 338/346/1
f 339/360/1 421/361/1 422/348/1
f 340/362/1 421/361/1 339/360/1
f 340/362/1 420/232/1 421/361/1
f 340/362/1 419/363/1 420/232/1
f 340/362/1 418/364/1 419/363/1
f 340/362/1 417/365/1 418/364/1
f 340/362/1 416/366/1 417/365/1
f 340/362/1 415/367/1 416/366/1
f 340/362/1 414/368/1 415/367/1
f 341/369/1 360/370/1 340/362/1
f 360/370/1 414/368/1 340/362/1
f 360/370/1 413/371/1 414/368/1
f 360/370/1 361/372/1 413/371/1
f 361/372/1 412/373/1 413/371/1
f 341/369/1 359/374/1 360/370/1
f 362/375/1 412/373/1 361/372/1
f 362/375/1 411/376/1 412/373/1
f 362/375/1 410/377/1 411/376/1
f 362/375/1 409/378/1 410/377/1
f 342/379/1 359/374/1 341/369/1
f 342/379/1 358/380/1 359/374/1
f 363/381/1 409/378/1 362/375/1
f 363/381/1 408/382/1 409/378/1
f 342/379/1 357/383/1 358/380/1
f 364/281/1 408/382/1 363/381/1
f 343/384/1 357/383/1 342/379/1
f 343/384/1 356/385/1 357/383/1
f 364/281/1 407/386/1 408/382/1
f 365/387/1 407/386/1 364/281/1
f 344/388/1 356/385/1 343/384/1
f 344/388/1 355/389/1 356/385/1
f 365/387/1 406/224/1 407/386/1
f 366/390/1 406/224/1 365/387/1
f 344/388/1 354/391/1 355/389/1
f 345/392/1 354/391/1 344/388/1
f 366/390/1 405/393/1 406/224/1
f 345/392/1 353/394/1 354/391/1
f 367/395/1 405/393/1 366/390/1
f 346/396/1 353/394/1 345/392/1
f 346/396/1 352/397/1 353/394/1
f 367/395/1 404/398/1 405/393/1
f 368/399/1 404/398/1 367/395/1
f 347/400/1 352/397/1 346/396/1
f 347/400/1 351/401/1 352/397/1
f 368/399/1 403/402/1 404/398/1
f 369/403/1 403/402/1 368/399/1
f 347/400/1 350/318/1 351/401/1
f 348/404/1 350/318/1 347/400/1
f 348/404/1 349/405/1 350/318/1
f 370/406/1 403/402/1 369/403/1
f 370/406/1 402/407/1 403/402/1
f 371/408/1 402/407/1 370/406/1
f 371/408/1 401/409/1 402/407/1
f 372/410/1 401/409/1 371/408/1
f 372/410/1 400/411/1 401/409/1
f 373/412/1 400/411/1 372/410/1
f 373/412/1 399/413/1 400/411/1
f 374/414/1 399/413/1 373/412/1
f 374/414/1 398/415/1 399/413/1
f 375/416/1 398/415/1 374/414/1
f 375/416/1 397/417/1 398/415/1
f 376/418/1 397/417/1 375/416/1
f 376/418/1 396/419/1 397/417/1
f 377/420/1 396/419/1 376/418/1
f 377/420/1 395/421/1 396/419/1
f 378/150/1 395/421/1 377/420/1
f 379/422/1 395/421/1 378/150/1
f 379/422/1 394/423/1 395/421/1
f 380/424/1 394/423/1 379/422/1
f 380/424/1 393/425/1 394/423/1
f 381/426/1 393/425/1 380/424/1
f 381/426/1 392/189/1 393/425/1
f 382/427/1 392/189/1 381/426/1
f 382/427/1 391/428/1 392/189/1
f 383/429/1 391/428/1 382/427/1
f 383/429/1 390/430/1 391/428/1
f 384/431/1 390/430/1 383/429/1
f 385/113/1 390/430/1 384/431/1
f 385/113/1 389/432/1 390/430/1
f 386/433/1 389/432/1 385/113/1
f 386/433/1 388/434/1 389/432/1
f 386/433/1 387/435/1 388/434/1
f 562/436/1 560/437/1 561/438/1
f 563/439/1 560/437/1 562/436/1
f 564/440/1 560/437/1 563/439/1
f 565/441/1 560/437/1 564/440/1
f 565/441/1 559/442/1 560/437/1
f 566/443/1 559/442/1 565/441/1
f 566/443/1 558/444/1 559/442/1
f 566/443/1 557/445/1 558/444/1
f 567/446/1 557/445/1 566/443/1
f 567/446/1 556/447/1 557/445/1
f 568/448/1 556/447/1 567/446/1
f 568/448/1 555/449/1 556/447/1
f 569/450/1 555/449/1 568/448/1
f 569/450/1 554/451/1 555/449/1
f 570/452/1 554/451/1 569/450/1
f 570/452/1 553/453/1 554/451/1
f 571/454/1 553/453/1 570/452/1
f 571/454/1 552/455/1 553/453/1
f 572/456/1 552/455/1 571/454/1
f 572/456/1 551/105/1 552/455/1
f 572/456/1 550/457/1 551/105/1
f 573/458/1 550/457/1 572/456/1
f 573/458/1 549/459/1 550/457/1
f 574/460/1 549/459/1 573/458/1
f 574/460/1 548/461/1 549/459/1
f 574/460/1 547/462/1 548/461/1
f 575/463/1 547/462/1 574/460/1
f 575/463/1 546/464/1 547/462/1
f 576/465/1 546/464/1 575/463/1
f 576/465/1 545/466/1 546/464/1
f 577/467/1 545/466/1 576/465/1
f 577/467/1 544/468/1 545/466/1
f 578/469/1 544/468/1 577/467/1
f 578/469/1 543/470/1 544/468/1
f 579/471/1 543/470/1 578/469/1
f 579/471/1 542/472/1 543/470/1
f 512/473/1 510/474/1 511/475/1
f 580/476/1 542/472/1 579/471/1
f 580/476/1 541/477/1 542/472/1
f 512/473/1 509/478/1 510/474/1
f 513/479/1 509/478/1 512/473/1
f 514/480/1 509/478/1 513/479/1
f 514/480/1 508/481/1 509/478/1
f 581/482/1 541/477/1 580/476/1
f 515/483/1 508/481/1 514/480/1
f 581/482/1 540/484/1 541/477/1
f 516/485/1 508/481/1 515/483/1
f 517/113/1 508/481/1 516/485/1
f 517/113/1 507/486/1 508/481/1
f 518/487/1 507/486/1 517/113/1
f 582/488/1 540/484/1 581/482/1
f 582/488/1 539/489/1 540/484/1
f 519/490/1 507/486/1 518/487/1
f 519/490/1 506/491/1 507/486/1
f 520/492/1 506/491/1 519/490/1
f 521/493/1 506/491/1 520/492/1
f 582/488/1 538/494/1 539/489/1
f 521/493/1 505/495/1 506/491/1
f 583/496/1 538/494/1 582/488/1
f 522/497/1 505/495/1 521/493/1
f 523/498/1 505/495/1 522/497/1
f 523/498/1 504/499/1 505/495/1
f 583/496/1 537/500/1 538/494/1
f 584/501/1 537/500/1 583/496/1
f 524/502/1 504/499/1 523/498/1
f 525/503/1 504/499/1 524/502/1
f 525/503/1 503/504/1 504/499/1
f 526/505/1 503/504/1 525/503/1
f 527/506/1 503/504/1 526/505/1
f 528/507/1 503/504/1 527/506/1
f 584/501/1 536/508/1 537/500/1
f 529/509/1 503/504/1 528/507/1
f 585/90/1 536/508/1 584/501/1
f 530/510/1 503/504/1 529/509/1
f 531/511/1 503/504/1 530/510/1
f 532/512/1 503/504/1 531/511/1
f 533/513/1 503/504/1 532/512/1
f 534/514/1 503/504/1 533/513/1
f 534/514/1 502/515/1 503/504/1
f 535/516/1 502/515/1 534/514/1
f 536/508/1 502/515/1 535/516/1
f 585/90/1 502/515/1 536/508/1
f 449/7/1 502/515/1 585/90/1
f 450/517/1 502/515/1 449/7/1
f 451/518/1 502/515/1 450/517/1
f 452/519/1 502/515/1 451/518/1
f 453/520/1 502/515/1 452/519/1
f 454/521/1 502/515/1 453/520/1
f 462/522/1 460/523/1 461/524/1
f 455/525/1 502/515/1 454/521/1
f 462/522/1 459/526/1 460/523/1
f 456/527/1 502/515/1 455/525/1
f 462/522/1 458/528/1 459/526/1
f 457/529/1 502/515/1 456/527/1
f 462/522/1 457/529/1 458/528/1
f 462/522/1 467/530/1 457/529/1
f 467/530/1 468/531/1 457/529/1
f 468/531/1 469/532/1 457/529/1
f 469/532/1 470/533/1 457/529/1
f 470/533/1 471/534/1 457/529/1
f 471/534/1 472/535/1 457/529/1
f 472/535/1 486/536/1 457/529/1
f 486/536/1 502/515/1 457/529/1
f 472/535/1 485/537/1 486/536/1
f 487/538/1 502/515/1 486/536/1
f 487/538/1 501/539/1 502/515/1
f 472/535/1 484/540/1 485/537/1
f 472/535/1 483/3/1 484/540/1
f 488/541/1 501/539/1 487/538/1
f 472/535/1 482/542/1 483/3/1
f 472/535/1 481/543/1 482/542/1
f 489/544/1 501/539/1 488/541/1
f 472/535/1 473/545/1 481/543/1
f 473/545/1 480/546/1 481/543/1
f 489/544/1 500/547/1 501/539/1
f 490/548/1 500/547/1 489/544/1
f 473/545/1 479/549/1 480/546/1
f 473/545/1 478/550/1 479/549/1
f 491/551/1 500/547/1 490/548/1
f 473/545/1 477/552/1 478/550/1
f 473/545/1 476/553/1 477/552/1
f 492/554/1 500/547/1 491/551/1
f 473/545/1 475/555/1 476/553/1
f 492/554/1 499/556/1 500/547/1
f 473/545/1 474/557/1 475/555/1
f 493/558/1 499/556/1 492/554/1
f 462/522/1 466/559/1 467/530/1
f 462/522/1 465/560/1 466/559/1
f 462/522/1 464/561/1 465/560/1
f 462/522/1 463/562/1 464/561/1
f 494/563/1 499/556/1 493/558/1
f 495/564/1 499/556/1 494/563/1
f 495/564/1 496/565/1 499/556/1
f 496/565/1 497/566/1 499/556/1
f 497/566/1 498/567/1 499/556/1
f 587/568/1 659/90/1 586/7/1
f 625/569/1 623/570/1 624/571/1
f 626/572/1 623/570/1 625/569/1
f 587/568/1 658/573/1 659/90/1
f 627/574/1 623/570/1 626/572/1
f 587/568/1 657/575/1 658/573/1
f 628/576/1 623/570/1 627/574/1
f 587/568/1 656/577/1 657/575/1
f 629/578/1 623/570/1 628/576/1
f 587/568/1 655/579/1 656/577/1
f 630/580/1 623/570/1 629/578/1
f 587/568/1 654/581/1 655/579/1
f 631/582/1 623/570/1 630/580/1
f 587/568/1 653/583/1 654/581/1
f 632/584/1 623/570/1 631/582/1
f 587/568/1 652/585/1 653/583/1
f 633/586/1 623/570/1 632/584/1
f 587/568/1 651/587/1 652/585/1
f 634/588/1 623/570/1 633/586/1
f 587/568/1 650/589/1 651/587/1
f 635/590/1 623/570/1 634/588/1
f 587/568/1 649/591/1 650/589/1
f 636/592/1 623/570/1 635/590/1
f 587/568/1 648/593/1 649/591/1
f 587/568/1 647/594/1 648/593/1
f 587/568/1 646/595/1 647/594/1
f 587/568/1 645/596/1 646/595/1
f 587/568/1 644/597/1 645/596/1
f 587/568/1 643/598/1 644/597/1
f 587/568/1 642/599/1 643/598/1
f 587/568/1 641/600/1 642/599/1
f 587/568/1 640/601/1 641/600/1
f 587/568/1 639/602/1 640/601/1
f 587/568/1 638/603/1 639/602/1
f 587/568/1 637/604/1 638/603/1
f 587/568/1 636/592/1 637/604/1
f 587/568/1 588/605/1 636/592/1
f 588/605/1 589/606/1 636/592/1
f 589/606/1 590/607/1 636/592/1
f 590/607/1 591/608/1 636/592/1
f 591/608/1 592/609/1 636/592/1
f 592/609/1 593/610/1 636/592/1
f 593/610/1 594/611/1 636/592/1
f 594/611/1 595/612/1 636/592/1
f 595/612/1 596/613/1 636/592/1
f 596/613/1 597/614/1 636/592/1
f 597/614/1 598/615/1 636/592/1
f 598/615/1 599/616/1 636/592/1
f 599/616/1 600/617/1 636/592/1
f 600/617/1 601/618/1 636/592/1
f 601/618/1 602/619/1 636/592/1
f 602/619/1 605/620/1 636/592/1
f 605/620/1 607/621/1 636/592/1
f 607/621/1 611/622/1 636/592/1
f 611/622/1 612/623/1 636/592/1
f 612/623/1 613/624/1 636/592/1
f 613/624/1 614/625/1 636/592/1
f 614/625/1 615/626/1 636/592/1
f 615/626/1 616/627/1 636/592/1
f 616/627/1 617/628/1 636/592/1
f 617/628/1 618/629/1 636/592/1
f 618/629/1 623/570/1 636/592/1
f 603/630/1 605/620/1 602/619/1
f 604/631/1 605/620/1 603/630/1
f 606/632/1 607/621/1 605/620/1
f 608/633/1 611/622/1 607/621/1
f 609/634/1 611/622/1 608/633/1
f 610/635/1 611/622/1 609/634/1
f 619/636/1 623/570/1 618/629/1
f 620/637/1 623/570/1 619/636/1
f 621/638/1 623/570/1 620/637/1
f 622/639/1 623/570/1 621/638/1
f 687/640/1 711/641/1 686/642/1
f 687/640/1 710/304/1 711/641/1
f 687/640/1 709/643/1 710/304/1
f 688/644/1 709/643/1 687/640/1
f 688/644/1 708/645/1 709/643/1
f 689/646/1 708/645/1 688/644/1
f 661/647/1 685/648/1 660/7/1
f 690/299/1 708/645/1 689/646/1
f 690/299/1 707/649/1 708/645/1
f 661/647/1 684/650/1 685/648/1
f 691/651/1 707/649/1 690/299/1
f 691/651/1 706/652/1 707/649/1
f 714/653/1 712/654/1 713/655/1
f 661/647/1 683/656/1 684/650/1
f 662/657/1 683/656/1 661/647/1
f 715/658/1 712/654/1 714/653/1
f 692/659/1 706/652/1 691/651/1
f 692/659/1 705/660/1 706/652/1
f 662/657/1 682/661/1 683/656/1
f 716/662/1 712/654/1 715/658/1
f 663/663/1 682/661/1 662/657/1
f 716/662/1 850/90/1 712/654/1
f 693/664/1 705/660/1 692/659/1
f 717/665/1 850/90/1 716/662/1
f 693/664/1 704/666/1 705/660/1
f 663/663/1 681/667/1 682/661/1
f 717/665/1 849/668/1 850/90/1
f 664/669/1 681/667/1 663/663/1
f 718/670/1 849/668/1 717/665/1
f 718/670/1 848/671/1 849/668/1
f 694/672/1 704/666/1 693/664/1
f 719/673/1 848/671/1 718/670/1
f 694/672/1 703/674/1 704/666/1
f 664/669/1 680/280/1 681/667/1
f 719/673/1 847/675/1 848/671/1
f 665/676/1 680/280/1 664/669/1
f 720/287/1 847/675/1 719/673/1
f 720/287/1 846/677/1 847/675/1
f 695/678/1 703/674/1 694/672/1
f 695/678/1 702/679/1 703/674/1
f 721/680/1 846/677/1 720/287/1
f 666/681/1 680/280/1 665/676/1
f 666/681/1 679/682/1 680/280/1
f 721/680/1 845/683/1 846/677/1
f 722/684/1 845/683/1 721/680/1
f 722/684/1 844/685/1 845/683/1
f 696/686/1 702/679/1 695/678/1
f 696/686/1 701/687/1 702/679/1
f 723/688/1 844/685/1 722/684/1
f 667/689/1 679/682/1 666/681/1
f 723/688/1 843/690/1 844/685/1
f 667/689/1 678/691/1 679/682/1
f 724/692/1 843/690/1 723/688/1
f 724/692/1 842/693/1 843/690/1
f 697/694/1 701/687/1 696/686/1
f 697/694/1 700/317/1 701/687/1
f 724/692/1 841/695/1 842/693/1
f 668/696/1 678/691/1 667/689/1
f 725/697/1 841/695/1 724/692/1
f 668/696/1 677/698/1 678/691/1
f 697/694/1 698/699/1 700/317/1
f 698/699/1 699/700/1 700/317/1
f 725/697/1 840/170/1 841/695/1
f 726/701/1 840/170/1 725/697/1
f 726/701/1 839/702/1 840/170/1
f 669/703/1 677/698/1 668/696/1
f 669/703/1 676/704/1 677/698/1
f 726/701/1 838/705/1 839/702/1
f 727/706/1 838/705/1 726/701/1
f 727/706/1 837/707/1 838/705/1
f 669/703/1 675/708/1 676/704/1
f 670/263/1 675/708/1 669/703/1
f 728/709/1 837/707/1 727/706/1
f 728/709/1 836/710/1 837/707/1
f 670/263/1 674/711/1 675/708/1
f 671/712/1 674/711/1 670/263/1
f 729/713/1 836/710/1 728/709/1
f 729/713/1 835/714/1 836/710/1
f 671/712/1 672/715/1 674/711/1
f 672/715/1 673/716/1 674/711/1
f 729/713/1 834/717/1 835/714/1
f 730/268/1 834/717/1 729/713/1
f 730/268/1 833/718/1 834/717/1
f 731/719/1 833/718/1 730/268/1
f 731/719/1 832/720/1 833/718/1
f 731/719/1 831/721/1 832/720/1
f 732/722/1 831/721/1 731/719/1
f 732/722/1 830/188/1 831/721/1
f 733/723/1 830/188/1 732/722/1
f 733/723/1 829/724/1 830/188/1
f 734/725/1 829/724/1 733/723/1
f 734/725/1 828/726/1 829/724/1
f 734/725/1 827/727/1 828/726/1
f 735/728/1 827/727/1 734/725/1
f 815/729/1 813/730/1 814/731/1
f 816/732/1 813/730/1 815/729/1
f 817/733/1 813/730/1 816/732/1
f 818/734/1 813/730/1 817/733/1
f 819/735/1 813/730/1 818/734/1
f 820/206/1 813/730/1 819/735/1
f 821/736/1 813/730/1 820/206/1
f 822/737/1 813/730/1 821/736/1
f 823/738/1 813/730/1 822/737/1
f 824/739/1 813/730/1 823/738/1
f 825/740/1 813/730/1 824/739/1
f 826/741/1 813/730/1 825/740/1
f 735/728/1 826/741/1 827/727/1
f 735/728/1 813/730/1 826/741/1
f 736/742/1 813/730/1 735/728/1
f 737/743/1 813/730/1 736/742/1
f 738/744/1 811/745/1 737/743/1
f 811/745/1 812/746/1 737/743/1
f 812/746/1 813/730/1 737/743/1
f 739/747/1 806/748/1 738/744/1
f 806/748/1 807/749/1 738/744/1
f 807/749/1 808/750/1 738/744/1
f 808/750/1 809/751/1 738/744/1
f 809/751/1 810/227/1 738/744/1
f 810/227/1 811/745/1 738/744/1
f 740/250/1 762/752/1 739/747/1
f 762/752/1 763/753/1 739/747/1
f 763/753/1 800/245/1 739/747/1
f 800/245/1 801/754/1 739/747/1
f 801/754/1 802/755/1 739/747/1
f 802/755/1 803/756/1 739/747/1
f 803/756/1 804/757/1 739/747/1
f 804/757/1 805/758/1 739/747/1
f 805/758/1 806/748/1 739/747/1
f 740/250/1 761/759/1 762/752/1
f 764/760/1 800/245/1 763/753/1
f 764/760/1 799/761/1 800/245/1
f 741/762/1 761/759/1 740/250/1
f 741/762/1 760/179/1 761/759/1
f 742/763/1 760/179/1 741/762/1
f 742/763/1 759/764/1 760/179/1
f 743/765/1 759/764/1 742/763/1
f 743/765/1 758/766/1 759/764/1
f 765/767/1 799/761/1 764/760/1
f 744/768/1 758/766/1 743/765/1
f 765/767/1 798/769/1 799/761/1
f 744/768/1 757/770/1 758/766/1
f 745/771/1 757/770/1 744/768/1
f 745/771/1 756/772/1 757/770/1
f 746/773/1 756/772/1 745/771/1
f 766/774/1 798/769/1 765/767/1
f 746/773/1 755/113/1 756/772/1
f 747/775/1 755/113/1 746/773/1
f 766/774/1 797/776/1 798/769/1
f 747/775/1 754/777/1 755/113/1
f 748/778/1 754/777/1 747/775/1
f 749/779/1 754/777/1 748/778/1
f 749/779/1 753/780/1 754/777/1
f 750/161/1 753/780/1 749/779/1
f 767/781/1 797/776/1 766/774/1
f 750/161/1 752/782/1 753/780/1
f 750/161/1 751/783/1 752/782/1
f 767/781/1 796/784/1 797/776/1
f 768/785/1 796/784/1 767/781/1
f 768/785/1 795/786/1 796/784/1
f 769/787/1 795/786/1 768/785/1
f 770/197/1 795/786/1 769/787/1
f 770/197/1 794/788/1 795/786/1
f 771/789/1 794/788/1 770/197/1
f 771/789/1 793/790/1 794/788/1
f 772/791/1 793/790/1 771/789/1
f 772/791/1 792/792/1 793/790/1
f 773/793/1 792/792/1 772/791/1
f 774/794/1 792/792/1 773/793/1
f 774/794/1 791/795/1 792/792/1
f 775/796/1 791/795/1 774/794/1
f 776/797/1 791/795/1 775/796/1
f 777/798/1 791/795/1 776/797/1
f 778/799/1 791/795/1 777/798/1
f 778/799/1 790/229/1 791/795/1
f 779/800/1 790/229/1 778/799/1
f 780/214/1 790/229/1 779/800/1
f 781/801/1 790/229/1 780/214/1
f 782/802/1 790/229/1 781/801/1
f 783/803/1 790/229/1 782/802/1
f 784/804/1 790/229/1 783/803/1
f 785/805/1 790/229/1 784/804/1
f 786/806/1 790/229/1 785/805/1
f 787/807/1 790/229/1 786/806/1
f 787/807/1 789/808/1 790/229/1
f 788/809/1 789/808/1 787/807/1
